<?xml version="1.0" encoding="UTF-8"?>
<svg id="a" data-name="Layer 9" xmlns="http://www.w3.org/2000/svg" xmlns:xlink="http://www.w3.org/1999/xlink" viewBox="0 0 1931.92 1100.15">
  <defs>
    <style>
      .e {
        fill: url(#c);
      }

      .f {
        fill: url(#d);
      }

      .g {
        fill: url(#b);
      }
    </style>
    <linearGradient id="b" x1="513.01" y1="549.89" x2="1426.01" y2="549.89" gradientUnits="userSpaceOnUse">
      <stop offset="0" stop-color="#157fff"/>
      <stop offset="1" stop-color="#0037bf"/>
      <stop offset="1" stop-color="#0444c3"/>
      <stop offset="1" stop-color="#1169ce"/>
      <stop offset="1" stop-color="#1b86d6"/>
      <stop offset="1" stop-color="#239add"/>
      <stop offset="1" stop-color="#27a6e0"/>
      <stop offset="1" stop-color="#29abe2"/>
    </linearGradient>
    <linearGradient id="c" x1="769.68" y1="483.91" x2="897.8" y2="483.91" xlink:href="#b"/>
    <linearGradient id="d" x1="752.3" y1="432.02" x2="934.72" y2="432.02" xlink:href="#b"/>
  </defs>
  <path class="g" d="M1138.87,982.51c21.96-21.5,46.77-40.7,67.27-64.1,56.49-64.47,89.86-153.92,82.57-239.92-13.42,4.97-24.55,14.02-37.62,19.91-88.76,40-197.73,24.38-244.51-66.79-1.16-2.26,1.14-4.1-4.52-3.09-19.77,80.18-107.89,106.49-178.1,125.99l28.03,14.28c59.89,44.2,60.65,134.03,49.51,201.16-3.95,23.83-10.3,55.45-26.53,73.38-1.18-12.9,6.33-25.64,9.61-38.17,17.07-65.26,28.36-182.87-34.71-227.73-31.59-22.47-56.4-13.59-88.2.57-63.85,28.44-120.48,114.89-190.77,39.49-12.22-13.11-10.39-11.78-25.01-22.77-11.94-8.97-20.6-24.22-21.67-39.19-.43-6.01,2.11-13.7,1.57-17.02-.41-2.53-4.98-6.93-6.33-10.75-5.15-14.57-7.72-23.14-5.85-39.28,3.24-28.02,52.78-107.6,68.22-138.1,21.28-42.02,41.28-84.7,61.75-127.12-17.74-25.83-32.95-53.51-42.17-83.68-18.99-62.14-15.58-133.88,27.13-185.54,55.7-67.38,144.44-82.93,215.99-29.35,11.38,8.52,18.81,20.9,30.31,28.04,8.65-4.71,26.62-4.31,33.78-7.48,3.31-1.47,25.2-24.16,31.58-29.23,106.73-84.7,274.82-77.63,376.78,11.86,156.82,137.63,139.91,416.44-21.54,543.36,12.41,92.04-25.23,188.65-85.97,257.01-18.35,20.66-43.78,46.74-70.61,54.24ZM1160.6,265.82l35.43,4.09c32.25-41.98,49.08-100.13,30.75-151.72-3.25-9.14-19.3-38.08-27.26-42.24-18.96-9.9-60.9-9.06-82.37-9.91,65.37,43.32,76.06,132.39,43.45,199.77ZM1117.16,270.17l34.76-5.4c28.93-53.89,24.98-144.55-27.54-183.17-17.05-12.54-28.4-14.79-49.55-13.38-8.23.55-40.58,6.26-46.75,9.72-1.04.58-2.79,2.8-2.15,3.26,83.68,11.68,107.49,118.33,91.23,188.96ZM1214.88,81.25c45.24,59.55,29.1,133.55-8.66,192.07l27.15,14.27c48.7-29.59,84.67-107.8,56.89-161.21-12.85-24.71-50.26-37.11-75.39-45.12ZM1069.38,289.71l34.64-16.38c10.73-7.37,9.93-60.22,8.87-73.82-6.91-88.17-91.2-154.48-162.96-77.04,83.6-3.17,130.72,94.26,119.46,167.24ZM681.7,124.67c13.14-.9,27.88,0,41.26,0,5.86,0,31.58,8.62,38.58,11.37,20.66,8.13,46.13,24.26,58.12,42.92,10.36-9.2,29.76-13.02,39.86-19.81,1.88-1.27,4.07-2.16,3.43-5.02-.33-1.5-18.82-19.32-21.8-21.68-50.78-40.12-116.79-42.73-169.22-5.63,3.69,1.53,7.7-2.01,9.77-2.15ZM1034.63,320.12c3.76.98,4.34-1.56,6.52-3.23,2.75-2.11,18.47-17.38,19.65-19.44,6.11-10.64-.56-58.65-3.85-72.4-9.26-38.73-38.6-79.33-77.6-91.8-46.2-14.77-57.9,12.02-85.9,41.36,80.89-15.77,152.84,67.89,141.18,145.52ZM1301.77,129.02c20.31,62.94-11.46,123.62-58.49,164.26l22.96,26.5c55.78-17.47,117.07-92.43,78.59-150.23-4.89-7.35-29.2-31.66-36.54-37.3-2.18-1.67-2.75-4.21-6.52-3.23ZM813.09,185.45c2.05-2.73-13.38-17.06-16.33-19.47-53.46-43.68-151.08-55.46-179.15,22.74,5.78-1.84,10.19-7.33,15.94-10.13,47.61-23.2,109.05-3.97,145.88,30.71,9.97-8.69,21.17-19.71,33.66-23.85ZM895.62,157.27c-81.74,18.04-149.92,85.28-190.08,156.3-64.76,114.55-109.63,247.89-179.54,361.25-9.26,24.31-3.18,51.83,16.71,68.81,2.81-13.37,5.18-26.71,15.12-36.99,12.03-12.45,33.3-10.88,35.94-32.5,15.26,3.11,9.05,25.66,1.12,34.81-10.47,12.08-21.4,9.34-32.35,15.43-11.35,6.3-11.93,22.76-12.24,34.45l-17.35-10.84c1.59,61.49,64.58,54.2,104.89,32.14,6.36-3.48,54.99-39.68,57.97-36.48.77,4.4-.48,5.77-3.2,8.72-4.52,4.9-29.72,21.58-36.9,26.08-25.11,15.74-50.81,28.26-81.49,26.01,5.64,13.02,21.46,24.72,34.78,29.27,51.82,17.69,76.02-20.38,113.93-44.53,77-49.03,203.72-51.66,256.12-128.29,30.66-44.83,10.16-68.66,19.22-115.43,4.35-22.47,30.57-70.28,58.19-61.49,22.04,7.02,0,45.99-.17,63.2-.38,36.45,33.38,70.47,68.7,74.59,150.85,17.58,214.43-195.24,132.07-299.29-59.87-75.63-179.92-59.01-226.77,21.51,67.43-33.65,123.67,2.75,186.79,20.64,20.58,5.84,53.49.72,34.36,27.87-16.19,22.98-54.64,60.89-80.68,71.35-34.87,14-58.96,7.85-93.75,10.5-11.23.85-24.72,5.96-34.78,6.53-3.42.19-3.71.39-3.24-3.26,6.44-13.1,76.9-9.65,94.2-12.23,50.72-7.57,75.59-36.38,107.75-72.51l-35.85,9.76c-49.44,2.63-101.85-24.34-142.23,17.37,12.27-3.61,22.29-5.51,35.28-3.76,3.19.43,36.68,10.27,29.86,16.81-42.96-18.79-79.54-8.06-107.49,28.22.22-16.5,22.19-37.57,34.81-47.72,65.68-52.88,109.95-3.08,175.38-26.59,3.99-1.43,12.27-4.63,14.59-8.18-57.16-7.36-106.89-44.4-166.1-39.08-31.32,2.82-61.33,18.51-81.41,42.38l-17.42,24.9c-3.05-8.74,5.64-16.94,6.49-22.99,2.49-17.66-41.34-58.22-55.8-67.81-38.72-25.67-74.71-27.11-117.95-11.29,12.82-56.06,47.84-103.34,82.53-147.64ZM745.39,243.71c.66-.39,1.86-4.41,3.52-6.13,5.75-5.94,16.63-14.52,20.82-20.55,1.31-1.88,3.7-2.98,1.09-5.55-55.91-50.93-178.9-53.43-170.54,47.83,35.6-35.77,76.24-42.95,123.07-24.27,5.78,2.3,17.01,11.65,22.04,8.67ZM1015.1,348.36c9.02-6.44,12.03-20.97,12.98-31.53,6.23-69.81-53.6-144-127.02-135.71-26.39,2.98-40.17,40.94-53.2,60.8,77.31-33.86,155.84,29.96,167.25,106.44ZM1286.82,358.98c46.9-1.2,104.97-35.44,110.36-85.76,2.16-20.15-22.93-55.28-30.3-74.69l-5.88,36.43c-13.32,44.08-49.52,73.25-89.43,92.74l15.24,31.29ZM737.08,250.66c-39.65-21.71-85.63-26.09-121.64,5.38-22.92,20.03-15.04,34.89-10.82,61.91,3.76.97,4.34-1.56,6.52-3.24,16.66-12.83,20.6-21.56,43.9-27.77,20.95-5.58,37.53-2.93,58.18-2.63l23.87-33.65ZM826.15,291.9c68.86-23.88,134.03,23.69,168.29,80.32,5.78-10.05,15.05-11.72,13.64-24.32-6.79-60.85-72.73-117.19-134.7-105.39-30.49,5.81-40.98,19.63-47.23,49.39ZM1401.68,285.39c-13.16,50.35-61.72,74.89-109.83,82.44,4.45,14.13-.18,32.29,17.72,34.61,30.01,3.89,67.8-8.97,90.95-28.07,19.85-16.37,17.07-19.35,13.57-43.88-1.67-11.69-5.13-27.86-8.74-39.07-.73-2.27-.55-6.56-3.67-6.04ZM706.68,294.09c-30.78-6.97-62.61-.05-85.84,21.64-2.37,2.21-9.88,9-10.79,10.97-4.92,10.62,11.03,36.37,14.14,47.71l24.59-19.89,32.93-12.68,24.98-47.75ZM676.27,352.73c-18.46,3.48-34.23,14.53-46.67,28.13-1.54,3.49,14.17,29.21,17.38,30.46,3.6,1.4,5.93-7.4,7.24-10.08,7.81-15.88,13.55-32.95,22.04-48.52ZM1419.02,372.27l-34.65,22.89c-25.71,11.65-54.2,19.68-82.67,14.97-5.08,3.61,1.58,26.95,1.01,33.93,21.63,12.43,96.96,11.97,109.96-9.75,3.21-5.36,8.42-59.64,6.35-62.04ZM1412.51,446.11c-7.63,3.31-14.08,6.76-22.23,9.24-28.94,8.81-60.06,7.4-88.5-2.73l-4.48,37.56c16.31,19.76,91.87,27.52,103.96,6.56,2.04-3.54,13-48.72,11.25-50.62ZM1056.06,491.99c-14.07-8.92-49.01,34.91-47.33,49.47,12.8,5.1,27.11,10.93,40.08,2.44-1.21-9.54,15.08-46.95,7.25-51.91ZM1395.13,511.26c-24.88,8.85-52.21,8.91-77.17.07-9.01-3.19-15.96-9.81-24.87-10.95l-8.42,31.09c10.13,17.83,79.14,43.06,91.05,28.19,3.15-3.94,21.2-46.49,19.41-48.41ZM1369.08,569.89h-31.49c-3.59,0-26.87-9.44-31.58-11.85-7.57-3.87-21.21-16.99-24.94-18.51-3.67-1.49-2.94,1.53-3.77,2.69-5.31,7.41-17.21,23.23-12.57,31.05,11.24,18.95,63.62,47.3,83.79,31.43,3.12-2.45,22.21-33.31,20.58-34.8ZM1049.81,554.7c-15.1-.02-29.15,1.49-43.4-4.36l-1.2,37.02c12.91,7.04,24.57,8.21,38.57,3.64,24.18-7.89,3.44-17.69,6.03-36.29ZM1336.5,617.69c-33.46,1.46-58.31-17.98-79.57-41.13l-22.22,20.93c2.69,19.9,38.83,70.03,60.39,62.52,5.37-1.87,44.1-40.42,41.4-42.32ZM1006.4,598.13c-.29,8.85,5.08,35.23,14.09,36.92,20.08,3.77,46.41-7.83,57.04-25.03l-15.98-18.24c-17.31,10.18-35.8,10.89-55.15,6.35ZM1284.38,667.65c-30.3-8.96-44.7-38.87-57.54-65.14l-26.1,17.3c-8.48,18.75,11.7,77.67,34.24,75.64,5.97-.54,51.67-24.83,49.41-27.8ZM1114.98,628.57l-29.01-12.85c-13.15,13.94-27.95,22.95-46.89,27.04-4.53.98-16.78-.83-15.28,4.19,7.35,11.31,24.9,35.19,39.56,33.32,19.66-2.51,43.94-34.41,51.63-51.7ZM1190.98,624.19l-34.36,6.88c-9.06,14.75-11.72,71.67,7.67,77.37,7.52,2.21,54.36-3.33,57.09-9.33-23.58-15.79-31.9-47.83-30.41-74.91ZM1147.55,630.71c-31.78-6.65-28.63,14.45-44.49,32.59-10.02,11.46-22.2,16.79-33.68,26.01,26.06,11.46,53.48,20.51,82.52,19.55-16.44-22.86-11.67-52.76-4.35-78.15Z"/>
  <path class="e" d="M897.8,456.93l-32.58-6.47c18.97,43.42-42.56,74.49-66.23,32.56l-29.31,43.43c13.69-34.39,27.8-79.47,70.8-84.47,18.96-2.2,43.07,1.17,57.32,14.95ZM856.52,478.68c-1.33-1.26-14.88,5.44-22.64-.17-6.62-4.79.41-17.87-11.15-19.45-13.21-1.81-17.98,13.87-10.67,23.91,9.01,12.38,40.67,13.17,44.47-4.29Z"/>
  <path class="f" d="M934.72,420.01c-20.31-7.47-38.23-20.54-60.28-23.31-65.06-8.16-91.49,21.97-117.25,75.02-1.43,2.94,1.39,5.98-4.89,4.76,10.71-87.92,123.38-118.77,182.42-56.48Z"/>
</svg>