<?xml version="1.0" encoding="UTF-8"?>
<svg xmlns="http://www.w3.org/2000/svg" xmlns:xlink="http://www.w3.org/1999/xlink" viewBox="0 0 1920 1080">
  <defs>
    <style>
      .j {
        fill: #ffe3b5;
      }

      .k {
        fill: #ffc5ab;
      }

      .l {
        fill: #fec35a;
      }

      .m {
        fill: #ffecb9;
      }

      .n {
        fill: url(#d);
      }

      .o {
        fill: url(#h);
      }

      .p {
        fill: #ffd7b1;
      }

      .q {
        fill: #fe944a;
      }

      .r {
        fill: url(#g);
      }

      .s {
        fill: #feb254;
      }

      .t {
        fill: url(#i);
      }

      .u {
        fill: url(#f);
      }

      .v {
        fill: #ffcdae;
      }

      .w {
        fill: #fe7e42;
      }

      .x {
        fill: url(#b);
      }

      .y {
        fill: #ffd360;
      }

      .z {
        fill: #fea34f;
      }
    </style>
    <linearGradient id="b" x1="959.89" y1="730.36" x2="959.89" y2="-9.89" gradientUnits="userSpaceOnUse">
      <stop offset="0" stop-color="#fffe3e"/>
      <stop offset="0" stop-color="#fff"/>
      <stop offset=".03" stop-color="#f1f9fd"/>
      <stop offset=".17" stop-color="#bce5f6"/>
      <stop offset=".31" stop-color="#8fd3ef"/>
      <stop offset=".45" stop-color="#6ac4ea"/>
      <stop offset=".59" stop-color="#4db9e6"/>
      <stop offset=".73" stop-color="#39b1e4"/>
      <stop offset=".87" stop-color="#2dace2"/>
      <stop offset="1" stop-color="#29abe2"/>
    </linearGradient>
    <linearGradient id="d" x1="1723.59" y1="493.88" x2="1700.69" y2="1491.34" gradientTransform="translate(-1.21 270.02) scale(.56)" gradientUnits="userSpaceOnUse">
      <stop offset="0" stop-color="#fffe3e"/>
      <stop offset="1" stop-color="#fe4900"/>
    </linearGradient>
    <linearGradient id="f" x1="956.45" y1="421.47" x2="956.45" y2="684.06" gradientUnits="userSpaceOnUse">
      <stop offset="0" stop-color="#fffe3e"/>
      <stop offset="0" stop-color="#fffe3e"/>
      <stop offset=".12" stop-color="#fee535"/>
      <stop offset=".55" stop-color="#fe9118"/>
      <stop offset=".85" stop-color="#fe5d06"/>
      <stop offset="1" stop-color="#fe4900"/>
    </linearGradient>
    <linearGradient id="g" x1="1828.02" y1="424.76" x2="1828.02" y2="557.38" gradientUnits="userSpaceOnUse">
      <stop offset="0" stop-color="#fffe3e" stop-opacity=".4"/>
      <stop offset="1" stop-color="#fe4900"/>
    </linearGradient>
    <linearGradient id="h" x1="281.62" y1="373.57" x2="277.27" y2="623.03" gradientUnits="userSpaceOnUse">
      <stop offset="0" stop-color="#fffe3e"/>
      <stop offset=".26" stop-color="#fec82b"/>
      <stop offset=".61" stop-color="#fe8414"/>
      <stop offset=".87" stop-color="#fe5905"/>
      <stop offset="1" stop-color="#fe4900"/>
    </linearGradient>
    <linearGradient id="i" x1="1149.47" y1="343.33" x2="1149.47" y2="586.33" gradientUnits="userSpaceOnUse">
      <stop offset="0" stop-color="#fffe3e" stop-opacity=".4"/>
      <stop offset=".17" stop-color="#fec82b" stop-opacity=".58"/>
      <stop offset=".34" stop-color="#fe9a1b" stop-opacity=".73"/>
      <stop offset=".52" stop-color="#fe760f" stop-opacity=".85"/>
      <stop offset=".68" stop-color="#fe5d07" stop-opacity=".93"/>
      <stop offset=".85" stop-color="#fe4e01" stop-opacity=".98"/>
      <stop offset="1" stop-color="#fe4900"/>
    </linearGradient>
  </defs>
  <g id="a" data-name="Layer 7">
    <rect class="x" x="-.11" y="-9.89" width="1919.99" height="740.25"/>
  </g>
  <g id="c" data-name="Layer 1">
    <g>
      <path class="n" d="M1.64,569.3h1918.96v519.51c-26.48.63-55.34.62-82.06,0-33.69.09-66.67.33-98.93.72-4.87.64-11.75.59-16.86,0h-130.4c-7.34.59-16.16.57-23.61,0h-66.33c-18.33.62-38.76.61-57.33,0-36.3-.38-73.39-.62-111.29-.72-72.88.63-150.42.63-223.71,0-20.81.04-41.04.28-60.71.72-.62.63-3.43.54-4.5,0-64.04-.39-129.24-.63-195.61-.72-42.92.63-89.33.63-132.65,0-83.94.53-167.88.53-251.81,0-29.91.08-59.14.32-87.69.72-.33.48-.71.47-1.12,0-124.92.08-249.7-.16-374.35-.72-.98-24.5-.98-51.11,0-75.87-.98-26.64-.98-55.47,0-82.37-.98-17.49-.96-36.54,0-54.19-.98-23.07-.98-48.2,0-71.53-1-22.83-.95-47.69,0-70.81-.99-53.85-.99-110.72,0-164.74Z"/>
      <path class="m" d="M.52,734.04c.83,1.92.83,3.87,0,5.78-.32.63-.69.62-1.12,0v-170.52H.52c.99,53.85.99,110.72,0,164.74Z"/>
      <path class="y" d="M1.64,734.04c-.32.63-.69.62-1.12,0v-164.74h1.12v164.74Z"/>
      <path class="j" d="M.52,804.85c.83,12.52.83,25.05,0,37.57-.32.63-.69.62-1.12,0v-102.6H.52c.83,21.68.83,43.36,0,65.03Z"/>
      <path class="p" d="M.52,876.39c.98,17.49.96,36.54,0,54.19.99,3.61.94,8.01,0,11.56-.32.63-.69.62-1.12,0v-99.71H.52c.97,10.84.95,22.97,0,33.96Z"/>
      <path class="v" d="M.52,1012.95c.97,2.02.91,5.13,0,7.23-.32.63-.69.62-1.12,0v-78.04H.52c.98,22.83.98,47.72,0,70.81Z"/>
      <path class="k" d="M.52,1089.54c-.33.48-.71.47-1.12,0v-69.36H.52c.98,22.36.98,46.75,0,69.36Z"/>
      <path class="q" d="M1.64,1012.95c-.32.63-.69.62-1.12,0v-82.37c.32-.63.69-.62,1.12,0v82.37Z"/>
      <polygon class="w" points="1.64 1088.81 1.64 1089.54 .52 1089.54 .52 1020.17 .52 1012.95 1.64 1012.95 1.64 1088.81"/>
      <path class="s" d="M1.64,876.39c-.32.63-.69.62-1.12,0v-33.96c0-12.51,0-25.06,0-37.57.32-.63.69-.62,1.12,0v71.53Z"/>
      <path class="l" d="M1.64,804.85H.52c0-21.66-.01-43.37,0-65.03,0-1.92,0-3.86,0-5.78h1.12v70.81Z"/>
      <rect class="z" x=".52" y="876.39" width="1.12" height="54.19"/>
    </g>
  </g>
  <g id="e" data-name="Layer 5">
    <path class="u" d="M842.51,423.06c9.05,1.9,22.73,4.94,39.17,9.29,95.3,25.21,138.06,52.71,239.09,101.02,117.27,56.07,174.87,80.13,295.99,9.01,13.82-8.11,27.47-20.1,39.67-27.5,11.87-7.19,25.15-14.87,37.41-22.1,42.75-25.21,78.58-42.74,130.17-39.18,38.51,2.66,75.6,25.76,109.62,42.58,7.72,3.82,15.7,9.81,24.36,13.9,51.62,24.39,107.57,41.03,164.41,47.31v30.61c-6.48-.25-13.06.39-19.54-.02-152.49-9.53-307.71,13.53-456.96,44.75-83.6,17.49-172.14,46.63-257.25,50.55-193.99,8.95-386.65-62.08-579.45-28.44-35.56,6.2-69.7,16.52-105.98,19.86-137.8,12.67-249.66-28.12-380.06-56.97-43.55-9.64-87.73-18.46-132.67-16.13,0-32.28,0-64.64,0-96.92,34.88,6.63,68.64,18.44,101.21,32.28,226.54,96.28,253.9,94.69,300.88,79.84,64.7-20.45,151.7-94.66,171.37-111.44,3.4-2.9,2.67-2.33,4.75-4.08,78.35-65.99,160.61-74.54,201.54-78.2,17.72-1.58,42.47-2.62,72.26-.02Z"/>
    <path class="r" d="M1922.41,424.76v132.62c-56.83-6.28-112.78-22.92-164.41-47.31-8.66-4.09-16.64-10.08-24.36-13.9,59.1-32.09,120.83-63.45,188.77-71.41Z"/>
    <path class="o" d="M415.65,417.96c.53.6,1.06,1.22,1.7,1.7,1.28.96,2.77,1.23,3.4,1.7,44.07,32.64,95.6,63.24,147.95,79.91-1.2,1.04-3.02,2.61-5.24,4.5-20.47,17.41-106.64,90.72-170.88,111.02-47.16,14.9-74.64,16.32-300.88-79.84-32.57-13.84-66.33-25.65-101.21-32.28v-27.2c35.35-5.53,70.4-13.96,104.04-26.06,51.82-18.63,107.25-59.81,156.16-72.56,39.25-10.24,76.83-4.44,113.39,11.6,17.74,7.78,34.43,20.75,51.57,27.51Z"/>
    <path class="t" d="M1196.24,356.74c2.51.76,5.16,1.17,6.8,1.7,24.07,7.8,63.15,25.12,85.03,37.41,3.59,2.01,9.39,5.94,13.6,8.5,19.78,12.04,39.02,27.2,57.82,40.81,4.94,3.57,10.54,6.76,15.31,10.2,2.42,1.75,5.34,4.48,8.5,6.8,13.07,9.57,25.22,20.88,38.58,30.29,11.21,7.9,22.97,15.11,34.55,22.42-12.21,7.4-25.86,19.38-39.67,27.5-28.34,16.64-71.84,42.96-128.57,43.93-25.61.44-44.15-4.4-67.51-10.51-38.47-10.05-62.33-23.24-99.91-42.43-27.36-13.97-67.85-34.11-119.34-57.72-60.52-24.67-106.16-39.7-119.74-43.29-13.58-3.59-27.75-6.79-27.75-6.79-4.63-1.05-8.54-1.89-11.43-2.5.92-.43,2.29-1.11,3.94-1.94,1.6-.81,3.45-1.79,5.43-3,3.31-2.02,6.71-4.14,9.89-5.57,26.14-11.69,52.65-23.45,79.39-33.7,12.34-4.73,24.81-9.62,37.41-13.6,73.24-23.13,142.88-31.04,217.68-8.5Z"/>
  </g>
</svg>