<?xml version="1.0" encoding="UTF-8"?>
<svg id="a" data-name="Layer 2" xmlns="http://www.w3.org/2000/svg" viewBox="0 0 317.16 233.27">
  <defs>
    <style>
      .b {
        fill: #c27f4e;
      }

      .c {
        fill: #c8974e;
      }

      .d {
        fill: #c27e4e;
      }

      .e {
        fill: #503a2d;
      }

      .f {
        fill: #9e6937;
      }

      .g {
        fill: #8c806a;
      }

      .h {
        fill: #9d6731;
      }

      .i {
        fill: #9e845a;
      }

      .j {
        fill: #a3875a;
      }

      .k {
        fill: #776860;
      }

      .l {
        fill: #aa7046;
      }
    </style>
  </defs>
  <path class="d" d="M74.86,223.45c2.75-1.32,5.53-2.52,8.33-3.71,6.84-2.92,13.67-5.88,20.41-9.04,7.16-3.36,14.4-6.85,20.97-11.29.68-.46,1.35-.94,2.02-1.44.03-.02.04-.03.06-.05,0,0,0,0,.02-.01.13-.11.27-.21.4-.32.25-.21.5-.42.75-.63.44-.39.87-.79,1.28-1.22.18-.19.35-.39.52-.59.03-.03.04-.04.06-.06.02-.03.03-.06.07-.12.13-.21.25-.44.38-.64,0,0,0,0,0,0,0-.01,0-.02,0-.03,0,0,0,0,0,0,0,0,0-.02,0-.03-.02.01-.03,0-.01-.1,0,0,0,0,0-.01-.03-.04-.2-.19-.27-.25-.14-.1-.29-.21-.44-.3-.35-.22-.73-.41-1.1-.59-3.66-1.73-8.49-2.22-12.61-3.38-6.46-1.81-13.32-2.03-19.34-5.24-1.03-.55-1.62-2.27-.86-3.27,2.62-3.42,6.95-5.05,10.87-6.49,7.69-2.83,15.43-5.51,23.07-8.48,7.46-2.9,15.06-6.32,21.01-11.79-.09-.04-.16-.08-.21-.1-.72-.3-1.7-.51-2.53-.71-2.52-.59-4.98-1.38-7.46-2.1-11-3.18-21.99-6.37-33.04-9.37-5.49-1.49-10.96-3.01-16.41-4.63-2.69-.8-5.37-1.65-8.05-2.48-2.05-.64-4.03-1.11-5.51-2.79-.68-.77-.98-1.97-.37-2.9,2.92-4.48,7.72-7.2,12.3-9.71,5.46-2.99,10.73-6.3,16.18-9.3,5.15-2.84,10.36-5.6,15.52-8.41,1.92-1.05,3.8-2.18,5.8-3.09,1.44-.66,2.88-1.32,4.28-2.05.85-.45,1.7-.92,2.51-1.45.71-.46.89-.63,1.5-1.16,0,0,.02-.02.04-.04-.03-.03-.06-.06-.09-.09-.01,0-.02-.01-.04-.02-.22-.13-.43-.28-.65-.41-.54-.31-1.1-.58-1.67-.83-.09-.04-.37-.15-.41-.17-.2-.08-.39-.15-.59-.22-.36-.13-.73-.26-1.1-.39-.77-.26-1.54-.5-2.32-.73-2.98-.87-6-1.54-9.02-2.26-3.91-.93-7.77-1.93-11.76-2.57-11.3-1.82-22.86-2.19-33.9-5.42-1.24-.36-2.03-1.68-1.67-2.94,1.47-5.2,5.75-9.08,9.23-13,3.53-3.98,6.86-8.15,10.27-12.24-12.28-1.44-24.41-3.84-36.22-7.34-.15-3.27-7.44-7.42-10-5-2.76-1.17-4.09-3.5-4-7-1.62,5.84-.93,14.58,2.55,19.95,1.08,1.67,6.56,5.49,5.45,7.03-4.66,1.53-9.66,5.76-13.47,9.04C-26.21,122.75-1.23,201.01,62.42,231.6c3.74-3.29,7.85-5.95,12.44-8.15Z"/>
  <path class="d" d="M251.63,123.59c.19.5.13.35.36.86.19.42.38.83.59,1.24,1.72,3.49,3.66,6.88,5.42,10.35,2.95,5.83,6.04,11.59,9.3,17.25,2.12,3.68,4.34,7.31,6.61,10.89,3.73-13.23,5.01-27.17,3.89-41.1-2.09-.35-4.19-.7-6.28-1.06-5.46-.95-11.37-1.93-16.89-.93-1.1.2-2.56.17-3.45.59-.03.02-.09.05-.14.08,0,.02,0,.05,0,.06,0-.03-.01-.03-.02-.06,0,0,0,0,0,0,.06.23.18.63.21.73.11.37.24.74.38,1.1Z"/>
  <path class="d" d="M229.15,128.98c-1.64-3.01-3.23-6.04-4.78-9.09-1.07-2.11-2.04-4.28-3.21-6.34-1.74-3.05-3.84-6.33-4.6-9.8-.5-2.27.19-4.5,2.36-5.66,1.1-.59,2.29-.63,3.49-.82,1.38-.23,2.74-.48,4.14-.6,6.08-.5,12.25.58,18.22,1.67.87.16,1.75.31,2.62.46-.93-7.71-2.59-15.4-5-22.92-1.43-4.48-3.76-11.67-7.31-16.85-.02-.03-.04-.06-.06-.09-2.15-3.12-4.75-5.48-7.87-6.06-31.67,5.09-66.74,8.5-98.74,1.89,35.08.96,68.93-2.56,102.85-11.39,3.84-1,12.28-3.8,13.18-7.58,3.35-.47,3.26-8.23,2-11-2.69-2.38-7.1,2.44-5,5-4.82,2.59-9.82,4.59-15,6-28.52,6.09-58.65,8.68-88.08,5.93-.67.82-1.35,1.63-2.03,2.45-3.55,4.24-7,8.59-10.68,12.71-2.33,2.62-5.31,5.29-6.97,8.51,12.05,3.05,24.64,3.14,36.79,5.74,3.09.66,6.14,1.52,9.22,2.24,3.33.79,6.68,1.6,9.87,2.82,2.5.96,6.04,2.33,6.76,5.26.91,3.68-3.67,6.18-6.31,7.59-1.54.82-3.14,1.55-4.72,2.28-2.07.95-4.03,2.15-6.03,3.24-5.38,2.93-10.79,5.79-16.15,8.76-4.99,2.77-9.81,5.81-14.81,8.55-3.22,1.76-6.87,3.61-9.45,6.36.11.03.22.07.34.1,1.48.43,2.93.91,4.4,1.36,3.09.96,6.2,1.88,9.31,2.78,5.63,1.62,11.28,3.15,16.93,4.67,5.63,1.51,11.2,3.2,16.8,4.8,5.57,1.6,11.13,3.22,16.7,4.82,3.49,1,7.82,1.4,9.11,5.43.26.81-.04,1.73-.61,2.33-3.5,3.64-7.7,6.55-12.13,8.94-7.96,4.29-16.62,7.08-25.04,10.29-3.41,1.3-6.86,2.46-10.29,3.71-1.68.61-3.34,1.26-4.93,2.08-.29.15-.59.32-.88.48,2.36.79,4.83,1.27,7.26,1.73,3.18.6,6.29,1.37,9.44,2.11,2.6.61,5.22,1.09,7.79,1.84,2.43.71,5.24,1.62,7,3.55,4.5,4.93-3.28,10.34-6.82,12.72-6.82,4.58-14.33,8.16-21.76,11.63-6.77,3.16-13.62,6.11-20.49,9.04-2.8,1.2-5.58,2.42-8.32,3.77-3.29,1.62-6.26,3.49-9.01,5.7,6.27,2.7,12.88,4.95,19.8,6.68,27.51-2.11,57.5-12.24,79.37-29.49,16.52-13.03,27.93-29.94,34.34-48.56-4.58-7.1-8.95-14.34-12.99-21.78Z"/>
  <path class="c" d="M246.44,20.8c-.27-.69-1.46-2.37-2-3-4.04-3.18-8.91-5.53-14-6-10.21-4.39-21.93-6.23-32.98-6.92,1.41-.46.63-.79-1.02-1.08-2.64-.17-5.35.09-8,0h-48c-1.56,0-3.36-.13-5.16-.17.32.19.63.38.95.58,6,3.8,12.35,7.11,18.74,10.19.76.37,1.16,1.27,1.18,2.06.11,3.6-2.76,7.06-4.85,9.73-1.86,2.38-3.9,4.6-5.94,6.83-1.25,1.36-2.35,2.95-3.59,4.5-1.11,1.4-2.24,2.78-3.38,4.16,29.62,2.97,60.05.79,88.03-6.88,5.23-.25,10.55-2.08,15-5,1.48-1.31,2.63-4.16,5-5,.47-1.23.47-2.57,0-4Z"/>
  <path class="g" d="M188.44,3.8c-15.73-.56-32.19-.06-48,0h48Z"/>
  <path class="j" d="M230.44,10.8c.87.28.86.62,0,1-9.25-3.07-20.77-5.33-30.53-6.01-1.91-.13-4.02,1.11-3.47-1.99,11.59.76,23.14,3.44,34,7Z"/>
  <path class="k" d="M179.44,232.8c-8.05.63-20.94.62-29,0,1.04-1.66,3.79-1,5.49-1.02,7.56-.08,16.29-.74,23.51,1.02Z"/>
  <path class="l" d="M278.31,74.09c-2.09.61-4.06,1.27-5.88,2.21-.24.12-.48.26-.71.39.56.46,1.1.96,1.6,1.48,1.76,1.79,3.55,3.55,5.28,5.37,6.52,6.86,12.39,14.29,18.29,21.67,2.29,2.87,4.82,5.54,7.07,8.43,2.31,2.97,4.41,6.21,4.67,10.06.07,1.1-.81,1.96-1.76,2.31-5.52,2.05-12.01.33-17.54-.82-4.53-.95-9.12-1.7-13.7-2.47,1.1,13.77.03,26.94-3.14,39.21,5.3,8.5,10.96,16.77,16.65,25.02,3.68,5.34,7.35,10.7,10.85,16.16,9.32-12.36,15.41-26.52,16.36-41.9,1.06-7.61,1.06-15.39,0-23-1.58-25.58-18.34-48.11-38.05-64.12Z"/>
  <path class="l" d="M209.92,57.79c3.84-.39,15.27-3.51,17.79-2.85,8.22,2.16,15.1,28.11,16.41,35.67.45,2.62.81,5.22,1.11,7.8,5.15.92,10.34,1.67,15.45,2.74,4.03.84,8.68,2.12,12.89,1.38-.86-2.69-3.09-5.23-4.84-7.27-5.25-6.15-10.2-12.54-15.41-18.73-2.84-3.38-5.76-6.69-8.83-9.87-1.39-1.44-2.83-2.83-4.23-4.27-1.14-1.18-2.22-2.3-3.92-2.53-1.47-.2-2.25-2.36-1.43-3.51.7-.99,1.22-1.74,2.4-2.15.1-.04.21-.07.31-.1-.07,0,.54-.27.65-.33.61-.33,1.19-.7,1.8-1.02,1.21-.63,2.46-1.15,3.75-1.62-1.79-1.33-3.59-2.62-5.39-3.84,1.15-.49,2.02-1.05,2.73-1.69,1.77-1.59,2.66-3.35,3.26-4.81,2.08-5.05,5.05-12.29,2.36-20.02-.23-.67-.46-1.2-.6-1.51.39,1.14.92,3.18.6,5.68-.19,1.45-.67,3.07-1.84,5.06-2.65,4.47-6.76,7.25-8.43,8.21-24.58,14.15-89.54,14.62-89.54,14.62-4.73.03-10.78.05-17.85.02-.92,1.09-1.85,2.17-2.78,3.24,16.04,6.85,65.99,3.5,83.59,1.69Z"/>
  <path class="l" d="M263.62,182.54c-4.27-6.48-8.72-12.84-13.12-19.24-3.32-4.84-6.56-9.72-9.71-14.66-9.24,28.62-30.27,51.79-61.68,65.35-16.33,7.04-33.64,10.49-50.68,14.82,6.15,1.54,15.81,3.52,22,4,9.55-.61,19.22-.61,29,0,30.51-2.39,65.99-19.42,87.49-45.13-1.09-1.72-2.19-3.43-3.31-5.13Z"/>
  <path class="i" d="M244.44,17.8c-4.62-2.32-9.06-4.36-14-6v-1c6.01,1.97,9.38,1.61,14,7Z"/>
  <path class="f" d="M226.44,34.8c-10.7,2.99-21.39,4.99-32.51,5.99-18.15,1.64-36.63,1.75-54.91.14-.42.51-.84,1.01-1.26,1.52,31.12,2.49,67.49-.54,88.68-6.65.86-.38.87-.72,0-1Z"/>
  <path class="h" d="M241.44,29.8c-5.8,5.12-8.5,4.13-15,6v-1c5.22-1.46,10.04-2.69,15-5Z"/>
  <path class="b" d="M195.92,7.82c-11.75-1.16-33.61-1.73-54.29-.38,4.35,2.49,8.83,4.79,13.34,6.96.76.37,1.16,1.27,1.18,2.06.09,2.93-1.79,5.76-3.62,8.15,2.17-.09,4.4-.15,6.72-.17,23.18-.25,44.98,2.83,67.18,6.35,32.51-12.68-19.8-21.92-30.52-22.98Z"/>
  <g>
    <path class="c" d="M91.54,52.46c1.84-2.2,3.67-4.42,5.46-6.66,1.18-1.48,2.26-3.05,3.53-4.45,1.99-2.17,3.99-4.33,5.81-6.65.92-1.17,1.89-2.54,2.66-3.9.2-.35.39-.72.56-1.08.01-.03.05-.12.08-.17.01-.03.02-.06.03-.09-6.07-2.98-12.03-6.2-17.77-9.78-2.64-1.65-5.75-3.2-8.36-5.21-25.82,3.94-43.34,11.6-43.34,20.42,0,9.38,19.84,17.45,48.39,21.12.98-1.19,1.96-2.37,2.94-3.55Z"/>
    <path class="c" d="M164.5,0C153.06,0,142.17.65,132.25,1.82c1.33.79,2.67,1.56,3.97,2.39,6,3.8,12.35,7.11,18.74,10.19.76.37,1.16,1.27,1.18,2.06.11,3.6-2.76,7.06-4.85,9.73-1.86,2.38-3.9,4.6-5.94,6.83-1.25,1.36-2.35,2.95-3.59,4.5-1.79,2.25-3.62,4.46-5.46,6.66-.23.27-.46.55-.69.83,8.99.94,18.71,1.45,28.86,1.45,45.78,0,82.89-10.4,82.89-23.23S210.28,0,164.5,0Z"/>
    <path class="b" d="M91.47,52.54s.05-.06.07-.08c1.84-2.2,3.67-4.42,5.46-6.66,1.18-1.48,2.26-3.05,3.53-4.45,1.99-2.17,3.99-4.33,5.81-6.65.92-1.17,1.89-2.54,2.66-3.9.2-.35.39-.72.56-1.08.01-.03.05-.12.08-.17.01-.03.02-.06.03-.09-5.93-2.91-11.75-6.05-17.37-9.54-20.96,3.1-35.25,9.27-35.25,16.37s13.91,13.11,34.41,16.25Z"/>
    <path class="b" d="M164.5,6.13c-8.14,0-15.93.42-23.13,1.17,4.44,2.55,9,4.89,13.6,7.11.76.37,1.16,1.27,1.18,2.06.11,3.6-2.76,7.06-4.85,9.73-1.86,2.38-3.9,4.6-5.94,6.83-1.25,1.36-2.35,2.95-3.59,4.5-1.1,1.39-2.22,2.76-3.35,4.12,8,.96,16.81,1.5,26.07,1.5,36.47,0,66.04-8.29,66.04-18.51s-29.57-18.51-66.04-18.51Z"/>
  </g>
  <path class="e" d="M63.9,44.42c1.16.66,1.61.93,1.73,1,6.62,3.59,16.24,5.82,25.76,7.22.05-.06.1-.12.15-.18,1.84-2.2,3.67-4.42,5.46-6.66,1.18-1.48,2.26-3.05,3.53-4.45,1.63-1.79,3.27-3.57,4.82-5.44-12.11.94-25.8,2.59-41.1,5.28-.32.06-3.12.56-3.14,1.35,0,.34.5.58,2.79,1.88Z"/>
  <path class="e" d="M215.44,27.29s-20.87-5.99-62.31-3.49c-.62.85-1.26,1.65-1.83,2.38-1.86,2.38-3.9,4.6-5.94,6.83-1.25,1.36-2.35,2.95-3.59,4.5-1.12,1.41-2.26,2.8-3.41,4.19,14.24,1.65,26.83,1.58,26.83,1.58,33.82-.18,45.21-4.37,51.97-7.49,3.97-1.84,7.13-3.67,9.27-5-3.04-2.02-7.43-2.73-10.99-3.51Z"/>
</svg>