<?xml version="1.0" encoding="UTF-8"?>
<svg id="a" data-name="Layer 1" xmlns="http://www.w3.org/2000/svg" viewBox="0 0 245.83 233.27">
  <defs>
    <style>
      .b {
        fill: #c27f4e;
      }

      .c {
        fill: #c8974e;
      }

      .d {
        fill: #c27e4e;
      }

      .e {
        fill: #8c8163;
      }

      .f {
        fill: #503a2d;
      }

      .g {
        fill: #9e6937;
      }

      .h {
        fill: #a0885f;
      }

      .i {
        fill: #8c806a;
      }

      .j {
        fill: #9d7242;
      }

      .k {
        fill: #9d6731;
      }

      .l {
        fill: #9e845a;
      }

      .m {
        fill: #a3875a;
      }

      .n {
        fill: #776860;
      }

      .o {
        fill: #aa7046;
      }
    </style>
  </defs>
  <path class="d" d="M41.04,21.8c-.09,3.5,1.24,5.83,4,7,2.56-2.42,9.85,1.73,10,5,41.84,12.39,87.7,11.03,130,2,5.18-1.41,10.18-3.41,15-6-2.1-2.56,2.31-7.38,5-5,1.26,2.77,1.35,10.53-2,11-.89,3.78-9.34,6.58-13.18,7.58-33.92,8.83-67.76,12.35-102.85,11.39,32,6.61,67.06,3.19,98.74-1.89,8.3,1.53,12.94,15.79,15.25,23,14.15,44.21,2.95,93.82-34.59,123.44-21.87,17.26-51.86,27.38-79.37,29.49C6.04,208.59-33.65,117.51,35.56,57.83c3.81-3.28,8.81-7.51,13.47-9.04,1.11-1.54-4.37-5.37-5.45-7.03-3.48-5.38-4.17-14.11-2.55-19.95Z"/>
  <path class="c" d="M99.04,3.8h48c2.65.09,5.36-.17,8,0,1.65.29,2.43.61,1.02,1.08,11.05.69,22.77,2.53,32.98,6.92,5.09.47,9.96,2.82,14,6,.54.63,1.73,2.31,2,3,.47,1.43.47,2.77,0,4-2.37.84-3.52,3.69-5,5-4.45,2.92-9.77,4.75-15,5-41.5,11.36-88.38,10.7-130-1-3.87-1.7-6.37-3.55-10-5-6.07-2.31-3.92-10.3,1-13,2.24-1.48,2.2-1.13,4-2,6.16-2.58,12.46-4.6,19-6,4.89-.74,6.54-1.74,12-2,2.22-.64,4.55-.8,7-.49l-1-.51c2.98-1.84,8.22-.98,12-1Z"/>
  <path class="i" d="M147.04,3.8c-15.73-.56-32.19-.06-48,0h48Z"/>
  <path class="m" d="M189.04,10.8c.87.28.86.62,0,1-9.25-3.07-20.77-5.33-30.53-6.01-1.91-.13-4.02,1.11-3.47-1.99,11.59.76,23.14,3.44,34,7Z"/>
  <path class="n" d="M138.04,232.8c-8.05.63-20.94.62-29,0,1.04-1.66,3.79-1,5.49-1.02,7.56-.08,16.29-.74,23.51,1.02Z"/>
  <path class="o" d="M245.04,118.8c-1.84-29.8-24.29-55.48-48-71.5,1.15-.49,2.02-1.05,2.73-1.69,1.77-1.59,2.66-3.35,3.26-4.81,2.08-5.05,5.05-12.29,2.36-20.02-.23-.67-.46-1.2-.6-1.51.39,1.14.92,3.18.6,5.68-.19,1.45-.67,3.07-1.84,5.06-2.65,4.47-6.76,7.25-8.43,8.21-24.58,14.15-89.54,14.62-89.54,14.62-6.16.04-14.54.07-24.54-.03.28,1.29,1.63,2.18,2.74,2.75,14.65,7.56,66.71,4.08,84.75,2.23,3.84-.39,15.27-3.51,17.79-2.85,8.22,2.16,15.1,28.11,16.41,35.67,9.42,54.5-14.27,101.48-65,123.37-16.33,7.04-33.64,10.49-50.68,14.82,6.15,1.54,15.81,3.52,22,4,9.55-.61,19.22-.61,29,0,46.25-3.63,103.91-40.87,107-91,1.06-7.61,1.06-15.39,0-23Z"/>
  <path class="l" d="M203.04,17.8c-4.62-2.32-9.06-4.36-14-6v-1c6.01,1.97,9.38,1.61,14,7Z"/>
  <path class="j" d="M46.04,15.8c-4.51,4.55-6,7.98-1,13-.93-.37-3.52-.6-3.86-1.14-.69-1.12.14-4.3-.14-5.86,1.53-5.53,1.04-3.38,5-6Z"/>
  <path class="h" d="M69.04,7.8l-19,6c7.63-3.71,10.42-4.7,19-6Z"/>
  <path class="e" d="M87.04,4.8c1.33.02,2.67-.03,3.99.01v.98c-3.31.13-6.68-.15-9.99.01,1.06-1.64,4.13-1.03,6-1Z"/>
  <path class="g" d="M185.04,34.8c.87.28.86.62,0,1-32.18,9.28-99.38,11.45-130-2,31.52,7.99,65.03,9.92,97.49,6.99,11.12-1,21.8-3,32.51-5.99Z"/>
  <path class="k" d="M200.04,29.8c-5.8,5.12-8.5,4.13-15,6v-1c5.22-1.46,10.04-2.69,15-5Z"/>
  <path class="b" d="M63.04,31.8c-7.7-2.67-18.3-8.79-6.92-15.42,18.6-10.84,76.34-10.74,98.41-8.56,10.72,1.06,63.03,10.3,30.52,22.98-22.2-3.52-44.01-6.61-67.18-6.35-19.45.21-33.12,2.62-51.74,6.56-.5.11-2.88-.01-2.97-.13-.11-.14,2.45-1.89-.11.93Z"/>
  <g>
    <ellipse class="c" cx="123.1" cy="23.23" rx="82.89" ry="23.23"/>
    <ellipse class="b" cx="123.1" cy="24.64" rx="66.04" ry="18.51"/>
  </g>
  <path class="f" d="M185.04,30.8c-2.14,1.33-5.3,3.16-9.27,5-6.75,3.12-18.15,7.31-51.97,7.49,0,0-40.18.22-58.17-9.53-.12-.07-.56-.33-1.73-1-2.29-1.31-2.8-1.55-2.79-1.88.02-.78,2.82-1.29,3.14-1.35,72.98-12.82,109.79-2.24,109.79-2.24,3.56.78,7.95,1.49,10.99,3.51Z"/>
</svg>