<?xml version="1.0" encoding="UTF-8"?>
<svg id="a" data-name="Layer 1" xmlns="http://www.w3.org/2000/svg" viewBox="0 0 401.87 1018.62">
  <defs>
    <style>
      .b {
        fill: #181206;
      }

      .c {
        fill: #9a6313;
      }

      .d {
        fill: #180c07;
      }

      .e {
        fill: #996212;
      }

      .f {
        fill: #181406;
      }

      .g {
        fill: #966012;
      }

      .h {
        fill: #3546ff;
      }

      .i {
        fill: #966117;
      }

      .j {
        fill: #976113;
      }

      .k {
        fill: #181407;
      }

      .l {
        fill: #976114;
      }

      .m {
        fill: #181306;
      }

      .n {
        fill: #15e7ff;
      }

      .o {
        fill: #170c06;
      }
    </style>
  </defs>
  <path class="k" d="M389.89,754.13c-3.22.22-6.61,1.72-9.78,2.21-7.23,1.1-16.01.99-22.6-2.64-3.78-.25-7.65-1.16-11.33-2.47-5.63-2-10.79-5.09-16.35-7.21-5.18-1.99-11.05-2.56-15.49-6.23-.56-.46-1.04-.98-1.49-1.51-1.38-.92-3.29-1.99-3.23-3.55.11-.63.26-1.26.38-1.89-.11-6.57.25-16.29,2.66-27.88.08-.38.69-3.29,1.53-6.48,5.77-21.94,15.86-32.22,24.94-55.85,1.24-3.23,3.58-11.19,8.91-21.3.62-1.17,2.12-4.62,3.54-7.35.46-5.97,2.32-11.79,5.55-16.74,1.38-6.17,3-12.29,4.67-18.33,8.34-30.21,21.6-56.9-.75-85.26-.27-.34-.55-.65-.83-.97-1.15-1.11-2.67-2.39-4.6-3.62-1.91-1.21-3.7-2.03-5.18-2.6-5.31-1.22-10.62-2.44-15.94-3.66-4.66-.11-9.32-.21-13.99-.32l-12,1.99c1.54-2.28,3.51-4.18,5.56-5.99-3.58-.24-7-1.01-10.12-2.61-.18-.09-.34-.24-.52-.35-1.62,1.39-3.25,2.76-4.92,4.08-15.08,11.85-28.76,13.2-46.1,19.58-8.34,3.07-17.31,6.86-25.37,10.61-2.41,1.12-12.17,7.24-13.9,6.14l-31.97-43.44c11.33-17.57,24.31-34.45,25.7-56.29.8-.92,2.1,2.03,2.37,2.48,5.54,9.01,11.23,21.07,15.43,30.84,1.65,3.84,5.23,11.44,6.06,15.11.53,2.35-2.57,3.21-4.17,4.68-2.2,2.01-4.71,3.91-3.05,7.08,3.62,6.9,9-2.64,12.84-4.71,10.36-5.59,25.94-9.24,37.32-14.08,4.78-2.03,9.54-4.38,14.17-6.96-1.18-3.3-2.03-6.87-2.06-10.18-.85.53-1.61,1-2.21,1.34-13.67,7.92-29.55,12.09-44.4,17.27-7.14-18.58-15.55-36.79-26.01-53.71l37.38,2.88c15.94-.13,32,.49,47.77-1.81,1.53-.1,3.55-.29,5.91-.68,2.22-.37,4.96-.83,8.39-2.03,3.95-1.38,6.75-3.02,7.82-3.67,2.51-1.53,4.49-3.11,5.96-4.42.56-.59,1.38-1.48,2.34-2.6,0,0,2.99-3.51,5.51-7.58,5.17-8.31,10.5-25.21,10.5-25.21,4.66-14.75,6.98-22.12,8.92-31.13,1.87-8.7,2.92-16.14,3.91-24.08,3-24.15,3.48-48.62,4.77-72.92,8.9-11.63,25.53-30.89,21.31-46.7-.43-1.6-2.33-3.46-2.58-4.87-.67-3.85,1.6-5.7-.87-11.1-2.47-5.41-8.78-6.62-9.33-7.52-.32-.53,0-2.01-.23-2.91-.93-3.53-2.62-6.99-5.57-9.3-2.1-1.65-6.89-2.64-7.7-3.72-2.14-2.86-.99-8.2-5.43-12.28-.04-.04-.1-.06-.14-.1-3.77-.69-7.7-1.02-10.27-.04-3.84,1.46-5.9,8.41-10.15,10.69-3.71,2-8.76,1.33-11.69-1.62-.94-.48-1.95-.8-3.42-.62-5.54.69-11.42,14.8-12.92,19.68-4.27,13.85-1.42,27.13,3.74,40.28,1.71,4.36,7.12,13.56,6.99,17.85-.18,6.29-4.24,21.52-5.84,28.45-6.63,28.64-16.85,48.96-26.58,75.66-1.41,3.87-3.09,8.24-3.42,12.29-7.73-2.7-15.29-6.41-23.12-9.15-5.8-2.04-12.01-4-17.99-5.42-15.77-3.74-31.96-4.47-47.98-6.57l7.13-19.43c.79-.95,6.96-.02,8.86,0,2.25.51,4.6.54,6.85,0,6.81-.25,20.65-1.36,24.3-7.97,2.35-4.26,1.66-11.86.42-16.47-.25-.94-1.38-2.69-1.34-3.23.03-.43,1.07-.46,1.42-.92,2.94-3.96,3.07-7.8,1.66-12.44-.43-1.4-2.47-4.42-2.47-4.97,0-.88,1.97-2.48,2.43-3.86,1.39-4.19-.21-6.18-1.84-9.55,14.63-4.04,12.61-14.99,4.55-24.84-2.57-3.14-18.59-17.37-18.14-19.91.21-1.19,2.55-3.46,2.72-5.88.09-1.32-.4-2.89-1.01-4.05-1.77-3.38-9.32-9.35-12.34-13.36-3.03-4.02-5.35-8.51-7.49-13.05-.18-.94,3.99-5.99,4.73-7.9,3.26-8.46-2.62-21.5-11.43-24.26-12.63-3.96-18.4,3.96-28.75,5.78-7.38,1.3-16.2.46-23.92,1.21-26.66,2.58-62,15.63-69.14,44.52-.33,1.34-.04,2.81-.55,4.02-.46,1.1-5.45,5.8-6.8,8.05-8.17,13.62-5.47,34.62,1.28,48.33,4.41,8.94,16.84,23.1,17.26,32.45.13,2.79-.82,5.06-.53,7.95.65,6.53,7.5,11.92,13.92,11.82,1.8-.03,3.52-.77,5.25-1.09.84-.15.88-.23.74.74-.27,1.91-2.29,5.77-3.33,7.54-4.05,6.92-8.59,7.75-14.79,12.06-38.84,26.99-38.35,58.09-51.4,98.82-5.39,16.8-12.12,32.49-16.43,49.83-3.93,15.77-7.07,32.5-7.1,48.78-9.21,2.07-12.21,9.56-10.89,18.35.33,2.21,1.91,4.82,1.71,6.8-.2,2.01-3.04,5.73-3.73,8.31-2.57,9.52.25,19.33,6.48,26.72-9.68,50.52,10.6,116.41,64.52,131.96,5.69,1.64,11.75,2.23,17.38,3.76,17.75,4.8,34.78,12.56,53.17,15.22,8.53,11.08,16.94,23.42,26.37,33.75,2.68,2.94,8.12,9.41,12.09,9.51,1.93.05,5.75-1.55,7.76-2.23,26.69-8.99,52.92-24.67,70.67-46.7-1.01,7.96-3.16,15.83-5.3,23.54-1.23,4.45-5.24,19.91-7.24,22.89-1.52,2.28-7.69,7.15-10.28,10.43-14.05,17.78-26.93,44.18-47.98,54.83-12.73,6.44-29.7,12.65-31.42,29.7-2.89,28.67,28.3,28.93,43.7,43.11,12.32,11.35,21.6,36.35,39.1,37.72,2.05.53,4.24.57,6.28,0,3.35-.15,6.32-.93,9.43-1.14,9.69-.65,20.31,4.07,29.56.43,8.27-3.25,11.49-14.76,5-21.31-5.52-2.39-11.03-6.43-16.38-8.75-8.96-3.89-10.46-1.24-15.55-11.29-4.23-8.34-6.98-18.26-10.82-26.88-.92-2.06-6.18-11.1-6.25-11.99-.18-2.18,7.18-12.12,8.99-14.2,7.96-9.14,17.29-14.06,25.15-21.68,2.19-2.13,2.38-4.65,5.55-5.3,6.61-1.37,14.14-.58,20.73.7,4.37.85,13.81,3.01,17.68,4.59.33.13.65.24.94.41,6.88.25,13.52,1.32,19.94,3.56,1.79.08,3.58.12,5.37.17,1.69-.24,3.44-.38,5.29-.38,1.29,0,2.54.07,3.76.18,1.58-.68,4.65-1.23,5.76-1.72,2.73-1.21,4.26-3.7,6.19-4.66,1.57-.78,3.66-.69,5.26-1.6,2.69-1.54,3.91-5.29,5.44-6.55,2.01-1.65,4.52-1.39,6.89-4.53,1.62-2.15,1.99-5.91,2.83-6.88.48-.55,3.52-.86,5.05-1.8,2.36-1.44,4.59-4.93,4.91-7.67.21-1.82-.65-4.07-.44-4.97.3-1.3,4.31-3.64,4.92-7.1,1.61-9.13-1.32-15.71-11.57-14.99ZM203.44,519.04l-26.58,13.93c-3.06-5.89-9.32-10.48-12.37-16.1-1.87-3.46-2.62-10.83-2.77-14.93-.05-1.4-.23-3.66.32-4.87.36-.8,5.05-5.39,6.21-6.93,1.91-2.52,4.68-7.92,6.37-9.62.47-.47.52-.81,1.38-.6l27.44,39.12ZM122.34,540.17c-3-3.13-10.15-6.21-6.86-10.84,3.86-5.43,9.73-6.23,15.9-7.09,4.99,8.02,13.34,15.07,14.8,24.93,1.22,8.27-.25,6.06-5.88,8.13-3.58,1.31-6.99,3.21-10.54,4.59.64-8.11-1.94-14.01-7.42-19.72ZM142.31,523.62c2.84.46,11.17-2.76,12.97-1.26,3.81,5.68,9.04,10.41,12.09,16.61-.15.76-11.03,7.78-12.18,7.8-2.59-8.74-7.39-16.01-12.88-23.15ZM110.79,220.16c3-7.65,12.9-7.71,19.52-5.02,6.48,2.63,11.9,16.16,21.56,12.97,6.48-2.14,2.84-8.59,2.45-12.99-.89-9.94,1.03-9.44,5.03-16.66,4.04-7.29.91-15.2-3.43-21.5-1.84-2.67-4.69-4.78-6.18-6.95-.33-.48-.8-.56-.56-1.43,16.58-1.43,31.92-6.56,46.82-13.71,1.49,6.97,5.8,13.71,10.3,19.12.7.84,6.42,5.89,5.69,6.58-11.38-2.23-24.49,2.27-31.7,11.42-1.66,2.11-5.09,7.97-.14,7.32,3.89-.51,12.51-4.92,17.12-6.34,2.56-.79,12.41-3.75,14.32-3.28,4.56,9.44,12.86,15.34,19.54,22.86,3.43,3.86,11.37,11.74,2.57,14.59-2.61.85-10.56,3.18-12.99,3.56-4.26.67-9.08-1.99-6.43-6.14-5.21-2.06-7.97,7.16-3.38,9.94,5.1,3.09,11.78-.43,15.68,3.17,6.17,5.7-2.16,5.13-5.89,6.15-4.31,1.17-11.44,4.46-11.58,9.6-.06,2.2.66,2.81,3.12,2.56,4.36-.44,14.27-11.34,15.71-.8.41,3.01.05,6.36-.99,9.2-.38,1.03-2.28,3.67-2.28,3.9,0,.26,2.51,3.05,3.03,4.28,3.35,7.92,1.57,10.01-5.99,11.72-12.61,2.84-26.11,1.54-38.39-2.17-15.16-4.58-32.17-13.01-35.29-30.11-4.18,1.76-8.7,4.6-13.42,4.61-14.79.05-29.01-23.16-23.81-36.43ZM127.47,266.27c5.51,1.61,11.4,1.45,17.04.63,8.67,14.93,27.22,21.41,43.49,23.93-.94,3.21-1.83,6.63-3.15,9.7-.5,1.16-4.38,8.6-4.84,8.9-.59.37-1.14.29-1.73.01-19.47-12.91-43.31-17.71-66.24-12.33,3.86-7.16,10.02-10.66,15.9-15.8.13-5.04.87-10.08-.48-15.04ZM23.51,501.88c1.11-37.39,15.62-68.86,25.44-103.66,5.48-19.44,7.23-38.61,17.89-56.37,21.18-35.28,53.65-46.87,92.76-32.03,13.7,5.2,19.94,11.79,35.63,14.06,31,4.47,52,5.83,80.93,20.16,2.08,1.03,5.38,4.42,7.26,3.1,4.48-18.52,13.37-35.33,20.22-52.9,6.52-16.73,10.86-34.37,14.99-51.85,2.16-9.15,2.65-18.91,6.94-27.4.15-1.09-2.68-4.62-3.45-6.05-8.69-16.11-15.93-34.54-7.73-52.49.38-.82,2.97-5.74,3.26-5.92,1.3-.82,6.5,2.49,6.24,3.96-.35,2-7.15,4.6-7.41,10.92-.12,2.88,1.38,6.63,4.57,4.55,2.42-1.58,8.45-7.6,10.61-9.95,3.96-4.32,9-10.89,9.36-16.92.11-1.81-1.95-5.22,2.04-5.3,6.44-.13,6.58,11.23,9,13.5,1.28,1.2,5.59,1.56,7.85,3.86,2.92,2.97,3.09,8.01,4.9,10.53,1.28,1.78,5.45,3.25,7.22,6.49,2.51,4.6-.67,5.43-.12,8.66.26,1.57,2.32,2.27,2.74,4.15,1.73,7.7-4.67,20.35-9.12,26.62-2.56,3.6-5.73,8.26-10.75,7.24,0,5.85-1.23,11.62-1.7,17.43-1.98,24.02-2.39,47.99-6.45,71.81-5.03,29.45-14.8,55.86-28.67,82.15-6.75,1.21-13.37,3.41-20.15,4.41-26.23,3.85-66.63,1.64-92.75-3.45-19.17-3.74-46.42-14.5-64.78-14.64-3.27-.02-6.14,5.24-8.51,7.37-3.83,3.44-12.1,6.58-14.54,10.02-1.31,1.84-1.49,4.58.97,5.33,3.72,1.13,16.15-6.31,19.76-8.58,2.33-1.46,4.07-4.31,6.96-3.93,18.06,3.43,35.41,9.36,53.02,14.42,1.5.91,1.09,7.31.94,9.32-1.74,23.87-20.82,48.75-34.36,67.89-1.84,2.6-12.06,17.09-13.61,17.8-2.15.98-6.87-.66-9.42-.84-3.11-.22-10.01-1.15-8.61,3.44,1.61,5.27,15.32,4.93,19.71,4.02l1.19,11.66c-.22.85-1.24-.28-1.43-.28-7.46,0-17.45-.8-24.56,0-8.3.93-19.21,5.72-21.8,14.31-18.18,1.58-36.53-.67-54.11-5.21-9.57-2.47-19.87-5.55-28.22-10.62-.08-3.58-.22-7.21-.12-10.79ZM11.22,538.73c.72-4.45,5.08-8.03,5.31-10.05.28-2.5-6.77-9.59-1.87-12.2,3.93,4.01,8.74,6.94,14.01,8.84,25.41,9.19,53.56,13.4,80.55,13.68,3.11.72,1.93,1.81,3.05,3.19,1.55,1.91,4.83,3.21,6.06,5.7-8.85.39-16.75,4.66-25.01,7.26-18.68,5.88-37.14,9.16-56.87,6.95-14.72-1.65-28.11-5.54-25.23-23.38ZM193.42,736.4c-1.76,1.32-10.6,7.37-12.03,7.45-2.28.13-3.39-3.14-4.81-4.58-6.73-6.85-16.72-17.9-21.7-26-.28-.45-.84-.52-.57-1.42,11.72-.17,25.56-3.01,35.59-9.25,1.42-.88,10.15-7.24,8.38-9.04-7.91,2.21-15.38,5.84-23.41,7.71-19.69,4.58-37.09,1.34-56.09-3.88-1.72-.47-4.57-.79-5.59-2.12,48.71,1.09,83.91-36.54,106.32-75.6,7.31-12.74,20.03-37.33,21.54-51.57.27-2.52.84-6.18-2.73-5.29-16.65,36.35-33.76,73.07-64.02,100.19-40.95,36.7-116.74,34.76-145.16-16.48-13.38-24.12-15.55-52.83-11.89-79.79.36-.38,8.22,1.89,9.57,2.14,19.33,3.44,39.1,1.77,57.93-3.44,5.62-1.55,32.29-11.81,35.89-9.3,1.04.72.65,2.62-.04,3.46-.94,1.13-9.65,5.79-11.94,7.48-8.42,6.24-26.09,23.57-26.88,34.23-.19,2.58.59,6.71,3.75,4.32.89-.67,4.26-7.09,5.49-8.79,5.54-7.67,12.84-15.54,20.18-21.51,1.05-.85,8.01-6.54,8.83-5.72-6.57,15.72-12,33.75-8.98,50.97.24,1.39,1.37,6.06,2.08,6.95.85,1.07,2.05.21,2.31-1.1,1.3-6.44,1.31-13.29,2.47-19.81,2.53-14.27,7.73-29.77,16.12-41.58,1.51-.13.54.26.44,1.01-1.35,9.36-5.53,23.71-1.58,32.69,1.13,2.57,2.48,2.01,3.02-.41.74-3.34.77-8,1.44-11.69,1.02-5.6,3.99-22.82,8.41-25.87,12.78-3.86,23.44-11.84,35-18.11,23.23-12.61,46.4-25.5,71.06-35.18,8.34-3.27,16.94-5.97,25.27-9.28-2.98,6.14-6.26,12.09-8.57,18.55-10.43,29.19-5.64,58.33-9.2,88.49-1.78,15.11-5.49,28.88-10.21,43.2-9.72,29.49-30.55,69.1-55.69,87.96ZM271.09,600.45l-.29,24.57c-.85-.02-1.08-1.61-1.39-2.31-.84-1.9-1.72-3.88-2.03-5.96l3.72-16.29ZM245.48,709.36c-8.81,8.97-19.3,16.95-30.26,23.15-1.66.94-4.18,2.48-6.09,2.48,21.68-23.98,37.71-53.4,49.78-83.31l6.75-20.95c.52,18.35-.63,36.59-1.96,54.87-1,4.74-14.26,19.73-18.22,23.76ZM230.36,848.58c3.02,4.61,6,10.05,8.29,15.11,4.96,10.94,11.01,34.89,21.86,40.4,5.68,2.89,13.84,4.61,19.44,7.4,3.29,1.63,5.95,5.78,2.26,8.56-4.95,3.73-15.45-.77-21.38-.87-12.73-.22-21.64,5.62-31.7-5.99-11.34-13.07-16.3-25.91-32.39-35.58-11.22-6.74-36.15-12.34-29.98-30.78,4.07-12.16,19.21-15.25,28.84-20.85,10.9-6.33,23.49-20.98,31.22-31.04,5.71-7.44,10.46-15.57,16-23.12-2.9,11-2.99,19.51,6.28,27.14,5.11,4.21,11.17,5.98,17.13,8.56-14.5,11.14-28.08,24.2-35.87,41.05ZM384.7,781.5c-.38.59-.74,1.17-1.56,1.09-1.53-.15-5.46-2.58-7.7-3.16-4.57-1.2-9.69-1.4-14.39-1.31-.29,1.62.38.94,1.25,1.28,3.3,1.32,16.06,4.17,16.94,7.69.29,1.17-2.01,5.09-3.06,5.16-.9.07-4.3-3.61-5.7-4.44-4.82-2.85-13.59-3.45-18.57-.84,6.99,2.06,25.2,3.08,15.13,13.99-1.11-3.35-5.63-6.5-8.86-7.69-.74-.27-4.98-1.44-5.41-1.44h-9.42c.2,1.12,1.21.93,1.97,1.17,5.1,1.54,17.38,3.49,14.9,11.43-1.77,5.69-9.04-.07-10.32.05-.69.06-.27,2.36-3.99,2.25-5.63-.15-13.79-.51-19.27-1.33-11.53-1.73-22.18-7.57-34.42-8.42-9.26-.64-27,2.59-34.36-1.05-10.28-5.08-8.1-15.82-6.2-25.26,2.69-13.38,8.57-27.5,12.14-40.99,5.04-19.1,9.55-40.18,11.58-59.83,3.38-32.62,1.1-73.47,23.7-99.69,3.78-4.39,17.1-15.42,17.89-20.41.77-4.88-5.17-2.57-7.59-.71-6.15,4.72-16.27,14.39-21.44,20.25-4.79,5.43-9.99,14.51-15.39,18.88-.58.47-.75,1.09-1.72.84,1.51-4.56.08-9.52-.03-13.97-.81-35.55-.44-74.9,41.12-84.59,16.39-3.82,25.45-6.1,38.58,6,23.12,21.31,9.47,48.85,2.72,74.16-5.31,19.89-9.57,38.49-17.03,57.8-11.37,29.43-32.94,74.46-34.52,105.42-.32,6.22.18,6.56,5.18,9.66,11.08,6.87,24.49,8.88,36.48,13.21,7.72,2.79,13.45,6.52,21.72,8.55,2.26.56,10.23,1.03,10.78,2.97.54,1.89-2.47,4.16-3.63,4.16-2.09,0-7.64-.42-9.14,0-.78.22-1.01,1.52-.86,2.28,4.9,1.83,9.28-.74,14.01-.6,3.76.11,11.78,2.42,8.51,7.42ZM390.56,771.74c-1.17-.12-8.22-3.63-9.83-4.46-.53-.28-1.36-.34-1.41-1.15,2.71-.37,12.41-5.27,13.59-1.32.53,1.78.06,7.17-2.34,6.94Z"/>
  <path class="e" d="M127.75,514.19c-8.3.93-19.21,5.72-21.8,14.31-18.18,1.58-36.53-.67-54.11-5.21-9.57-2.47-19.87-5.55-28.22-10.62-.08-3.58-.22-7.21-.12-10.79,1.11-37.39,15.62-68.86,25.44-103.66,5.48-19.44,7.23-38.61,17.89-56.37,21.18-35.28,53.65-46.87,92.76-32.03,13.7,5.2,19.94,11.79,35.63,14.06,31,4.47,52,5.83,80.93,20.16,2.08,1.03,5.38,4.42,7.26,3.09,4.48-18.52,13.37-35.33,20.22-52.9,6.52-16.73,10.86-34.37,14.99-51.85,2.16-9.15,2.65-18.91,6.94-27.4.15-1.09-2.68-4.62-3.45-6.05-8.69-16.11-15.93-34.54-7.73-52.49.38-.82,2.97-5.74,3.26-5.92,1.3-.82,6.5,2.49,6.24,3.96-.35,2-7.15,4.6-7.42,10.92-.12,2.88,1.38,6.63,4.57,4.55,2.42-1.58,8.45-7.6,10.61-9.95,3.96-4.32,9-10.89,9.36-16.92.11-1.81-1.95-5.22,2.04-5.3,6.44-.13,6.58,11.23,9,13.5,1.28,1.2,5.59,1.56,7.85,3.86,2.92,2.97,3.09,8.01,4.9,10.53,1.28,1.78,5.45,3.25,7.22,6.49,2.51,4.6-.67,5.43-.12,8.66.26,1.57,2.32,2.27,2.74,4.15,1.73,7.7-4.67,20.35-9.12,26.62-2.56,3.6-5.73,8.26-10.75,7.24,0,5.85-1.23,11.62-1.7,17.43-1.98,24.02-2.39,47.99-6.45,71.81-5.03,29.45-14.8,55.86-28.67,82.15-6.75,1.21-13.37,3.41-20.15,4.41-26.23,3.85-66.63,1.64-92.75-3.45-19.17-3.74-46.42-14.5-64.78-14.64-3.27-.02-6.14,5.24-8.51,7.37-3.83,3.44-12.1,6.58-14.54,10.02-1.31,1.84-1.49,4.58.97,5.33,3.72,1.13,16.15-6.31,19.76-8.58,2.33-1.46,4.07-4.31,6.96-3.93,18.06,3.43,35.41,9.36,53.02,14.42,1.5.91,1.09,7.31.94,9.32-1.74,23.87-20.82,48.75-34.36,67.89-1.84,2.6-12.06,17.09-13.61,17.8-2.15.98-6.87-.66-9.42-.84-3.11-.22-10.01-1.15-8.61,3.44,1.61,5.27,15.32,4.93,19.71,4.02l1.19,11.66c-.22.85-1.24-.28-1.43-.28-7.46,0-17.45-.8-24.56,0Z"/>
  <path class="h" d="M176.58,739.27c-6.73-6.85-16.72-17.9-21.7-26-.28-.45-.84-.52-.57-1.42,11.72-.17,25.56-3.01,35.59-9.25,1.42-.88,10.15-7.24,8.38-9.04-7.91,2.21-15.38,5.84-23.41,7.71-19.69,4.58-37.09,1.34-56.09-3.88-1.72-.47-4.57-.79-5.59-2.12,48.71,1.09,83.91-36.54,106.32-75.6,7.31-12.74,20.03-37.33,21.54-51.57.27-2.52.84-6.18-2.73-5.29-16.65,36.35-33.76,73.07-64.02,100.19-40.95,36.7-116.74,34.76-145.16-16.48-13.38-24.12-15.55-52.83-11.89-79.79.36-.38,8.22,1.89,9.57,2.14,19.33,3.44,39.1,1.77,57.93-3.44,5.62-1.55,32.29-11.81,35.89-9.3,1.04.72.65,2.62-.04,3.46-.94,1.13-9.65,5.79-11.94,7.48-8.42,6.24-26.09,23.57-26.88,34.23-.19,2.58.59,6.71,3.75,4.32.89-.67,4.26-7.09,5.49-8.79,5.54-7.67,12.84-15.54,20.18-21.51,1.05-.85,8.01-6.54,8.83-5.72-6.57,15.72-12,33.75-8.98,50.97.24,1.39,1.37,6.06,2.08,6.95.85,1.07,2.05.21,2.31-1.1,1.3-6.44,1.31-13.29,2.47-19.81,2.53-14.27,7.73-29.77,16.12-41.58,1.51-.12.54.26.44,1.01-1.35,9.36-5.53,23.71-1.58,32.69,1.13,2.57,2.48,2.01,3.02-.41.75-3.34.77-8,1.44-11.69,1.02-5.6,3.99-22.82,8.41-25.87,12.78-3.86,23.44-11.84,35-18.11,23.23-12.61,46.4-25.5,71.06-35.18,8.34-3.27,16.94-5.97,25.27-9.28-2.98,6.14-6.26,12.09-8.57,18.55-10.43,29.19-5.64,58.33-9.2,88.48-1.78,15.11-5.49,28.88-10.21,43.2-7.87,20.34-21.01,42.08-35.51,60.08-9.79,12.15-21.06,25.24-35.31,31.82l-1.7-1.06Z"/>
  <path class="c" d="M363.04,772.4c-.78.22-1.01,1.52-.86,2.28,4.9,1.83,9.28-.74,14.01-.6,3.76.11,11.78,2.42,8.51,7.42-.38.59-.74,1.17-1.56,1.09-1.53-.15-5.46-2.58-7.7-3.16-4.57-1.2-9.69-1.4-14.39-1.31-.29,1.62.38.94,1.25,1.28,3.3,1.32,16.06,4.17,16.94,7.69.29,1.17-2.01,5.09-3.06,5.16-.9.07-4.3-3.61-5.7-4.44-4.82-2.85-13.59-3.45-18.57-.84,6.99,2.06,25.2,3.08,15.13,13.99-1.11-3.35-5.63-6.5-8.86-7.69-.74-.27-4.98-1.44-5.41-1.44h-9.42c.2,1.12,1.21.93,1.97,1.17,5.1,1.54,17.38,3.49,14.9,11.43-1.77,5.69-9.04-.07-10.32.05-.69.06-.27,2.36-3.99,2.25-5.63-.15-13.79-.51-19.27-1.33-11.53-1.73-22.18-7.57-34.42-8.42-9.26-.64-27,2.59-34.36-1.05-10.28-5.08-8.1-15.82-6.2-25.26,2.69-13.38,8.57-27.5,12.14-40.99,5.04-19.1,9.55-40.18,11.58-59.83,3.38-32.62,1.1-73.47,23.7-99.69,3.78-4.39,17.1-15.43,17.89-20.41.77-4.88-5.17-2.57-7.59-.71-6.15,4.72-16.27,14.39-21.44,20.25-4.79,5.43-9.99,14.51-15.39,18.88-.58.47-.75,1.09-1.72.84,1.51-4.56.08-9.52-.03-13.97-.81-35.55-.44-74.9,41.12-84.59,16.39-3.82,25.45-6.1,38.58,6,23.12,21.31,9.47,48.85,2.72,74.16-5.31,19.89-9.57,38.49-17.03,57.8-11.37,29.43-32.94,74.46-34.52,105.42-.32,6.22.18,6.56,5.18,9.66,11.08,6.87,24.49,8.88,36.48,13.21,7.72,2.79,13.45,6.52,21.72,8.55,2.26.56,10.23,1.03,10.78,2.97s-2.47,4.16-3.63,4.16c-2.09,0-7.64-.42-9.14,0Z"/>
  <path class="e" d="M287.84,448.72s-.01-.04-.02-.07c-4.63,2.58-9.38,4.93-14.17,6.96-11.38,4.84-26.96,8.49-37.32,14.08-3.84,2.07-9.22,11.61-12.84,4.71-1.66-3.17.85-5.07,3.05-7.08,1.61-1.47,4.71-2.34,4.17-4.68-.83-3.67-4.41-11.27-6.06-15.11-4.2-9.78-9.89-21.83-15.43-30.84-.28-.45-1.57-3.39-2.37-2.48-1.39,21.83-14.37,38.72-25.7,56.29l31.97,43.44c1.72,1.11,11.48-5.01,13.9-6.14,8.06-3.75,17.03-7.54,25.37-10.61,17.34-6.39,31.02-7.73,46.1-19.58,1.67-1.31,3.3-2.69,4.92-4.08-7.75-4.41-12.72-16.88-15.58-24.82Z"/>
  <path class="h" d="M118.33,547.89c-8.85.39-16.75,4.66-25.01,7.26-18.68,5.88-37.14,9.16-56.87,6.95-14.72-1.65-28.11-5.54-25.23-23.38.72-4.45,5.08-8.03,5.31-10.05.28-2.5-6.77-9.59-1.87-12.2,3.93,4.01,8.74,6.94,14.01,8.84,25.41,9.19,53.56,13.4,80.55,13.68,3.11.72,1.93,1.81,3.05,3.19,1.55,1.91,4.83,3.21,6.06,5.7Z"/>
  <path class="h" d="M245.48,709.36c-8.81,8.97-19.3,16.95-30.26,23.15-1.66.94-4.18,2.48-6.09,2.48,21.68-23.98,37.71-53.4,49.78-83.31l6.75-20.95c.52,18.35-.63,36.59-1.96,54.87-1,4.74-14.26,19.73-18.22,23.76Z"/>
  <path class="h" d="M131.38,522.24c4.99,8.02,13.34,15.07,14.8,24.93,1.22,8.27-.25,6.06-5.88,8.13-3.58,1.31-6.99,3.21-10.54,4.59.64-8.11-1.94-14.01-7.42-19.72-3-3.13-10.15-6.21-6.86-10.84,3.86-5.43,9.73-6.23,15.9-7.09Z"/>
  <path class="n" d="M249.11,648.44c-9.72,29.49-30.55,69.1-55.69,87.96-1.76,1.32-10.6,7.37-12.03,7.45-2.28.13-3.39-3.14-4.81-4.58,1.19.16,2.02-.14,3.05-.66,17.76-8.84,39.44-37.75,49.95-54.58,6.26-10.03,14.28-23.68,18.55-34.58.16-.4.4-2.46.98-1.02Z"/>
  <path class="h" d="M155.28,522.36c3.81,5.68,9.04,10.41,12.09,16.61-.15.76-11.03,7.78-12.18,7.8-2.59-8.74-7.39-16.01-12.88-23.15,2.84.46,11.17-2.76,12.97-1.26Z"/>
  <path class="h" d="M270.8,625.01c-.85-.02-1.08-1.61-1.39-2.31-.84-1.9-1.72-3.88-2.03-5.96l3.72-16.29-.29,24.57Z"/>
  <path class="m" d="M159.3,417.18c5.86-.55,4.3,12.28-2,13.48-9.88,1.89-7-12.64,2-13.48Z"/>
  <g>
    <path class="g" d="M242.82,771.83c-2.89,11-2.99,19.51,6.28,27.14,5.11,4.21,11.17,5.98,17.13,8.56-14.5,11.14-28.08,24.2-35.87,41.05,3.02,4.61,6,10.05,8.29,15.11,4.96,10.94,11.01,34.89,21.86,40.4,5.68,2.89,13.84,4.61,19.44,7.4,3.29,1.63,5.95,5.78,2.26,8.56-4.95,3.73-15.45-.77-21.38-.87-12.73-.22-21.64,5.62-31.7-5.98-11.34-13.07-16.3-25.91-32.39-35.58-11.22-6.74-36.15-12.34-29.98-30.78,4.07-12.16,19.21-15.25,28.84-20.85,10.9-6.33,23.49-20.98,31.22-31.04,5.71-7.44,10.46-15.57,16-23.12Z"/>
    <path class="i" d="M379.32,766.13c2.71-.37,12.41-5.27,13.59-1.32.53,1.78.06,7.17-2.34,6.94-1.17-.12-8.22-3.63-9.84-4.46-.53-.28-1.36-.34-1.41-1.15Z"/>
    <path class="d" d="M269.67,745.56c-1.14,5.73-4.88,19.18,1.51,22.77,2.57,1.44,3.37-.3,5.34-1.64.45,13.51-12.31,9.18-13.64-2.06-.6-5.1,0-18.47,6.79-19.07Z"/>
    <path class="o" d="M206.27,828.96c-.06,1.44-1.12,2.46-1.55,3.87-.7,2.27-2.67,13.34-3.95,13.78-1.96.67-3.65-.74-4.08-2.63-1.47-6.54,5.99-10.79,9.58-15.02Z"/>
  </g>
  <g>
    <path class="l" d="M211.98,180.57c-11.38-2.23-24.49,2.27-31.7,11.42-1.66,2.11-5.09,7.97-.14,7.32,3.89-.51,12.51-4.92,17.12-6.34,2.56-.79,12.41-3.75,14.32-3.28,4.56,9.44,12.86,15.34,19.54,22.86,3.43,3.86,11.37,11.74,2.57,14.59-2.61.85-10.56,3.18-12.99,3.56-4.26.67-9.08-1.99-6.43-6.14-5.21-2.06-7.97,7.16-3.38,9.94,5.1,3.09,11.78-.43,15.68,3.17,6.17,5.7-2.16,5.13-5.89,6.15-4.31,1.17-11.44,4.46-11.58,9.6-.06,2.2.66,2.81,3.12,2.56,4.36-.44,14.27-11.34,15.71-.8.41,3.01.05,6.36-.99,9.2-.38,1.03-2.28,3.67-2.28,3.9,0,.26,2.51,3.05,3.03,4.28,3.35,7.92,1.57,10.01-5.99,11.72-12.61,2.84-26.11,1.54-38.39-2.17-15.16-4.58-32.17-13.01-35.29-30.11-4.18,1.76-8.7,4.6-13.42,4.61-14.79.05-29.01-23.16-23.81-36.43,3-7.65,12.9-7.71,19.52-5.02,6.48,2.63,11.9,16.15,21.56,12.97,6.48-2.14,2.84-8.59,2.45-12.99-.89-9.94,1.03-9.44,5.03-16.66s.91-15.2-3.43-21.5c-1.84-2.67-4.69-4.78-6.18-6.95-.33-.48-.8-.56-.56-1.43,16.58-1.43,31.92-6.56,46.82-13.71,1.49,6.97,5.8,13.71,10.3,19.12.7.84,6.42,5.89,5.69,6.58Z"/>
    <path class="j" d="M144.51,266.9c8.67,14.93,27.22,21.41,43.49,23.93-.94,3.21-1.83,6.63-3.15,9.7-.5,1.16-4.38,8.6-4.84,8.9-.59.37-1.14.29-1.73.01-19.47-12.91-43.31-17.71-66.24-12.33,3.86-7.16,10.02-10.66,15.9-15.8.13-5.04.87-10.08-.48-15.04,5.51,1.61,11.4,1.45,17.04.63Z"/>
    <path class="b" d="M143.45,237.7c-2.03,5.12-9.15,6.8-13.88,4.47s-3.92-4.72-2.76-9.41c.53-2.15,1.69-3.87,2.37-5.91l-14.27,4c-1.56-9.39,3.42-12.58,12.23-11.38,10.38,1.43,3.32,11.94,7.5,17.06,2.12,2.6,6.18,3.1,8.82,1.17Z"/>
    <path class="f" d="M199.27,194.99c14.25-2.65,11.19,15.67,3.24,16.43-3.8.37-3.48-4.17-6.08-5.28-3.81-1.63-11.06,1.7-3.29-7.01,1.52-1.7,3.84-3.71,6.14-4.14Z"/>
  </g>
</svg>