<?xml version="1.0" encoding="UTF-8"?>
<svg xmlns="http://www.w3.org/2000/svg" viewBox="0 0 2005.85 1100.15">
  <defs>
    <style>
      .b {
        fill: #c8e4fd;
      }

      .c {
        opacity: .89;
      }
    </style>
  </defs>
  <g id="a" data-name="Layer 8" class="c">
    <path class="b" d="M27.53,908.76c23.87-30.5,72.12-44.33,109.05-49.97,27.98-4.28,78.89-.14,103.25-7.81,15.97-5.03,31-30.39,45.49-40.33,39.2-26.91,79.73-21.16,120.81-2.87-6.18-98.45,81.55-172.08,176.74-166.54-11.6-96.34,68.13-192.44,164.09-201.91,43.73-4.31,95.23,15.71,121.38-30.07,19.39-33.93,23.07-65.62,50.64-100.81,158.57-202.47,484.67-89.89,481.66,166.2,87.54-4.04,182.29,57.84,208.42,142.44,10.42,33.73,5.87,71.73,19.29,101.87,11.28,25.34,32.52,27.38,52.38,43.54,33.94,27.63,48.27,62.58,53.64,105.37,44.4-.93,90.33,3.99,130.92,23.06,6.69,3.14,22.53,10.78,25.07,17.85H27.53Z"/>
  </g>
</svg>