<?xml version="1.0" encoding="UTF-8"?>
<svg xmlns="http://www.w3.org/2000/svg" viewBox="0 0 2005.85 1100.15">
  <defs>
    <style>
      .b {
        opacity: .89;
      }

      .c {
        fill: #e8f3fb;
      }

      .d {
        fill: #fdfdfd;
      }
    </style>
  </defs>
  <g id="a" data-name="Layer 8" class="b">
    <g>
      <path class="c" d="M1309.44,311c19.56,3.57,56.06,63.44,64.94,82.73,16.94,36.79,26.27,77.64,24.93,118.46,94.07-9.86,189.88,63.36,212.03,153.93,8.68,35.47-.9,78.16,27.46,105.23,9.16,8.74,25.37,14.38,36.5,23.43,31.99,26,55.23,64.29,53.59,106.93,53.12-1.1,119.57,3.01,158.39,42.74-489.32-.13-978.82.32-1468.14.04,13.8-34.88,60.62-50.4,95.19-45.96,17.42,2.24,29.88,12.1,46.03,15.98-6.94-96.97,81.36-171.73,175.54-166.89-10.29-100.61,72.84-195.35,173.15-201.33,45.85-2.73,86.35,19.41,115.32-34.53,35.69-66.44,37.84-107.81,109.85-155.53,41.2-27.31,126.61-54.09,175.21-45.22Z"/>
      <path class="d" d="M1309.44,311c-48.61-8.87-134.01,17.91-175.21,45.22-72.01,47.72-74.16,89.09-109.85,155.53-28.97,53.94-69.47,31.79-115.32,34.53-100.32,5.98-183.44,100.73-173.15,201.33-94.18-4.84-182.48,69.92-175.54,166.89-16.16-3.88-28.62-13.74-46.03-15.98-34.57-4.44-81.39,11.09-95.19,45.96-128.35-.07-256.88.05-385.23,0v-4.28c20.54-33.1,97.91-47.52,134.88-51.31,32.21-3.3,63.3,8.07,91.83-15.18,7.01-5.71,9.23-14.17,15.15-19.09,40.14-33.36,84.26-39.72,130.48-12.87.17-97.27,79.46-170.1,175.56-166.91-5.96-102.21,75.06-195.18,177.44-201.33,32.47-1.95,58.06,12.34,87.72-6.48,29.57-18.77,34.34-60.49,50.84-90.41,81.69-148.09,290.22-186.97,411.63-65.62Z"/>
      <path class="c" d="M33.91,944.48l-4.19-2.14c-.14-2.63,4.07-1.94,4.19-2.14v4.28Z"/>
    </g>
  </g>
</svg>