<?xml version="1.0" encoding="UTF-8"?>
<svg xmlns="http://www.w3.org/2000/svg" viewBox="0 0 2005.85 1100.15">
  <defs>
    <style>
      .b {
        fill: #c8e4fd;
      }

      .c {
        opacity: .89;
      }

      .d {
        fill: #e8f3fb;
      }
    </style>
  </defs>
  <g id="a" data-name="Layer 8" class="c">
    <g>
      <path class="b" d="M764.87,959.24c-247.86-.04-495.98,1.25-743.76-1.47,31.3-31.26,82.8-46.59,125.96-51.84,25.16-3.06,66.14,1.03,87.47-4.39,20.56-5.23,35.58-30.3,52.28-42.54,39.38-28.85,80.76-23.85,122.45-3.49-5.66-97.34,82.43-175.74,177.83-168.88-7.22-109.5,80.93-205.71,191.03-207.6,27.6-.47,50.69,10.77,77.75-5.15,31.73-18.66,43.39-80.14,66.61-114.15,152.23-223.03,502.54-109.28,497.26,158,105.96-6.64,208.16,77.34,221.95,182.54,1.47,11.19-.33,22.65,1.14,34.42,7.19,57.34,40.6,51.67,73.33,83.73,25.98,25.45,40.77,63.06,41.4,99.36,41.04-1.61,82.94,1.22,121.45,16.34,4.87,1.91,37.16,17.62,38.55,19.26.31.37,1.1,6.24-1.47,5.89-84.44.03-168.94-.1-253.35-.01-13.13-14.5-36.2-18.51-54.86-20.7-4.65-.55-21.44.78-22.2-.03-.7-.74-.17-14.25-1.97-20.27-10.08-33.73-47.02-36.42-51.18-61.42-1.09-6.55.81-13.74-.48-20.25-10.58-53.43-51.6-88.15-106.39-87.71.34-137.49-179.66-181.79-245.56-57.43-6.97,13.15-6.43,29.41-21.36,37.9-15.41,8.77-22.27,1.29-36.77,1.49-51.03.71-94.73,47.13-90.42,98.02-46.52-.22-84.93,32.72-85.94,80.02-17.93-7.77-39.02-9.58-56.14,1.62-7.77,5.08-14.63,17.96-23.69,20.76-11.04,3.41-23.05-.06-34.19,1.37-22.25,2.86-53.53,6.81-66.72,26.62Z"/>
      <path class="d" d="M764.87,959.24c13.19-19.81,44.47-23.76,66.72-26.62,11.14-1.43,23.15,2.05,34.19-1.37,9.06-2.8,15.92-15.68,23.69-20.76,17.12-11.21,38.21-9.4,56.14-1.62,1.01-47.29,39.42-80.24,85.94-80.02-4.32-50.89,39.39-97.31,90.42-98.02,14.5-.2,21.36,7.27,36.77-1.49,14.92-8.49,14.38-24.74,21.36-37.9,65.9-124.36,245.9-80.06,245.56,57.43,54.8-.45,95.81,34.27,106.39,87.71,1.29,6.51-.61,13.7.48,20.25,4.16,25,41.1,27.7,51.18,61.42,1.8,6.02,1.27,19.53,1.97,20.27.76.81,17.55-.52,22.2.03,18.66,2.19,41.73,6.2,54.86,20.7-299.24.29-598.62.05-897.87,0Z"/>
    </g>
  </g>
</svg>