<?xml version="1.0" encoding="UTF-8"?>
<svg id="a" data-name="Layer 1" xmlns="http://www.w3.org/2000/svg" viewBox="0 0 1382.06 1041.14">
  <defs>
    <style>
      .b {
        fill: #9ca5a2;
      }

      .b, .c, .d, .e, .f, .g, .h, .i, .j, .k, .l, .m, .n, .o, .p, .q, .r, .s, .t, .u, .v, .w, .x, .y, .z, .aa, .ab, .ac, .ad, .ae, .af, .ag, .ah, .ai, .aj, .ak {
        fill-rule: evenodd;
      }

      .c {
        fill: #4e5e59;
      }

      .d {
        fill: #7f8b88;
      }

      .e {
        fill: #4e5f59;
      }

      .f {
        fill: #52635e;
      }

      .g {
        fill: #242f2e;
      }

      .h {
        fill: #4c5d57;
      }

      .i {
        fill: #bbc1bf;
      }

      .j {
        fill: #61706b;
      }

      .k {
        fill: #4d5e58;
      }

      .l {
        fill: #53635e;
      }

      .m {
        fill: #b1b8b6;
      }

      .n {
        fill: #4b5c57;
      }

      .o {
        fill: #aab3b0;
      }

      .p {
        fill: #f8f9f9;
      }

      .q {
        fill: #848f8c;
      }

      .r {
        fill: #4e5f5a;
      }

      .s {
        fill: #99a3a0;
      }

      .t {
        fill: #f9faf9;
      }

      .u {
        fill: #f9fafa;
      }

      .v {
        fill: #556561;
      }

      .w {
        fill: #4b5d57;
      }

      .x {
        fill: #4f605b;
      }

      .y {
        fill: #212d2e;
      }

      .z {
        fill: #f8f8f8;
      }

      .aa {
        fill: #4d5f57;
      }

      .ab {
        fill: #fafafa;
      }

      .ac {
        fill: #eeefef;
      }

      .ad {
        fill: #4c5e57;
      }

      .ae {
        fill: #e9c39e;
      }

      .af {
        fill: #fafbfb;
      }

      .ag {
        fill: #4e5e5a;
      }

      .ah {
        fill: #f9f9f9;
      }

      .ai {
        fill: #eccfb4;
      }

      .aj {
        fill: #606f6a;
      }

      .al {
        fill: #d17677;
      }

      .ak {
        fill: #eac39e;
      }
    </style>
  </defs>
  <path class="g" d="M674.06,18.14c1.04,1.43,1.7,3.1,2,5-4.67,2.33-9.33,4.67-14,7-29.32,11.77-58.32,24.1-87,37-23.79,9.73-47.45,19.73-71,30-7.85,3.09-15.51,6.43-23,10-14.45,5.73-28.79,11.73-43,18-8.42,3.47-16.75,7.14-25,11-7.91,2.96-15.58,6.3-23,10-17.41,6.57-34.41,13.91-51,22h-12c.62-1.84,1.96-3,4-3.5,23.56-9.9,46.89-20.07,70-30.5,10.74-3.54,21.07-7.87,31-13,11.24-4.3,22.24-8.96,33-14,8.84-3.28,17.5-6.94,26-11,52.67-22.33,105.33-44.67,158-67,3.83-2.06,7.83-3.72,12-5,2.73-1.37,5.4-2.7,8-4,1.78-.39,3.45-1.06,5-2Z"/>
  <path class="y" d="M708.06,18.14c63.7,27.85,127.7,55.18,192,82,.34.84,1.01,1.17,2,1,1.33.67,2.67,1.33,4,2,48.97,20.82,97.97,41.65,147,62.5.88.71,1.55,1.54,2,2.5h-10c-1.11-.06-2.11-.39-3-1-47.33-20-94.67-40-142-60-1.28-1.43-2.95-2.1-5-2-63.04-27.52-126.38-54.52-190-81,1.01-2.07,2.01-4.07,3-6Z"/>
  <path class="ai" d="M1042.06,167.14c.89.61,1.89.94,3,1-236.33,1.33-472.67,1.33-709,0h596c36.84.33,73.5,0,110-1Z"/>
  <path class="ae" d="M48.06,168.14h288c236.33,1.33,472.67,1.33,709,0h69c82.65.98,165.32,1.31,248,1,12.3,3.25,18.97,11.25,20,24v764c-9.37,7.37-16.87,16.37-22.5,27-3.99-5.82-8.49-11.15-13.5-16v-1c.17-247.67,0-495.33-.5-743-3.34-9.34-9.84-15.18-19.5-17.5-424-.67-848-.67-1272,0-8.76,2.43-14.6,7.93-17.5,16.5-.67,254.33-.67,508.67,0,763,1.81,5.95,5.31,10.62,10.5,14-4.18,3.33-7.68,7.33-10.5,12-5.06-11.12-10.89-21.78-17.5-32,2.88-6.21,6.88-11.54,12-16-.31-.81-.81-1.47-1.5-2-5.62,3.29-10.29,7.62-14,13-4.45-5.3-9.62-9.63-15.5-13V190.14c.99-5.64,3.32-10.64,7-15,3.52-2.93,7.52-5.1,12-6.5,9.66-.5,19.33-.67,29-.5Z"/>
  <path class="n" d="M1346.06,967.14c-1.64-1.16-3.3-2.32-5-3.5-1.44-.78-2.78-.61-4,.5,3.02,3.35,6.02,6.69,9,10v2c.49,8.9-2.51,16.23-9,22-1.01-9.67-2.67-19.33-5-29-.59.21-1.09.54-1.5,1-1.17,10.65-2,21.31-2.5,32,0,.67-.33,1-1,1h-9c-.69-10.05-1.86-20.05-3.5-30-1.01-.84-2.18-1.17-3.5-1,.01,8.69-.49,17.36-1.5,26-4.46-6.79-9.96-12.62-16.5-17.5,3.48-7.8,8.31-14.63,14.5-20.5.75-1.14.58-2.14-.5-3-4.81,2.49-8.97,5.83-12.5,10-6.66,8.65-12.83,17.65-18.5,27-4.61-7.11-9.44-14.11-14.5-21-.72-3.65-1.22-7.31-1.5-11h-3c.16,2.03,0,4.03-.5,6-1.93-2.04-4.09-3.71-6.5-5,4.16-7.75,3.99-15.41-.5-23-9.62-13.28-20.28-25.61-32-37-3.67,1-5,3.34-4,7,10.38,11.11,20.05,22.78,29,35,3.49,7.77,1.49,13.44-6,17-2.48-6.12-6.32-11.29-11.5-15.5-11.61-3.91-20.11-.41-25.5,10.5-.62,4.4-1.78,8.4-3.5,12,1.35-1.32,1.18-2.32-.5-3-1.67.85-3.17,1.85-4.5,3-2.36.16-4.69,0-7-.5-1.31-7.96-4.98-14.62-11-20-11.63-4.79-20.46-1.62-26.5,9.5-1.2,3.23-1.7,6.56-1.5,10-4.35.17-8.68,0-13-.5-.52-.56-.86-1.23-1-2,12.25-16.16,16.75-34.32,13.5-54.5-4.66-24.32-12.33-47.65-23-70-8.9-19.48-19.57-37.81-32-55-8.36-9.71-18.36-17.04-30-22-5.07,1-6.23,3.5-3.5,7.5,13.55,5.88,24.38,15.04,32.5,27.5,19.89,31.11,34.89,64.45,45,100,6.06,22.28,2.72,42.95-10,62-1.16,12.67,4.68,18,17.5,16,1.71,2.21,2.71,4.71,3,7.5-.85,6.15-1.52,12.32-2,18.5h-23c-6.32-16.48-15.66-30.98-28-43.5-1.57-1.08-3.23-1.91-5-2.5-1.43.23-1.93.9-1.5,2,11.14,12.62,18.31,27.28,21.5,44h-2c-4.32-7.98-9.16-15.64-14.5-23-3.76-4.43-8.09-8.1-13-11-.5.33-1,.67-1.5,1,8.34,9.68,14.34,20.68,18,33H147.06c3.37-8.41,7.54-16.41,12.5-24,1.41-1.29,2.91-2.45,4.5-3.5-.52-.69-1.19-1.19-2-1.5-10.61,7.58-18.61,17.25-24,29h-3c2.98-12.64,8.15-24.3,15.5-35,1.15-1.24,2.49-2.24,4-3,.59-.98.26-1.65-1-2-2.75,1.09-5.25,2.59-7.5,4.5-9.46,10.64-17.13,22.47-23,35.5h-22c-.52-5.01-1.19-10.01-2-15,2.18-5.68,5.68-10.35,10.5-14,.59-.98.26-1.65-1-2-4.84,1.83-8.84,4.83-12,9-5.45,6.95-10.28,14.28-14.5,22h-5c-6.08-12.75-14.75-23.42-26-32-1.08.86-1.25,1.86-.5,3,7.55,8.42,13.05,18.08,16.5,29h-3c-4.86-9.86-11.86-17.86-21-24-.67.33-1.33.67-2,1,5.09,4.66,9.09,10.16,12,16.5-1.73,1.19-3.4,2.36-5,3.5h-1c-5.19-3.38-8.69-8.05-10.5-14-.67-254.33-.67-508.67,0-763,2.9-8.57,8.74-14.07,17.5-16.5,424-.67,848-.67,1272,0,9.66,2.32,16.16,8.16,19.5,17.5.5,247.67.67,495.33.5,743Z"/>
  <path class="ah" d="M562.06,213.14c4.8-.38,9.46.12,14,1.5,1.53,2.88.86,5.21-2,7-6.37.31-12.71.98-19,2-59.03,18.52-119.03,22.36-180,11.5-14.1.38-26.43,5.22-37,14.5-19.25,16.71-37.75,34.21-55.5,52.5-10.6,15.52-19.93,31.85-28,49-4.42,7.83-9.08,15.5-14,23-3.6,5.29-7.1,5.29-10.5,0,12.85-20.35,24.68-41.35,35.5-63,9.3-14.31,20.47-27.14,33.5-38.5,12-10.67,24-21.33,36-32,11.31-8.88,24.14-13.38,38.5-13.5,16.59.61,33.09,2.11,49.5,4.5,30.26,1.7,60.26-.3,90-6,16.38-4.53,32.72-8.69,49-12.5Z"/>
  <path class="t" d="M635.06,215.14c10.89,1.91,21.56,4.74,32,8.5,27.56,10.45,54.89,21.45,82,33,19.21,7.94,39.21,12.11,60,12.5,19.72-1.64,39.39-3.8,59-6.5,69.16-6.27,130.16,12.73,183,57,19.68,18.34,35.52,39.51,47.5,63.5,1.42,3.98.25,6.65-3.5,8-1.53-.03-2.7-.7-3.5-2-29.16-58.15-75.32-95.31-138.5-111.5-25.32-6.09-50.99-8.43-77-7-15.71,1.67-31.37,3.67-47,6-15.7.88-31.37.55-47-1-12.56-2.89-24.9-6.56-37-11-31.52-13.84-63.52-26.51-96-38-4.73-.68-9.4-1.68-14-3-2.6-2.83-2.6-5.66,0-8.5Z"/>
  <path class="t" d="M560.06,227.14c13.71-.36,27.37.14,41,1.5,17.66,2.08,32.49,9.58,44.5,22.5,15.62,20.23,28.95,41.89,40,65,4.14,20.98,2.81,41.64-4,62-7.99,31.65-26.15,55.48-54.5,71.5-40.47,23.07-82.8,42.07-127,57-19.68,6.34-39.34,12.67-59,19-13.5,2.16-22-3.34-25.5-16.5-4.76-25.45-6.43-51.12-5-77,1.96-18.07,8.46-34.24,19.5-48.5,3.68-1.31,6.01-.15,7,3.5-16.5,25.95-22.34,54.28-17.5,85,.55,12.5,2.22,24.83,5,37,1.77,5.45,5.43,8.12,11,8,65.25-17.19,127.42-42.03,186.5-74.5,20-11,34.83-26.83,44.5-47.5,7.26-18.54,11.76-37.71,13.5-57.5-.05-7.8-1.55-15.3-4.5-22.5-11.46-22.76-25.29-43.92-41.5-63.5-11.02-8.12-23.36-13.12-37-15-13.33-.33-26.67-.67-40-1-1.8-3.86-.8-6.69,3-8.5Z"/>
  <path class="ac" d="M312.06,330.14c-.74.13-1.41-.04-2-.5-.1-1.37.07-2.87.5-4.5-4.39,4.11-7.22,9.11-8.5,15-1.12,6.25-1.29,12.58-.5,19,1.03,1.53,2.2,2.86,3.5,4,.09,2.86,1.26,5.19,3.5,7-.61-2.08-1.44-4.25-2.5-6.5.07-.77.4-1.27,1-1.5,8.25,15.63,21.25,22.63,39,21-4.82.83-9.82,1.33-15,1.5,6.67.67,6.67,1.33,0,2,12.49,1.56,22.82-2.27,31-11.5,2.39-2.41,4.55-5.08,6.5-8,2-5.33,4-10.67,6-16-2.85,28.5-18.68,41.33-47.5,38.5-25.24-9.99-34.41-28.16-27.5-54.5,12.95-23.65,31.78-30.15,56.5-19.5,1.39.89,1.22,1.39-.5,1.5-1.47-.83-2.97-1-4.5-.5,9.24,5.9,15.41,14.07,18.5,24.5.82,2.73.65,5.39-.5,8-1.73-14.99-9.73-24.82-24-29.5-10.03-1.72-19.36-.05-28,5-1.87,1.7-3.54,3.54-5,5.5Z"/>
  <path class="aj" d="M326.06,315.14c4.75-.23,9.41.27,14,1.5-8.37-.19-16.21,1.64-23.5,5.5-.5-.17-1-.33-1.5-.5,3.41-2.78,7.07-4.94,11-6.5Z"/>
  <path class="s" d="M312.06,330.14c-3.37,3.41-5.71,7.41-7,12,.54-4.14-.46-4.81-3-2,1.28-5.89,4.11-10.89,8.5-15-.43,1.63-.6,3.13-.5,4.5.59.46,1.26.63,2,.5Z"/>
  <path class="l" d="M305.06,342.14c-.62.11-1.12.44-1.5,1-.87,6.79-.37,13.46,1.5,20-1.3-1.14-2.47-2.47-3.5-4-.79-6.42-.62-12.75.5-19,2.54-2.81,3.54-2.14,3,2Z"/>
  <path class="o" d="M305.06,342.14c-.82,6.76-.16,13.43,2,20-.6.23-.93.73-1,1.5,1.06,2.25,1.89,4.42,2.5,6.5-2.24-1.81-3.41-4.14-3.5-7-1.87-6.54-2.37-13.21-1.5-20,.38-.56.88-.89,1.5-1Z"/>
  <path class="d" d="M362.06,375.14c-8.18,9.23-18.51,13.06-31,11.5,6.67-.67,6.67-1.33,0-2,5.18-.17,10.18-.67,15-1.5,3.93-2.64,8.43-5.64,13.5-9,.67.75,1.5,1.09,2.5,1Z"/>
  <path class="j" d="M318.06,383.14c2.68-1.28,5.35-.94,8,1,3.72-1.16,3.89-.49.5,2-2.9-.91-5.73-1.91-8.5-3Z"/>
  <path class="p" d="M223.06,389.14c6.17-1.33,8.34,1.01,6.5,7-5.76,7.94-10.93,16.27-15.5,25,10.02,3.18,17.85,9.18,23.5,18,2.53,3.7,3.87,7.7,4,12-1.81,1.9-3.98,2.4-6.5,1.5-3.17-6.84-7.51-12.84-13-18-3.85-3.03-8.18-4.03-13-3-4.06,8.84-7.72,17.84-11,27,10.48,1.31,18.31,6.48,23.5,15.5,1.83,5.49,0,7.99-5.5,7.5-3.72-9.53-10.72-14.03-21-13.5-1.64,8.42-3.98,16.58-7,24.5-4.01,1.42-6.34.08-7-4,7.59-36,21.59-69.17,42-99.5Z"/>
  <path class="p" d="M235.06,388.14c7.77,1.81,14.27,5.81,19.5,12,5.41,6.42,9.58,13.59,12.5,21.5-1,3.67-3.34,5-7,4-5.28-13.27-14.11-23.44-26.5-30.5-.83-2.67-.33-5,1.5-7Z"/>
  <path class="p" d="M335.06,405.14c10.41-.7,19.58,2.3,27.5,9,1.91,5.59.08,7.76-5.5,6.5-7.6-5.87-16.27-8.2-26-7-1.83-1.47-2.33-3.3-1.5-5.5,1.72-1.37,3.55-2.37,5.5-3Z"/>
  <path class="ah" d="M1166.06,664.14c-.28-.79-.78-1.46-1.5-2-.5,5.32-.67,10.66-.5,16-.16,3.02,0,6.02.5,9,8.88,17.76,17.21,35.76,25,54,2.16,15.09,4.82,30.09,8,45,1.47,4.08,3.14,8.08,5,12,4.34,6.5,8.84,12.83,13.5,19-.79,3.3-2.79,4.8-6,4.5-10.83-10.84-18.33-23.68-22.5-38.5-1.92-13.02-3.92-26.02-6-39-5.39-12.45-11.06-24.79-17-37,.13,14.23,2.13,28.23,6,42,8.94,25.49,18.27,50.82,28,76,5.61,15.82,10.61,31.82,15,48,1.17,4.98,1.83,9.98,2,15-2.07,2.15-4.41,2.48-7,1-10.55-40.3-23.88-79.64-40-118-9.59-24.58-14.09-50.08-13.5-76.5,1.02-34.16,1.19-68.33.5-102.5-.9-51.02-11.9-99.69-33-146-6.25-11.33-12.08-22.83-17.5-34.5,1.19-4.76,3.69-5.59,7.5-2.5,33.97,56.85,51.3,118.52,52,185,.33,16.67.67,33.33,1,50,8.2,15.73,15.86,31.73,23,48,4.07,12.42,7.07,25.09,9,38,3.35,6.71,7.69,12.71,13,18,6.22,9.1,10.22,19.1,12,30,1.72,16.7,3.72,33.37,6,50,.94,3.49,2.28,6.83,4,10,4.18,5.51,8.35,11.01,12.5,16.5-1,3.67-3.34,5-7,4-11.44-10.72-18.28-23.88-20.5-39.5-.47-16.54-2.47-32.88-6-49-3.96-10.95-9.96-20.62-18-29-1.33-2.67-2.67-5.33-4-8-2.26-12.52-5.26-24.85-9-37-4.57-10.81-9.41-21.48-14.5-32Z"/>
  <path class="ah" d="M180.06,564.14c-1.32,6.51-1.32,13.18,0,20,.61-.12.94-.46,1-1,12.35-5.73,25.35-7.57,39-5.5,2.55,2.4,2.55,4.73,0,7-13.73-.99-26.57,1.85-38.5,8.5.43,15.47,3.43,30.47,9,45,9.44-8.5,20.11-11.16,32-8,.92,2.81.09,4.97-2.5,6.5-9.55-.31-17.71,2.86-24.5,9.5-.67,1.67-.67,3.33,0,5,5.39,12.44,11.55,24.44,18.5,36,3.85-3.69,7.85-7.19,12-10.5,2.67-1.33,5.33-2.67,8-4,5.09-.83,6.92,1.34,5.5,6.5-6.88,3.11-12.88,7.44-18,13-1.19,1.54-1.52,3.21-1,5,11.06,14.23,25.22,23.89,42.5,29,11.87-3.71,20.04-11.37,24.5-23,2.33-2.67,4.67-2.67,7,0,.58,2.76.25,5.42-1,8-3.43,6.42-7.93,11.92-13.5,16.5,13.99,1.04,27.32-1.46,40-7.5,1.95-7.65.95-14.82-3-21.5,1.61-4.86,4.45-5.69,8.5-2.5,2.84,5.68,4.51,11.68,5,18,7.03-4.19,12.53-9.86,16.5-17-.71-2.28-1.21-4.61-1.5-7-2.48-2.57-5.15-4.9-8-7-1.33-5,.5-7.16,5.5-6.5,3.47,2.46,6.63,5.3,9.5,8.5,4.61-15,4.61-30,0-45-5.76-10.46-14.59-14.96-26.5-13.5-6.11,1.09-8.61,4.59-7.5,10.5,6.18,4.42,12.18,9.09,18,14,5.84,13.81,2.67,25.31-9.5,34.5-30.62,14.28-54.46,6.78-71.5-22.5-8.39-18.44-11.72-37.77-10-58,1.23-9.41,2.9-18.74,5-28,5.75-18.76,11.59-37.42,17.5-56,3.7-1.48,6.03-.32,7,3.5-5.43,20.3-11.27,40.46-17.5,60.5-4.98,21.11-4.65,42.11,1,63,5.35,17.9,16.85,29.73,34.5,35.5,11.52,2.47,21.85.13,31-7,5.55-4.98,7.71-11.14,6.5-18.5-3.93-4.89-8.77-8.73-14.5-11.5-9.82-9.43-9.16-18.1,2-26,26.01-7.02,41.51,2.81,46.5,29.5,4.75,35.68-8.75,61.52-40.5,77.5-53.62,21.24-94.46,6.74-122.5-43.5-12.71-23.41-22.04-48.08-28-74-2.02-16.6-2.85-33.27-2.5-50-17.45,1.48-34.11-1.35-50-8.5-7.32-6.74-6.32-12.08,3-16-7.07-4.09-8.4-9.42-4-16,3.38-2.07,7.05-3.24,11-3.5,22.98,2.29,45.31-.54,67-8.5,7.49-3.24,14.49-7.24,21-12,9.36-10.03,20.36-17.7,33-23,8.61-1.37,16.61.3,24,5,5.41,3.73,11.07,7.07,17,10,11.69,1.9,20.52-2.26,26.5-12.5,5.12-12.17,9.79-24.5,14-37,4.36-6.76,10.53-9.6,18.5-8.5,1.08,1.73,1.24,3.56.5,5.5-4.78,1.4-8.78,4.06-12,8-3.28,8.48-5.95,17.14-8,26-4.8,11.81-12.8,20.81-24,27-3.45,18.2,2.72,22.36,18.5,12.5,6.03-4.23,10.53-9.73,13.5-16.5l4.5-4.5c18.51.9,36.51-1.6,54-7.5,4.68.39,6.02,2.73,4,7-17.23,7.74-35.23,10.57-54,8.5-6.47,12.47-16.14,21.47-29,27-7.62,1.52-13.95-.65-19-6.5-12.58,4.42-23.42,1.75-32.5-8-17.02,11.09-35.18,19.92-54.5,26.5-6.6,1.66-13.27,2.99-20,4-15.01.17-30.01.67-45,1.5-.21.59-.54,1.09-1,1.5-7.09.17-14.09,1.01-21,2.5.21.59.54,1.09,1,1.5,14.25,4.88,28.92,6.71,44,5.5-.29-3.15.21-6.15,1.5-9,2.33-1.33,4.67-1.33,7,0-.04,7.32-.2,14.65-.5,22Z"/>
  <path class="ag" d="M253.06,481.14c5.21-.37,10.21.47,15,2.5,6.87,4.27,13.87,8.27,21,12,3.26,1.04,6.59,1.54,10,1.5.42,13.06-5.24,16.56-17,10.5-1.33-1-2.67-2-4-3,2.67-2.33,2.67-4.67,0-7-2-.67-4-.67-6,0-14.48,6.49-28.48,13.83-42,22-11.83,5.14-24.16,8.47-37,10-16.33.67-32.67.67-49,0-5.05-.34-10.05-1.01-15-2-.81-.31-1.48-.81-2-1.5,24.64,1.78,48.64-1.39,72-9.5,15.91-6.91,29.91-16.57,42-29,3.93-2.46,7.93-4.63,12-6.5Z"/>
  <path class="u" d="M499.06,514.14c6.99.83,13.32,3.33,19,7.5,16.54,15.54,32.04,32.04,46.5,49.5,2.56,3.95,4.72,8.11,6.5,12.5-1.72,3.47-4.39,4.3-8,2.5-2.58-4.83-5.41-9.5-8.5-14-11.8-13.47-23.97-26.63-36.5-39.5-6.21-4.6-12.88-8.44-20-11.5-1.43-2.62-1.09-4.95,1-7Z"/>
  <path class="p" d="M750.06,522.14c2.22-.32,4.06.34,5.5,2,1.17,25.34-1.17,50.34-7,75-7.34,24.68-14.67,49.35-22,74-2.25,11.24-2.92,22.57-2,34,10.12,46.96,20.12,93.96,30,141,1.57,9.44,2.4,18.94,2.5,28.5-1.51,13.8-2.01,27.63-1.5,41.5,1.14,3.61,2.81,6.95,5,10,5.5,4.83,11,9.67,16.5,14.5,7.81,6.78,11.31,15.28,10.5,25.5-2.8,9.13-8.97,14.3-18.5,15.5-28.33,1.18-56.66,1.51-85,1-1.56-2.64-1.22-4.97,1-7,27.69-.65,55.36-1.65,83-3,6.62-.79,10.29-4.46,11-11-.72-4.15-2.22-7.98-4.5-11.5-8.36-7.36-16.36-15.02-24-23-1.53-3.59-2.86-7.26-4-11-.43-14.36.07-28.69,1.5-43-.17-9.39-1.01-18.72-2.5-28-10.63-47.55-20.63-95.21-30-143-.85-10.43-.18-20.76,2-31,5.93-21.12,12.26-42.12,19-63,7.03-27.87,10.7-56.21,11-85,1.04-.87,1.88-1.87,2.5-3Z"/>
  <path class="z" d="M494.06,529.14c3.84-.49,5.84,1.17,6,5-2,15.36-4.17,30.69-6.5,46-1.18,4.38-2.51,8.71-4,13-8.52,14.38-16.52,29.04-24,44-2.38,6.89-4.38,13.89-6,21-5.87,30.78-12.21,61.44-19,92-4.42,3.24-6.92,2.07-7.5-3.5,6.78-33.83,13.61-67.66,20.5-101.5,1.67-5,3.33-10,5-15,7.33-12.67,14.67-25.33,22-38,2.82-7.11,4.82-14.45,6-22,.86-12.78,2.53-25.45,5-38,.7-1.19,1.53-2.19,2.5-3Z"/>
  <path class="p" d="M580.06,568.14c1.97-.24,3.8.09,5.5,1-1.43,35.85,3.74,70.68,15.5,104.5-1.83,5.33-4.66,5.83-8.5,1.5-12.18-33.59-17.18-68.25-15-104,1.04-.87,1.88-1.87,2.5-3Z"/>
  <path class="m" d="M180.06,564.14c-.32,6.52.01,12.85,1,19-.06.54-.39.88-1,1-1.32-6.82-1.32-13.49,0-20Z"/>
  <path class="t" d="M746.06,637.14c52.14,13.98,104.8,25.82,158,35.5,21.29,3.75,42.62,4.25,64,1.5,5.61-.39,10.45,1.27,14.5,5,12.85,25.85,30.52,47.85,53,66,.34,4.65-1.82,6.49-6.5,5.5-12.83-10.17-24.33-21.67-34.5-34.5-7.21-10.58-14.04-21.41-20.5-32.5-25.81,1.35-51.48.35-77-3,18.48,19.44,32.32,41.6,41.5,66.5-.78,1.72-2.11,2.72-4,3-2.3-1.98-4.3-4.31-6-7-9.42-20.4-21.58-38.9-36.5-55.5-4.82-3.91-9.82-7.58-15-11-43.05-8.43-85.72-18.43-128-30-5.32-1.77-6.32-4.94-3-9.5Z"/>
  <path class="q" d="M1166.06,664.14c-.67,4.67-1.33,9.33-2,14-.17-5.34,0-10.68.5-16,.72.54,1.22,1.21,1.5,2Z"/>
  <path class="u" d="M602.06,704.14c2.03-.16,4.03,0,6,.5.63.75,1.13,1.58,1.5,2.5,15.6,46.15,31.6,92.15,48,138,7.21,17.43,16.21,33.76,27,49,8.05,13.59,6.71,26.26-4,38l-15.5,15.5c7.91,7.06,11.08,15.89,9.5,26.5-2.33,2.67-4.67,2.67-7,0-.91-4.69-1.91-9.36-3-14-1.95-4.06-5.11-5.56-9.5-4.5-6.66,4.8-8.49,10.97-5.5,18.5.9,1.2,2.07,2.03,3.5,2.5,4.33.33,8.67.67,13,1,2.67,2.33,2.67,4.67,0,7-5.33.67-10.67.67-16,0-6.36-1.7-9.86-5.87-10.5-12.5-.67-3-.67-6,0-9,4.71-9.38,11.54-16.88,20.5-22.5,8.15-7.49,14.99-15.99,20.5-25.5.95-6.17-.39-11.84-4-17-13.89-20.11-24.89-41.78-33-65-14-40.67-28-81.33-42-122-.7-2.43-.54-4.76.5-7Z"/>
  <path class="u" d="M564.06,723.14c6.43-.41,8.27,2.26,5.5,8-31.64,40.6-60.31,83.26-86,128-7.31,11.77-12.14,24.43-14.5,38,.28,3.7.78,7.36,1.5,11,5.41,15.89,11.41,31.56,18,47,2.23,5.83,1.9,11.5-1,17-2.09,1.29-4.25,2.46-6.5,3.5-36.21,4.28-72.55,5.61-109,4-7.82.41-15.16-1.26-22-5-5.72-4.88-7.55-11.05-5.5-18.5,3.58-8.59,9.08-15.76,16.5-21.5,9.44-6.8,18.6-13.97,27.5-21.5,4.34-7.05,6.67-14.72,7-23-1.84-31.14,3.16-61.14,15-90,4.08-11.24,8.75-22.24,14-33,4.06-1.72,6.56-.39,7.5,4-10.14,21.95-18.31,44.62-24.5,68-2.91,17.87-4.24,35.87-4,54-.52,14.22-6.35,25.72-17.5,34.5-7.18,4.76-14.18,9.76-21,15,4.75,1.75,8.25,4.91,10.5,9.5,6.06-4.76,12.56-5.26,19.5-1.5,5.22,5.79,7.56,12.62,7,20.5,26.41,1.05,52.57-.61,78.5-5,.67-2.33.67-4.67,0-7-4.61-12.49-9.61-24.83-15-37-5.52-14.23-5.85-28.57-1-43,11.86-25.4,25.53-49.73,41-73,18.53-28.4,38.03-56.06,58.5-83Z"/>
  <path class="ah" d="M931.06,948.14c-.02,2.07-.35,4.07-1,6-.13,1.72-.46,3.38-1,5-.54.06-.88.39-1,1,1.19.93,2.52,1.26,4,1v-13c3.86-9.57,10.86-12.73,21-9.5,7.18,4.86,10.85,11.69,11,20.5,25.66-.53,51.33-1.03,77-1.5,2.77-1.76,4.27-4.26,4.5-7.5.33-18.67.67-37.33,1-56,2.59-2.53,5.25-2.53,8,0,.67,19,.67,38,0,57-.97,8.3-5.47,13.47-13.5,15.5-43.67,1.12-87.33,1.78-131,2-13.15-3.77-17.31-11.93-12.5-24.5,7.17-9.83,15.67-18.33,25.5-25.5,22.7-20.9,31.2-46.73,25.5-77.5-1.28-25.62-3.78-51.12-7.5-76.5.06-1.44.39-2.77,1-4,2-.67,4-.67,6,0,7.79,37.35,10.96,75.18,9.5,113.5-2.05,14.09-7.38,26.76-16,38-7.2,7.53-14.7,14.7-22.5,21.5,7.16,2.32,11.16,7.15,12,14.5Z"/>
  <path class="af" d="M1035.06,761.14c2.22-.32,4.06.34,5.5,2,.17,37.55,4.01,74.71,11.5,111.5-.09,4.75-2.42,6.41-7,5-9.83-39.12-13.16-78.62-10-118.5Z"/>
  <path class="t" d="M1191.06,969.14h5c1.72-3.6,2.88-7.6,3.5-12,5.39-10.91,13.89-14.41,25.5-10.5,5.18,4.21,9.02,9.38,11.5,15.5,7.49-3.56,9.49-9.23,6-17-8.95-12.22-18.62-23.89-29-35-1-3.66.33-6,4-7,11.72,11.39,22.38,23.72,32,37,4.49,7.59,4.66,15.25.5,23-1.33.67-2.33,1.67-3,3-1.73,1.73-3.73,3.06-6,4-3.82,1.49-7.49,3.16-11,5-9.03,1.14-18.03,2.14-27,3h-55c-2.11-.97-4.44-1.3-7-1-12.82,2-18.66-3.33-17.5-16,12.72-19.05,16.06-39.72,10-62-10.11-35.55-25.11-68.89-45-100-8.12-12.46-18.95-21.62-32.5-27.5-2.73-4-1.57-6.5,3.5-7.5,11.64,4.96,21.64,12.29,30,22,12.43,17.19,23.1,35.52,32,55,10.67,22.35,18.34,45.68,23,70,3.25,20.18-1.25,38.34-13.5,54.5.14.77.48,1.44,1,2,4.32.5,8.65.67,13,.5-.2-3.44.3-6.77,1.5-10,6.04-11.12,14.87-14.29,26.5-9.5,6.02,5.38,9.69,12.04,11,20,2.31.5,4.64.66,7,.5Z"/>
  <path class="ab" d="M446.06,799.14c2.29-.26,4.46.08,6.5,1,3.22,25.9-2.44,49.56-17,71-4.58,5.25-9.74,9.75-15.5,13.5-5,1.33-7.16-.5-6.5-5.5,17.64-11.93,27.64-28.6,30-50,.85-10.06,1.68-20.06,2.5-30Z"/>
  <path class="ah" d="M659.06,799.14c24.04,10.55,39.88,28.55,47.5,54,2.37,6.43,2.87,12.93,1.5,19.5-2.53.9-4.69.4-6.5-1.5-4.03-29.17-18.86-50.84-44.5-65-1.36-2.91-.69-5.24,2-7Z"/>
  <path class="z" d="M965.06,800.14c1.7-.16,3.37,0,5,.5,11.53,11.88,16.69,26.05,15.5,42.5-2.11,6.89-5.28,13.22-9.5,19-3.55,2.81-6.22,2.15-8-2,3.1-5.87,5.94-11.87,8.5-18,1.03-13.91-3.3-25.91-13-36-.41-2.2.09-4.2,1.5-6Z"/>
  <path class="p" d="M1129.06,833.14c11.27,2.42,19.1,9.09,23.5,20,3.34,11.09,4.34,22.42,3,34-2.67,4-5.33,4-8,0-.33-7.67-.67-15.33-1-23-1.34-7.67-4.84-14.17-10.5-19.5-2.92-1.71-5.75-3.54-8.5-5.5-.75-2.34-.25-4.34,1.5-6Z"/>
  <path class="c" d="M913.06,942.14c3.25-.09,6.08.91,8.5,3,1.08,15.97-4.75,19.14-17.5,9.5,2.83-4.32,5.83-8.49,9-12.5Z"/>
  <path class="v" d="M943.06,946.14c3.69-.53,6.86.47,9.5,3,1.56,3.51,2.4,7.18,2.5,11h-15c-.7-5.14.3-9.81,3-14Z"/>
  <path class="x" d="M359.06,952.14c2.03-.16,4.03,0,6,.5,1.07.74,1.74,1.74,2,3-1.91,5.01-4.41,9.51-7.5,13.5-3.44-1.1-5.94-3.27-7.5-6.5,2.15-3.64,4.48-7.14,7-10.5Z"/>
  <path class="e" d="M1224.06,958.14c-1.76-.38-3.42-1.04-5-2-.33.5-.67,1-1,1.5,2.9,2.4,5.23,5.23,7,8.5-5.92,1.43-11.92,2.43-18,3-.99-10.6,3.67-15.44,14-14.5,1.21,1.04,2.21,2.21,3,3.5Z"/>
  <path class="f" d="M930.06,954.14c1.29,1.86,1.29,3.86,0,6-.61-.12-.94-.46-1-1,.54-1.62.87-3.28,1-5Z"/>
  <path class="x" d="M1160.06,955.14c3.15-.29,6.15.21,9,1.5,2.65,3.47,4.65,7.3,6,11.5-6.97,1-13.97,1.33-21,1-.16-2.36,0-4.69.5-7,1.67-2.5,3.5-4.83,5.5-7Z"/>
  <path class="r" d="M393.06,970.14h-15v-3c.05-8.22,4.05-11.38,12-9.5,2.43,3.8,3.43,7.97,3,12.5Z"/>
  <path class="n" d="M1119.06,1003.14h-13c-3.19-16.72-10.36-31.38-21.5-44-.43-1.1.07-1.77,1.5-2,1.77.59,3.43,1.42,5,2.5,12.34,12.52,21.68,27.02,28,43.5Z"/>
  <path class="n" d="M1224.06,958.14c1.12,2.08,2.12,4.25,3,6.5-.34,1.03-1,1.53-2,1.5-1.77-3.27-4.1-6.1-7-8.5.33-.5.67-1,1-1.5,1.58.96,3.24,1.62,5,2Z"/>
  <path class="ae" d="M1382.06,957.14v5c-7.28,9.39-12.61,19.89-16,31.5,2.43,6.36,5.27,12.53,8.5,18.5,2.53-4.4,5.03-8.73,7.5-13v21c-2.09,10.1-8.09,16.76-18,20,1.24-7.08.74-14.08-1.5-21-1.66,7.26-2.82,14.6-3.5,22h-54c.57-6.67,1.24-13.34,2-20-.7-6.14-2.04-12.14-4-18h15c.65,4.64,1.15,9.3,1.5,14,1.86,3.92,3.53,7.92,5,12,1.38-8.62,2.22-17.29,2.5-26,.67,0,1-.33,1-1,3.09-.71,6.09-1.71,9-3,.26,9.05,1.1,18.05,2.5,27,4.12-10.9,8.78-21.57,14-32,.67-1.33.67-2.67,0-4-2.05-5.03-4.55-9.7-7.5-14v-8c5.01,4.85,9.51,10.18,13.5,16,5.63-10.63,13.13-19.63,22.5-27Z"/>
  <path class="i" d="M931.06,948.14h1v13c-1.48.26-2.81-.07-4-1,.12-.61.46-.94,1-1,.06.54.39.88,1,1,1.29-2.14,1.29-4.14,0-6,.65-1.93.98-3.93,1-6Z"/>
  <path class="n" d="M1318.06,1003.14h-16c-1.69-7.05-5.19-13.05-10.5-18-2.67,5.84-4.84,11.84-6.5,18h-17c-3.18-14.3-4.51-14.3-4,0h-10c1.25-9.64,1.75-19.3,1.5-29-1.45-4.28-4.28-6.95-8.5-8,.67-1.33,1.67-2.33,3-3,2.41,1.29,4.57,2.96,6.5,5,.5-1.97.66-3.97.5-6h3c.28,3.69.78,7.35,1.5,11,5.06,6.89,9.89,13.89,14.5,21,5.67-9.35,11.84-18.35,18.5-27,3.53-4.17,7.69-7.51,12.5-10,1.08.86,1.25,1.86.5,3-6.19,5.87-11.02,12.7-14.5,20.5,6.54,4.88,12.04,10.71,16.5,17.5,1.01-8.64,1.51-17.31,1.5-26,1.32-.17,2.49.16,3.5,1,1.64,9.95,2.81,19.95,3.5,30Z"/>
  <path class="ae" d="M.06,962.14c5.88,3.37,11.05,7.7,15.5,13,3.71-5.38,8.38-9.71,14-13,.69.53,1.19,1.19,1.5,2-5.12,4.46-9.12,9.79-12,16,6.61,10.22,12.44,20.88,17.5,32,2.82-4.67,6.32-8.67,10.5-12h1c1,.67,2,1.33,3,2-1.73,1.73-3.07,3.73-4,6,4.85,10.7,8.85,21.7,12,33h-10c-.52-9.5-2.02-18.83-4.5-28-1.46,3.23-2.63,6.56-3.5,10,1.81,6.1,3.81,12.1,6,18h-22c2.64-9.3,1.81-18.3-2.5-27-2.29,8.53-3.79,17.19-4.5,26-2.98-.83-5.65-2.16-8-4,2.73-10.01,6.73-19.51,12-28.5-2.16-5.82-4.33-11.65-6.5-17.5-5.84,13.02-9.34,26.69-10.5,41h-1c-1.25-2.57-2.42-5.23-3.5-8-.5-7.66-.67-15.33-.5-23,3.52-6.53,7.19-13.03,11-19.5-2.33-6.18-6-11.35-11-15.5v-3Z"/>
  <path class="n" d="M135.06,1003.14h-12c5.87-13.03,13.54-24.86,23-35.5,2.25-1.91,4.75-3.41,7.5-4.5,1.26.35,1.59,1.02,1,2-1.51.76-2.85,1.76-4,3-7.35,10.7-12.52,22.36-15.5,35Z"/>
  <path class="n" d="M1346.06,967.14v7c-2.98-3.31-5.98-6.65-9-10,1.22-1.11,2.56-1.28,4-.5,1.7,1.18,3.36,2.34,5,3.5Z"/>
  <path class="ae" d="M1382.06,962.14v37c-2.47,4.27-4.97,8.6-7.5,13-3.23-5.97-6.07-12.14-8.5-18.5,3.39-11.61,8.72-22.11,16-31.5Z"/>
  <path class="h" d="M1247.06,966.14c4.22,1.05,7.05,3.72,8.5,8,.25,9.7-.25,19.36-1.5,29h-1c-3.71-9.09-8.21-17.75-13.5-26-.14-2.42.36-4.76,1.5-7,2.27-.94,4.27-2.27,6-4Z"/>
  <path class="n" d="M1196.06,969.14h-5c1.33-1.15,2.83-2.15,4.5-3,1.68.68,1.85,1.68.5,3Z"/>
  <path class="ak" d="M.06,965.14c5,4.15,8.67,9.32,11,15.5-3.81,6.47-7.48,12.97-11,19.5v-27c3.67-1.87,3.67-3.21,0-4v-4Z"/>
  <path class="n" d="M1104.06,1003.14h-11c-3.66-12.32-9.66-23.32-18-33,.5-.33,1-.67,1.5-1,4.91,2.9,9.24,6.57,13,11,5.34,7.36,10.18,15.02,14.5,23Z"/>
  <path class="b" d="M378.06,967.14v3h15c-5.14.99-10.47,1.32-16,1-.27-1.6.07-2.93,1-4Z"/>
  <path class="n" d="M1337.06,998.14v1c-2.91,1.29-5.91,2.29-9,3,.5-10.69,1.33-21.35,2.5-32,.41-.46.91-.79,1.5-1,2.33,9.67,3.99,19.33,5,29Z"/>
  <path class="n" d="M77.06,1003.14h-10c-3.45-10.92-8.95-20.58-16.5-29-.75-1.14-.58-2.14.5-3,11.25,8.58,19.92,19.25,26,32Z"/>
  <path class="n" d="M101.06,1003.14h-19c4.22-7.72,9.05-15.05,14.5-22,3.16-4.17,7.16-7.17,12-9,1.26.35,1.59,1.02,1,2-4.82,3.65-8.32,8.32-10.5,14,.81,4.99,1.48,9.99,2,15Z"/>
  <path class="n" d="M1241.06,970.14c-1.14,2.24-1.64,4.58-1.5,7,5.29,8.25,9.79,16.91,13.5,26h-13c-1.12-6.2-2.95-12.2-5.5-18-2.27,5.99-4.44,11.99-6.5,18h-13c4.5-9.68,9.5-19.01,15-28,3.51-1.84,7.18-3.51,11-5Z"/>
  <path class="n" d="M147.06,1003.14h-9c5.39-11.75,13.39-21.42,24-29,.81.31,1.48.81,2,1.5-1.59,1.05-3.09,2.21-4.5,3.5-4.96,7.59-9.13,15.59-12.5,24Z"/>
  <path class="k" d="M1230.06,975.14c-5.5,8.99-10.5,18.32-15,28h-9c-3.08-4.41-7.08-7.74-12-10,2.76-5.19,5.76-10.19,9-15,8.97-.86,17.97-1.86,27-3Z"/>
  <path class="ae" d="M1346.06,976.14c2.95,4.3,5.45,8.97,7.5,14,.67,1.33.67,2.67,0,4-5.22,10.43-9.88,21.1-14,32-1.4-8.95-2.24-17.95-2.5-27v-1c6.49-5.77,9.49-13.1,9-22Z"/>
  <path class="n" d="M1141.06,977.14c2.56-.3,4.89.03,7,1,6.12,7.8,11.46,16.13,16,25h-11c-1.48-3.64-2.98-7.31-4.5-11,.11,3.63.28,7.3.5,11h-7c.48-6.18,1.15-12.35,2-18.5-.29-2.79-1.29-5.29-3-7.5Z"/>
  <path class="n" d="M1148.06,978.14h34c-5.77,7.86-10.77,16.2-15,25h-3c-4.54-8.87-9.88-17.2-16-25Z"/>
  <path class="n" d="M1182.06,978.14h6c-4.17,8.01-7.5,16.34-10,25h-11c4.23-8.8,9.23-17.14,15-25Z"/>
  <path class="w" d="M1188.06,978.14h10c-6.77,7.78-12.77,16.11-18,25h-2c2.5-8.66,5.83-16.99,10-25Z"/>
  <path class="n" d="M1198.06,978.14h5c-3.24,4.81-6.24,9.81-9,15,4.92,2.26,8.92,5.59,12,10h-7c-1.65-2.31-3.65-4.31-6-6-1.54,1.74-2.54,3.74-3,6h-10c5.23-8.89,11.23-17.22,18-25Z"/>
  <path class="n" d="M64.06,1003.14h-8c-1.72-.13-3.38-.46-5-1-1-.67-2-1.33-3-2,1.6-1.14,3.27-2.31,5-3.5-2.91-6.34-6.91-11.84-12-16.5.67-.33,1.33-.67,2-1,9.14,6.14,16.14,14.14,21,24Z"/>
  <path class="w" d="M1240.06,1003.14h-12c2.06-6.01,4.23-12.01,6.5-18,2.55,5.8,4.38,11.8,5.5,18Z"/>
  <path class="n" d="M1302.06,1003.14h-17c1.66-6.16,3.83-12.16,6.5-18,5.31,4.95,8.81,10.95,10.5,18Z"/>
  <path class="ae" d="M10.06,1036.14c-2-1.33-3.67-3-5-5,1.16-14.31,4.66-27.98,10.5-41,2.17,5.85,4.34,11.68,6.5,17.5-5.27,8.99-9.27,18.49-12,28.5Z"/>
  <path class="ad" d="M1268.06,1003.14h-4c-.51-14.3.82-14.3,4,0Z"/>
  <path class="aa" d="M1153.06,1003.14h-4c-.22-3.7-.39-7.37-.5-11,1.52,3.69,3.02,7.36,4.5,11Z"/>
  <path class="n" d="M1199.06,1003.14h-9c.46-2.26,1.46-4.26,3-6,2.35,1.69,4.35,3.69,6,6Z"/>
  <path class="ae" d="M51.06,1002.14c1.62.54,3.28.87,5,1,4.76,12.29,8.1,24.95,10,38h-7c-3.15-11.3-7.15-22.3-12-33,.93-2.27,2.27-4.27,4-6Z"/>
  <path class="ae" d="M1318.06,1003.14h9c-.28,8.71-1.12,17.38-2.5,26-1.47-4.08-3.14-8.08-5-12-.35-4.7-.85-9.36-1.5-14Z"/>
  <path class="ae" d="M56.06,1003.14h36c-2.49,6.32-4.49,12.82-6,19.5,1.83,4.83,3.67,9.67,5.5,14.5.89-11.42,2.06-22.75,3.5-34h6c1.18,12.75,2.84,25.41,5,38h-40c-1.9-13.05-5.24-25.71-10-38Z"/>
  <path class="ae" d="M92.06,1003.14h3c-1.44,11.25-2.61,22.58-3.5,34-1.83-4.83-3.67-9.67-5.5-14.5,1.51-6.68,3.51-13.18,6-19.5Z"/>
  <path class="ae" d="M101.06,1003.14h22c-5.26,12.45-9.93,25.11-14,38h-3c-2.16-12.59-3.82-25.25-5-38Z"/>
  <path class="ae" d="M123.06,1003.14h24c-4.53,12.3-7.53,24.96-9,38h-29c4.07-12.89,8.74-25.55,14-38Z"/>
  <path class="ae" d="M147.06,1003.14h946c4.57,12.27,7.57,24.94,9,38H138.06c1.47-13.04,4.47-25.7,9-38Z"/>
  <path class="ae" d="M1093.06,1003.14h27c4.89,12.46,9.22,25.12,13,38h-31c-1.43-13.06-4.43-25.73-9-38Z"/>
  <path class="ae" d="M1120.06,1003.14h22c-1.67,12.65-3.33,25.32-5,38h-4c-3.78-12.88-8.11-25.54-13-38Z"/>
  <path class="ae" d="M1142.06,1003.14h7c1.12,11.33,2.29,22.66,3.5,34,1.84-5.51,3.67-11.01,5.5-16.5-1.44-5.92-3.1-11.75-5-17.5h37c-5.17,12.17-8.5,24.84-10,38h-43c1.67-12.68,3.33-25.35,5-38Z"/>
  <path class="ae" d="M1149.06,1003.14h4c1.9,5.75,3.56,11.58,5,17.5-1.83,5.49-3.66,10.99-5.5,16.5-1.21-11.34-2.38-22.67-3.5-34Z"/>
  <path class="ae" d="M1190.06,1003.14h10c.04,1.08.37,2.08,1,3-6.11,11-10.45,22.67-13,35h-8c1.5-13.16,4.83-25.83,10-38Z"/>
  <path class="ae" d="M1200.06,1003.14h7c1.25,2.43,2.75,4.77,4.5,7,1.26-2.28,2.43-4.62,3.5-7h13c3.47,8.95,6.97,17.95,10.5,27,1.15,3.61,1.98,7.28,2.5,11h-10c-.24-10.51-1.74-20.84-4.5-31-4.34,10.13-5.17,20.47-2.5,31h-23c1.49-6.31,3.49-12.48,6-18.5-.78-3.63-1.95-7.13-3.5-10.5-1.58,2.41-2.58,5.08-3,8-1.27,6.96-2.1,13.96-2.5,21h-10c2.55-12.33,6.89-24,13-35-.63-.92-.96-1.92-1-3Z"/>
  <path class="ae" d="M1207.06,1003.14h8c-1.07,2.38-2.24,4.72-3.5,7-1.75-2.23-3.25-4.57-4.5-7Z"/>
  <path class="ae" d="M1228.06,1003.14h13c2.65,12.61,4.99,25.28,7,38h-7c-.52-3.72-1.35-7.39-2.5-11-3.53-9.05-7.03-18.05-10.5-27Z"/>
  <path class="ae" d="M1241.06,1003.14h24c-.17,4.35,0,8.68.5,13,3.21-3.93,4.04-8.27,2.5-13h17c-2.53,5-1.87,9.67,2,14,2.27-4.89,5.27-9.23,9-13,.33.33.67.67,1,1-6.8,11.77-7.46,23.77-2,36h-47c-2.01-12.72-4.35-25.39-7-38Z"/>
  <path class="ae" d="M1265.06,1003.14h3c1.54,4.73.71,9.07-2.5,13-.5-4.32-.67-8.65-.5-13Z"/>
  <path class="ae" d="M1285.06,1003.14h18c1.96,5.86,3.3,11.86,4,18-.76,6.66-1.43,13.33-2,20h-10c-5.46-12.23-4.8-24.23,2-36-.33-.33-.67-.67-1-1-3.73,3.77-6.73,8.11-9,13-3.87-4.33-4.53-9-2-14Z"/>
  <path class="ae" d="M1231.06,1041.14h-7c-2.67-10.53-1.84-20.87,2.5-31,2.76,10.16,4.26,20.49,4.5,31Z"/>
  <path class="ae" d="M1201.06,1041.14h-3c.4-7.04,1.23-14.04,2.5-21,.42-2.92,1.42-5.59,3-8,1.55,3.37,2.72,6.87,3.5,10.5-2.51,6.02-4.51,12.19-6,18.5Z"/>
  <path class="ae" d="M25.06,1041.14c-2.4.05-4.74-.28-7-1,.71-8.81,2.21-17.47,4.5-26,4.31,8.7,5.14,17.7,2.5,27Z"/>
  <path class="ae" d="M49.06,1041.14h-2c-2.19-5.9-4.19-11.9-6-18,.87-3.44,2.04-6.77,3.5-10,2.48,9.17,3.98,18.5,4.5,28Z"/>
  <path class="ae" d="M1364.06,1040.14h-1c-1.33.33-2.67.67-4,1,.68-7.4,1.84-14.74,3.5-22,2.24,6.92,2.74,13.92,1.5,21Z"/>
  <circle class="al" cx="694.92" cy="26.3" r="26.3"/>
</svg>