<?xml version="1.0" encoding="UTF-8"?>
<svg id="a" data-name="Layer 10" xmlns="http://www.w3.org/2000/svg" viewBox="0 0 1931.92 1100.15">
  <defs>
    <style>
      .b {
        fill: #2e3192;
      }
    </style>
  </defs>
  <path class="b" d="M26.33,634.03c-.99-41.7-1.68-77.12-2.05-106.29-.37-29.16-.56-53.48-.56-72.97s.06-34.81.19-45.98c.12-11.17.24-19.67.37-25.5.12-5.83.31-9.74.56-11.73.24-1.98.37-3.6.37-4.84,0-4.22,1.61-7.45,4.84-9.68,3.22-2.23,7.32-3.85,12.29-4.84,4.96-.99,10.42-1.43,16.38-1.3,5.96.13,11.66.44,17.13.93,5.46.5,10.17.99,14.15,1.49,3.97.5,6.57.74,7.82.74,19.36,1.99,37.16,6.27,53.42,12.84,16.25,6.58,30.28,15.58,42.07,26.99,11.79,11.42,20.97,25.19,27.55,41.32,6.57,16.14,9.87,34.62,9.87,55.47-.99,12.91-4.72,26.19-11.17,39.83-6.46,13.65-14.83,26.68-25.13,39.09-10.3,12.41-22.09,23.77-35.37,34.06-13.28,10.3-27.36,18.61-42.25,24.94s-30.03,10.18-45.42,11.54c-15.39,1.36-30.41-.68-45.05-6.14ZM54.25,613.18h7.07c8.93,0,18.8-1.68,29.6-5.03,10.8-3.35,21.65-7.94,32.57-13.77,10.92-5.83,21.46-12.72,31.64-20.66,10.17-7.94,19.23-16.5,27.18-25.69,7.94-9.18,14.33-18.67,19.17-28.48,4.84-9.8,7.26-19.67,7.26-29.6,0-5.96-.93-13.27-2.79-21.96-1.86-8.68-5.09-17.62-9.68-26.8-4.6-9.18-10.67-18.06-18.24-26.62-7.57-8.56-17.13-15.94-28.67-22.15-11.54-6.2-25.26-10.61-41.14-13.22-15.89-2.61-34.38-2.42-55.47.56l1.49,233.42Z"/>
  <path class="b" d="M314.48,606.11c3.97-17.13,6.95-34.31,8.93-51.56,1.98-17.25,3.41-34.68,4.28-52.31.87-17.62,1.3-35.3,1.3-53.05s-.13-35.68-.37-53.8c-8.19,2.23-15.89,4.28-23.08,6.14-7.2,1.86-14.33,3.48-21.41,4.84-7.07,1.37-14.4,2.36-21.96,2.98-7.57.62-15.7.81-24.38.56-2.73-1.98-4.65-4.03-5.77-6.14-1.12-2.11.68-4.9,5.4-8.38,17.37-4.96,34.06-9.99,50.07-15.08,16.01-5.08,31.95-9.68,47.84-13.77,15.88-4.1,31.95-7.45,48.21-10.05,16.25-2.61,33.44-3.91,51.56-3.91,2.73,0,6.08,1.06,10.05,3.16,3.97,2.11,6.57,5.65,7.82,10.61-3.48,5.21-8.19,8.88-14.15,10.98-5.96,2.11-12.35,3.41-19.17,3.91-6.83.5-13.77.74-20.85.74s-13.53.44-19.36,1.3c-5.83.87-10.86,2.67-15.08,5.4-4.22,2.73-6.7,7.2-7.45,13.4-1.49,17.63-2.79,34.75-3.91,51.38-1.12,16.63-1.93,33.2-2.42,49.7-.5,16.51-.69,33.13-.56,49.89.12,16.75.56,33.82,1.3,51.19,4.96,0,10.85-.06,17.68-.19,6.82-.12,14.02-.37,21.59-.74,7.57-.37,15.2-.93,22.9-1.68,7.69-.74,14.76-1.73,21.22-2.98h7.45c3.22,0,6.39.25,9.49.74,3.1.5,5.77,1.49,8,2.98s3.35,3.72,3.35,6.7c0,4.72-2.61,8.32-7.82,10.8-3.72,2.23-10.86,4.28-21.41,6.14-10.55,1.86-22.59,3.66-36.11,5.4-13.53,1.74-27.74,3.23-42.63,4.47-14.89,1.24-28.67,2.36-41.32,3.35-12.66.99-23.4,1.8-32.2,2.42-8.81.62-13.84.93-15.08.93-7.45-.74-12.84-2.05-16.19-3.91s-5.28-3.97-5.77-6.33c-.5-2.36.06-4.71,1.68-7.07,1.61-2.36,3.47-4.47,5.58-6.33,2.11-1.86,4.03-3.22,5.77-4.1,1.73-.87,2.61-1.05,2.61-.56l54.35-8.19Z"/>
  <path class="b" d="M642.83,622.86c-5.71,3.72-11.67,6.58-17.87,8.56-6.21,1.99-12.54,3.41-18.99,4.28-6.46.87-13.03,1.37-19.73,1.49-6.7.13-13.28.19-19.73.19-13.16,0-25.75-2.29-37.79-6.89-12.04-4.59-22.65-11.04-31.83-19.36-9.18-8.31-16.44-18.3-21.78-29.97-5.34-11.66-8-24.69-8-39.09-1.74-11.91-1.55-25.19.56-39.83,2.11-14.64,5.96-29.41,11.54-44.3,5.58-14.89,12.66-29.1,21.22-42.63,8.56-13.52,18.43-25.13,29.6-34.81,11.17-9.68,23.33-16.81,36.48-21.41,13.15-4.59,27.18-5.4,42.07-2.42,6.95,2.23,12.29,4.97,16.01,8.19,3.72,3.23,5.89,6.39,6.51,9.49.62,3.11-.37,5.83-2.98,8.19-2.61,2.36-6.89,3.79-12.84,4.28-.5,0-3.72-.24-9.68-.74-5.96-.49-13.28,0-21.96,1.49-8.69,1.49-18.06,4.53-28.11,9.12-10.05,4.6-19.54,12.1-28.48,22.52-6.46,6.46-11.79,14.09-16.01,22.9-4.22,8.81-7.51,18.18-9.87,28.11-2.36,9.93-4.04,19.98-5.03,30.16-.99,10.18-1.49,19.73-1.49,28.67,0,13.16,1.24,25.13,3.72,35.93,2.48,10.8,6.7,19.98,12.66,27.55,5.96,7.57,13.77,13.47,23.45,17.68,9.68,4.22,21.71,6.33,36.11,6.33,7.45,0,15.51-.31,24.2-.93,8.68-.62,16.62-2.23,23.83-4.84,7.2-2.61,13.22-6.64,18.06-12.1,4.84-5.46,7.26-13.03,7.26-22.71v-12.29c0-4.47-.44-8.62-1.3-12.47-.87-3.85-2.55-7.07-5.03-9.68-2.48-2.61-6.33-3.91-11.54-3.91-6.21,0-12.29.81-18.24,2.42-5.96,1.62-11.79,3.35-17.5,5.21-5.71,1.86-11.54,3.6-17.5,5.21-5.96,1.62-12.04,2.42-18.24,2.42-5.46,0-9.81-.93-13.03-2.79-3.23-1.86-4.6-5.77-4.1-11.73,4.96-1.49,12.47-3.78,22.52-6.89,10.05-3.1,20.66-6.26,31.83-9.49,11.17-3.22,21.78-6.08,31.83-8.56,10.05-2.48,17.56-3.72,22.52-3.72,2.98,0,6.39.19,10.24.56,3.85.37,6.26,2.79,7.26,7.26,1.73,10.42,3.29,21.59,4.65,33.51,1.36,11.91,2.42,24.01,3.16,36.3.74,12.29,1.05,24.45.93,36.48-.13,12.04-.69,23.39-1.68,34.06-5.46,3.47-9.87,5.08-13.22,4.84-3.35-.25-6.02-1.99-8-5.21-1.99-3.23-3.48-7.82-4.47-13.77-.99-5.96-1.74-12.9-2.23-20.85Z"/>
  <path class="b" d="M768.29,606.11c3.97-17.13,6.95-34.31,8.93-51.56,1.98-17.25,3.41-34.68,4.28-52.31.87-17.62,1.3-35.3,1.3-53.05s-.13-35.68-.37-53.8c-8.19,2.23-15.89,4.28-23.08,6.14-7.2,1.86-14.33,3.48-21.41,4.84-7.07,1.37-14.4,2.36-21.96,2.98-7.57.62-15.7.81-24.38.56-2.73-1.98-4.65-4.03-5.77-6.14-1.12-2.11.68-4.9,5.4-8.38,17.37-4.96,34.06-9.99,50.07-15.08,16.01-5.08,31.95-9.68,47.84-13.77,15.88-4.1,31.95-7.45,48.21-10.05,16.25-2.61,33.44-3.91,51.56-3.91,2.73,0,6.08,1.06,10.05,3.16,3.97,2.11,6.57,5.65,7.82,10.61-3.48,5.21-8.19,8.88-14.15,10.98-5.96,2.11-12.35,3.41-19.17,3.91-6.83.5-13.77.74-20.85.74s-13.53.44-19.36,1.3c-5.83.87-10.86,2.67-15.08,5.4-4.22,2.73-6.7,7.2-7.45,13.4-1.49,17.63-2.79,34.75-3.91,51.38-1.12,16.63-1.93,33.2-2.42,49.7-.5,16.51-.69,33.13-.56,49.89.12,16.75.56,33.82,1.3,51.19,4.96,0,10.85-.06,17.68-.19,6.82-.12,14.02-.37,21.59-.74,7.57-.37,15.2-.93,22.9-1.68,7.69-.74,14.76-1.73,21.22-2.98h7.45c3.22,0,6.39.25,9.49.74,3.1.5,5.77,1.49,8,2.98s3.35,3.72,3.35,6.7c0,4.72-2.61,8.32-7.82,10.8-3.72,2.23-10.86,4.28-21.41,6.14-10.55,1.86-22.59,3.66-36.11,5.4-13.53,1.74-27.74,3.23-42.63,4.47-14.89,1.24-28.67,2.36-41.32,3.35-12.66.99-23.4,1.8-32.2,2.42-8.81.62-13.84.93-15.08.93-7.45-.74-12.84-2.05-16.19-3.91s-5.28-3.97-5.77-6.33c-.5-2.36.06-4.71,1.68-7.07,1.61-2.36,3.47-4.47,5.58-6.33,2.11-1.86,4.03-3.22,5.77-4.1,1.73-.87,2.61-1.05,2.61-.56l54.35-8.19Z"/>
  <path class="b" d="M1209.45,432.62h8.93c16.87,3.1,25.32,8.07,25.32,14.89-8.93,8.56-13.4,15.51-13.4,20.85,0,3.23,5.71,12.41,17.13,27.55,1.98,4.97,2.98,9.18,2.98,12.66v.74c0,11.17-8.19,20.1-24.57,26.8l-5.96.74c-6.58,0-11.54-3.23-14.89-9.68h-.74c2.11,40.08,4.34,65.4,6.7,75.95,12.66-3.23,25.06-8.19,37.23-14.89l10.42-10.42,11.17,8.19v.74c-2.36,5.34-9.56,13.53-21.59,24.57-4.1,0-7.32,11.17-9.68,33.51-8.44,53.11-15.14,90.34-20.1,111.69l-19.36,2.23-.74-2.23c-1-29.66-3.23-69.62-6.7-119.88-6.21,1.99-18.86,3.48-37.97,4.47-23.95,0-41.32-4.47-52.12-13.4-22.83-16.38-34.25-38.96-34.25-67.76,0-24.82,9.18-44.18,27.55-58.08-6.83,0-13.03-5.96-18.61-17.87l-1.49-11.17c0-17.25,7.94-28.91,23.83-34.99,5.58-1.49,11.54-2.23,17.87-2.23,18.24,0,32.88,10.42,43.93,31.27,9.8,13.4,17.74,20.1,23.83,20.1.99-29.29,4.96-45.17,11.91-47.65,0-2.36,4.47-4.59,13.4-6.7ZM1096.27,545.8v.74c0,20.6,14.89,38.47,44.67,53.61,10.3,4.97,19.98,7.45,29.04,7.45h15.64l3.72-.74-5.21-102.75-15.64-1.49c-48.15,6.33-72.22,20.73-72.22,43.19ZM1134.25,469.85v2.23l.74,3.72c-.5,5.21-1.74,9.43-3.72,12.66l18.61-1.49h5.21v-.74c-1.61,0-6.83-5.21-15.64-15.64l-2.98-1.49-2.23.74ZM1204.98,488.47l2.98,9.68,6.7.74c2.61,0,4.1-.74,4.47-2.23v-1.49c-3.48-15.51-5.21-24.94-5.21-28.29v-.74c0-4.47,1.24-8.68,3.72-12.66h-.74c-7.94,2.48-11.91,14.15-11.91,34.99ZM1213.17,631.42l3.72,58.82h.74l6.7-64.03h-.74c-5.96,2.11-9.43,3.85-10.42,5.21Z"/>
  <path class="b" d="M1329.14,393.16h14.89c21.96,0,46.78,12.16,74.46,36.48,19.98,20.97,33.63,41.32,40.95,61.05,6.45,16.26,9.68,29.91,9.68,40.95v15.64c0,28.05-14.4,54.35-43.19,78.92-15.39,9.93-32.27,14.89-50.63,14.89-35.86,0-60.44-16.38-73.71-49.14-2.98-9.55-4.47-18.99-4.47-28.29,0-14.64,5.46-29.78,16.38-45.42,8.56-8.44,17-13.15,25.32-14.15v-.74c-11.91-6.45-17.87-14.89-17.87-25.32v-2.98c0-9.93,6.7-18.36,20.1-25.32l6.7-1.49h5.96c17.37,0,32.76,14.64,46.16,43.93,2.73,3.23,9.93,9.43,21.59,18.61l1.49,8.93-.74.74h-.74c-20.6-1.98-35.74-2.98-45.42-2.98h-10.42c-19.86,0-29.78,6.21-29.78,18.61v5.96c0,16.88,9.18,32.27,27.55,46.16,9.06,5.96,19.23,8.93,30.53,8.93h4.47c22.96,0,38.84-12.66,47.65-37.97,1.98-4.34,3.72-15.26,5.21-32.76,0-28.91-12.66-57.45-37.97-85.63-17.87-15.88-37.48-23.83-58.82-23.83h-5.96c-19.73,0-36.61,8.69-50.63,26.06-3.97,7.07-5.96,13.28-5.96,18.61,0,10.42,5.71,21.1,17.13,32.02l1.49,2.23v1.49c0,.87-1.49,1.86-4.47,2.98-12.54-4.84-22.46-15.26-29.78-31.27-3.48-9.06-5.21-17.25-5.21-24.57,0-24.82,14.15-41.2,42.44-49.14,5.21-1.49,10.42-2.23,15.64-2.23ZM1367.86,504.1v.74l29.04,4.47h.74v-.74c-9.93-5.33-14.89-9.55-14.89-12.66h-.74c-5.71,5.46-10.42,8.19-14.15,8.19Z"/>
  <path class="b" d="M1445.66,622.49l.74,2.23c-2.98,50.75-4.96,77.81-5.96,81.16l-11.91,2.98c-7.57-8.69-17-15.64-28.29-20.85-16.87-6.45-32.26-9.68-46.16-9.68h-6.7c-22.71,0-42.56,6.95-59.57,20.85h-1.49l3.72-47.65c7.32-3.48,16.01-5.21,26.06-5.21h4.47c33.76,0,69.5,13.4,107.22,40.21l.74-.74v-.74c1.49-40.7,2.98-61.05,4.47-61.05l12.66-1.49Z"/>
  <path class="b" d="M1599.79,341.04h8.93c9.68,0,17.37,6.7,23.08,20.1,1.49,3.97,2.23,8.19,2.23,12.66v5.96c0,20.73-18.61,37.85-55.84,51.38-13.65,6.45-25.32,13.65-34.99,21.59l12.66-.74h3.72c43.93,0,73.71,15.64,89.35,46.91,4.47,11.29,6.7,21.22,6.7,29.78v14.15c0,25.69-12.41,51.5-37.23,77.44-17,13.9-36.86,20.85-59.57,20.85-33.13,0-58.2-14.15-75.2-42.44-7.45-14.27-11.17-32.39-11.17-54.35,0-38.22,19.61-72.22,58.82-102.01,28.79-23.2,43.19-39.83,43.19-49.89v-.74l-6.7-18.61v-5.96c0-8.68,6.7-16.38,20.1-23.08,3.6-1.98,7.57-2.98,11.91-2.98ZM1513.42,509.31c0,28.79,13.65,53.11,40.95,72.97,10.3,5.46,22.46,8.19,36.48,8.19,26.43,0,41.82-13.9,46.16-41.7l.74-9.68c0-30.4-12.16-51.25-36.48-62.54-10.67-4.47-23.83-6.7-39.46-6.7-23.95,0-39.34,8.19-46.16,24.57l-2.23,14.89Z"/>
  <path class="b" d="M1747.21,548.03l1.49,1.49v26.06l-2.23,2.23h-23.83c-10.05,3.6-18.74,11.54-26.06,23.83-2.98,7.7-4.47,14.15-4.47,19.36v6.7c0,18.12,9.68,35.49,29.04,52.12l10.42,2.98h2.23c12.41-2.48,18.61-10.42,18.61-23.83v-8.93c0-1.49,3.97-2.73,11.91-3.72,1.98,6.08,2.98,12.29,2.98,18.61v14.89c0,21.09-10.67,36.98-32.02,47.65l-8.93,1.49c-18.86,0-35.99-15.39-51.38-46.16-3.97-14.02-5.96-26.93-5.96-38.72,0-24.2,6.95-46.04,20.85-65.52h-.74l-27.55-.74c-2.48,0-3.72-5.46-3.72-16.38l-.74-12.66.74-.74h89.35Z"/>
  <path class="b" d="M1805.1,439.14h8.93c14.77,0,28.91,10.42,42.44,31.27,10.3,14.89,23.7,22.34,40.21,22.34h4.47l3.72-.74c.99.87,2.23,6.58,3.72,17.13l-2.23.74-37.97-3.72h-6.7c-16.01,0-35.12,5.21-57.33,15.64-12.41,7.45-18.61,16.13-18.61,26.06v3.72c0,16.88,12.9,31.52,38.72,43.93,15.26,6.95,28.91,10.42,40.95,10.42h5.96c13.9,0,27.3-7.45,40.21-22.34l.74-.74h2.98l-4.47,141.47-20.1,2.98c-16.51-17.87-40.33-26.8-71.48-26.8-28.29,0-52.86,8.19-73.71,24.57l-.74-.74c4.97-35.86,7.94-54.48,8.93-55.84,9.8-4.47,20.72-6.7,32.76-6.7,31.89,0,66.64,13.9,104.24,41.7v-.74l-2.23-74.46h-.74c-18.24,9.43-37.6,14.15-58.08,14.15-33.51-.74-56.09-15.39-67.76-43.93-3.97-9.43-5.96-21.34-5.96-35.74,0-27.3,9.43-46.41,28.29-57.33v-.74c-14.89-3.6-22.34-13.28-22.34-29.04s8.19-27.67,24.57-34.25c3.47-1.49,9.68-2.23,18.61-2.23ZM1828.37,468.36v8.93c0,2.86-1,5.83-2.98,8.93v.74l24.57-1.49h.74v-.74c-1.49,0-7.45-5.46-17.87-16.38h-4.47Z"/>
</svg>