<?xml version="1.0" encoding="UTF-8"?>
<svg id="a" data-name="Layer 9" xmlns="http://www.w3.org/2000/svg" xmlns:xlink="http://www.w3.org/1999/xlink" viewBox="0 0 1931.92 1100.15">
  <defs>
    <style>
      .f {
        fill: url(#c);
      }

      .g {
        fill: url(#d);
      }

      .h {
        fill: url(#e);
      }

      .i {
        fill: url(#b);
      }
    </style>
    <linearGradient id="b" x1="497.61" y1="549.89" x2="1441.41" y2="549.89" gradientUnits="userSpaceOnUse">
      <stop offset="0" stop-color="#157fff"/>
      <stop offset="1" stop-color="#0037bf"/>
      <stop offset="1" stop-color="#0444c3"/>
      <stop offset="1" stop-color="#1169ce"/>
      <stop offset="1" stop-color="#1b86d6"/>
      <stop offset="1" stop-color="#239add"/>
      <stop offset="1" stop-color="#27a6e0"/>
      <stop offset="1" stop-color="#29abe2"/>
    </linearGradient>
    <linearGradient id="c" x1="1135.92" y1="676.01" x2="1372.68" y2="676.01" xlink:href="#b"/>
    <linearGradient id="d" x1="926.74" y1="920.27" x2="978.63" y2="920.27" xlink:href="#b"/>
    <linearGradient id="e" x1="556.87" y1="482.21" x2="610.55" y2="482.21" xlink:href="#b"/>
  </defs>
  <path class="i" d="M1063.81,69.62c-17.01,2.16-38.83,14.94-55.5,20.25l-74.19,37.11c24.56.39,49.75,3.07,73.97,7.53,30.3,5.58,77.81,26.06,104.28,26.76,9.1.24,20.36-3.83,29.5-4.4,24.23-1.5,48.31,2.84,69.96,13.74-.33-28.69.48-57.47.12-86.18-.13-10.03-4.93-16.29-.42-27.75.86-2.2-.46-3.91,3.73-3.33,11.67-.88,22.79,10.62,29.91,18.52,40.17,44.64,78.47,139.02,91.82,197.42,4.14,18.12,5.52,46.54,11.48,61.98,6.15,15.95,26.42,40.8,35.27,58.84,60.32,122.85,59.14,265.81-5.41,386.57-2.44,4.56-21,32.68-19.54,34.38,22.06-5.83,44.05-9.53,63.1-22.96,6.5-4.58,10.33-15.08,19.5-13.76-11.83,67.41-63.16,99.62-124.8,117.35-9.78,2.81-21.73,2.84-30.67,6.06-11.74,4.23-21.85,20.24-35.03,23.52l22.12,13.41c22.85,11.01,46.68,15.67,71.99,16.41,8.67,8.25-23.54,28.53-29.16,31.68-31.88,17.87-73.44,24.31-109.7,21.08-7.93-.71-24.26-6.87-29.6-6.25-3.67.42-49.24,27.5-59.56,31.93-155.8,66.89-326.41,30.97-441.17-92.19-8.71-9.34-18.92-26.99-27.47-34.51-6.77-5.95-19.27-11.55-27.52-18.39-61.84-51.3-102.55-152.78-106.8-231.78,9.01-4.98,42.75,26.54,45.89,22.95.33-24.54-1.82-49.48,4.6-73.42-6.55-1.29-13.13,2.83-19.3,2.26-7.58-.7-10.59-7.89-14.44-8.81-3.55-.86-8.39,2.34-13.12,1.95-10.08-.83-17.63-13.26-19.16-22.37-6.91-41.13,26.95-160.24,51.72-195.09,8.53-12.01,21.73-19.03,29.14-28.25,8.39-10.44,16.93-35.51,24.63-48.83,21.72-37.57,48.84-67.04,79.86-96.89,79.83-76.82,147.65-160.79,267.48-168.67,33.21-2.18,116.46,3.15,144.22,21.01,5.41,3.48,14.57,11.1,2.67,11.1-10.54,0-24.53-1.26-34.43,0ZM1074.13,58.17c-59.92-12.5-118.78-17.82-178.5-.63-60.96,17.55-110.66,59.79-152.04,106.18,18.95-9.28,41.78-13.89,56.3-29.75,74.15-62.72,148.27-77.17,243.15-73.41,7.44.29,15.64.19,23.09-.11,2.78-.11,8.54,1.73,8-2.27ZM1335.81,315.24c-11.88-77.3-40.23-158.73-86.7-222.02-7.77-10.59-15.55-22.52-28.03-28.18-3.01,3.69,37.61,70.81,42.49,80.29,16.17,31.4,32.21,65.09,40.42,99.6,2.84,11.95,3.99,36.5,7.8,45,2.26,5.04,19.71,18.98,24.02,25.31ZM1032.81,67.35c-59.83-2.52-121.32,6.2-173.69,36.31l-51.24,34.8c42.29-3.1,75.69-31.16,114.27-42.94,29.57-9.03,60.75-8.47,90-17.89l20.67-10.28ZM1301.38,271.61c-5.19-29.99-14.84-58.74-27.12-86.47l-53.18-97.14c.97,9.43-1.73,21.43.54,30.42,2.97,11.75,31.76,53.3,39.66,68.23l40.1,84.97ZM977.74,97.14l-1.11-4.52c-23.87,3.92-47.55,7.91-70.02,17.21l-34.46,17.16c12.85-2.94,26.21-1.2,39.11-3.32,23.05-3.8,44.17-20.55,66.48-26.52ZM963.96,324.42h-44.76c-10.12,0-45.86,11.96-57.43,16.03-18.49,6.49-35.73,15.83-53.89,22.98-6.72-7.13,21.53-18.95,25.99-21.05,12.96-6.09,29.63-12.12,43.4-16.28,15.05-4.55,50.77-8.77,59.18-18.87,7.63-9.17,11.93-24.87,22.93-33.29-86.79-8-164.77,27.88-221.52,91.75-3.88-2.95-4.41-4.59-2.3-9.13,1.33-2.85,27.71-28.25,32.21-32.07,53.72-45.67,111.67-60.57,181.37-59.85,30.8.32,21.65-1.64,48.06-11.43,178.76-66.26,394.18,102.73,283.1,292.28-35.98,61.4-127.5,115.57-184.25,160.08-67.54,52.98-143.25,114.98-196.3,182.46-16.26,20.68-43.76,52.28-37.75,79.39,9.21,3.31,44.35.82,49.14,10.1,2.3,4.46-3.85,3.38-5.75,3.47-10.88.55-21.94-4.24-33.25-2.35,2.16,10.75,14.39,15.76,23.45,19,39.53,14.11,131.11,18.05,165.92-7.54,56.23-41.33,55.23-132.55-8.78-165.67-8.91-4.61-31.1-8.77-35.83-12.37-2.33-1.77-3.04-2.44-2.43-5.58,100.78,5.17,127.78,128.57,55.08,190.49,8.96-2.02,62.61-15.31,63.56-21.66.3-2.01-3.5-7-.4-8.18,14.77,5.34,27.57,14.4,42.53,19.45,6.19,2.09,25.77,8.13,30.9,8.13h44.76l-60.91-13.69c-2.62-1.15-36.8-13.27-30.9-18.43,20.47,3.88,38.94,13.53,59.59,17.28,35.22,6.39,80.14,8.53,107.97-17.27-56.25,13.45-112.29-10.87-167.57-19.54l-2.3-3.41c5.11-1.33,9.28-2.64,14.78-2.39,24.33,1.09,57.63,14.04,83.44,17.77,17.05,2.46,33.68,3.9,50.97,2.94l-61.34-27.01c-37.31-13.11-59.8-.66-94.1,3.59-3.45.43-6.08,2.21-5.21-2.93,3.41-6.94,34.51-13.54,42.73-14.68,6.02-.83,17.16-2.45,22.68-2.57,10.09-.23,21.68,4.86,33.87,1.74,10.33-2.65,50-41.14,59.16-51.03,180.47-194.82,144.8-492.09-79.21-634.82-107.66-68.59-264.45-114.03-391.51-88.41-110.11,22.21-192.84,104.02-240.94,202.1,7.1,2.05,14.39-2.86,21.81-3.44,90.16-7.02,135.02,84.19,103.88,161.27-4.37,10.81-11.26,18.8-15.5,29.24,59.46-31.4,105.57-81.96,160.65-119.4l-20.63-5.83-4.59-5.6c38.36,2.53,73.9-8.94,107.87-25.3l-1.12-4.53c-20.07,8.23-47.32,14.75-68.91,16.01-4.45.26-25.01,2.44-19.53-5.74,50.3-5.89,102.53-14.57,142.35-48.18-5.97-1.29-12.64-3.44-18.83-2.97-24.67,1.89-86.49,31.83-116.61,39.69-6.8,1.77-13.42,4.15-20.63,3.45l1.1-4.62,120.55-43.58ZM1289.9,267.03l-35.51-75.8-33.31-55.03c-8.14,39.84,22.6,56.7,41.81,85.55,9.73,14.62,15.86,31.66,27.01,45.28ZM1237.1,228.01c2.49-2.66-14.59-18.44-17.24-20.61-25.68-20.96-62.32-35.43-95.2-39.05l112.45,59.66ZM1271.56,250.94c-23.75-39.1-53.72-78.43-103.29-82.59l56.18,32.16c4.83,5.04,10.41,9.58,14.92,14.92,2.44,2.89,26.65,41,32.19,35.51ZM1280.72,361.15c4.41-5.37-36.26-47.32-42.51-52.73-64.48-55.88-152.37-78.01-234.14-48.32-27.97,10.16-49.74,26.75-60.76,55.14,26.85-2.4,51.29,11.79,78.04,4.63,6.14,4.64-61.31,54.72-66.77,58.31l-47.99,24.28c40.86,7.28,70.42,40.79,107.88,55.14,4.64,5-15.71,13.55-18.79,14.47-36.34,10.84-95.73-.05-132.73-8.74-9.28-2.18-32.45-12.09-39.65-9.97-33.41,28.25-66.16,54.84-103.41,78.07-23.85,14.87-58.31,36.29-83.36,47.48-11.44,5.11-56.97,16.96-60.44,19.9-8.11,6.86-8.07,58.92-7.03,71.18,2.22,26.16,19.76,28.94,33.21,47.13,8.84,11.95,15.05,29.29,19.69,43.45l10.2-25.34c13.74-19.6,23.67-41.91,37.03-61.68,1.86-2.75,11.83-19.8,14.41-10.22,2.15,7.98-.19,24.47.33,34.1.87,15.94,4.13,34.61,4.66,50.43,1.19,35.38-9.43,111.59,5.03,139.59,10.32,19.99,55.19,49.74,75.94,59.49,13.38,6.29,68.63,24.94,79.78,16.95,5.71-33.05,27.52-61.64,48.11-87.33,35.34-44.09,77.95-81.23,119.3-119.43-49.94-.25-66.45-49.91-96.64-77.8-6.61-6.11-31.45-19.4-33.06-22.03-9.38-15.34,25.68-14.85,34.45-14.79,57.38.35,84.37,25.01,132.74,45.02,32.21,13.32,40.65,7.78,68.1-11.92.86-3.51-.53-3.67-2.43-5.55-7.87-7.84-20.9-18.32-29.93-25.16-8.63-6.52-39.97-23.68-43.34-27.82-2.88-3.53-2.65-6.03-2.34-10.29,47.19-6.93,95.67,2.87,138.55,22.56,47.48-34.19,90.66-72.52,108.22-130.47,3.14-10.37,8.48-29.83,8.23-40.15-.46-19.53-25.69-62.97-37.34-79.93-3.75-5.46-30.13-34.6-27.1-38.3l45.87,20.66ZM569.12,565.46c6.02,5.1-28.5,15.92-28.83,20.6-2.68,4.34,3.16,8.85,7.07,9.22,8.27.79,50.22-11.5,60.78-14.92,66.22-21.49,118.5-68.47,109.96-144.36-9.85-87.55-116.53-122.64-164.58-43.4-22.54,37.18-53.21,140.75-45.82,182.64,5.27,29.83,26.62,1.82,38.36-4.17,7.12-3.63,14.92-6.38,23.07-5.6ZM1301.37,432.3c-.64-34.16-7.57-66.32-45.89-73.42l24.81,33.7,21.08,39.72ZM963.96,441.47c-20.93-16.3-52.39-34.17-79.51-34.24-10.41-.03-24.69,17.42-32.96,23.94l112.47,10.3ZM996.09,462.13c1.05-1.04-4.39-5.48-6.08-6.52-9.78-5.94-95.24-15.46-112.15-16.39-12.78-.71-32.79-2.9-42.43,5.73,51.04,17.45,106.98,27.79,160.67,17.18ZM1172.84,634.35c-35.69-13.93-73.82-22.88-112.46-20.67l20.01,10.94c14.02.13,27.16,1.48,40.68,5.23,9.21,2.56,36.81,17.29,42.46,14.82,1.04-.46,11.93-7.55,9.31-10.32ZM1149.88,652.72c-16.74-10.12-35.06-18.27-55.08-18.38,6.54,5.91,27.94,29.4,34.36,31.2,3.11.87,5.21.21,7.74-1.64l12.97-11.18ZM1062.65,719.26c-61.07-2.33-99.69-71.12-162.96-66.56l52.98,37.66c17.25,9.8,34.53,21.92,52.68,29.96,12.11,5.36,34.91,15.97,46.66,10.09,1.4-.7,13.76-8.78,10.63-11.14ZM1083.32,703.21c-46.49-3.02-83.92-41.7-130.83-48.21l84.98,51.56c12.89,4.18,35.95,7.8,45.85-3.36ZM642.58,886.8c-6.42-18.37-22.94-29.86-34.37-44.8-20.8-27.2-38.57-57.26-50.61-89.42-8.42-22.48-12.75-55.52-21.73-74.68-2.18-4.66-5.57-9.22-10.34-11.44,5.42,73.1,45.34,163.68,102.19,211.12,2.14,1.79,13.17,10.83,14.86,9.22ZM642.57,859.27c-4.31,4.73-20.16-22.35-21.84-25.2-9.19-15.63-18.1-36.02-25.18-52.87-10.25-24.42-19-62.95-30.55-84.23-2.35-4.33-21.77-26.07-18.39-11.47,16.5,71.15,38.68,114.54,84.5,170.32,19.38,23.59,30.11,50.05,50.43,73.53,118.51,136.9,331.01,162.4,482.07,64.22-19.89-18.79-30.83-4.48-50.95,1.8-55.27,17.27-199.74,41.28-244.09-2.84-6.38-6.34-5.45-12.94-11.73-18.11-114.52,2.95-189.07-85.17-232.3-180.9-14.14-31.33-18.69-67.36-47.4-90.33l25.33,73.37,40.09,82.7ZM676.99,859.27c1.75-58.29,4.78-116.54-3.41-174.44-10.92,14.7-16.04,28.69-17.32,46.95-1.75,24.93.53,50.58,2.94,75.3l17.79,52.18ZM1037.4,739.94c-33.02-6.7-62.01-25.2-89.49-43.64-1.78,1.88,9.36,14.94,11.39,17.28,17.49,20.12,36.78,36.77,65.59,33.32,3.51-.42,11.46-2.89,12.5-6.96ZM663.22,845.49c-4.47-16.6-10.94-32.41-13.47-49.62-3.31-22.54-2.55-44.85-1.41-67.43-11.24,12.16-19.08,37.42-17.02,53.73l31.91,63.32ZM1299.1,884.51c50.07-6.32,105.2-35.68,123.94-84.91-23.85,20.09-46.64,38.18-74.17,53.21-17.52,9.56-39.03,12.12-49.76,31.7ZM1395.51,811.09l-45.41,9.68-23.45,31.6c3.14,2.63,63.8-32.17,68.86-41.27Z"/>
  <path class="f" d="M1136.13,845.49c.2-2.69-1.24-4.95,1.41-7.04,8.27-6.53,34.4-16.67,46.59-24.13,105.89-64.8,164.31-162.25,181.25-284.74,1.08-7.79-2.91-19.68,4.85-23.81,4.57,15.2,1.69,31.38-.3,46.73-12.64,97.43-70.8,190.17-149.08,248.04-9.61,7.11-77.74,52.08-84.72,44.95Z"/>
  <path class="g" d="M949.65,894.13c36.15-4.07,41.17,56.83-.37,52.21-29.75-3.31-30.5-48.74.37-52.21ZM965.71,934.49c6.97-7,2.32-26.68-9.7-27l-3.53,4.54c19.21,9.71,5.48,23.31-11.47,21.85,4.01,5.56,20.93,4.39,24.69.62Z"/>
  <path class="h" d="M575.34,455.76c36.21-8.34,48.99,37.12,16.75,51.14-37.35,16.24-48.25-43.88-16.75-51.14ZM596.03,495.94c3.75-3.77,5.88-12.51,4.29-17.79-2.21-7.36-17.44-20.09-22.01-9.13,19.36,3,13.77,30.37-6.88,28.7,4.82,6.67,20.1,2.73,24.6-1.78Z"/>
</svg>