<?xml version="1.0" encoding="UTF-8"?>
<svg id="a" data-name="Layer 1" xmlns="http://www.w3.org/2000/svg" viewBox="0 0 401.87 1018.62">
  <defs>
    <style>
      .b {
        fill: #aeaca9;
      }

      .c {
        fill: #b2b0ac;
      }

      .d {
        fill: #7e7c78;
      }

      .e {
        fill: #948577;
      }

      .f {
        fill: #72685e;
      }

      .g {
        fill: #9f9b97;
      }

      .h {
        fill: #b1b1b1;
      }

      .i {
        fill: #080808;
      }

      .j {
        fill: #b8b8b5;
      }

      .k {
        fill: #acacaa;
      }

      .l {
        fill: #a19e9a;
      }

      .m {
        fill: #c9c9c9;
      }

      .n {
        fill: #a7a6a5;
      }

      .o {
        fill: #a19f9c;
      }

      .p {
        fill: #5e5954;
      }

      .q {
        fill: #423d38;
      }

      .r {
        fill: #5e564f;
      }

      .s {
        fill: #b4b4b0;
      }

      .t {
        fill: #73716d;
      }

      .u {
        fill: #6c6863;
      }

      .v {
        fill: #cccbc9;
      }

      .w {
        fill: #5f5954;
      }

      .x {
        fill: #554e49;
      }

      .y {
        fill: #d30000;
      }

      .z {
        fill: #3e3833;
      }

      .aa {
        fill: #92908c;
      }

      .ab {
        fill: #94928f;
      }

      .ac {
        fill: #48413c;
      }

      .ad {
        fill: #a8a6a4;
      }

      .ae {
        fill: #a2a09d;
      }

      .af {
        fill: #6a645e;
      }

      .ag {
        fill: #aeada7;
      }

      .ah {
        fill: #c6c4c2;
      }

      .ai {
        fill: #b2aea8;
      }

      .aj {
        fill: #5c5652;
      }

      .ak {
        fill: #56524c;
      }

      .al {
        fill: #66615c;
      }

      .am {
        fill: #5c5651;
      }

      .an {
        fill: #b0b0ac;
      }

      .ao {
        fill: #a8a8a6;
      }

      .ap {
        fill: #9e9c99;
      }

      .aq {
        fill: #979592;
      }

      .ar {
        fill: #4d4641;
      }

      .as {
        fill: #c4c2c0;
      }

      .at {
        fill: #aeada9;
      }

      .au {
        fill: #514a44;
      }

      .av {
        fill: #91908c;
      }

      .aw {
        fill: #b8b6b4;
      }

      .ax {
        fill: #aeaeae;
      }

      .ay {
        fill: #6a6661;
      }

      .az {
        fill: #b5b4b1;
      }

      .ba {
        fill: #aeacaa;
      }

      .bb {
        fill: #453e3a;
      }

      .bc {
        fill: #adaba7;
      }

      .bd {
        fill: #67605a;
      }

      .be {
        fill: #a9a7a5;
      }
    </style>
  </defs>
  <g>
    <path class="an" d="M316.66,434.32c0-15.26-.12-30.57,0-45.83,0-1.07-.23-2.81.37-3.47,0,15.26.1,30.56,0,45.83,0,1.07.23,2.81-.37,3.47Z"/>
    <path class="c" d="M317.02,338.25c-.67-1.88-.36-5.19-.36-7.58,0-1.05,0-2.11,0-3.16.67,3.05.36,7.32.36,10.74Z"/>
    <path class="v" d="M317.02,354.68c0-3.36,0-6.75,0-10.11.6,2.56.61,7.42,0,10.11Z"/>
    <g>
      <path class="am" d="M305.41,91.12l.64,1.04c-.04,3.7,1.67,15.33,1.12,4.76.29-1.74,1.24-2.18,2.84-1.3,1.63-1.17,2.52.29,2.67,4.4.24,2.32.96,3.14,2.17,2.47,1.33.29,1.52,5.13.36,6.32.86,1.85.54,4.46-.95,7.84l.5,3.19c-.81,3.95-1.03,8.16-.68,12.63,1.22,1.19,1.5,3.32.84,6.4.71,11.71.74,23.31.08,34.8l-.87.87c-.02,1.6-.27,2.23-.73,1.9-4.04,6.31-3.45-11.17-1.52-13.75-.7-.82-.81-1.14-.99-2.48-.6-4.45.57-14.65,1.18-19.4l-.39.2c-2.32,3.71-3.43,4.14-4.12-1.61-.2-1.68.43-15.81.78-17.08,2.07-2.46,1.72-6.47.46-9.81l-.54-7.07c-.9,4.97-2.08,6.32-3.52,4.04-.2,1.58-.44,3.19-1.06,4.46l-5.02,8.08c-.87,2.33-2.03,4.6-2.79.66-.72,4.13-.75,5.72.76,9.19-.47,3.19-1.3,6.37-2.51,9.52,2.35,4.71,2.38,7.8.1,9.26l-.49,1.47c1.28,2.83,1.21,3.84.39,7.06,1.01,4.63,1.17,8.94.46,12.93,2.83,7.4,2.83,14.27,2.09,22.89,1.27,5.4.79,8.41-1.43,9.03.88,2.44,1.37,5.04,1.45,7.79,2.47-.14,4.2,11.02.25,7.82.06.85-.1,1.36-.62,1.68-.28.55-.95,1.77-1.05,1.81-.44.15.57-2.41,1.05-1.81,4.33-4.26,3.68,5.54.61,7.52-.61,3.41-.21,6.64,1.21,9.68l-.11,1.76c-1.25,2.42-.77,4.71,1.45,6.86.23.79-.97,11.82-1.23,12.48-.6,1.51-2.05,1.06-2.28-.79.8-19.52-1.44-1.44-1.47,5.58-.32,2.53-.92,3.54-1.81,3.04-1.11-4.75-1.22-11.76,0-16.43.78,1.47,1.12-4.67,0-2.53-1.45-.1-2.31-5.6-2.5-8.03l-.1-8.17c-2.6-7.02.69-7.62,2.55-3.11l.78-.28c1.4-1.25,1.63-1.46,0-2.53l-.84-.76c-.28-7.45-.44-14.94-.47-22.48-4.15.47-3.49-6.64-.28-8.27-.07-6.03-.04-12.16.09-18.37-.61-1.62-1.08-3.28-1.4-4.98-.37,2.48-1.47,7.24-2.17,3.04l-.35-.76c.26-8.86.51-17.48-.22-26.22.68-9.69,1.16-18.64.57-28.41.16-3.44,1.23-10.07,2.9-11.6,1.04-3.63,2.74-.22,2.51,2.97.14-4.4,1.03-7.29,2.68-8.66-.03-1.76.3-2.81.98-3.15-.31-.21-.31-.42,0-.63,1.36-.59,1.83,1.49,1.42,6.24,1.22-1.68,2.33-3.59,3.32-5.73,1.79-.8,2.26-2.94,1.4-6.42l.75-1.04c.36-.03.73.02,1.09,0Z"/>
      <path class="bd" d="M314.48,277.57l.46,2.12c-.43,16.88-.07,33.35,1.08,49.42l.64,1.55c.14,2.42.26,4.94.36,7.58,0,2.1,0,4.22,0,6.32.31,3.36.3,6.75,0,10.11,0,10.1,0,20.23,0,30.34-.17,16.05-.29,32.48-.36,49.3v39.82c-.14,3.03-.26,5.98-.36,8.85-1.74-1.12-.81-4.33-1.1-6.5-.04-.32-.46-.44-.68-1-.13-.33.03-1.19-.05-1.32-.1-.18-2.69.66-2.91.9-.44.5-.34,1.45-.35,2.23l-.91-.85c-.56-6.83-.23-13.74.98-20.73.83-25.61,1.31-51.72,1.04-77.37.65-9.73,1.01-19.5,1.1-29.32-.02,1.78-.32,3.53-1.46,3.79,2.66,5.25-4.17,6.03-5.29,4.28-1.2-1.88-1.78-10.51.79-10.67.75-2.32.85-2.41,2.26-1.6.07.04,1.02-1.75.95-1.81-2.21-.44-3.58-1.48-3.66-5.82-.1-5.3,2.54-7.71,3.86-2.54.96-5.02,1.36-7.22.15-12.37.01,2.31-.52,4.98-2.02,3.35-.39-.42-2.04-12.25-1.82-12.9,1.17-3.53,2.37-.68,2.96,1.88.95-2.29,1.86-5.31-.02-6.76-1.98-5.45-.87-17.21-.04-23.54l.76-1.06c.73-4.72,1.94-6.61,3.63-5.69Z"/>
      <path class="t" d="M302.51,91.12c-.19,1.31-1.08,2.01-2.69,2.09,1.95,4.95,0,5.04-2.39,4.87,0,.21.01.42,0,.63-.39,2.53-1.41,1.88-1.65-.52-.86,4.1-1.74,5.15-2.66,3.16-.32-.15-.95,4.56-.98,5.42l-.88.8c-.79,4.1-2,7.54-2.17,11.7-.19,4.51.39,8.49.39,12.64,0,4.88-.98,10.46-1.13,15.13s.96,8.17.77,12.07c-.27,5.44-.77,9.32-.76,15.45,0,2.51-.07,5.08,0,7.58,1.04.53.89.97,0,1.9-.22,1.96.64,6.24-.73,5.69-.03-10.21-.15-20.11-.36-29.71,0-8.41-.06-16.87,0-25.28-.3-3.77-.33-7.61,0-11.38.12-7.79.47-15.51.78-23.3.34-.35.82-.29,1.13-.72.69-.95,6.71-7.74,7.13-7.94,1.81-.88,4.3.08,6.21-.27Z"/>
      <path class="ay" d="M312.67,91.12c1.53,1.48,3.23,8.72,2.18,11.38l-1.27,2.52c-1.3-2.46-1.98-5.48-2-8.85-1.66,1.15-1.96.73-3.62,0-.3.55.76,8.36-1.45,8.21.16-4.76-1.7-8.26-1.09-13.27,2.27-.14,5.01-.25,7.26,0Z"/>
      <path class="ay" d="M304.32,91.12c-.23,2.11.75,4.35.19,6.32-.33,1.19-1.48,1.43-1.98,2.26-1.35,2.24-1.16,3.07-3.04,5.32-.12.14-.77,3.02-1.28.21-.4-2.17.64-5.83-.79-7.16.06-1.52-.32-3.27.55-4.42,1.05-.34,0,2.42.57,3.1.25.3,1.02-.06,1.42.05.54-.82-2.15-4-.11-4.93.48-.22,2.09-.65,2.65-.76s1.22.06,1.81,0Z"/>
      <path class="d" d="M312.67,91.12c.84.09,2.23.29,2.99.68.26.13.55,2.03,1.72,1.22l-.36,23.38c0-.09-.35-.72-.38-1.53-.09-2.42.1-4.9.01-7.32l-1.45,1.26c.08-2.63-.13-3.96-.36-6.32-.45-4.51-1.34-7.21-2.18-11.38Z"/>
      <path class="s" d="M287.63,189.72c0,3.15,0,6.33,0,9.48-.6-.66-.36-2.4-.37-3.47-.07-11.9,0-23.83,0-35.72.6.66.36,2.4.37,3.47.05,8.74,0,17.5,0,26.24Z"/>
      <path class="m" d="M287.27,134.73c-.61-3.21-.61-8.21,0-11.38-.06,3.78.03,7.6,0,11.38Z"/>
      <path class="ar" d="M298.15,511.43l-.73-1.14c.35-5.83.19-11.39-.48-16.7-2.08,1.6-3.31,1.04-3.7-1.66-1.4,1.01-1.7.77-1.82-1.72-.33-6.96,1.48-14.74,4.15-5.15.22-3.71.26-6.04-.9-9.12,1.02-3.44,1.47-7.4,1.33-11.89.2-1,.72-1.19,1.31-1.35-.33-3.2-.44-11.36,2.27-7.65,1.64,2.24,1.87,17.88.7,21.32.95,3.07.97,6.44.04,10.12l.09,3.3c1.82-11.46,3.65-4.99,3.43,3.02-.94,2.06-.04,5.27,1.37,3.56.37-2.65,1.2-5.3,2.38-7.05-.28-1.24.01-1.74.73-1.26.85-1.42,1.25-1.54,1.09.63l.63,1.1c.59,8.16.96,16.4,1.11,24.71,1.17,2.29,1.08,5.04-.29,8.26.31,4.15-.27,6.12-1.76,9.13,0,2.43-.03,4.87-.1,7.31-1.54,2.09-2.6,9.84-2.72,13.45-.04,1.2.16,8.55.32,8.89,2.38,1.09,2.59,8.29-.16,8.65l-.12,1.03c2.96-.24,2.35,3.96.34,6.08-1.04,5.89-1.11,11.69-.94,17.71.44,1.09,1.2,1.63,2.29,1.64.18,3.75,1.31,6.89,3.4,9.42.47,4.08,1.01,8.14,1.63,12.19-.01.84.03,1.69,0,2.53-.27,1.18-1.07,1.22-2.4.13l-.86.19c.28.06.69.19.73.55.35,3.14-.28,7.92-.73,10.51-.12.66-.37,1.01-.75.99-1.29-4.13-1.77-2.63-1.46,4.49-.27,1.07-.89,1.35-1.83.86-.19.61-.92,12.89-.79,13.9.04.34.37.22.67-.17,2.72,2.83,4.26,4.99,3.11,11.48,1.69,5.57-4.15,8.7-2.49-.17.42-6.06-1.81-4.11-1.17.82-.08,2.15-.95,3.56-2.13,2.58.19,3.16-.17,5.86-1.1,8.09-1.79,1.82-1.84,5.51-1.81,9.13.28,14.39.46,28.74.53,43.08-.02,3.1-.58,5.11-1.67,6.04-1.28-1.39-1.05-6.76-.85-9.41.96-3.67,1-7.59.11-11.75.46-10.91.59-21.81.41-32.7-.09,5.82-.31,11.63-.66,17.43l-.82,2.31c-1.99.67-1.72-10.95-1.45-11.38.36-.59,1.95,1.55,1.45-2.52-3.26,2.41-1.37-7.36-1.43-10.41-.04-2.04-.92-4.83-.75-7.28-.84-.32-.58.18-.81.81-1,2.72-.44,4.95-.63,7.73-.07.93-.28,1.94-.73.93.01-2.2-.03-4.42,0-6.63.1-6.25.83-11.73,1.08-17.71.09-2.12-.34-11.11-.19-11.66.15-.6,1.03-1.74,1.28-1.28.61,2.53-.05,5.24.01,7.23.14,4.55,2.77,3.23,2.14-3.73-.32-3.6-.36-3.13-.34-6.99.07-15.96,1.53-32.24,1.09-48.34-.38-5.84-.38-11.53,0-17.06-.25-.64-.45-1.29-.48-1.97-.3-6.63-.25-15.22.84-21.42-1.07-11.69-1.02-24.32,0-36.03Z"/>
      <path class="bd" d="M313.03,620.77c-.08,2.16.26,6.1,0,7.77-.1.63-.72.59-.89,1.09-.27.79-.22,1.96-.57,3.15q-.86-.83,0,0c.07,2.01.32,4.64.33,6.57.01,2.05-.61,4.4-.32,7.01.2,1.79,1.24,2.04,1.43,3.82.43,3.94-.13,10.75,0,15.18.27,9.69.67,17.89,0,27.75-.09,1.31-.73,2.33-.73,3.83,0,1.59.76,2.75.75,3.81-.01,1.3-1.14,1.76-1.12,3.77,0,1.53,1.13,4.02,1.4,5.85.44,3-.11,5.89.09,8.01.09.99.74,1.82.75,2.6,0,1.3-1.89,2.05-1.82,5.09.03,1.47,1.32,1.6,1.65,3.38.52,2.79,1.07,9.43.86,12.33s-.33,2.9-.33,6.39c-.01,11.58-.27,23.58-.34,34.79-.02,3.04-.3,9.48-.03,11.93.15,1.36.84,1.74,1.01,2.67.29,1.62-.7,8.3-.76,11.43-.02,1.03.35,1.82-.44,2.65l-1.24-9.11-.75.9c-.55.64-1.47-3.28-1.59-4.12-.63-4.64-.43-6.45,2.06-9.08.76-5.41.94-11.5-1.2-15.87-.92-.26-2.08-1.49-2.14-3.42.48-11.01.72-22.33.55-33.48-1.07-4.66-.93-8.81.42-12.44-1.31,2.71-3.28,5.81-3.25-1.35l.11,9.85c.64,2.34-2.56,6.06-3.11,4.57-.73-1.95-.24-15.39-.02-18.03-.46-4.81-.67-9.76-.63-14.85l-.2,12.74c-.55.75-.81,2.28-.8,4.58.87.98.82,5.36,0,6.32-.22,7.17-.34,14.55-.36,22.12.7.36.7.91,0,1.26-.02,1.68.02,3.38,0,5.05-2.64.08-1.79-4.66-2.54-7.58l-.72-1.83-.35-12.64.7-1.97c1.5-6.25,1.18-13.22,1.1-19.94-.02-1.5-.38-2.88-.39-4.37-.05-6.66-.69-26.42.02-31.5.06-.41.51-.31.7-.94.13-.43-.11-1.5.08-1.91s.94.31,1.43-1.62c.61-2.41.23-9.19.49-9.88.22-.59.53-.73.92-.62v3.47c1.8.89.8-4.37,1.14-6.23.29-1.57,1.2-.4,1.43-.68.1-.12.83-4.75,1.06-1.31.25,3.68.18,6.88-.36,10.44.24.46,2.13-1.88,2.14-2.2s-.57-1.25-.63-2.04c-.15-2,.92-5.01-.09-7.41-.4-.96-1-.83-1.41-1.37-.33-.43-.45-2.52-1.1-1.52-.1.15.08,3.01-1.09,2.53-.51-7.39.86-14.21.73-21.48,1.21-.5.72,2.76,1.81,3.16.21-1.97-.3-5.52.05-7.19.27-1.3,2.17-.32,1.41-4.81,1.82-.47-.38,6.78,1.45,6.32v-11.06c0-.11.37-1.52.6-1.63l2.67,1.32Z"/>
      <g>
        <path class="u" d="M311.22,477.3c-.86-5.26,3.59-5.67,4.59-1.4-.3,2.6-.13,4.97.49,7.09.31,10.31.32,20.66,0,30.97,0,4.63.02,9.28,0,13.9-.14,2.15-.26,4.26-.36,6.32-.68,1.98-.51,4.86,0,6.95,0,3.36,0,6.75,0,10.11l-.36,9.48c0,2.73,0,5.48,0,8.22l.36,13.9c0,2.73,0,5.48,0,8.22l-.51.04c.23,6.76.29,13.66.16,20.71l.35.73c.1-.55.22-.54.36,0,0,21.06,0,42.15,0,63.2-.14,3.02-.26,5.97-.36,8.85-.47,2.04-.61,4.34,0,6.32.3,27.16.45,54.38,0,81.53-.81,2.21-.82,4.1,0,6.32.29,2.9.32,5.95,0,8.85-.13,21.57-.85,42.92-1.09,64.47-.22,11.49-.34,23.29-.36,35.39,0,.84,0,1.69,0,2.53.02,9.77.15,19.25.36,28.44,0,3.99,0,8.01,0,12.01.02,8.03.14,15.83.36,23.39,0,5.68,0,11.39,0,17.06.05,9.98.18,19.68.36,29.07-.04,2.58.23,5.64-.25,8.07-2.37,3.54-4.58,7.12-6.94,10.57-1.7-.49-3.43-.23-5.14-.31-1.09-.45-2.3-.87-3.63-1.26-1.25-.03-4.48.44-5.35-.18-.1-.08-1.14-2.49-1.46-3-.76-1.24-.8-1.31-1.52-2.65-2.45-4.57-2.7-3.4-2.92-10.6-.43-7.69-.31-15.68,0-23.39-.02-7.36.01-14.76,0-22.12.15-21.26.27-42.96.36-65.1v-32.23c.16-18.14.28-36.68.36-55.62,0-1.47,0-2.95,0-4.42l.36-7.58c0-1.05,0-2.11,0-3.16v-39.19c0-16.63,0-33.3,0-49.93-.3-2.3-.27-4.64,0-6.95.71-1,1.01-.28,1.11,1.14-.09,7.86-.08,15.41.95,23.15,1.69,3.09.92,7.13-.48,10.06-.48,2.56-.2,14.66,1.2,16.82-.08,6.99-.23,14.07-.44,21.24.68,9.36.78,18.59-.27,27.85.28,2.5.37,5.81-.97,7.32.02,9.32.24,18.77.67,28.36-.34,2.64-.37,4.99.11,7.58-.91,15.33-.82,30.88.1,46.1,2.7-2.26,2.99,5.28.16,4.93-.58,5.93-.48,10.99.64,16.68-.05,5.05-.1,10.02-.13,14.89-1.36,1.17-1.87,2.94-1.56,5.31.22,4.71.37,9.7-.02,14.42.66.66.91,2.27.75,4.84,1.04,1.61,1.4,3.06.31,4.99l.54,1.71c-.14,17.18-.25,35.53.18,53.19-.66,3.39-.49,4.93.51,4.6.34-1.16,3.85-7.18,4.23-7.31,1.25-.43,1.22,3.45.38,4.34.68.51.94,1.9.78,4.17,3.13-4.6,4.65-4.54,6.14,2.41-.23-2.35.04-3.55.8-3.59.57-3.63,2.12-.79,1.73,2.29,1.19-3.36,2.5-3.19,3.51.13.05-5.3.1-10.64.13-16.02,2.4-5.3,2.25-9.29.74-15.41-.62-3.84-.49-7.08.38-9.72l-.98-2.66c.56-6.37.63-12.67.44-19.08-.02-.82.39-1.11.86-1.3l-.46-2.01c.95-5.58,1.72-11.22,1.24-17.08l-.8-1.75c-.27-8.14-.48-16.31-.62-24.51,1.83-7.29.76-16.2-.28-23.5l.11-2.59c.9-2.59.99-4.82.27-6.68,1.38-18.6,1.36-37.38.55-55.87-1.17-.64-1-6.02,0-6.95.13-4.17,1.94-.64,1.93,2.21l.6-7.45c-1.48-2.88-1.37-6-.77-9.5-.03-13.9,0-27.91.09-42.04.51-5.69.44-11.2-.49-16.76-2.25-3.14-2.25-5.9.11-8.98l-.51-1.29c-.1-5.28-.27-8.32-1.12-13.51-.87-1.57-.69-3.41.55-5.5-1.1-2.69-.8-4.92-.03-7.71.28-14.38.27-28.65-.04-42.81-1.52-2.71-1.87-6.29-1.07-10.75l-.26-5.07c.47-.2.6-.75.66-1.49.63-3.56.87-7.17.72-10.84l.73-1.17c-.98-.7-1.02-1.88,0-2.53-.51-2.23-.63-4.82-.35-7.77-.87-5.34-1.48-9.99-.45-15.49-2.64-1.11-3.01-6.14.12-5.5.49-2.05.43-4.44.19-6.58-3.53-.54-2.49-10.29.9-8.69l.64-22.33c-2.07.81-4.27-4.6-2.44-7.53-.61-1.84-.52-3.87.27-6.1-1.08-4.14-.81-6.49.82-7.05.66-5.1.65-10.37-.06-15.82.19-2.26,1.66-11.59,3.26-9.95-.28-.06-.7-.21-.73-.57-.42-5.8.2-13.4.73-18.71l-.38,1.21c.25,1.76.02,8.92-1.51,5.71-.59-1.23-.54-9.96.44-11.35-.58-.21-.94-1.23-1.06-3.08-1.11.52-1.85.28-2.21-.72-.33-.12-.31-.33,0-.63Z"/>
        <g>
          <path class="n" d="M288.36,955.11c-.03-20.52-.13-41.1,0-61.63,0-1.07-.23-2.81.37-3.47,0,20.52.15,41.1,0,61.63,0,1.07.23,2.81-.37,3.47Z"/>
          <path class="ab" d="M289.44,786.99c.01-13.05,0-26.13,0-39.19v39.19Z"/>
          <g>
            <path class="ai" d="M315.93,787.62c.02-2.94-.01-5.91,0-8.85-.82-2.03-.83-4.3,0-6.32.1-27.17-.06-54.39,0-81.53-.59-2.07-.51-4.21,0-6.32,0-2.79-.31-6.47.36-8.85,0,36.11.22,72.29,0,108.4,0,1.07.23,2.81-.37,3.47Z"/>
            <path class="bd" d="M315.93,591.06c0,2.1,0,4.22,0,6.32.26,5.04.36,10.13,0,15.17,0,2.73.01,5.48,0,8.22-1.91-.66-.71-3.2-.71-5.97.01-6.95.06-13.94,0-20.85-.01-1.72-.84-3.71.17-5.41l.54,2.53Z"/>
            <path class="k" d="M288.72,857.78c0-17.37-.11-34.78,0-52.15,0-1.07-.23-2.81.37-3.47-.02,17.37.13,34.78,0,52.15,0,1.07.23,2.81-.37,3.47Z"/>
            <path class="h" d="M316.3,513.95c.02-10.31-.02-20.66,0-30.97,0-2.79-.31-6.47.36-8.85,0,12.1.08,24.24,0,36.35,0,1.07.23,2.81-.37,3.47Z"/>
            <path class="ap" d="M314.48,887.48c0-10.63-.08-21.29,0-31.93,0-1.07-.23-2.81.37-3.47-.12,10.62.07,21.29,0,31.93,0,1.07.23,2.81-.37,3.47Z"/>
            <path class="ae" d="M315.57,999.99c-.6-.66-.36-2.4-.37-3.47-.05-8.53,0-17.08,0-25.61.6.66.36,2.4.37,3.47.06,8.5.11,17.12,0,25.61Z"/>
            <path class="o" d="M314.84,918.45c-.6-.66-.36-2.4-.37-3.47-.05-8.32,0-16.66,0-24.97.6.66.36,2.4.37,3.47.06,8.32,0,16.66,0,24.97Z"/>
            <path class="ag" d="M315.21,953.85c-.6-.66-.36-2.4-.37-3.47-.04-6.63,0-13.29,0-19.92.6.66.36,2.4.37,3.47.05,6.63,0,13.29,0,19.92Z"/>
            <path class="as" d="M288.36,1000.62c-.6-.66-.36-2.4-.37-3.47-.04-5.47-.03-10.98,0-16.45,0-1.07-.23-2.81.37-3.47.02,7.66-.23,15.81,0,23.39Z"/>
            <path class="at" d="M316.3,612.55h-.36c.02-5.05,0-10.12,0-15.17.67,4.69.36,10.26.36,15.17Z"/>
            <path class="be" d="M315.93,582.85c-.67-4.25-.36-9.43-.36-13.9.67,4.25.36,9.43.36,13.9Z"/>
            <path class="g" d="M315.93,541.13c-.51-2.33-.63-4.68,0-6.95,0-1.98-.3-4.87.36-6.32-.01,3.46.08,6.97,0,10.43-.02.82.23,2.84-.36,2.84Z"/>
            <path class="az" d="M299.6,1017.05c1.18.03,3.99-.85,3.63,1.26-1.19-.05-3.99.86-3.63-1.26Z"/>
            <path class="b" d="M315.57,560.72c0-3-.31-6.88.36-9.48,0,3,.31,6.88-.36,9.48Z"/>
            <path class="j" d="M289.08,797.74c0-2.39-.31-5.7.36-7.58,0,2.39.31,5.7-.36,7.58Z"/>
            <path class="bd" d="M315.93,654.9c-1.67-2.19-.33-7.67-.35-10.45-.03-3.39-.76-9.41-.74-13.26l1.09-7.26v30.97Z"/>
            <path class="bd" d="M315.93,772.45c0,2.1,0,4.22,0,6.32-1.66-.03-1.65-6.3,0-6.32Z"/>
            <path class="bd" d="M315.93,534.18c0,2.31,0,4.64,0,6.95-1,0-.87-6.62-.73-6.96.04-.1.52.06.73,0Z"/>
            <path class="bd" d="M315.93,690.92c-1.2-.91-.97-5.02,0-6.32,0,2.1,0,4.22,0,6.32Z"/>
            <polygon class="p" points="313.03 992.4 313.76 992.4 313.76 995.57 313.03 995.56 313.03 992.4"/>
          </g>
        </g>
      </g>
      <path class="q" d="M298.88,733.27c.03,5.39.44,11.31.36,16.43-.05,3.41-.71,5.27-.76,9.24-.04,2.8-.24,5.66-.33,8.46-.85.08-.64.21-.72-.94-.09-1.29.15-7.03,0-7.28-1.12-1.89-1.23,2.95-1.81,3.16-.9-5.48.74-10.76.75-16.12.02-8.45-.22-17.03-.03-25.6.15-7.17.46-14.33.73-21.49.29-8.02.98-15.97.73-24.02.8.77,1.34,2.56,1.46,4.08.76,9.75-.48,22.99-.39,32.86.02,2.15.82,4.8.76,6.98-.05,1.88-.96,4.19-1.02,6.49-.06,2.11.25,5.23.27,7.73Z"/>
      <path class="ar" d="M296.7,580.95c-1.31-2.23-4,.23-4.01-3.46s.98-2.38,2.09-3.35c.43-.38,2.07-2.46,2.28-2.04.29,2.61-.3,5.18-.36,7.58-.01.42.02.85,0,1.26Z"/>
      <g>
        <path class="al" d="M291.98,544.29l.67.87c-.61,7.12-.58,14.1.08,20.94,1.22,2.9,1.92,6.75-.03,9.07-1.85,5.23-1.32,7.43,1.58,6.61.7.09,1.17.5,1.13,1.75-2.26,9.15,1.55,3.83.54-1.95l.75-.63c-.47-.69-.47-1.11,0-1.26.27-1.24.51-2.27.92-.91l.17,9.12c.85,1.99.89,4.28.81,6.68-.45,14.88-.84,29.72-1.16,44.5.61,4.32.99,14.99-2.94,10.36-.11,5.9-.41,11.81-.9,17.74,1.58-3.43,2.6,4.11,2.66,6.23-.21,3.83-.25,7.49-.14,10.98,1.88-1.17,1.75,4.95.09,4.66-.16,3.56.02,7.32.86,10.09.87,6.87.55,14.81-.73,21.49-.02,1.92-.63,2.92-1.82,2.99l-.24,3.99c-1.76,4.36-1.48,6.04.14,10.23.26,5.6-.18,11.2-1.32,16.81v7.16c2.83-1.81,3.08,4.32.27,4.91l-.17.97c2.79,1.86,3.15,8.83.61,11.81l-1.85,22.29c1.97,1.03,2.39,4.84.02,4.52-.33,6.56-.13,13.3.59,20.24-.25,1.59-.45,3.18-.61,4.77,2.03,3.54,2.07,7.65,1.48,12.25-.39,3.92-.2,7.43.57,10.53.89,21.6,1.83,44.91.49,66.48-.22,3.51-.77,7.33-2.84,7.81-.03,2.79-.12,5.56-.27,8.33l-.87.06c.83-4.27-1.63-15.81-.39-18.69.3-.7,1.31-1,1.42-1.9.08-.62-.34-1.66-.31-2.47.21-5.47.63-9.39-.02-14.5-.13-1.04-.62-1.72-.69-2.6-.16-1.92.11-10.08.4-11.89.34-2.18,2.41,2.05,1.77-3.88l-1.81,1.58c-1.22-6.86-.57-14.11-.72-21.2-.13-6.68-.59-10.6-.03-17.07.99-11.46.15-24.25.03-36.02-.02-2.49-.64-7.68-.31-10.03.11-.79.99-1.15,1.34-2.03.94-2.39-.23-2.83-.29-4.32-.09-2.29.65-6.89.71-9.49.21-9.06-.86-21.02-.4-29.73.13-2.4.75-7.49.32-9.98-.16-.9-.86-1.29-1.02-2.67s-.44-12.91-.3-14.4c.23-2.46,1.83-2.47,1.41-7.76-.09-1.12-.64-.87-.72-1.39-1.25-7.96-1.06-13.86-1.11-21.96,0-1.07.23-2.81-.37-3.47-.09-3.73-.21-7.52-.36-11.38-.06-4.66-.35-9.21-.36-13.9l-.36-6.32c0-1.26,0-2.53,0-3.79-.42-37.07-.42-74.17,0-111.24,1.22-7.63,3.56-8.93,3.63,0Z"/>
        <g>
          <path class="aq" d="M288.36,539.87c1.29.37.62,3.12,0,4.42,0,37.07-.05,74.17,0,111.24-.6-.66-.36-2.4-.37-3.47-.36-51.06,0-102.22,0-153.28.6.66.36,2.4.37,3.47.08,12.53,0,25.09,0,37.61Z"/>
          <path class="ah" d="M289.44,690.92c0,2.31,0,4.64,0,6.95-.6-.66-.36-2.4-.37-3.47-.04-4.95.08-9.92,0-14.86.67,3.36.36,7.76.36,11.38Z"/>
          <path class="ao" d="M288.72,665.64c-.66-1.45-.36-4.34-.36-6.32.66,1.45.36,4.34.36,6.32Z"/>
          <path class="ak" d="M291.98,544.29c.01-.24.4-.98.41-2.17.02-2.58-1.3-6.19.68-5.42l1.09,31.6c1.09.3.58-.46.74-1.54.66-4.66-.77-11.26.89-16.15.66,1.92.76,5.6.89,7.99.08,1.65.31,3.9.35,4.92.07,2.1-1.17,5.53.76,7.31,0,5.67.07,11.37,0,17.06-.06-2.05-.3-4.76-.36-7.28-.04-1.55.26-2.06-.73-.94-.76-1.36-.76-.94,0,1.26-.2,4.88.78,6.39-2,9.47-1.6-2.93-.51-4.7.18-7.57-1.16.54-3.5.61-3.92-1.71-.68-3.73,1.84-5.04,2.12-8.69.31-3.91-.51-3.64-1.03-5.87-1.07-4.59-.37-16.93-.08-22.29Z"/>
          <rect class="ak" x="287.01" y="572.37" width="6.33" height=".73" transform="translate(-282.75 862.53) rotate(-89.96)"/>
        </g>
      </g>
      <path class="w" d="M314.48,252.29c.3,1.92.37,5.96-1.07,5.78-1.56-.2-2.03-12.78-1.53-15.14-.19-1.48-.54-2.78-1.03-3.91.08-1.29-.69-1.3-.84-2.04-.5-2.42-.14-12.38.09-15.38.18-2.34,1.29-4.77.75-7.86l1.45.63c-.12-1.4.19-3.36.01-4.61-.1-.7-.94-.43-1.11-2-.09-.84-.11-4.87,0-5.61.13-.93,1.19-.58,1.42-1.15.2-.49,0-1.74.05-2.43l-.68-.96c.2-4.42-.06-8.31-.77-11.68.02-.62-.04-1.28,0-1.9l.14-1.18c1.68.36,2.36-.72,2.04-3.25-.07-.4-.06-2.7,0-3.16.07-.52.65-1.45.73-1.9.42,5.74.31,10.96-.03,16.7-.12,2.08-1.01,7.74-.97,9.42.04,2.01,1.44,7.19,1.65,9.78.98,12.19.17,29.32-.29,41.84Z"/>
      <path class="ay" d="M291.26,107.56c.5-2.59.31-6.17,2-8.21l.9,2.52c.19-2.4.94-4.8,2.01-6.31.86-.29.21,1.18.34,2.51.14,1.5.26,1.53.93.65-.35,6.47-.54,2.97-1.84,5.49-.88,1.71-.74,7.99-1.98,9.04-.73.62-.5-.96-.53-1.58-.12-2.32.24-5.4-1.82-4.11Z"/>
      <path class="au" d="M292.71,248.5c.05-.72.24-8.1,1.18-4.27.43,1.74.31,5.88-.29,7.4-.5,1.25-1.01,1.11-.89-.6.01-.82-.06-1.73,0-2.53Z"/>
      <path class="au" d="M293.44,228.91c.05-.55.06-2.05,0-2.53,1.81-1.58,2.36.99,1.26,3.15-.57,1.13-.74-.32-1.26-.62Z"/>
      <path class="af" d="M296.34,221.32c-.02,1.31-.64,2.69-1.45,2.52v-2.52c.48.03.97-.07,1.45,0Z"/>
      <path class="aj" d="M294.52,294.64c2.08,1.94,2.08,6.53,1.02,9.68-.35,1.03-1.16,1.23-1.33,2.11-.07.39-.48,7.47-.45,8.12.18,4.2.97-.03,1.83,1.88-.52,1.63-.43,3.85-.34,5.69.12,2.53,1.01,7.14,1,8.98,0,2.68-1.66,1.21-1.74,1.77-.41,3.07.42,9.18.4,12.64-.03,5.18-.85,11.75-.41,17.1.12,1.53.76,2.42.78,3.75.02,1.71-.92,2.97-.76,4.75l1.81-.63c.22,2.7-.11,5.12-.36,7.58-.17-3.73-1.71,1.94-2.17,1.9.75-3.61-.83-6.28-1.08-8.56-.26-2.42.17-5.58-.04-8.15-.19-2.42-1.63-5.6-.67-8.2.25-.67.87-.72,1.04-1.5.09-.44.46-4.38.37-4.54-.37-.66-2.09.41-1.44-4.44l-1.45,1.26c-.12-1.71.01-3.88,0-5.69.89-7.21.98-14.62.27-22.24l.82-1.15c.02-.22-.04-.48,0-.63.14-1.42-.27-3.31-1.23-5.67.26-2.2.12-3.65-.22-5.7.11-.63-.39-8.7,1.08-6.95.08.09.14,1.95.73,1.89.4-9.3,2.11-.44,2.36-.64,1.1-1.31.19-3.06.18-4.42Z"/>
      <path class="bd" d="M310.85,239.02c.84-.86.77-.12,1.11.89,1.55,4.67-.14,4.78-.02,7.6.78,1.72.86,8.21,1.46,9.21.98,1.65,1.06-3.89,1.08-4.42.58.82.42,2.95.38,4.14-.21,6.46-.3,13.14-.38,19.25.29-3.62-1.64-2.57-1.83-2.82-.61-.82-.22-2.62-.37-3.77s-.61-2.08-.61-3.08c0-2.82,2.07-7.87-.82-9.29.02-1.05,0-2.11,0-3.16.15-3.8.17-7.31,0-10.74-.31-2.54-.13-1.67,0-3.79Z"/>
      <g>
        <path class="ay" d="M317.02,116.41c.06,2.09-.03,4.23,0,6.32.16,20.32.28,40.34.36,60.04,0,32.43.73,66.4-.36,98.6l-.36,6.32c-.02,7.39-.38,14.71-.36,22.12l.36,9.48c0,2.73,0,5.48,0,8.22.19,1.08.19,2.14,0,3.16-.83.14-1.03.31-1.28-1.22-.44-2.66-.78-8.81-.89-11.74-.49-13.21-.16-26.86,0-40.13-.93-.71-.93-1.18,0-1.9.17-1.21-.08-2.16-.69-2.88.19-7.04.42-13.87.69-20.5l-.65-2.1c.59-13.37.99-26.69.17-40.03l-1.52-8.31.41-1.16c.17-6.31.62-12.58,1.35-18.82-.52-2.51-.56-4.96-.13-7.32,1.44-8.82.2-26.05.07-35.71-.02-1.16.44-2.41.32-3.79-.15-1.62-1.04-1.04-1.14-2.5-.18-2.56-.06-7.39.05-10.1.04-1.05.6-1.94.63-2.67.08-1.67-1.13-2.01-.08-5.22.97-2.95,1.1-1.13,1.24-5.74.2-1.79.61-2.65,1.71-1.77-.14,3.18-.1,6.3.11,9.36Z"/>
        <path class="aa" d="M317.38,182.77c-.6-.66-.36-2.4-.37-3.47-.11-18.84.27-37.75,0-56.58.6.66.36,2.4.37,3.47.13,18.84,0,37.74,0,56.58Z"/>
        <path class="ax" d="M316.66,319.29c-.67-2.6-.36-6.48-.36-9.48.67,2.6.36,6.48.36,9.48Z"/>
        <path class="k" d="M316.66,287.69c0-1.98-.3-4.87.36-6.32-.07,2.02.35,4.83-.36,6.32Z"/>
        <path class="bd" d="M315.57,269.04c0-.11.37-1.43.54-1.58,1.34,1.01.05,12.06.18,14.53-.23.05-.72-.84-.72-.95,0-3.54-.27-8.76,0-12.01Z"/>
      </g>
      <g>
        <path class="au" d="M296.34,221.32c.02-1.01-.57-2.53-.36-3.79l2.54,1.89c.52-3.15-.92-4.23-1.09-6.95l-1.44,2.52c.02-1.93.06-3.81-.16-5.72-.24-2.08-2.65-8.34-2.02-9.44.09-.16.9-.18,1.12.37.43,1.07-.06,3.82,1.07,2.39,1.53-1.95,0-4.86-.02-7.53-.05-3.97.76-8.79.35-13.21-.23-2.5-2.38-8.68-2.43-9.61-.07-1.2.65-2.74.65-4.34,0-2.4-1.2-5.97-1.12-8.84.04-1.46.78-2.98.7-3.71-.14-1.19-2.04-2.32-.48-5.44.88-1.76,2.5-.27,1.17-4.62-.47-1.55-1.39-1.89-1.4-3.92-.02-3.49,2.52-5.31,2.54-8.87.01-1.87-1.23-2.88-1.34-3.86-.16-1.48.62-6.1.65-8.12.03-2.37-.76-11.77-.01-12.99.08-.12.79.08,1.08,0-.22,4.12.6,7.79-.34,11.61l.88,4.82c.49-.87.76-2,1.27-2.85,1.56-2.67,3-4.93,4.55-7.24,1.88-2.79,1.15-7.44,1.63-11.39.43-1,.66,0,.73.94.13,1.87-.11,9.61,1.82,4.46.42-1.13.35-3.15,1.07-3.83,1.53-1.44,1.36,6.56,1.54,8.08.1.8.7,1.47.82,2.28.04.27.23,5.17.21,5.44-.11,1.57-1.4,1.6-1.76,3.95-.4,2.61-.09,5.19-.16,7.44-.11,3.74-1.07,8.58.62,11.69.46-.79,2.93-4.71,3.45-3.78.49,2.99-.58,5.39-.74,7.88-.27,4.27-.06,9.48-.38,13.89,2.95,1.73.42,2.44.09,3.95s-.88,12.2.11,12.19c.13,0,.86-2.08,1.63-.62.66.16.66,2.84,0,3.16.8,2.2-.16,3.38-1.44,2.48.12,1.13,0,1.7-.73,1.94.97.39.88,1.11,0,1.9,1.03,2.55.76,7.66.26,10.84.8.18,1.2.78,1.19,1.8.52,1.27.55,4.31-.78,4.14-.05,1.65-.07,3.39.05,5.02,1.66,1.22,1.61,7.02-.09,7.74-1.35,6.76-1.62,13.97-1.17,21,.78.8,1.08,1.75.17,2.54.88.73.77,3.03,0,3.79.23,3.55.23,7.13,0,10.74.99.99,1,2.18,0,3.16.17.18.33.38.43.65.64,1.74-.6,8.48-1.03,10.67,1.89,1.54,1.21,6.52.46,9.25.95,2.56,1,4.55.14,5.98-.14,5.83-1.47,14.2-1.09,19.91.31,4.71,1.83,4.32,2.12,5.79.35,1.78-.81,6.83-1.58,7.16-.85.37-1.19-3.18-1.82-3.79-.83-.35-.61,1.38-.55,2.22.13,1.74.67,3.51.94,5.32.29,1.96-.28,5.18,1.25,5.09l.37-5.69h1.08c-.16,2.57,1.1,7.11,1.08,9.09-.02,1.84-.73,3.6-.98,5.29-.09.6-.11,6.84-1.14,3.58-.54-1.72-.12-4.38-1.65-4.07-1.72.35-1.22,6.62-.32,7.66.76.87,4.53.82,3.38,3.08-.09.18-1.14-.25-1.4,1.05-.23,1.14.12,5.03-.05,5.3h-1.09c.03-.96.15-5.1-.55-5.05-.23.02-.61,1.73-.93,2.17-.41.58-1.29.85-1.38,1.07-.34.93,0,7.08.65,7.83.25.29,3.84.2,4,.02,1.62-1.79-.2-2.78-.28-3-.87-2.52.89-1.4,1.31-1.87,1.38-1.51-1.07-14.45,1.87-15.08-.1,6.83.15,13.73.02,20.57-.14,7.55-1.23,17.41-1.08,24.58.19,9.28.2,17.76-.04,27.2-.36,14.12-.38,28.33-.7,42.34-.19,8.71-2.85,17.77-1.1,26.26,0,.21,0,.42,0,.63,1.52-.34,1.21,4.29-.23,4.26-1.99-.05-2.97-8.92-2.7-12.18.66-3.24.67-5.87.03-7.89-.95-1.68-.67-6.11.36-7.58.31-5.08.42-10.17.34-15.29l.75-1.14c-.46-1.7-.75-4.29,0-5.69-.28-2.44-.55-4.92-.51-7.42.3-16.97.73-34.21,1.6-50.71-.91-2.66-.88-5.16-.36-8.07l-.84-.08c-.98-1.44-2.02-2.67-3.14-3.69-1.54,3.73-3.48.65-4.37-1.74l-.4,6.3c.83,4.3.48,7.61-1.05,9.93.58,2.22.24,3.97-.29,6.08,1.33,2.9,1.8,12.75-1.21,10.15l.09,1.67c.88-.49,1.54-.15,1.76,1.54.23.76-.27,16.53-.63,17.12-2.03,3.28-3-3.4-2.3-6.39-.99-4.9-1.47-10.11-1.46-15.63-1.24-2.79-.83-5.93,1.24-9.43-1.57.7-2.21.21-1.91-1.47.05-.8-.08-1.77,0-2.53-.46-1.64-.56-3.66-.3-6.06-1.96.65-2.34-1.22-1.12-5.62-.94-3.17-1.03-6.42-.86-9.98.52-6.59.64-13.05.02-19.57-.38-3.6.22-5.41,1.81-5.42-.69-4.54-1.01-9.09-.96-13.67-2.49-.35-1.44-10.35-.61-12.81,2.12-1.93,1.84-7.4.56-10.3,0-1.18-.09-2.7,0-3.79-.6-1.51-.35-3.58.74-6.19-1.04-6.88.88-6.12,3.25-2.52.54.26.91-5.16-.97-2.73-.68-1.13-1.35-2.35-2.03-3.66-2.23,4.24-4.83,2.94-3.53-3.23.27-1.73.72-3.21.73-5.06,2.18-3.78,1.19-11.09,1.89-15.99.2-1.42,1.14-2.48,1.02-4.23,2.8,3.33.83,7.3,1.09,12.01h1.09c-.44-2.75,1.48-9.36,1.07-11.62-.2-1.09-1.25-.82-1.6-1.66-.18-.43-.99-4.59-.86-4.96.14-.4,1.19-.05,1.05-2.27-.13-2.06-1.78-1.87-1.48-7.64.24-4.65.91-2.83,1.73-4.24.1-.18,1.22-4.32,1.19-4.56-.18-1.47-1.41-.38-1.91-.46-.28-.05-.51-.48-.63-.5Z"/>
        <g>
          <path class="w" d="M314.48,275.68c0,.63,0,1.26,0,1.9-.41.88-1.46,1.04-1.81,1.59-.55.86-.16,3.52-1.82,4.1.08-3.33-.97-5.6-.97-5.99,0-.33.5-1.09.58-1.95.09-.96.68-6.86-.34-5.66-.71.84-.77,3.34-.73,4.75-.9.54-1.11-1.77-1.1-2.85.03-2.8.85-2.33,1.29-4.07.6-2.38,1.22-8.13,1.26-10.78,3.28-1.75,2.09,5.91,1.54,9.33.49,1.87.75,3.53.65,5.58,1.49-.34,1.47,1.94,1.44,4.05Z"/>
          <path class="bb" d="M299.24,127.15c2.6,1.95,1.09-1.75,1.62-3.77s3.32-3.47,3.65-4.43c.53-1.56-.47-5.15,1.26-5.07-.48,4.03,1.3,4.18,1.78,7.35.85,5.59,0,10.98.01,16.37.01,3.27.72,8.06.67,11.36-.04,2.94-1,6.57-1.03,8.87s1.12,4.22-.46,5.48c-.34.27-.51.84-.8-.1-1.2-3.82,1.85-14.16.55-16.45-.71-1.25-.98,2.38-1.44,2.85-.42.42-.98.3-1.46.31.71,2.56,1.96,2.76,1.45,6.31-1.38.57-.26-2.47-1.08-3.52-.75-.96-1.88,2.92-1.46-4.07,3.14.91.92-2.97.73-4.77-.27-2.62,1.09-6.77-1.46-6.6-.5,2.03.12,3.85,0,5.98-.23,4.29-1.11,7.98-.75,12.7.13,1.68.94,2.84.75,4.71l1.27-1.25c.84.02.49,5.61.54,6.94-1.21.69-.84-2.67-1.11-3.15-.07-.13-2,0-2.09.09-.23.25-.24,1.82-.8,1.81v-17.38c0-.35.53-1.04.32-2.38-.26-1.67-3.7-7.21.77-6.15.69-2.97-1.1-4.36-1.29-5.62-.29-1.91-.11-3.83-.16-5.76-.33-.12-.31-.33,0-.63Z"/>
          <path class="am" d="M312.67,198.57c-3.07-.72-1.47-2.28-1.49-5.94-.02-2.71-.06-3.9.04-6.7,1.07,0,.95.81,1.1,2.2.32,3.04.56,7.54.35,10.44Z"/>
          <path class="am" d="M311.22,184.03c.08-1.21-.06-2.56,0-3.79.19-.39,2.26,2.68,2.18-.64.05.29,1.52,1.5.19,3.81-.76,1.32-1.53-.21-2.36.61Z"/>
          <path class="am" d="M299.24,127.78c-1.24,3.5-1.22-.55-1.11-2.88.07-1.42-.05-2.95,1.11-2.81.02,1.68-.02,3.37,0,5.05,0,.21,0,.42,0,.63Z"/>
          <path class="w" d="M310.85,253.56c0-.25-.36-1.21-.37-2.18-.02-1.51.63-3.34.38-5-.1-.63-.62-.15-.74-.73-.26-1.22,1.23-.81.73-2.84.05.43.32.84.39,2.15.12,2.38.16,6.38-.39,8.6Z"/>
          <path class="bb" d="M308.67,111.35l.36,6.01-.72.31c.22-1.55-1.3-6.61.36-6.32Z"/>
        </g>
      </g>
      <g>
        <path class="x" d="M296.34,720.63c.32,1.16.63,2.39.67,3.69.33,11.3.37,22.81-.92,33.64.62-.38,1.07-.51,1.69-.06l.71-7.48.75-.72.51-.06c.94,6.01,1.37,7.44,1.3,4.28l.73-1.69.84.08c1.33,6.3,1.06,13.22.47,19.76-.25,3.69.06,6.89,1.15,10.08-.35,5.83-.77,11.64-1.27,17.43-.59.84-1.25.91-1.66-.21l-.25,5.88c-.35,2.38-1.43,1.63-2.28.33.48,3.82-.07,6.79-.88,10.26l.72,2.71.63-9.27c1.87-3.04,1.98,1.1,1.83,3.93.92-.53,1.58-.56,2,1.02l.44,12.68c.48-3.03,1.36-4.71,2.64-5.06-1.33-7.09-1.36-13.85-.08-20.27-.81-6.95,2.71-7.14,2.37-.08.4.13.84-.28,1.32-1.23.1-.26.2-.5.34-.65,1.22-1.41,1.83,11.43-1.07,8.71.02,4.35-.35,8.62-1.1,12.8l.24,1.8c.44-1.71,1.13-2.47,1.59-.53.28.06.71.21.73.55.09,1.63.1,12.64-.24,13.26-.12.21-.29.32-.48.41,1.03,2.35-.87,2.3-1.8,1.07l-.6,1.18c1.43,1.62,1.65,4.44.64,8.49.95,3.06.83,5.6-.38,7.6.82,26.07.95,52.13.16,78.67-.41,4.46.21,7.59,1.86,9.39-.17,1.63-.29,3.26-.35,4.89,1.1,5.14,3.76,17.7-.62,19.07-.17,4.33-.22,8.91,2.16,11.45,1.7,4.09,1.18,17.4-2.87,11.62-.27,2.94-.84,4.13-1.71,3.58.21,4.62-.24,18.85-3.45,11.59-1.6-2.59-1.7-4.62-1.82-8.45l-.1-11.35c-1.18.22-1.97-.81-2.37-3.11.96,2.28.94,8.9.73,12.06l-.73.9c2.24-.36.3,12.24-1.09,7.9-.01-1.16.17-2.83-.18-3.79-.44,2.93-1.61,2.88-2.34,4.14-.53.92-1.21,3.33-1.85,3.77-.39.27-1.73-.15-1.83-.72-.28-1.62.36-3.7.35-5.05-.18-15.2-.5-30.83-.34-46.1.02-1.71.46-3.31.42-5.04-.05-1.89-.78-3.06-.77-3.78,0-.93.77-1.66.7-2.44-.06-.59-.83-1.18-.99-2.1-.22-1.25-.11-3.8-.07-5.25,0-.08.35-.72.38-1.53.14-4.22-1.13-9.12,2.14-8.63-.11-2.48.63-4.13.77-6.56.89-15.48.42-41.56,0-57.58-.15-5.83-1.04-12.47-1.1-18.3-.02-2.42.68-5.24.35-8.2-.22-2.02-1.62-2.51-1.81-4.47-.21-2.22.6-3.4.6-4.39,0-4.93-.99-12.16-.96-17.7,0-.81.32-3.57.54-4.14.36-.94,1.14.3,1.27.03.93-1.99-1.54-1.79-1.46-3.47l1.9-23.27c2.01-1.8,2.08-5.56.82-8.65-.76-1.86-1.48-.37-1.62-.64-.16-.33.32-3.31.55-3.83.34-.78,2.1.97,1.63-3.12l-2.17,1.26c.11-2.95-.18-6.2.03-9.11.41-5.72,1.87-7.84,1.44-15.26-.18-3.07-.96-2.8-1.31-4.66-.81-4.25.68-4.78,1.12-7.6.23-1.44.01-3.56.33-4.5.29-.86,2.06.37,2.37-1.85Z"/>
        <path class="ac" d="M302.14,722.52l.22-4.5c.83-1.4,1.37-.08,1.43,1.59-.53,5.99-.48,11.96.01,17.84.61.14.74.91.4,2.31-.59,1.71-.16,5.62.9,6.29-.03,5.53-.03,11.06,0,16.59,1.68,5.86,1.72,11.1.12,15.73,1.17,2.68,1.48,6.22.94,10.63.66,4.04,1.12,3.21,1.39-2.48.3-3.02,1.39-6.7,2.96-3.45.26.54.45,7.56-.76,7.08-.12,2.38-.41,7.99,0,10.11-.17.95.54,2.37-.55,2.54-2.38.38-1.11-2.78-1.81-5.08-1.05-3.44-.61,3.71-.62,3.98-.17,2.37-1.13,4.16-1.04,7.74s1.07,11.7,1.46,15.19c.18,1.63.27,4.91-1.07,4.7-.45-.58.49-6.37-.55-6.3-.36.02-1.8,5.79-1.91,6.77-.42,3.71.4,3.92.62,6.2.08.78.42,5.61.33,5.87-.07.2-.65.31-.83.76-.35.85-.55,2.41-.95,2.83-.44.46-1.18.01-1.48.69-.77,1.73.83,6.06-.51,7.2-.84.71-.52-2.48-.98-3.03-.25-.3-.93-.07-1.35-.46-2.02-1.91-.36-5.21-.76-5.98-2.73-.25-1.6,10.18-3.44,9.47s.39-10.86.38-12.32c-.01-2.26-1.2-7.25-1.24-9.46-.02-1.54.59-3.57.63-5.19.09-3.35-.46-8.07.59-10.94l1.22,7.34c-.39,5.5.29,8.59,1.05,13.34.17,1.08.09,4.64.45,5.22.72,1.14.73-2.46,1.44-1.26.4.67.04,6.33,1.09,6.95l.37-8.84c1.36-.03,1.4,3.32,1.45,5.05,2.3-2.53.45-6.06.32-8.53-.12-2.33.66-5.76.69-8.23.04-3.51-.55-8.12-.37-11.87l-.64-1.08c-.23,2.31.34,6.46-.06,8.46-.17.87-.95.8-1.04,1.46-.19,1.39.48,3.9-.71,4.62-.14-5.66.48-11.08.36-16.75-.02-.76.27-2.35-.36-2.2l-1.1,16.43c-1.2-.89-.55-3.82-.81-5.86-.16-1.27-.89-2.76-.91-4.05-.02-1.35.87-2.93,1.01-4.93.23-3.58-.6-8.46-.37-12.34l-1.81,1.26c-.26-3.73-.13-7.3,0-11.07.04-1.27-.28-1.82.73-1.56-.62,2.45.15,3.48.35,5.4.16,1.5-.52,4.6.74,4.07.25-2.11-.28-4.06-.36-6-.2-4.75.13-9.41.24-14.36.02-.75-.38-1.4.48-1.76,1.3,4.52.31,8.34.35,12.98.02,2.14,0,4.91.05,6.86.08,3.16.54,6.7.4,10.05l1.37,1.71c.01-1.74-.1-7.95.91-8.84.93-.82.06,2.74,1.26,1.89-.58-4.96,1.24-11.54,1.08-16.08-.05-1.45-.82-2.6-1-3.96-.84-6.68.44-10.85.3-16.96-.07-2.82-.32-7.41-1.1-9.77,0-.42,0-.84,0-1.26.17-7.23.3-14.61.36-22.12.03-2.05-.12-4.34,0-6.32Z"/>
        <path class="ac" d="M301.42,785.09c-1.04.3-.6-.38-.77-1.46-.32-2.05-.39-4.01-.31-6.12,2.97-.08.21,4.7,1.09,7.58Z"/>
      </g>
      <g>
        <path class="r" d="M295.98,380.59c.06,0,.27.57.54.54.67-.09,1.3-.74,2-.54.77,3-2.17,6.12-2.12,7.15.04.88.81,2.22.96,3.41.38,3.07.2,7.44.46,10.57.15,1.77,1,3.77,1.05,5.81.06,2.41-1.26,5.54,1.11,5.28l.36-17.06-1.81.63c.1-1.91-.41-4.33.54-5.67l1.27,2.52c.2-2.25.58-4.16.28-6.5-.16-1.31-.97-2.52-.92-3.83.03-.97.54-2.08.62-3.31.06-.96-.42-2.05-.29-2.99.14-1.08,1.22-1.57,1.4-3.31.21-2.01-.4-4.16-.39-6.29.01-4.49,1.02-10.3.8-15.1l2.86-3.55c.09,3.17-2.15,6.53-2.2,9.18-.04,2.02,1.64,6.76,2.96,5.08.63-.8-.16-3.88,1.24-2.9.31.22.16,1.81.7,2.62.44.66,1.05,0,1.3.27.11.11,1.58,4.22,1.81,1.72.09-.97.29-2.6,1.08-1.44.16.24-.78,5.87-.76,7.28.02,2.03.74,2.85.8,4.4.13,3.57-.74,10.02-.78,13.89-.16,14.7-.63,29.19-1.07,43.94-.74,1.62-.42,3.9,0,5.69-.16,5.68.37,11.01-1.09,16.43l-.75-.96c-.97-7.83-1.06-14.8-.42-22.66-1.66.09-2.32-2.35-2-7.31-1.53.43-2.19-1.26-1.98-5.08-.1-.1-1.16-.18-1.2-.1-.47.89-1.46,21.87.69,23.59l.24,2.45c1.17-3.68,2.54-4.79,3.2.18.38,2.87.28,10.43-.7,12.81l.75,1.82c-.68,14.29-.32,15.63,1.06,4.03l.75-1.18c1.95.28.72,3.98.71,5.98-.03,4.62-.12,9.32,1.65,12.98,1.47-.38.55-1.97.54-3.16,2.79-1.12,3.08-.95,3.27,3.79-.09,1.53-.82,2.44-2.19,2.73-.36,2.41-1.27,7.04-2.89,4.22-.06,0-.71-.95-1.09-.63-.41-4.73-1.25-2.27-.73,1.26.65.81-.81,3.59-1.15,4.63-.31.95-.43,2.96-.75,3.44-1.2,1.83-2.75.27-3.01-2.33-.1-1,.54-1.93.53-3.43,0-1.12-.36-4.16-.51-5.48-.08-.68-.02-2.04-.55-1.87.14,2.54-1.75,5.99-.9,8.22.16.43.81.41.91,1.06.55,3.74-.88,2.43-1.06,2.75-.33.59.53,3.1-.76,2.49-.27-1.61.3-4.11.2-5.39-.08-.96-.8-1.91-.94-4.37-.24-4.15.7-5.8.78-8.25.07-1.99-.82-2.93-.81-4.42,0-1.31.64-1.98.67-3.02.08-2.79-.07-10.63-.26-13.43-.11-1.61-.66-4.78-1.82-4.72-.72,4.59.34,9.16,0,13.9-1.75.56.3-5.61-1.45-5.05-.28,2.73-.11,6.61-.38,9.14-.13,1.24-1.02,2.62-1,3.2.02.47.85,1.13,1.01,2.53.24,2.1-.15,5.03,0,7.26-2.23,1.55-2.02-4.82-3.08-4.42-1.21.46-2.13,7.56-1.27,9.47.9.61,1.04-2.07,1.26-1.89.68.53.71,3.43.95,3.71.91,1.11,2.72-1.82,3.22-1.18.17,1.66.66,3.02.74,4.76.2,4.1-.06,10.42-.01,14.83l-.67,3.93c-2.11.86-2.26,1.63-.45,2.3.81,2.94.73,7.51-1.49,7.51l.07,1.26c2.05,1.75,1.73,4.39.36,6.9.97,4.33.61,8.79-1.08,13.37,1.76-.9,2.84-.65,3.25.75-.05,7.74-.37,15.56-.36,23.39-2.28,1.51-1.83-4.5-1.48-7.26-.62-11.27-.79-10.99-.5.84-.11,2.75-.32,7.1-2.26,4.11l-.89-24.03-.67-.2-1.27-5.68c-1.01,1.78-.85,4.6-2.36,5.68v-4.42l.37-7.58c.96.29.98,2.83,1.44,3.49,1.61-.6.26-4.93.37-6.91.18-3.15,1.43-4.56,1.93-6.22,1.28-4.31.25-6.96.23-10.25-.01-2.86.83-8.97.3-11.87-.22-1.21-1.64-3.77-1.9-4.93-.47-2.07.52-9.53.48-12.31-.05-3.12-.81-4.33-.22-8.7.28-2.07.97-1.71,1.17-2.33.93-3.01-.74-4.98-.82-6.75-.05-1.06.61-1.95.65-3.08.04-1.04-.41-2.09-.35-3.11s.72-1.76.76-3.18c.03-1.24-.42-2.37-.41-3.12,0-.41.67-.05.76-1.26.35-4.35-.91-7.6-1.02-10.89-.09-2.86,1.88-9.47.98-13.49-2.63,1.85-.11-3.1,0-4.12.76-7.15.1-17.56.38-24.62.06-1.59.96-2.48,1.08-3.87.12-1.47-.34-2.67-.29-3.75.09-2.36.27-10.55,1.74-10.43Z"/>
        <g>
          <path class="f" d="M308.31,462.13c-.09,1.25.1,2.58-.08,3.96-.06.48-1.08,5.29-1.18,5.53-.39.94-1.1.59-1.64.62-.65-1.11.66-10.09.57-11.72-.07-1.23-.94-2.05-.93-3.13,0-.86.67-1.59.73-2.55.07-1.18.06-8.82-.04-10.04-.05-.66-.22-2.81-.87-2.26l-1.45,3.76c-1.44-.68-.65-2.09-1.07-3.79-.37-1.48-1.1-2.3-1.27-4.12-.23-2.54,0-19.98.74-21.07.18-.26,1.57-.17,1.91.02,1.1.62.37,4.59.59,4.97.13.23,1.69-.23,1.82,0,.15.27.12,6.38.36,7.59l1.81-.63-.68,14.25c.53,3.14.99,7.67,1.04,11.03.04,2.52-.18,5.1-.36,7.58Z"/>
          <path class="f" d="M309.76,432.42c-.06,1.88.05,3.8,0,5.69-1.07-.63-1.19-6.47,0-5.69Z"/>
          <path class="al" d="M298.15,547.45c-1.18-.36-2.31.63-3.44.66-.6.01-.6.12-.56-.98.09-2.82,1.65-5.73,1.83-7.62.22-2.37-.76-4.65-.7-6.32.05-1.33,1-1.77,1.09-3.14.14-2.26-1.17-1.99-1.42-3.23-.31-1.54.09-4.18-.05-5.91l1.09,3.16c1.2-.94.6-3.89.72-5.69l-1.45.63c-.44-6.8.67-3.34,1.76-4.52.22-.23.32-2.84,1.14-3.06.14,12.1.08,23.89,0,36.03Z"/>
          <path class="bd" d="M307.59,489.3c-.12-.14-.66.15-.72,0-.14-.32-.44-9.11.72-6.95l.72,3.15.37-5.69c.49-1.23,1.39,5.13-.37,8.22-.24.42-.48.84-.73,1.26Z"/>
          <path class="al" d="M296.7,419.15c-.16,2.51.49,4.67.34,7.2-.16,2.85-2.19,5.61-.71,6.71-.04-1.38,1.77-7.78,2.74-5.08.42,1.17-.23,13.96-.56,14.56-.51.94-.66-.07-.72-.94-.14-1.84.3-6.05-.17-7.3-.54-1.42-3.12,1.82-3.48-.37-.14-.87-.06-6.84.04-8.11.07-.97.71-1.74.71-2.56,0-1.91-2.44-4.49,1.82-4.11Z"/>
          <path class="z" d="M306.02,407.96c.51,1.31.76,6.72.3,6.77-.55-.31-2.74-1.43-2.92-1.87-.29-.71-.24-3.7-.88-4.82l1.08-17.96c.5-.17.87.22,1.02,1.05.55,3.05-.1,11.31.42,15.08-.05,1.21.82,1.34.98,1.75Z"/>
          <path class="au" d="M307.55,366.13c.49.7.63,10.97-1.2,9.98-.88-.47-1.79-6.89-1.67-8.34.1-1.21,2.27-2.5,2.87-1.64Z"/>
          <path class="f" d="M302.51,455.17c-2.31.2-2.14-3.96-.91-6.3,1.1,1.61.95,4.04.91,6.3Z"/>
        </g>
      </g>
      <path class="x" d="M302.14,722.52l.54-34.14c.4-1.24.83.06.91.95.22,2.38-.09,5.63,0,8.21.39,11.42.8,18.41-.01,29.69-.25,3.52.38,6.96.38,10.45l2.13-2.33c.33-2.94-.38-12.23.22-14.11.33-1.04.64-.33.88.39.64,1.94.2,3.93.58,5.94.87-2.22,2.21-3.93,2.29-6.81.04-1.41-.38-1.9-.48-2.97-.43-4.56-.94-5.46-.97-10.76-.01-2.46-.78-6.11.79-7.9.57,1.74.1,5.06.53,6.38.24.71,1.01-.16,1.29.21,1.18,1.59-.92,16.87-.36,20.3-2.53,3.72-.56,7.78-.47,12.16.17,8.45-.18,17.18-.26,25.77-.02,1.78-.61,6.74-.2,7.87.19.51.83.7,1.08,1.3.19.46.15,1.13.2,1.23.37,3.42.22,6.94.39,10.37.2,3.91,1.97,5.66-1.84,5.43.03-.64.77-10.51-.9-6.31-.9,2.25-.85,9-1.55,11.84-.22.9-.08.97-.81.79-.08-1.27.14-2.76-.01-3.97-.04-.34-.95-1.01-1.07-3.93-.18-4.34,1.34-7.66-1.46-10.11-.19-1.28,1.11-1.39,1.38-2.64,1.41-6.49-1.31-10.54-1.25-17.06.01-1.46.49-2.71.51-3.84.04-2.67-.72-5.44.08-8.37h-1.81c-.14-1.28.65-1.68.74-2.86s-.73-.86-.76-1.27c-.08-1.15.65-2.24.76-3.74.2-2.62-.37-5.05-.4-7.59-.04-3.85.04-7.58.39-11.38l-1.1-1.6c.37,1.61-.31,3.52-.36,4.42Z"/>
      <path class="x" d="M301.78,750.97c.05-6.21-.04-12.44,0-18.65,0-1.07-.23-2.81.37-3.47-.1,6.2.05,12.44,0,18.65,0,1.07.23,2.81-.37,3.47Z"/>
      <path class="ar" d="M311.58,632.78c-1.31,4.51-1.2-3.07-1.09-5.06h1.09c.05,1.67-.06,3.39,0,5.06Z"/>
      <g>
        <path class="bd" d="M314.48,481.72c.14,3.54-.1,7.19,0,10.74,1.82.47-.38-6.78,1.45-6.32v19.28c0,.18-.75.98-.9,1.6-.14.56-1.61,8.1-1.65,8.55-.22,2.27.74,6.65.71,9.35-.03,2.35-.74,5.51-.7,8l-1.45-.31c-.17,1.86.72,4.08.69,5.71-.02,1.06-1.13,3.84-.67,4.7.11.21.98-.16,1.08.02.98,1.76-1.39,1.75-1.48,3.49-.04.73,1.03,3.86,1.18,4.01.54.55,1.61-1.22,2.12-.22l-.73,25.59-2.49-.55c-.33,1.34-.73,4.52-.25,5.66.34.83,1.24.32,1.58.7.67.76.69,8.14-.27,9.05-.21.2-1.81-.81-1.83.62-.02,2.43,2.06,2.06,2.17,2.22.17.25-.7,6.37-.69,7.83.01,3.03.89,6.3,1.06,8.9.2,2.95-.34,5.71-.37,7.92-2.29-2.22-1.21-7.67-2.26-11.57-.33-1.24-2.59-3.94-2.84-4.67-.49-1.43-.24-4.46-.34-4.62-.16-.26-1.22.55-1.85-.41-1.92-2.92-.26-6.39-.67-9.28-.13-.92-1.3-.76-1.47-1.06-.93-1.61,1.39-1.14,1.45-1.25s-.03-2.22.16-3.19c.53-2.68.41-3.01.72-5.06.24-1.65,1.47-2,1.63-2.88.42-2.28-1.01-2.59-1.77-.88-.85-5.84,1.38-4.16,1.64-5,.48-1.58.27-4.95-.73-5.74l-.9,1.26c.33-3.41-.35-7.84-.25-10.98.05-1.72,1.47-11.85,1.89-13.05.16-.46.81-.4.91-1.06.29-1.89-.26-5,.08-7.3.22-1.51,1.46-2.92,1.65-4.08.25-1.58-.07-3.34.09-4.9s.97-2.24,1.09-4.48c.14-2.66-.62-2.01-.72-2.66-.73-4.85-.18-10.09-.39-15-.16-3.67-1.23-7.58-.72-11.7,2.33-.09,1.58-4.23,2.55-5.35.57-.66,1.88-.54,2.53-1.6Z"/>
        <path class="ar" d="M307.59,589.17c-.02,1.36.04,2.75,0,4.11-.02.97.34,2.5-.54,2.2-.87-1.34-1.06-6.39.54-6.31Z"/>
      </g>
      <g>
        <path class="p" d="M311.22,774.35c.65,1.21,1.77,1.96,1.94,2.67.61,2.56.64,10.34-.04,12.96-.5,1.92-2.54,3.8-2.64,5.57-.08,1.47,1.31,5.89,1.46,7.88.16,2.14-.11,4.74,0,6.95.39,7.67.39,15.31-.02,22.92,1.46,2.96.98,7.95-.35,10.9,1.02,5.43.62,14.16-.19,19.83l-.59,1.01c1.53,1.48,1.4,4.71.43,6.97-.22,2.56-.35,5.14.32,7.55-1.23,6.44-1.38,13.19-.46,20.26-.63,2.86-.67,3.75-.4,6.81.57,3.16,2.07,17.26,1,19.09l-.83.32c-.28.34-.57.42-.87.2.05,2.9.29,6.77.87,9.28l.66,1.26c-.35,2.5-.21,5.03.43,7.59-.51,3.71.21,7.21.01,10.44-.16,2.64-.88,5.7-.73,8.81.07,1.48,1.22,4.39,2.17,2.87.54,3.5-1.63-.05-1.81,3.5-.02.43.31,6.25.38,6.91.37,3.44,1.39,4,1.09,9.53-.22,4.04-1.64,4.31-1.83,6.31-.15,1.59.27,2.94.23,4.29-.08,2.71-.47,5.69-.59,8.32-.08,1.72.89,3.63-.54,5.36l-1.45-3.77c-1.25.85-1.4,2.46-1.96,4.13-.12.36-.19,2.19-.76.91-.09-.21.02-3.25,0-4.11-.02-.97.34-2.5-.54-2.2-1.14.69.08,6.2-1.09,5.67-1.81-.82-1-6.33-2.91-6.33-.18,0-2.87,3.11-2.99,3.33-.23.43-.51,4.5-1.18,3.01-.14-.32.01-6.84,0-8.21.2-.02.62.15.7-.03.09-.2.65-4.39.69-4.88.13-1.76-.3-2.49-.3-2.99v-12.96c1.05-.57.68,1.58,1.31,1.87.47.21,1.47-.87,1.59-.6,1.03,6.41-1.29,19.86,3.09,22.74.8.52.46-.93.53-1.59.46-4.44.7-9.13.38-13.57l1.81,1.89c-.79-2.87.41-3.59.65-5.5.39-3.02-.76-5.69,1.35-7.01.98.03,1.1,4.48.84,5.78-.24,1.22-1.68,1.15-1.39,3.25,2.69,3.86,2.49-6.77,2.02-9.2-.3-1.53-1.13-1.77-1.6-2.9-1.68-4-1.08-7.56-1.14-12.23,2.57,1.62,2.69-2.27,2.56-6.02-.14-4.18-1.93-8.77-2.01-12.23-.03-1.37.61-2.91.53-3.52-.14-1.06-1.52.31-1.8-4.47-.57-9.78.41-23.64.36-34.16-.02-4.31.21-10.76.02-14.53-.3-5.81-.38-4.76-.04-10.74s-1.41-21.58-.61-25.08c.24-1.06.93-1.54,1.01-2.71.09-1.47-.67-2.93-.68-4.4-.02-2.59,1.9-6.89-.78-7.6-.17-1.3.91-3.49,1.58-3.39.28.04,1.69,2.04,1.69.24v-14.22c-1.31-.97-.86,4.71-1.81,3.16-.19-.32-.78-3.92-.76-4.73.05-1.79.91-5.19,1.07-7.68s0-4.8.05-7.18c.74-.65,1.06,2.57,1.81,1.26.11-.19.35-4.96.34-5.43-.02-1.33-.68-1.43-.7-1.52-1.46-.51-1.29-8.85,0-10.11.17-.98.72-1.5,1.66-1.55-.58-4.06-.85-8.3-.81-12.72l.6-1.53Z"/>
        <path class="bd" d="M311.94,810.38c.31,6.1,1.32,11.43,1.38,18.01.1,11.97-.81,24.29-1.25,36.12-.07,1.79.42,4.03.25,6.26-.14,1.88-1.1,3.69-1.06,5.69s1.24,2.75,1.41,4.43.32,12.7.24,14.42c-.07,1.51-.91,2.71-.89,3.77.1,7.41.31,13.81.25,21.59-.03,3.35,1.06,3.22,1.14,4.39.59,8.44-.47,12.07-1.48,19.31-2.24-3.03-1.2-5.24-1.09-8.85-.47-.61-.94-8.22-.78-8.57l.78-.91c.06-.76.65-2.11.71-3.57.26-6.26-1.67-13.31-1.84-18.87-.05-1.74.61-2.58.63-3.17.1-2.99-.83-9.31-.6-13.91.15-2.96.95-5.11,1.11-7.54.17-2.58-.46-5.26-.37-6.95.07-1.35,1.11-2.45,1.09-3.84-.03-1.67-1.49-1.48-1.48-3.13,0-1.13.88-1.69,1.04-2.66.37-2.17.61-12.65.42-15.01-.09-1.09-.8-1.86-.73-3.16.07-1.39,1.53-2.87,1.51-6.37-.01-2.76-1.04-2.96-1.13-4.42-.06-1.1.41-3.27.39-5.05-.04-5.01.05-9.54-.04-14.53-.02-1.04-.19-2.85.38-3.49Z"/>
        <path class="x" d="M310.85,926.04c-.19,2.28.09,6.61,0,9.48-1.11,1.25-.58.37-.71-.96-.28-2.76-2.25-14.56.71-8.52Z"/>
        <path class="x" d="M309.76,915.3l.36,6.31c-1.39.05-1.46-3.87-1.13-5.41.19-.9-.11-1.11.77-.9Z"/>
        <path class="x" d="M308.49,931.11v5.03c-.88-1.66-1.24-3.67,0-5.03Z"/>
      </g>
      <g>
        <path class="al" d="M288.36,342.67c1.49-4.76,1.75,1.23,1.7,4.07l.48-.91c.56-3.82,2.25-2.54,2.12,1.42,2.28.39,1.59,7.17-.06,8.53-.16,2.27.11,4.69.81,7.26-.34,4.8.07,9.27,1.23,13.41,1.17-1.63,1.48-.71,1.35,1.6.97.76.98,1.75,0,2.53-.75,4.61-1.31,9.53-.74,14.37l-1.07,3.83v16.21c.24,4.25-.17,7.98-1.24,11.2,1.15,1.41,1.45,3.69.89,6.83-1.08,5.43-1.22,9.45-.04,14.9.18,2.13.28,4.21-.56,5.95.53,2.1.13,3.8-.52,5.59.51,2.28.41,3.9-.29,5.97,1.01,3.02,1.95,6.55-.22,8.75-.59,2.53-.28,5.21.04,7.81-1.04,5.68-1.36,12.73,1.19,17.21.54,4.17.54,8.56,0,13.17,1.04,6.68.05,10.43-2.08,15.74.77,7.14.08,9.7-2.06,7.67.14,2.23-.17,3.59-.93,4.08-.05-14.04-.17-27.74-.36-41.08,0-24.64-.02-49.31,0-73.95l.36-12.64c0-2.1,0-4.22,0-6.32l.36-13.27c0-1.68,0-3.37,0-5.06.23-6.06.44-12.41,0-18.33,0-1.68,0-3.37,0-5.06-.01-5.65-.13-11.13-.36-16.43,0-1.68,0-3.37,0-5.06Z"/>
        <g>
          <path class="l" d="M288.72,387.55c0-6.1,0-12.23,0-18.33.6.66.36,2.4.37,3.47.03,4.78.27,10.3-.37,14.86Z"/>
          <path class="ba" d="M288.72,364.16c-.6-.66-.36-2.4-.37-3.47-.03-4.32,0-8.65,0-12.97.6.66.36,2.4.37,3.47.03,4.32,0,8.65,0,12.97Z"/>
          <path class="aw" d="M288.36,405.88c0-4.26-.31-9.24.36-13.27,0,4.26.31,9.24-.36,13.27Z"/>
          <path class="bc" d="M287.99,424.84c0-4.05-.31-8.83.36-12.64,0,4.05.31,8.83-.36,12.64Z"/>
          <path class="r" d="M291.26,443.8c-.4,3.17.63,8.44.05,11.11-.13.61-.25,2-.77.9-.2-.43-.09-9.93,0-11.07.06-.87.27-1.98.72-.93Z"/>
          <rect class="r" x="287.28" y="405.51" width="5.06" height=".73" transform="translate(-116.32 695.33) rotate(-89.95)"/>
        </g>
      </g>
      <g>
        <path class="aj" d="M291.98,272.52c-.29,3.55.23,5.54,2.29,3.65,1-.92.52-3.74,2.63.13.38.7.48,1.84.53,1.9.6.74,1.67-3.42,2.07.48.22,2.08.33,4.02-.85,5.18l-3.04-3.76c-.13,1.6.45,3.11.36,4.69-.1,1.71-1.25,3.51-1.45,6.06-.45-.39-.83-1.66-1.46-.99-.71.76-.34,3.23-1.07,3.51-.84-2.86.01-7.03-.36-9.66-.11-.77-1.24-.85-1.33-2-.07-.86,1.42-7.45,1.69-9.19Z"/>
        <path class="au" d="M294.16,281.37c-.2,3.33.49,5.73-2.18,5.06-.31-2.96.3-5.51,2.18-5.06Z"/>
      </g>
      <g>
        <path class="af" d="M288.36,174.55l.91.64c-.14-2.13.79-4.46.9-6.07.18-2.63-1.32-5.87,1.45-5.95,1.1,3.1-.47,6.65-.37,8.49.07,1.37,1.28,3.03,1.39,4.6.21,3.08-.35,8.12-.32,11.24.02,2.3,1.03,6.31.04,8.23-.37.72-1.65.91-2,2.2-1.56,5.73,2.02,3.2,2.36,3.79.2.35.38,8.56.38,9.83-.03,6.66-.61,7.73.35,14.82,1.1.35,1.08,2.12,0,2.53-.11,1.2-.45,2.35-1.26,1.92-.16-.08-2.03-5.82-2.37-2.85-.17,1.51.77,2.37.94,3.44.4,2.56.04,7.09.23,9.66.17,2.29,1.25,5.22,1.74,7.43.87.82.86,1.65,0,2.53-.08,5.29.03,10.95,0,16.43,1.23.53.42,5.3-.73,5.06,0,3.06-.31,6.02-.95,8.91,1.35,1.4,1.79,3.94,1.3,7.62,1.19-1.05,2.37-.79,2.18,1.8,1.01.55.97,3.1,0,3.79,2.06,3.86.21,8.11-1.67,2.93-.08,2.28-.43,3.75-1.93,2.7.22,2.37-.04,3.86-.76,4.48-.13,3.79.44,7.43,1.71,10.91l-.26.47c.31.15.3.36,0,.63-.11,1.08-.21,1.36-.79,1.33.61,7.35.51,14.7-.3,22.06,1.14.71.92,4.58,0,5.69.19,2.78,1.74,4.48,1.09,8.22-2.29.64-1.17-1.27-1.47-4.08-.12-1.16-.55-2.06-.69-3.23-.2-1.77.65-6.3-1.11-4.07,0-.42,0-.84,0-1.26-.31-14.49-.57-29.57.04-43.81l-.4-2.33v-15.8c-.08-20.47-.2-40.49-.36-60.04v-20.23c-.27-3.15-.28-6.33,0-9.48.44-1.51.56-3.31.35-5.41l.37-.28.82-.09c1.33,3.68,2.45-2.22-.25-.67l-.57-1.14c-.6-2.08-.56-5.47,0-7.58Z"/>
        <g>
          <path class="ad" d="M287.99,279.47c-.6-.66-.36-2.4-.37-3.47-.13-18.84,0-37.74,0-56.58.6.66.36,2.4.37,3.47.11,18.85,0,37.73,0,56.58Z"/>
          <path class="av" d="M288.36,341.41c-.6-.66-.36-2.4-.37-3.47-.1-14.21,0-28.46,0-42.67,1.58,2.69.39,3.27.34,5.34-.32,13.29.02,27.42.02,40.8Z"/>
          <path class="al" d="M291.62,316.76c-.49,5.56-.12,9.09.34,14.25.37,4.11-.42,5.73-1.43,9.13-.04-5.26.06-10.29-.02-15.45-.02-1.18.48-2.4.38-3.77-.11-1.55-1.19-2.45-1.09-4.16h1.81Z"/>
          <path class="am" d="M288.36,182.14l2.53-.64c.28,1.45.83,5.57-.18,6.32-.28.21-.36-2.81-1.09-1.27-.62,1.38.58,5.54-.9,5.06-.09-1.98.12-4.09.01-6.05-.04-.81-.37-1.44-.38-1.53-.02-.63.02-1.27,0-1.9Z"/>
          <path class="al" d="M291.62,316.13c-.54-4.61-2.86-5.26-2.1-10.33.11-.73.64-.97.65-1.05,2.07,1.37.62,5.4.81,7.2.11,1.02,1.26,1.9,1.35,2.66.14,1.12-.68,1.39-.71,1.53Z"/>
          <rect class="am" x="287.99" y="199.2" width="1.1" height="5.06"/>
        </g>
      </g>
    </g>
  </g>
  <g>
    <path class="e" d="M305.02,35.65c-.34.21-1.15.21-1.51,0,.5,0,1.01.02,1.51,0Z"/>
    <g>
      <path class="y" d="M361.67,36.62c-2.89,0-5.76.52-8.55,1.24-5.09,1.33-8.98,3.05-14.5,3.12-9.84.12-18.3-5.71-28.09-4.53-3.8.46-7.08,1.82-10.61,3.14,2.91-7.33,4.07-15.76,2.48-23.56-.79-3.87-2.66-7.78-5.84-10.19,0-.31,4.87-1.17,5.47-1.25,5.07-.73,9.45-.92,14.56.42,3.44.9,6.71,2.71,10.2,3.26,9.55,1.5,20.06-4.34,28.44-8.26.15.03,1.13,1.97,1.28,2.3,4.09,9.08,1.5,19.37,3.68,28.98.41,1.82,1.07,3.56,1.49,5.34Z"/>
      <rect class="i" x="297.37" y="4.96" width="2.36" height="86.09" transform="translate(-3.14 27.54) rotate(-5.25)"/>
    </g>
  </g>
</svg>