<?xml version="1.0" encoding="UTF-8"?>
<svg id="a" data-name="Layer 2" xmlns="http://www.w3.org/2000/svg" xmlns:xlink="http://www.w3.org/1999/xlink" viewBox="0 0 1931.92 1100.15">
  <defs>
    <style>
      .c {
        fill: #d27d26;
      }

      .d {
        fill: #774013;
      }

      .e {
        fill: #793c10;
      }

      .f {
        fill: #cb7f30;
      }

      .g {
        fill: #d78d42;
      }

      .h {
        fill: #c57727;
      }

      .i {
        fill: #c37425;
      }

      .j {
        fill: #d68e3f;
      }

      .k {
        fill: #c47628;
      }

      .l {
        fill: #cc7f2e;
      }

      .m {
        fill: #7a4111;
      }

      .n {
        fill: #784214;
      }

      .o {
        fill: url(#b);
      }

      .p {
        fill: #bc6d20;
      }

      .q {
        fill: #753e11;
      }

      .r {
        fill: #d7842c;
      }

      .s {
        fill: #edcc97;
      }

      .t {
        fill: #773d11;
      }

      .u {
        fill: #ae5212;
      }
    </style>
    <linearGradient id="b" x1="560.27" y1="734.07" x2="1624.45" y2="734.07" gradientTransform="translate(-179.06 415.96) rotate(-13.82)" gradientUnits="userSpaceOnUse">
      <stop offset="0" stop-color="#a67c52"/>
      <stop offset=".02" stop-color="#9b7148"/>
      <stop offset=".07" stop-color="#855c34"/>
      <stop offset=".14" stop-color="#744b25"/>
      <stop offset=".22" stop-color="#68401a"/>
      <stop offset=".32" stop-color="#613914"/>
      <stop offset=".63" stop-color="#603813"/>
    </linearGradient>
  </defs>
  <path class="e" d="M943.31,40.3c30.39-4.94,61.47-6.79,92.37-6.6,61.73-1.2,121.41,4.78,180.04,22.87,51.25,15.81,153.3,45.37,224.78,137.25,34.02,43.73,52.29,90.04,60.68,111.72,7.91,20.44,19.65,54.84,29.24,114.38,16.9,104.92,33.24,186.88-2.8,278.32-18.82,47.75-46.4,91.49-77.98,132.05-39.76,46.98-87.23,87.71-137.6,122.69-37.37,24.1-76.69,46.28-117.62,63.79-76.09,29.39-157.62,47.36-239.3,49.16-47.53,1.73-94.92-4.47-141.77-11.72-176.75-26.03-320.29-132.96-374.69-306.27-9.97-31.76-20.72-68.3-20.72-68.3-6.97-26.92-11.06-48.06-15.1-69.16-7.44-38.83-11.15-58.25-12.34-74.25-3.48-47.05,7.87-83.53,14.7-107.75,31.4-111.39,113.09-204.47,207.53-268.6,92.03-62.5,179.64-87.82,227.98-100.32,41.34-10.7,76.86-16.21,102.61-19.25Z"/>
  <path class="o" d="M1520.8,599.39c-39.58,105.93-122.16,190.99-214.4,254.64-12.15,8.38-41.49,23.32-71.85,38.62-50.14,25.27-90.35,45.3-144.32,60.94-37.83,10.96-67.35,15.39-84.92,17.96-145.13,21.22-273.79-6.8-349.35-36.68-31.24-12.36-47.69-18.86-67.91-33.51-17.93-12.99-72.98-57.13-77.95-61.44,0,0-.57-.44-1.47-1.1-3.29-2.42-5.88-3.19-6.42-1.55-.4,1.73.38,4.28,1.23,6.07,7.55,15.07,19.32,27.93,30.1,40.74,144.88,168.03,405.28,204.56,607.16,133.11,11.57-3.51,25.66-8.1,41.55-13.97,0,0,17.92-6.62,34.27-13.62,131.82-56.5,223.17-176.34,223.17-176.34,45.76-54.82,78.39-121.38,90.49-192.32,1.69-9.91,6.88-42.05,2.83-43.13-2.54-.67-7.91,11.09-12.2,21.59Z"/>
  <path class="m" d="M461.42,701.01c-2.66-19.91,17.52,2.84,22.57,7.04,35,37.16,76.52,68.96,124.95,85.87,106.13,48.73,222.32,64.89,337.29,51.49,190.02-8.96,407.85-124.48,500.73-296.48,4.39-7.08,26.54-64.51,31.02-46.6,1.69,9.46,2.75,18.58.26,29.25-4.74,19.83-18.57,35.48-29.05,52.05-3.14,5.1-6.24,10.46-9.8,15.26-7.84,10.21-14.52,19.46-20.52,30.44-12.84,19.37-37.72,45.28-61.6,67.92-11.46,10.56-22.13,20.29-33.88,27.51-6.35,4.18-12.71,6.69-18.27,11.37-57.82,51.5-132.85,82.05-205.65,105.82-16.63,5.66-34.14,5.87-51.4,10.39-102.94,27.48-219.62,29.09-323.84,5.33-16.21-4.04-32.45-3.44-49.01-8.39-36.46-12.26-73.48-26.33-106.11-47.11-11.61-7.16-20.45-9.54-30.72-17.82-19.34-14.63-49.15-41.69-64.73-59.33-6.81-7.49-11.06-14.93-12.19-23.71l-.04-.31Z"/>
  <path class="p" d="M1113.72,864.26c4.75,5.44,3.22,8.08-3.75,6.21-1.16,2.83-2.2,2.2-3.1-1.88-9.65-1.15.1-12.08,6.86-4.33Z"/>
  <path class="l" d="M505.56,807.84c2.19-5.45,4.55-.1,4.27-.28-7.85-4.97,3.6-19.16,8.18-19.64,6.29-.66,12.32,12.32,9.42,17.78,15.27-3.68,16.05,1.21,2.35,14.68l-2.57,3.03c-5.02-3.68-10.79-6.58-17.32-8.7-2.03-2.31-2.91-5.13-4.33-6.86Z"/>
  <path class="h" d="M1106.86,868.59c-2.43.23-4.98,1.5-7.46,1.81-2.08-4.2,3.22-2.46,4.36-3.71,1.11-1.21-8.43-4.41-7.42-8.71l6.21,3.74c4.87-.06-.37-5.17,2.51-5.91,7.46-1.92,1.15,3.93,2.42,4.69,1.6.94,6.68-3.6,8.86-4.04,2.15-.43,3.44,1.02,3.62.99,3.19,5.98.06,8.53-6.25,6.82-1.93.97-7.68-1.36-8.06-.65-.33.62,1.16,3.4,1.2,4.98Z"/>
  <path class="k" d="M509.89,814.7c13.53-9.06,14.54,6.77,19.89,5.67-.82,4.42-1.53,9.18-1.92,13.68-6.48-6.34-12.02-12.57-17.97-19.36Z"/>
  <path class="k" d="M715.62,856.55l-3.72,6.17c-.65-2.19-.69-5.01-2.28-6.69-1.24-1.31-11.17-1.01-5.79-4.53-43.74-11.61-99-32.86-137.89-55.9-30-17.76-82.59-59.09-98.58-89.35-16.29-30.83-29.36-50.13-33.32-48.49-4.07,1.69,3.17,25.67,12.24,55.75,5.99,19.84,8.94,25.86,15.25,29.91,11.88,7.63,23.31.83,29.9,8.94,5,6.15,3.35,17.95-1.86,23.61-2.15,2.33-7.05,2.26-6.64,4.43,1.19,6.36,18.06,21.84,22.64,27.42,14.58,5.43,2.94-5.25,3.77-6.2,1.23-1.4,7.79,1.7,8.06.67.15-.58-3.9-14.25,3.17-8.71.65.51-1.71,4.81-1.04,5.26,1,.69,3.72-1.14,4.73-.88,3.09.78-8.55,9.04-7.49,12.36,7.96-.78,13.19,2.85,20.52-2.36,1.47,4.56-6.88,4.88-8.26,7.78-.78,1.64.93,3.71.76,4.61-6.72,1.46-7.36,6.02-1.92,13.68,5.59,4.8,12.23,10.31,19.85,16.25,3.34,2.6,9.78,7.56,18.17,13.56,6.52,4.66,14.36,10.05,23.4,15.84,30.95,19.27,56.75,31.02,92.53,43.28l10.23-1.16c-6.25-5.16-1.76-14.23-5.19-21.21l-3.71,6.17c-9.23-12.76,1.3-9.32,3.44-18.04,1.69-6.89-4.71-.19-4.98-.34-.8-.43-8.99-9.59-8.31-10.89.31-.58,8.72,2.83,12.66,3.36,4.3.58,3.73-6.04,5.32,5.42,6.53,3.31,10.11-.62,6.25-6.82-10.69-4.69,1.76-12.82,6.23-6.84l-6.84,4.32c6.24-6.81,12.48-13.61,18.71-20.42Z"/>
  <path class="g" d="M1507.89,577.03c-5.28-.98,1.17-7.34-.16-11.82-.41-1.38-8.95.17-5.99-2.5,1.29-1.16,5.66.18,7.34-3.46.9-1.95,6.77-23.53,6.72-25.15-.11-3.24-8.08,3.44-8.34-1.86,1.53-.66,3.68-.55,4.96-1.24,2.7-1.45,7.65-7.09,7.73-.63-4.98,15.34-7.76,31.21-12.25,46.66Z"/>
  <path class="n" d="M982.87,929.9c-4.91-3.07-8.53-8.21-9.91-13.83-6.36-25.92,31.55-35.75,39.53-9.32,4.95,16.39-15.91,31.71-29.62,23.15Z"/>
  <path class="d" d="M867.49,929.39c-11.9,23.4-48.22-.47-33.44-21.32,15.38-21.7,43.13,2.25,33.44,21.32Z"/>
  <path class="h" d="M1040.18,908.8c.68.32,3.87-3.9,4.33-3.75.37.12,2.04,7.15,1.85,7.49-.69,1.21-10.3-.86-13.04.55-2.19-4.08,4.78-2.29,4.16-5.01-.86-3.8-8.41-9-7.84-9.89,1.39-2.16,8.4.72,9.88,2.73,1.59,2.18-.37,7.38.67,7.88Z"/>
  <path class="p" d="M1024.8,857.08c-3.6.79-7.05,2.32-10.84,2.17l-2.22-1.6c3.59-.81,7.05-2.31,10.84-2.17l2.22,1.6Z"/>
  <path class="r" d="M988.24,815.9c2.27.42-7.52,10.29-8.1,9.89"/>
  <path class="f" d="M1496.75,460.2c-2.27,9.06-5.4,20.45-9.64,33.45-1.47,4.5-4.14,12.5-7.61,21.67-5.26,13.92-13.5,36.29-27.59,59.63-7.99,13.24-18.19,26.11-27.51,38.47-14.21,18.86-29.29,36.54-45.35,53.19-20.44,21.19-39.92,41.83-71.4,62.73-1.97,1.31-4.02,2.62-8.03,5.17-21.01,13.4-64.14,40.89-94.47,57.52-40.44,22.18-81.82,34.46-164.83,58.54-49.87,14.47-67.55,17.12-78.94,18.48-25.73,3.06-24.47.08-103.85-2.07-60.49-1.63-93.48-.15-142.58-12.64-3.71-.94-7.41-1.89-11.12-2.83-5.66-.09-6.65,3-2.66,6.96,12.54,5.1,16.19,14.74-.82,7.07-7.92-.13-11.8,5.23-11.73,9.5-8.49-6.16-30.23,2.33-10.92,16.94-6.18,7.14-2.88,15.57,5.54,19.19.39,4.06-.09,8-1.43,11.82,128.12,43.9,264.68,44.71,396.2,10.82,27.44-7.07,58.85-18.39,85.32-28.92,60.51-24.07,115.62-52.65,167.66-91.46,59.71-44.52,111.78-97.2,147.39-163.09,9.43-17.44,15.4-31.66,21.95-50.32,2.88-8.2,5.08-14.51,7.55-22.99,1.38-4.04,5.89-17.43,9.58-30.51,1.05-3.74,2.36-8.59,3.17-15.07.4-3.2.57-5.87.64-7.74-7.84,4.45-17.01,4.56-22.67.04-9.71-7.75-5.83-26.65,3.22-32.16,13.26-8.07,13.77,6.67,21.86,10.22l-18.31-95.88c-2.88,18.09-5.75,36.18-8.63,54.27ZM694.41,891.76l-3.14-5.45c1.55-2.9,2.17-4.64,1.76-6.21,1.24.15,2.72,0,4.49-.61l3.97,4.1c52.57,3.09-4.4,61.83-7.08,8.17ZM1152.88,873.12c-1.89,1.57-1.74,2.42.61,2.49-3.93-.14-6.68,2.48-8.25,7.85-15.95,14.24-28.56,2.9-35.28-12.99-.49-1.25-1.83-2-3.1-1.88.64-2.63.5-5.48-.32-6.9,3.96-.18,9.98-1.22,13.42-4.25,3.42,3.75,8.51,4.3,15.28,1.65,5.47,4.18,9.29,4.07,11.46-.31,3.55,2.78,7.55,8.85,6.17,14.33ZM1474.57,628.29c-3.19,7.72-5.44,15.06-6.75,22.01-13.19-5.21-21.69-11.38-16.78-29.18l-2.37-5.74h0s0,0,0,0c4.28,5.53,16.52-.34,19.92-4.9-1.53,4.76.08,5.75,3.1,1.88.26,4.72,1.22,10.03,2.88,15.93Z"/>
  <path class="h" d="M1152.88,873.12c-2.11-4.74-4.27-9.5-6.17-14.33.18-.04.42-2.75,1.82-3.13.73,7.97,12.89,12.15,4.35,17.47Z"/>
  <path class="i" d="M1308.09,784.75c.59.29-.64,11.72-5.64,9.27-.59-.29.64-11.72,5.64-9.27Z"/>
  <path class="t" d="M1389.55,753.45c-5.39,8.62-22.45,6.41-28.43.55-22.89-22.45,12.56-51.12,28.02-31.47,5.62,7.14,4.8,23.91.41,30.92Z"/>
  <path class="j" d="M567.06,832.33c8.89-15.71,11.15-3.64,12.45-3.06l-12.45,3.06Z"/>
  <path class="f" d="M1480.45,594.34c-3.74,6.12-8.67-5.98-7.4-8.74,1.08-2.36,9.39,5.48,7.4,8.74Z"/>
  <ellipse class="c" cx="954.89" cy="441.88" rx="543.14" ry="384.16" transform="translate(-77.93 240.98) rotate(-13.82)"/>
  <ellipse class="s" cx="954.15" cy="441.17" rx="517.79" ry="369.59" transform="translate(-77.78 240.78) rotate(-13.82)"/>
  <circle class="q" cx="1371.05" cy="738.92" r="25.81"/>
  <ellipse class="q" cx="1462.47" cy="631.02" rx="21.44" ry="19.19" transform="translate(38.42 1344.53) rotate(-49.95)"/>
  <ellipse class="q" cx="1508.82" cy="509.26" rx="21.44" ry="18.98" transform="translate(198 1413.49) rotate(-53.25)"/>
  <circle class="q" cx="1130.54" cy="871.17" r="32.08"/>
  <circle class="q" cx="914.54" cy="915.03" r="32.08"/>
  <circle class="q" cx="708.47" cy="895.36" r="25.81"/>
  <ellipse class="q" cx="577.7" cy="848.75" rx="19.19" ry="21.44" transform="translate(-446.75 780.86) rotate(-51.97)"/>
  <ellipse class="q" cx="476.23" cy="762.27" rx="18.98" ry="21.44" transform="translate(-364.33 1080.58) rotate(-78.75)"/>
  <path class="u" d="M1095.59,1010.76l.48,1.95"/>
</svg>