<?xml version="1.0" encoding="UTF-8"?>
<svg id="a" data-name="Layer 1" xmlns="http://www.w3.org/2000/svg" viewBox="0 0 288.15 260">
  <defs>
    <style>
      .b {
        fill: #6ecff5;
      }

      .c {
        fill: #81d4f6;
      }

      .d {
        fill: #02a9e6;
      }

      .e {
        fill: #dcf1fc;
      }

      .f {
        fill: #0a76a8;
      }

      .g {
        fill: #3ac4f2;
      }

      .h {
        fill: #0270a4;
      }

      .i {
        fill: #0472a5;
      }

      .j {
        fill: #3ec5f2;
      }

      .k {
        fill: #11b0eb;
      }

      .l {
        fill: #75d1f5;
      }

      .m {
        fill: #0f89bc;
      }

      .n {
        fill: #019bd4;
      }

      .o {
        fill: #00a5e3;
      }

      .p {
        fill: #019dd8;
      }

      .q {
        fill: #01a9e8;
      }

      .r {
        fill: #077aad;
      }

      .s {
        fill: #01acec;
      }

      .t {
        fill: #80d4f6;
      }

      .u {
        fill: #36beee;
      }

      .v {
        fill: #009ad3;
      }

      .w {
        fill: #0989bc;
      }

      .x {
        fill: #96d9f7;
      }

      .y {
        fill: #00adee;
      }

      .z {
        fill: #0bb0ec;
      }

      .aa {
        fill: #d5eefb;
      }

      .ab {
        fill: #0472a6;
      }

      .ac {
        fill: #0191c6;
      }

      .ad {
        fill: #0573a6;
      }

      .ae {
        fill: #148bbd;
      }

      .af {
        fill: #00a4e1;
      }

      .ag {
        fill: #fbfdfd;
      }

      .ah {
        fill: #f8fbfd;
      }

      .ai {
        fill: #0290c6;
      }

      .aj {
        fill: #01aded;
      }

      .ak {
        fill: #048abf;
      }

      .al {
        fill: #a1ddf8;
      }

      .am {
        fill: #019cd5;
      }

      .an {
        fill: #4cc7f2;
      }

      .ao {
        fill: #02aeed;
      }

      .ap {
        fill: #3ec6f2;
      }

      .aq {
        fill: #078abe;
      }

      .ar {
        fill: #4dc8f2;
      }

      .as {
        fill: #39c2f0;
      }

      .at {
        fill: #3fc6f2;
      }

      .au {
        fill: #a7dff8;
      }

      .av {
        fill: #0baeeb;
      }

      .aw {
        fill: #0880b4;
      }

      .ax {
        fill: #0c79ab;
      }

      .ay {
        fill: #4bc7f2;
      }

      .az {
        fill: #40c7f2;
      }

      .ba {
        fill: #038fc5;
      }

      .bb {
        fill: #3ec2f0;
      }

      .bc {
        fill: #06afed;
      }

      .bd {
        fill: #9bdbf7;
      }

      .be {
        fill: #0572a5;
      }

      .bf {
        fill: #f4fbfd;
      }

      .bg {
        fill: #85d5f6;
      }

      .bh {
        fill: #68cef4;
      }

      .bi {
        fill: #3bc4f2;
      }

      .bj {
        fill: #04abe9;
      }

      .bk {
        fill: #01aceb;
      }

      .bl {
        fill: #0a86ba;
      }

      .bm {
        fill: #02adec;
      }

      .bn {
        fill: #74d1f5;
      }

      .bo {
        fill: #42c6f2;
      }

      .bp {
        fill: #e4f5fc;
      }

      .bq {
        fill: #0875a7;
      }

      .br {
        fill: #077caf;
      }

      .bs {
        fill: #a5def8;
      }

      .bt {
        fill: #a7def8;
      }

      .bu {
        fill: #3fc5f1;
      }

      .bv {
        fill: #0091c7;
      }

      .bw {
        fill: #0192c9;
      }

      .bx {
        fill: #92d9f7;
      }

      .by {
        fill: #1b7fad;
      }

      .bz {
        fill: #026fa3;
      }

      .ca {
        fill: #40c6f2;
      }

      .cb {
        fill: #0673a5;
      }

      .cc {
        fill: #43c6f2;
      }

      .cd {
        fill: #048cc1;
      }

      .ce {
        fill: #04a9e7;
      }
    </style>
  </defs>
  <path class="bz" d="M4,125c-1.29,14.07,11.09,26.6,25.22,25.69l.78,1.31c-16.21,9.99-24.32,3.78-30-13v-11c2.13-3.93,2.37-5.89,6-9,1.37,1.21-.56,5.16-2,6Z"/>
  <path class="i" d="M133,256c.62-1.84,2.49-3.08,5.6-3.73,2.33-2.93,4.47-4.02,6.4-3.27-2.53,7.05-5.69,7.92-12,11h-10c-16.36-5.86-20.93-15.02-18-32l2.16,1.46c1.34,14.34,11.15,25.61,25.84,26.54Z"/>
  <path class="bj" d="M54,0c4.51,5.71.97,9.79,4.49,16.01-5.64-2.47-14.52-9.24-8.49-16.01h4Z"/>
  <path class="y" d="M195,123c1.52-6.72,7.54,3.82,5,6,1.91,1.23,1.45,3.23-1.38,5.99,1.48,1.57,1.6,2.91.38,4.01,1.96,14.6,13.61,21.38,25.5,28.24l.5,2.76c-2.8,1-5.8,1.66-9,2l-1.56.31c-3.65-4.84-8.13-7.61-13.44-8.31.74,2.63-.48,3.38-3,3-4.81,13.3,21.71,24.91,12,39-1.84,1.3-3.17,1.63-4,1-5.52,1.14-8.98-3.04-10.93-7.64l-6.2-14.61c-1.18-2.37-2.34-3.45-4.87-3.75.64.92.81,2.09,0,3-2.18,4.22.42,5.36-3,10-2.34,1.89-6.3,1.59-5-2l.4-1.36c8.56-1.15-11.29-16.18-14.4-14.64l-1.72,1.35c-3.22-1.87-7-2.41-10.28-.35-20.52,18.84,1.24,54.59-5,72-4.35,4.44-5.44,6.17-12,7-3.37-.18-11.28-.82-10-5l1.09-1.33c17.49.01,23.37-8.7,14.21-23.96-2.36-4.59-2.46-7.99-.29-10.21-.77-.1-1.85-.28-2-.86-.65-2.59-.68-12.98,2-14.14-1.95,1.12.63-5.89.58-5.56-.3,1.95-1.49,6.75-3.58,6.06l-3.49,5.65c-9.19,7.15-15.36,15.79-18.49,25.94-6.7,3.12-5.15-11.21-4.02-15.59,4.75-7.37,22.71-17.96,25-27,5.4-11.24,2.12-16.97-7.18-23.77l-15.12-8.85.3-1.38c3.9-1.04,10.05.96,14.09,2.58,6.58,2.63,8.44,3.66,10.91,10.42,1.56,1.68,2.63,3.46,3.21,5.36,2.04-2.44,4.1-4.84,6.19-7.2l-7.4-3.16c-3.47-.94-6.28-1.9-9.57-4-5.05-2.14-13.68-5.56-17.43-4l-.81,1.07c-3.95-1.25-8.02-2.27-12.19-2.07-12.23,2.61-8.22,11.5-15,16-1.9.73-5.5,1.59-5-1,2.77-2.43,3.75-5.91,2.96-10.44l1.04-3.56c-1.53-2.09.04-3.29,2.17-4.22l16.19-4.29c-1.69-1.51-2.14-3-1.36-4.48-2.36-2.46-3.36-4.8-3-7l1.23-1.49c4.4.09,8.63-1.82,12.07-4.53,6.72,2.84,9.1,1.55,11.81-4.84,4.03.56,8.06.47,11.37-2.13l2.53-.02c.75,1.68.75,3.88.02,6.6.73,2.12.73,3.59-.02,4.4,5.85,2.93,26.64,8.69,22-4-2.55,1.11-3.07.58-2-2,.77-1.7,11.58-3.28,13.42-2.78,1.42.39,7.02,7.07,6.58,8.78,11.72,3.95,17.62,1.98,19-11Z"/>
  <path class="aj" d="M130,81c-1.47,3.56,5.24.81,5-2,.51-.37,3.33-4.07,4-5,1.48-6.33,3.39-12.47,5.74-18.42l3.26-1.58c.94,0,2.16-.16,3,0-3.38,5.1-4.13,11.04-2.24,17.82-.08,1.87-.77,3.61-1.76,5.18-1.8,5.75-.43,18.5,6.9,17.54,4.11,2.13,8.71,3.12,13.31,3.44-16.3-3.45-25.48-15.11-10.92-29.17,2.29-3.31,3.36-8.95-1-10.57l.72-2.24c19.8,12-19.13,24.25,6.01,36.49,8.94,4.35,17.44,3.82,26.99,2.51.87.28.86.62,0,1-1.3,2.49-.15,3.2,3.45,2.14l1.55,1.86c1.76,1.75,5.22,14.28,1.65,14.56-4.87-4.16-10.1-6.23-16.65-4.56-.53,3.34-1.15,6.78-1.85,10.32l-3.15-.32c-.33.84-.66.84-1,0l-1.36-.51c.39-4.76-.16-9.25-1.64-13.49l-2.46.46c-5.55-5.05-12.2-2.98-17.07,1.91l-2.47-.37c-3.53.84-6.2.5-8-1-.45,2.15-1.12,2.49-2,1l-1.28.31c-1.46-2.46-3.35-4.66-5.72-6.31l-1.65,1.54c-2.36-.92-3.59-.76-5.39.93-2.57-1.78-5.22-2.61-7.97-2.47l-1.62,8.5c-1.87,6.46-3.16,9.58-6.38,1.5-1.19-1.78-2.24-4.15-3.13-7.09-3.26-.98-6.22-1.95-8.87-2.91-.75-2.37-1.09-4.71-1-7-1.87-.79-3.4-2.73-4.61-5.82-9.03-8.79-18.52-17.12-28.45-24.99-1.79-2.03-4.88-6.04-2.94-8.19l2.06-.05c7.98,8.15,17,15.08,27.05,20.8l.9-1.75-7.39-8.35c-1.96-10.5-7-16.37-15.13-17.61l-1.48-2.04c16.88-3.98,16.2,11.1,21.81,20.69,3.09,5.27,14.59,18.54,20.19,10.31,1.57-6.1.47-12.21-3.31-18.31l1.31-1.69c1.05-1.01,2.05-.34,3,2,.5.13.99.2,1.44.09,1.59-.4,3.32-28.88-.44-32.09l-1.48-.21c-1.07-5-4.51-8.8-8.52-11.79-1.55,1.69-5.26,1.19-6-1-2.18,1.33-2.85.23-3-2-1.53,2.27-7.09,4.45-9,2-.56-.96.11-1.96,2-3,17.95-5.91,30.36,12.06,31.87,27.64,1.5,15.48-9.6,39.47,15.13,41.36Z"/>
  <path class="s" d="M72,97c1.33.35,2.67.66,4,1,3.11,3.02,5.86,5.69,10.47,6.73l.53,2.27c-.61,2.58-.86,5.33-.78,8.25l-1.22.75,2.27,3.05c2.68,1.57,3.26,2.89,1.73,3.95,2.13-.04,3.27,6.51,2,8l2.92,2.09c2.88.5,3.9,1.47,3.08,2.91,1.38,1.34,5.74,5.68,3,7-.46,1.08-1.12.74-2-1-.29.86-.62.85-1,0l-2.38.46c-5.18-9.95-15.18-15.28-26.62-13.46-16.26.74-23.47,11.53-35,20-2.86,2.02-8.83,2.4-11,0l1.6-1.86c4.08.25,7.23-1.49,10.39-3.81,1.94-1.42,13.67-11.59,14.64-12.81.52-.66.15-1.12-.63-1.52-7.06-2-14.05-4.44-20.97-7.31-9.2-2.56-18.23-4.27-21.03,7.31,3,.44,2.81,4.42,0,5-2.59-1.05-2.43-6.08-2-9,.46-2.22,1.11-3.95,2-6,12.38-10.58,30.2,2.96,43.52,3.98,6.11.47,22.12-1.04,28.48-1.98,7.22-3.71,2.36-9.06-3.72-11.36l-15.09-5.41-.19-1.23.13-1.37c3.3-1.02,6.59-2,9.88-2.94-1.02-2.08-.03-2.65,2.99-1.69Z"/>
  <path class="ce" d="M246,115c-3.34,2.5-7.11,3.11-11.1,3.6l1.1,1.4c-15.55.52,3.85,10.2-8,21-2.73,1.41-5.66,1.85-8.36.05-4.04-4.32-8.59-6.34-13.64-6.05-.55.12-1.36.72-2,1-1.02,2.1-2.02,2.77-3,2-.79,2.06-1.45,2.39-2,1-.19-1.22-2.72-2.58-2.74-3.49-.03-1.51,3.61-4.71,3.74-6.51.36-1.69,1.36-1.69,3,0,.99-2.61,2.14-2.64,3,0,3.96-3.03,4.42-7.95,1.4-14.76,1.17-3.08,3-1.97,3.6.76l.98.34c.34,4.16,1.23,7.47,4.02,10.66,1.18.96,2.18.96,3,0-.58-2.38.24-2.63,2-1,2.37-7.22.03-16.41-5-22-3.77,2.93-19.23.05-13-6,.22-.66.56-.62,1,0,10.41-1.16,20.63,1.73,30.67,8.65,19.23,6.28,16.44-18.42,2.33-22.65-.87-.28-.86-.62,0-1,16.64,3.43,20.48,21.87,9,33Z"/>
  <path class="v" d="M216,172l2-.79,10.57,12.25c4.61-4.46,8.27-7.73,14.43-3.46,7.04,1.37,18.64,9.44,17.54,17.86,1.73.25,11.21-8.45,7.46-11.86-.87-.19-.84-.53,0-1-.65-2.22-.32-2.89,1-2,3.48,6.84,2.26,8.75-1,15-10.07,11.67-26.5,6.78-35.87-3.12-9.1-11.24-19.31-20.78-30.64-28.63l-.49-2.24c7.14-3.1,10.99,4.09,15,8Z"/>
  <path class="q" d="M188,235c-2.69-.29-2.43-.9,0-2l-1.7-1.54c-.21-1.02.22-9.39.7-10.46-4.77-.29-11.86,12.2-4.22,13.47,2.23-.17,3.63.34,4.22,1.53-2.49,2.37-1.66,1.69-5,2-11.04-.91-16.04-12.51-13-22,.87-1.32,1.83-2.61,2.87-3.88-4.61-8.37-3.57-12.74,3.13-13.12,9.41,2.76,18.42,27.56,13,36Z"/>
  <path class="bi" d="M207,153c17.41,17.84,56.5,19.18,62,30l-1,2-2.17-.1c-6.44-7.4-43.49-17.8-13.38-4.38,8.8,9.27,13.32,11.44,13.54,6.53l2.01-1.06c6.39,5.74-7.62,16.4-10,13.99-.31-.32,1.86-4.11-.56-8.95-2.18-4.35-10.5-8.41-14.45-11.04-.95-.55-1.95-1.06-3.04-1.32-4.9-1.19-12.51-4.22-14.96-8.68-15.4-10.63-22.88-11.41-26-31,.6-.39,1.45-.57,2-1l1.01.9c-1.31,5.46,1.29,10.22,4.99,14.1Z"/>
  <path class="ca" d="M156,56c10.9,11.89-10.14,18.64-6.26,29.73,2.87,8.2,21.63,10.55,28.26,13.26-9.48,2.96-30.19.05-32.77-11.71-1.24-5.65,1.75-8.37,1.78-10.28q1.45.35,0,0c.16-9.08-3.78-17.67,4-23,3.08.59,2.53.5,5,2Z"/>
  <path class="h" d="M268,198c-2.12,4.07-5.05,7.72-9.74,8.76-26.57,5.89-38.17-34.75-60.26-39.76.45-1.25,1.79-2.48,3-3,22.16,10.86,36.12,52.66,67,34Z"/>
  <path class="bk" d="M280,75l-.89,2.1c-3.02-.19-5.39.44-7.11,1.9-6.5,3.32,2.67,11.81,8.38,11.31-3.88,7.43-15.51,1.76-19.59-3.95-11.03-1.45-13.63-4.57-7.79-9.36,7.49-3.81,18.91-4.08,27-2Z"/>
  <path class="ac" d="M83,12c-.58,1.04-1.43,1.96-2,3,1.13,1.45,1.26,3.44.38,5.95,3.02,13.81,11.02,25.4,24.01,34.76l-.39,2.29c2.29,6.35,6.49,13.4,2,20,.5-6.73-.62-9.51-4-15-5.22-7.85-11.85-14.73-19.89-20.64-6.38-5.83-10.68-13.59-8.11-22.36,1.6-3.7,4.05-6.7,8-8Z"/>
  <path class="bm" d="M44,17l1.36-.22c4.7,5.74,11.24,9.81,19.64,12.22,3.47,3.61,9.59,10.3,11,15-2.54-1.19-5.25-2.72-8.13-4.59l-14.58-4.48c-6.87-2.57-13.62-9.12-10.29-16.93.25-.3.72-.86,1-1Z"/>
  <path class="d" d="M247,153c-7.01,2.76-17.02-3.26-17-11,3.53-8.95,26.38,2.1,17,11Z"/>
  <path class="ba" d="M62,49c1.98,1.87,1.7,2.42-1,2,.4,2.38-.27,4.04-2,5,.68,12.57,29.77,21.72,36,39,3.3,3.87-4.75,9.09-6,5,8.46-7.18-7.22-17.63-13-22l-3.78-3.16c-13.46-6.1-18.2-13.71-14.22-22.84,2.06-2.37,1.47-1.66,4-3Z"/>
  <path class="an" d="M288,80c.54,6.51-4.77,13.45-10.8,9.6-2.22-1.42-8.09-8.35-5.2-10.6-.7-1.45-.95-1.75-2-2.99l10-1.01c2.61.67,7.05,2.2,8,5Z"/>
  <path class="ai" d="M60,92l-.37,1.27c-3.8.17-8.76,1.16-5.63,5.73,1.82-1.73,2.07-1.53,2,1,1.54.87,2.54,1.87,3,3,5.7,2.63,28.64,5.95,23.87,16.35-1.1,2.41-3.06,1.38-4.87,1.65,5.28-6.27-2.33-9.42-7-11l-14.69-4.58c-5.96-2.1-10.78-6.08-7.31-12.42,3.41-3.48,7.03-1.81,11-1Z"/>
  <path class="ao" d="M42,96c-5.06.37-19.21-2.38-21.86-6.73-1.51-2.49-1.53-4.96,1.86-4.27,1.98.02,7.06-.15,8.24.2,1.68.5,17.68,8.96,11.76,10.8Z"/>
  <path class="at" d="M89,75l-2.37.26c-6.7-4.99-13.62-9.72-20.77-14.2-4.48-3-6.1-6.35-4.86-10.06.43-.55.61-1.4,1-2,.91-.48,2.3-1.84,3-2,18.24-.06,13.96,17.48,24,28Z"/>
  <path class="bu" d="M237,82v1l-1.84,1.76c-6.42-.65-12.43,1.46-18.02,6.32l-2.14-1.08-.2,2.33c-4.63.61-8.57,2.17-11.8,4.67-.22,2.95-5.04,1.92-7,1-.12,1.88-.79,2.54-2,2l-9.99.99c-.37-2.37,3.36-4.44,4.99-4.99,9.93-2.77,19.6-6.44,29-11,8.55-4.6,8.26-5.21,19-3Z"/>
  <path class="cb" d="M103,63c-8.19-13.29-36.67-23.01-28-43-2.12,21.4,23.18,26.65,28,43Z"/>
  <path class="cd" d="M162,176c3.41-2.47,13.3,11.11,14.4,13.78l-.4,2.22c1.67,1.17,2.48,2.37,5,2-9,12.21-17.08-22.57-31-17,3.51-3.23,7.92-2.86,12-1Z"/>
  <path class="r" d="M76,44c.33,1.11,2.65,3.14-.48,2.99-7.95-11.75-20.01-6.19-28.98-14.02-4.47-3.9-8.5-9.1-3.53-14.97-.02,19.89,22.69,14.27,33,26Z"/>
  <path class="t" d="M65,29c-1.19,2.88-15.41-4.7-17.23-5.98s-2.86-4.14-3.77-6.02c7.99-4.02,16.48,7.29,21,12Z"/>
  <path class="av" d="M159.99,42.01l-1.99,1.48c3.5,6.35,6.29-.85,7.56,4.47,3.27,13.65-34.46-9.19-5.57-5.95Z"/>
  <path class="ay" d="M258,233c-6.83-.49-8.88-3.23-10.17-9.59-.49-2.39-.95-8.46,2.17-8.41,2.79,2.48,15.76,13.96,8,18Z"/>
  <path class="bm" d="M250,215c-.93,7.24-.63,16.02,8,18-.3.15-1.39-.04-2,0-5.81.84-10.94-.96-11.69-7.46-.48-5.71-1.42-11.31-3.31-16.54,3.58,1.03,6.32,3.62,9,6Z"/>
  <path class="ad" d="M206,207c1.09-.28,3.48-2.84,4-1-13.04,18.91-19.14-8.94-21.5-15.99-.87-2.61-4.12-5.1-4.5-6.01-.63-1.51-1.64-1.5,0-3,1.92-.22,3.46.89,4.61,3.31l6.5,15.14c1.87,4.59,5.62,8.57,10.88,7.55Z"/>
  <path class="n" d="M253,77c-6.59,9.84,4.32,5.68,8.77,7.65,2.41,1.06,7.02,14.83,18.23,6.36-8.68,4.6-18.02-15.31-7.99-12.01,5.02,10.43,12.47,16.39,16,1,.22.64.18,6.08,0,7-5.85,10.73-18.63,10.78-27,3l-4.08-2.33c-6.93-.26-9.57-2.82-7.92-7.67,1.76-2.64,1.74-1.85,4-3Z"/>
  <path class="u" d="M95,95c.15.4,4.2,1.06,1,7l.98.91c-3.66.61-6.99,1.97-9.98,4.09-3.34-1.04-12.27-3.89-11-9,5.08,1.31,7.35,2.28,13,2,3.65-.18,3.6,1.41,6-5Z"/>
  <path class="be" d="M76,78c-8.65-6.54-30.33-11.77-18-26-4.3,13.15,12.05,17.48,18,26Z"/>
  <path class="z" d="M219.72,214.26c7.34,8.92-9.8,11.39-10.74,2.17-.71-6.96,8.7-4.65,10.74-2.17Z"/>
  <path class="ad" d="M169,216c3.2,8.29-1.53,17.03,13,22-8.34.77-15.24-6.41-16.05-14.45-.57-5.71,1.55-6.3,2.05-8.55,1.71-.71,2.1-.58,1,1Z"/>
  <path class="as" d="M72,97c-5.02-.31,2.26,2.26,0,2.99-3.16,1.03-9.36,1.66-12.99,3.01-1.41-.65-3.47-.54-3-3l1.93-1.59c10.88-.75-2.15-4.99-3.93.59-5.72-5.1,2.72-5.85,6-7,3.65.74,8.57,4.1,12,5Z"/>
  <path class="ab" d="M261,90c11.29,3.59,15.73,8.03,27-3-2.06,10.46-20.24,15.2-27,3Z"/>
  <path class="f" d="M49,93c-.08,13.53,14.03,11.52,22,17-3.74-1.26-34.33-4.42-22-17Z"/>
  <path class="br" d="M241,209c6.75,7.05.43,24.87,15,24-20.85,3.85-8.73-14.93-16.99-23.52-.31-3.34,1.64-.58,1.99-.48Z"/>
  <path class="aq" d="M148,54c-5.1,6.7-3.84,12.89-9,20,3.69-9.46-4.97-20.06,9-20Z"/>
  <path class="ap" d="M187,221l.05,2.62c-2.65,2.81-7.59,8.93-.52,7.61l1.47,1.78c-.14.58.09,1.37,0,2-.21.33-.68.7-1,1-17.34.66-6.03-11.39-1.99-18.99,1.68-.05,1.55,2.79,1.99,3.99Z"/>
  <path class="bl" d="M228,141c-9.79,8.92-11.99-6.91-22-6,12.14-2.6,10.43,7.03,22,6Z"/>
  <path class="bq" d="M175,199c-13.96,6.05,7.56,12.77-6,17-.14-.37-.71-.7-1-1,.08-.34,2.12-.59,2.09-2.5-.04-2.5-7.31-17.08,4.91-13.5Z"/>
  <path class="k" d="M218,85c-14.78,7.96-14.83,6.16-29,11v-1c10.65-1.46,19.36-5.9,29-10Z"/>
  <path class="m" d="M22,85c-7.18,6.6,18.45,11.48,20,11-5.28,1.37-22.02-2.15-23.8-7.71-2.21-6.9,2.16-3.31,3.8-3.29Z"/>
  <path class="ar" d="M135,79c6.03,3.64-8.65,7.65-11.01,5.99-3.57-2.51,4.9-3.4,6.01-3.99,1.95-1.06,3.9-1.19,5-2Z"/>
  <path class="ae" d="M247,153c-5.94,5.63-19.91-3.62-17-11,1.49,6.89,10.39,11.69,17,11Z"/>
  <path class="ax" d="M246,115c-3.86,3.74-4.17,4.59-10,5-1.98.14-4.02-.09-6-.01,3.17-4.29,11.03-3.26,16-4.99Z"/>
  <path class="by" d="M261,90c-5.5-1.75-17.61-1.6-12-10,.49,10.98,7.07,1.09,12,10Z"/>
  <path class="y" d="M204,136c-2.17,6.29-1.23,11.95,3,17-4.53-4.64-7.83-7.36-6-15,1.38-1.08.88-1.08,3-2Z"/>
  <path class="bw" d="M135,201c2.04,5.95-2.36,15.76-6.66,20.64-7.44,5.82-14.47,12.07-11.34,22.36,1.14,2.62,3.19,4.43,6.15,5.44l-.15,1.56c3.34,2.62,5.49,4.45,10,5-17.44,2.2-26.71-12.65-28-28,.48-2.8,2.46-8.61,4-11l1.99,15.99c.68-11.55,15.23-24.34,24.01-31.99Z"/>
  <path class="aw" d="M112,156c6.5,7.44,38.37,13.35,22,34,5.16-20.38-17.98-32.13-35-35,5.99-1.28,7.49,0,13,1Z"/>
  <path class="bc" d="M71.15,178.15c6.48-4.18,13.86,11.02,7.85,14.37-8.76,4.87-11.63-11.93-7.85-14.37Z"/>
  <path class="bb" d="M98,142c2.38,1.86,3.27,4.03.86,6.22l-18,4.89c-2.44,1.67-4.73,3.29-6.86,4.88-.39,1.64-1.72,2.64-4,3,.69,1.01.69,1.67,0,2-4.18,1.53-4.08-4.31-2-7,5.37-7.35,10.64-8.49,19-10l3.53-1.36c2.52.9,4.68.02,6.47-2.64.17.17.82-.17,1,0Z"/>
  <path class="ak" d="M68,129c15.94-4.61,20.28,4.62,29,13,.14,8.36-8.18,3.67-10,4,14.72-8.36-10.14-17.4-19-17Z"/>
  <path class="w" d="M68,156c-2.62,3.81.62,4.97,2,7,1.48.21,3.35,1.84,2,3,3.4.97,5.74,2.31,7,4,1.66.6,2.81,1.65,5,1-8.92,5.92-23.92-4.17-16-15Z"/>
  <path class="am" d="M6,134l2.24.04c2.99,5.37,7.22,10.77,13.21,12.82l.56,2.14h11c-.77.57-1.27,1.93-3,3-14.93.71-29.2-11.45-26-27-.69,3.81.58,5.83,2,9Z"/>
  <path class="az" d="M123,251c-4.46-3.51-3.65-.89-6-7,5.6,2.32,11.23,2.67,16.89,1.03l1.11.97.18-2.34c8.68-4.57,1.81-16.11-5.26-18.31-3.07,4.04-6.37,6.59-9.92,7.65.95.79-.77,8.4-1.31,9.67l-1.69,1.33c-6.69-17.42,6.68-16.93,12.83-27.67,2.53-4.41,3.08-10.29,5.17-15.33.96-2.33,2.65-4.4,3.02-6.99,2.84.74-.02,5.61-.02,6.49v15c0,13.16,21.18,35.8-15,35.5Z"/>
  <path class="o" d="M225,170c4.48,1.16,13.82,7.22,18,10-6.73-3.72-12.75,5.87-14.52,5.74-1.92-.14-10.28-11.59-12.48-13.74,2.75-4.06,4.46-3.17,9-2Z"/>
  <path class="bh" d="M100,143c12.11,10.6-9.74,4.06-17,13l-.86,3.38c.23,8.05-2.38,11.46-10.14,6.62-.65-.61-1.41-2.12-2-3,.04-.66-.07-1.35,0-2l2.16-.53c4.72,4.41,6.66,1.09,1.84-2.47,2.1-13.06,28.53-4.48,24-16,.08.08,1.11.22,2,1Z"/>
  <path class="bo" d="M176,192c-5.31-3.71-7.66-13.11-14-16-2.74-3.74,2.98-1.55,3.71-1.21,4.18,1.93,24.61,16.59,10.29,17.21Z"/>
  <path class="bv" d="M184,181c7.21-6.59,11.38,28.38,22,26-15.86,4.04-11.71-18.47-22-26Z"/>
  <path class="bs" d="M203.4,202.6c-8.26-4.02,2.1-8.53-1.4-13.59,6.29,1.43,11.02,18.27,1.4,13.59Z"/>
  <path class="j" d="M139,164c4.04.39,11.21.66,14,3.99-9.73-.47-11.47,7.33-13.02,15l-2.98-13.99v-1l2.12-.41c3.03,4.5,3.85.21-.27-1.19l.15-2.4Z"/>
  <path class="g" d="M139,164l-2,4v1c-5.76-8.58-15.35-11.23-25-13-3.57-4.09,13.83,1.11,14.99,1.51,5.9,2.06,7.16,2.24,12.01,6.49Z"/>
  <path class="ap" d="M79,170c-3.23-1.16-4.41-1.56-7-4,11.29,3.37,5.37-3.07,11-10-1.01,5.2,4.66,13.73-4,14Z"/>
  <path class="p" d="M90,13c.72,1.66.81,3.76.28,6.3,2.74,8.05,7.32,15.44,13.71,22.18,2.98,4.81,7,13.8,4.01,18.52-.95-.72-2.09-1.24-3-2-10.1-8.48-31.74-28.74-24-43,3.3-1.23,5.32-2.02,9-2Z"/>
  <path class="ca" d="M90,13c2.37.01,2.49,1.9,3,2,.59,2.42,1.57,4.67,2.93,6.75l-.93,2.25c6.31,4.52,10.95,9.9,13.92,16.15l-1.53-10.4,1.61-1.75c7.06,11.85,1.97,25.35,1.99,37.99-.99-.76-2.64-4.86-2.99-5.99-1.42-4.65-1.27-8.96-3.61-13.89-4.64-9.8-21.2-21.47-14.39-33.11Z"/>
  <path class="af" d="M89,75c.25.34,3.22,4.8,3,4.99-2.47,2.12-30.9-18.8-33-23.99-.2-3.74.34-2.86,2-5,2.66,12.19,20.73,14.37,28,24Z"/>
  <path class="bn" d="M109,28c.71,2.18,2.44,12.65,2.11,14.51-1.4,7.99-4.54-3.79-5.68-5.45-3.43-5.02-7.31-7.73-10.43-13.07l2.52-.59c10.75,7.97,5.57.01.89-5.17l.6-2.24c5.5,3.29,7.95,5.69,10,12Z"/>
  <path class="bp" d="M99,16c9.24,8.99,10.65,19.5-4,8-1.71-2.91-4.56-5.1-2-9,1.55.31,2.04-1.37,6,1Z"/>
  <path class="cc" d="M98,83.01c5.27,4.64,12.19-6.86,13.07-.5s-10.6,4.87-13.07.5Z"/>
  <path class="ca" d="M48,129c2.75-.22,7.85-2.49,9.99-.02-15.23,1.35-20.02,22.1-35.99,20.02-6.41-.84-13.46-9.32-16-15-.14-1.64.2-3.38,0-5,.57-7.86,7.95-7,13.76-5.33l12.47,4.15c5.49-.35,10.75.04,15.77,1.18Z"/>
  <path class="am" d="M48,129c-5.16.41-10.16,1.51-15.41.9-6.84-.8-22.12-10.97-26.59-.9-2.61-21.64,33.8-6.01,42,0Z"/>
  <path class="az" d="M204,97c4-5.75,10.51-3.74,16-2l.84-1.09c22.33,9.99,29.41,8.5,21.23-4.47-3.25-1.76-4.94-3.91-5.07-6.44,13.62,2.17,19.21,28.75.94,25.55-11.96-2.1-15.69-11.2-33.94-11.55Z"/>
  <path class="l" d="M220,95c-5.07.66-12.07-1.81-16,2-.33,0-.67-.01-1,0,.36-3.43,8.35-4.99,12-7,2.68,1.28,4.34,2.94,5,5Z"/>
  <path class="bt" d="M268,185c.07.29,0,.69,0,1,.28,14.79-14.03-2.1-16.67-3.83-2.9-1.9-19.62-9.6-19.34-10.67.49-1.92,33.81,4.88,36.01,13.5Z"/>
  <path class="c" d="M187,221c2.08,5.73,2.43,5.85,1,12-11.34,2.25-7.17-6.88-1-12Z"/>
  <path class="bx" d="M147,77c.07-.38,3.67-2.13,3.95-6.63.24-3.85-2.79-6.74-1.54-10.39,3.41-9.95,3.28-.28,3.59.01.49.45,2.85-1.97,3.83.66,3.17,8.52-9.01,12.68-8.93,21.85.04,4.98,7.04,10.55,6.09,11.5-4.5,4.45-7.66-13.56-6.99-16.99Z"/>
  <path class="al" d="M54,99c-2.62-7.17,9.2-4.63,11-2.98,1.51,1.38-3.63,5.85-9,3.98-.88-.31-1.2-.29-2-1Z"/>
  <path class="au" d="M71,50c-1.12,3.6,3.59,8.11,5,3,1.16,1.58,4.14,9.68,4,10.47-.97,5.67-27.29-16.94-9-13.47Z"/>
  <path class="ah" d="M71,50c2.62.5,3.4.83,5,3,3.95,11.53-13.04-.92-5-3Z"/>
  <path class="bd" d="M237,83c2.98,2.67,8.68,5.43,9.74,9.76,4.64,18.97-18.79,5.59-26.74,2.24-2.57-1.08-5.76-1.38-5-5,8.41-4.63,10.07-8.9,22-7Z"/>
  <path class="bf" d="M74,158c9.59-.36,3.57,12.68-4,3,.3-2.98,1.48-2.91,4-3Z"/>
  <path class="l" d="M120,233c.89-1.51,8.73-9.76,9.65-9.87,4.75-.59,20.3,15.94,5.35,22.87-2.5-.18-2.87-1.21-1-3-1.65-.73-3.19-2.22-4.64-4.46-3.21-1.03-5-2.54-5.36-4.54-1.77,2.31-3.79,2.09-4-1Z"/>
  <path class="bd" d="M124,234l.93,2.15c-4.47,6.75,1.91,7.58,7.3,5.43l1.77,1.42c.03.36,1.42,1.9,1,3-4.4,2.04-16.08,3.49-18-2-1.46-4.15,1.04-7.69,3-11,1.31.4,2.71.56,4,1Z"/>
  <path class="bg" d="M139,164c2,1.75,5.28,2.7,4.58,5.06-1.52,5.14-4.8,1.85-6.58-1.06-4.12-6.74-1.93-4.38,2-4Z"/>
  <path class="b" d="M23,129c19.07,3.96,13.71,19.96-1,17-1.79-.75-2-1.6,0-2,.82-1.43,2.23-2.29,4.23-2.59-2.29-1.22-3.37-2.69-3.23-4.41-2.88-1.18-3.06-7.08,0-8Z"/>
  <path class="x" d="M23,129v8c-1.34,1.21-3.35,1.42-6.03.62,1.99,2.2,3.67,4.33,5.03,6.38v2c-11.56-2.33-22.87-21.96,1-17Z"/>
  <path class="ag" d="M264.99,187.99c-2.98,2.99-8.06-5.65-5.99-7.99,2.22-2.5,7.88,6.08,5.99,7.99Z"/>
  <path class="ag" d="M228.01,87.98c6.59-6.59,20.4,2.52,16.47,10.99-2.66,5.72-8.3-13.01-16.47-10.99Z"/>
  <path class="e" d="M134,243c-8.86,4.09-16.9.21-10-9,5.49,1.85,9.61,3.68,10,9Z"/>
  <path class="aa" d="M23,137c8.22,3.38,5.81,7.49-1,7-6-.43-12.81-12.68,1-7Z"/>
  <path class="aj" d="M100.28,101c-2.15,1.18-3.08-.18-5.9.49-3.84.9-3.9,3.82-9.32,6.09-.83.35-1.21.44-1.62.89-.69.77-1.31,2.41,1.11,9.43.69,1.99.89,2.3,2.23,5.7,2.75,6.98,2.66,7.61,3.9,9.25.44.59,2.6,3.34,6.32,4.83,2.68,1.07,5.15,1.08,10.79.28,11.96-1.71,11.55-3.3,15.7-2.81,4.13.49,3.69,1.97,13.91,5.74,0,0,3.34,1.23,8.94,2.68,1.43.37,1.77.43,2.17.47,4,.37,6.91-2.14,8.85-3.27,3.68-2.15,5.22-.14,15.79-.13,9.4.01,17.26.02,20.43-4.64,1.66-2.44,1.57-5.49,3.63-6,1.59-.39,2.18,1.28,4.8,1.96,3.53.91,4.73-1.55,10.34-1.96,3.23-.24,3.55.53,6.77,0,2.07-.34,4.81-.79,6-2.77.69-1.15.46-2.16,0-5.36-1.19-8.33-.58-8.23-1.53-10.72-.67-1.75-1.68-4.39-4.21-6.64-2.49-2.2-4.12-1.53-9.7-3.52-6.31-2.24-5.7-3.5-9.17-3.99-5.94-.84-11.18,2.32-12.4,3.06-3.92,2.37-3.54,3.86-6.38,4.71-3.22.95-4.64-.69-11.49-2.06-3.67-.73-6.39-.89-10.72-1.13-6.7-.38-6.86.28-11.62,0-6.8-.41-7.36-1.81-18.38-3.7-.84-.14-4.31-.56-11.23-1.4-9.07-1.1-12.58-1.45-14.81.77-1.37,1.36-1.29,2.74-3.16,3.77Z"/>
</svg>