<?xml version="1.0" encoding="UTF-8"?>
<svg id="a" data-name="Layer 4" xmlns="http://www.w3.org/2000/svg" xmlns:xlink="http://www.w3.org/1999/xlink" viewBox="0 0 2005.85 1100.15">
  <defs>
    <style>
      .c {
        fill: #fca901;
      }

      .d {
        fill: #fdb901;
      }

      .e {
        fill: #dd4304;
      }

      .f {
        fill: #fcb100;
      }

      .g {
        fill: #db3c05;
      }

      .h {
        fill: #db4204;
      }

      .i {
        fill: #fdb200;
      }

      .j {
        fill: #fcaa01;
      }

      .k {
        fill: #7b3e07;
      }

      .l {
        fill: #f4e4a2;
      }

      .m {
        fill: #df4a03;
      }

      .n {
        fill: #d93f03;
      }

      .o {
        fill: #fcab01;
      }

      .p {
        fill: #fdaf00;
      }

      .q {
        fill: #dd4502;
      }

      .r {
        fill: #fdc801;
      }

      .s {
        fill: #fdad01;
      }

      .t {
        fill: #fcad01;
      }

      .u {
        fill: #fcaa00;
      }

      .v {
        fill: #603813;
      }

      .w {
        fill: #fdb101;
      }

      .x {
        fill: #fcad00;
      }

      .y {
        fill: #db3e04;
      }

      .z {
        fill: #fcac00;
      }

      .aa {
        fill: #da4104;
      }

      .ab {
        fill: url(#b);
      }

      .ac {
        fill: #fcae00;
      }

      .ad {
        fill: #fdae00;
      }

      .ae {
        fill: #fcae01;
      }

      .af {
        fill: #f5e6a7;
      }

      .ag {
        fill: #fdab01;
      }
    </style>
    <linearGradient id="b" x1="968.65" y1="656.62" x2="968.65" y2="412.44" gradientUnits="userSpaceOnUse">
      <stop offset="0" stop-color="#db3c04"/>
      <stop offset=".11" stop-color="#c03704"/>
      <stop offset=".32" stop-color="#902e06"/>
      <stop offset=".52" stop-color="#6a2707"/>
      <stop offset=".71" stop-color="#502208"/>
      <stop offset=".87" stop-color="#3f2008"/>
      <stop offset="1" stop-color="#3a1f09"/>
    </linearGradient>
  </defs>
  <path class="q" d="M975.66,891.77c-1.6,12.9-13.15,43.82-19.6,55.52-14.55,26.38-41.78,45.92-52.97,74.83-2.22,5.73-12.05,43.3-15.44,43.99-2.8.57-8.76-18.14-9.83-21.54-20.23-64.4,3.69-111.92-1.95-176.32-.32-3.71-1.18-14.18-6.15-14.03-.53.02-2.19,7.84-3.31,10.13-34.89,71.15-91.63,64.17-132.83,112.67-3.3,3.88-17.97,27.49-19.65,27.41-1.27-.06-1.58-2.72-1.74-3.84-9.32-68.62,32.66-94.57,47.49-151.05,4.33-16.49,5.09-34.07,10.84-50.24-17.09,10.76-32.56,24.92-51.6,33.02-40.01,17.04-87.46,11.84-122.88,31.81-2.89,1.63-26.16,19.33-27.26,18.12-1.99-2.18,6.97-26.84,8.77-31.02,18.88-43.85,55.05-61.97,83.71-96.78,2.8-3.4,32.69-41.82,30.81-43.73-1.01-1.02-22.39,8.32-27.08,9.34-20.82,4.5-49.76,4.33-70.68.43-20.06-3.73-41.09-15.63-60.85-17.61-20.47-2.06-41.81,3.74-60.64,11.08-2.29.63-1.67-.96-1.33-2.46,1.78-7.96,22.7-30.7,29.52-36.63,31.5-27.37,71.66-29.06,107.75-46.94l51.93-29.33c-35.27,1.88-68.08-4.17-98.54-21.97-28.57-16.69-49.24-43.13-82.79-51.73-6.82-1.75-19.36-2.11-24.14-3.88-8.17-3.03,11.95-14.64,14.9-16.09,41.7-20.54,94.4-1.1,142.39-11.17,5.38-1.13,43.14-10.2,44.82-11.8,1.97-1.88-.7-1.89-1.57-2.34-7.48-3.85-16.27-5.51-24.54-10.2-47.01-26.64-53.69-59.5-84.82-95.67-15.51-18.02-33.35-26.66-53.83-37.52,26.95-9.79,53.86-7.02,80.64,1.72,18.32,5.98,34.81,16.49,53.63,21.47,25.44,6.74,53.84,8.05,79.79,12.67l-25.22-23.53c-36.14-39.45-32.85-99.55-60.83-142.09-2.19-3.33-19.08-22.74-17.05-24.98.93-1.02,23.8,5.22,26.89,6.17,33.28,10.16,47.83,30.65,72.85,51.58s56.14,28.69,82.95,46.51c-6.21-19.41-11.72-39.53-13.42-60-3.19-38.35,9.91-80.43-1.12-116.6-1.19-3.89-11.02-23.16-10.1-24.08.64-.64,7.23,1.55,8.6,2.03,53.65,18.73,68.33,102.14,108.55,138.08,8.39,7.5,18.7,12.6,26.88,20.23,2.69.38,1.42-.9,1.37-2.5-2.27-79.85,24.84-93.57,52.37-159,7.22-17.15,6.56-30.87,11.2-47.09,2.81-9.83,7.48,3.31,9.76,8.26,23.06,50.11,11.27,88.98,21.44,138.88,4.3,21.08,13.1,40.71,21.53,60.32,4.61-22.45,17.01-42.87,31.91-60.01,30.75-35.37,75.63-50.73,107.66-85.15,11.54-12.4,15.08-24.97,13.48,5.63-2.13,40.66-26.23,68.81-34.72,105.42-6.13,26.39-5.74,54.78-12.4,81.21,19.73-28.24,48.99-49.52,82.06-59.74,34.8-10.75,64.83-8.42,96.96-30.82,7.95-5.54,13.44-13.12,21.59-18.19-2.99,31.42-16.52,56.99-36.41,80.73-12.69,15.15-28.95,27.5-40.71,43.37-4.18,5.63-31.68,56.33-29.35,58.65,1.08,1.07,24.31-8.86,28.66-10,18.56-4.86,42.38-8.58,61.54-7.91,23.21.81,44.59,8.34,68.44,6.75,20.16-1.34,36.52-11.02,53.61-13.68.65-.1,2.9-1.64,2.92.74,0,1.19-10.18,18.3-11.84,20.65-27.16,38.29-71.57,48.52-107.75,72.73-15.43,10.32-33.04,26.64-45.14,40.6,24.03-5.62,55.93-1.98,78.86,6.9,30.56,11.84,68.02,40.81,100.05,44.56,4.98.58,31.52-.9,32.93,1.26,1.77,2.7-21.32,17.21-24.31,18.83-46.02,24.81-91.25,13.85-138.78,28.24-13.62,4.12-26.56,10.59-39.78,15.73-.88,3.68,4.9,1.89,7.9,2.74,74.62,20.89,86.3,85.21,150.16,113.27,4,1.76,15.91,4.39,18.27,6.18,1.06.8,1.18,1.94.75,2.8-1.64,3.26-34.72,9.22-39.81,9.51-45.19,2.54-85.76-23.79-131.14-26.86-11.3-.76-23.33.4-34.74,0-2.35-.08-5.22-2.31-6.16-1.8-1.37.73-2.93,5.78-2.07,7.23.31.52,8.86,3.85,10.97,5.29,58.59,40.04,47.75,105.34,88.68,152.36,1.2,3.26,21.18,18.1,20.13,19.65-3.7,5.46-42.75-5.19-49.56-8.14-33.78-14.62-55.12-43.68-86.43-60.42-5.96-3.19-53.31-24.08-55.67-22.22-1.05.83,13.8,17.97,15.88,21.66,28.45,50.61,10.05,110.33,29.88,161.83,2.21,5.75,15.67,28.43,15.85,30.12.25,2.41-.84,1.81-2.69,1.58-10.5-1.31-30.53-14.72-38.76-21.79-42.77-36.72-58.56-94.65-105.88-132.91-12.82-10.37-1.04,4.39.22,8.75,16.47,56.58-27.2,115.41-25.51,169.04.33,10.59,5.53,24.81,5.68,33.65.15,8.87-6.78,1.79-10.71-1.71-44.1-39.29-36.88-91.51-55.72-140.47-4.06-10.56-17.14-38.66-24.06-46.5-.69-.78.03-2.1-2.58-1.41-.55,6.23.75,13.55,0,19.62Z"/>
  <path class="d" d="M761.14,772.81c-111.26-105.57-123.36-258.43-43.06-387.61,103.95-167.22,355.13-170.94,478.34-22.61,134.01,161.32,67.28,401.29-125.84,476.13-103.24,40.01-230.21,9.27-309.44-65.92Z"/>
  <path class="s" d="M1310.79,214.01c-9.25,18.28-19.66,35.94-33.6,51.03-27.39,29.66-36.61,39.18-56.68,75.61-1.95,3.54-4.4,14.91-9.09,15.61-3.31.49-26.7-22.92-26-28.16,1.58-11.76,29.86-41.05,39.65-49.03,2.62-2.14,13.6-8.29,13.97-9.03.73-1.44-2.97-3.41-5.59-2.88-9.43,1.9-37.87,27.87-44.81,36.01-2.52,2.96-11.87,18.22-12.97,18.46-2.01.45-30.1-22.81-29.18-28.04,2.13-12.15,33.61-34.75,44.75-40.53,28.3-14.67,54.66-14.57,83.43-24.18,12.39-4.13,23.43-11.58,36.11-14.88Z"/>
  <path class="ag" d="M698.81,384.44l-14.19,37.07-68.75-23.05c-.36,2.46,1.24,3.63,2.79,5.03,10.19,9.2,34.97,19.75,48.17,24.7,2.28.86,12.51,2.82,12.93,3.34,1.2,1.46-14.86,29.7-15.14,34.74-1.14,1.67-2.6,1.11-4.19.92-13.86-1.68-43.05-21.94-53.54-31.74-27.53-25.71-39.34-64.31-69.59-87.36l-13.34-8.51c11.42.46,23.4,1.36,34.5,4.16,20.94,5.27,38.61,18.63,59.17,24.9,26.87,8.19,54.27,9.1,81.17,15.81Z"/>
  <path class="u" d="M664.03,654.59c-22.17,6.93-43.61,16.6-66.75,20.13-3.18.49-15.23-1.72-12.78,2.89,1.9,3.57,28.73,1.05,34.04.43,6.82-.8,19.01-2.96,25.59-4.67,4.25-1.11,25.41-10.5,26.61-9.74,1.65,1.05,15.13,34.38,14.72,36.29-1.11,5.24-44.35,10.48-51.11,10.76-47.98,1.95-87.09-25.99-135.03-17.92,11.36-17.18,33.23-25.77,52.06-32.56,33.35-12.02,50.99-19.6,82.77-34.93,3.71-1.79,18.12-8.78,20.96-7.1,4.58,2.7,8.69,30.33,8.93,36.44Z"/>
  <path class="p" d="M1166.2,114.22c-11,38.62-34.45,72.53-40.23,112.79-.95,6.61-3.38,49.91-5.78,51.95-3.79,3.22-32.41-13.77-39.17-13.4l24.19-69.41c-2.6-6.98-4.67-1.77-7.18,1.8-9.94,14.14-18.5,36.38-23.21,53.02-.59,2.08-1.24,10.86-1.66,11.25-1.47,1.35-36.49-11.75-37.57-13.42-2.66-4.09,8.56-26.48,11.22-31.46,23.24-43.47,59.54-59.42,97.34-86.5,2.38-1.7,20.39-18.14,22.05-16.61Z"/>
  <path class="f" d="M1456.5,536.92c2.83,4.55-35.26,13.7-37.91,14.2-27.71,5.17-55.78.96-82.24,7.43-9.47,2.31-47.61,20.11-52.83,18.81-1.38-.34-3.52-8.17-3.81-9.91-1.31-7.91-3.39-22.6,4.88-27.04,11.12-5.96,46.18-9.36,59.31-9.15,4.95.08,12.05,2.33,16.79,2.29,12.74-.11-.69-6.32-5.92-7.55-24.36-5.77-50.37-1.54-74.23,4.19,1.01-8.9-6.36-31.35-4.25-38.45,2.82-9.47,31.58-6.05,39.52-5.26,46.74,4.64,78.23,34.18,123.38,47.01,2.9.82,16.84,2.69,17.31,3.44Z"/>
  <path class="ae" d="M1412.79,359.77c-26.37,34.39-72.39,43.65-104.77,68.41-5.61,4.29-36.2,32.88-40.4,32.34-1.56-.2-14.18-25.08-14.58-27.88s.57-4.61,2.23-6.79c3.39-4.47,29.04-19.67,35.34-22.94,12.15-6.31,25.28-11.05,38.12-15.67-.51-6.87-27.54,2.38-31.95,3.9-17.5,6.05-33.09,16-49.25,24.72-2.16-7.89-20.35-29.37-20.81-35.44-.08-1.04.06-1.79.54-2.73,3.25-6.34,56.98-17.29,66.2-17.91,39.82-2.68,79.57,13.17,119.34-.01Z"/>
  <path class="z" d="M752.2,781.74c7.15,7.58,8.74,6.9,1.54,13.62-52.43,48.93-100.1,29.49-153.2,53.05-13.1,5.81-19.01,15.12-8.2-4.84,16.75-30.92,51.39-48.91,73.92-76.29,4.56-5.54,28.56-41.42,32.15-41.91,1.8-.25,25.15,23.18,26.27,25.11.75,1.29.99,1.17.6,2.85-1.76,7.72-44.07,41.59-52.8,47.09-4.15,2.61-11.74,4.93-15.56,7.98-7.89,6.31,5.31,2.25,7.88,1.15,26.42-11.3,48.48-26.48,67.22-48.3,6.3,7.14,13.68,13.61,20.16,20.49Z"/>
  <path class="c" d="M780.62,296.99c.19.24.43,2.41-.7,2.32-6.82,3.25-23.06,24.92-29.58,24.15-3.43-.41-27.6-18.55-31.87-22.05-11.25-9.22-20.36-20.44-31.97-29.11,2.04,9.72,12.17,22.28,19.02,29.74,10.42,11.35,24.14,20.79,37,29.12-6.34,4.67-23.46,25.53-30.7,25.24-4.77-.19-22.82-19.45-26.41-24.14-30.2-39.5-29.64-92.12-57.19-132.82,35.29,9.16,56.01,44.2,84.84,62.55,16.65,10.6,36.14,15.45,53.04,25.43,1.91,1.13,14.01,8.89,14.54,9.57Z"/>
  <path class="o" d="M656.21,495.43c.05,4.66-1.18,37.56-2.35,39.12-3.89,5.16-64.87,2.55-74.44.03-1.4-.64-2.8,2.69-2.75,2.89.4,1.8,31.64,10.13,35.4,10.53,7.04.74,40.37-3.54,41.9-2.11.38.35-1.11,5.58-1.16,7.23-.34,11.56,6,27-7.36,32.79-13.57-2.47-28.79-2.34-42.15-5.59-46.56-11.33-76.02-53.63-120.81-68.64,34.51-13.13,69.01.93,104.77-1.7,22.6-1.66,46.75-9.92,68.95-14.54Z"/>
  <path class="c" d="M722.36,974.18c.5-40.95,31.48-70.15,43.71-107.06,5.83-17.59,8.49-36.47,13.54-54.31,6.17-2.06,35.46,11.52,35.54,15.95.07,3.65-14.26,33.75-17.13,38.92-3.17,5.7-7.57,12.45-11.34,17.81-2.49,3.54-13.84,15.42-14.48,16.91-2.04,4.73,3.01,2.88,5.61,1.12,13.89-9.38,31.01-34.98,38.54-50.02,1.39-2.78,5.68-15.99,6.83-16.75,2.45-1.63,34.48,11.31,35.42,12.97,2.83,5.03-18.14,34.28-22.48,39.25-32.08,36.67-84.62,46.01-113.76,85.2Z"/>
  <path class="x" d="M979.02,68.24c9.37,32.91,4.25,66.97,8.19,100.01,1.29,10.86,4.02,22.86,6.96,33.41,1.66,5.95,14.27,37.74,13.95,39.82-.22,1.42-2.65,1.55-3.81,1.72-3.64.51-24.18-.57-28.01-1.24-2.7-.47-5.28-2.2-6.76-4.45-4.44-6.78-9.15-44.73-9.61-54.3-.17-3.42,3.33-17.81-1.63-15.17-5.58,2.97-4.87,48.74-3.79,56.48.42,3.01,5,16.89,4.35,17.51-2.38,2.31-35.47,1.99-38.68-3.35-6.44-10.73,4.21-54.89,8.68-67.57,10.13-28.72,28.01-53.22,40.5-80.58,2.89-6.32,4.56-14.54,7.42-20.6.54-1.15-.85-2.2,2.25-1.67Z"/>
  <path class="j" d="M837.79,267.8c-8.09,1.24-33.24,18.6-40.21,13.32-3.64-2.75-12.98-52.44-13.57-59.86-2.41-30.74,7.18-61.19,4.43-91.89-.9-10.08-10.88-30.5,3.96-14.05,28.33,31.42,41.94,82.4,70.55,109.94,4.46,4.29,22.27,15.32,22.87,20.9.52,4.81-33.36,19.69-36.8,17.77-2.07-1.16-22.42-33.42-24.88-37.98-1.97-3.66-10.19-25.36-11.58-25.39-5.27-.11,3.38,24.94,4.17,27.2,5.05,14.38,13.18,27.16,21.05,40.04Z"/>
  <path class="ac" d="M1067.76,855.18c2.83,1.43,6.61-6.27,9.58,2.16,7.33,20.8,1.19,59.04-4.24,80.33-8.32,32.63-24.76,64.61-20.66,99.29-27.33-28.97-25.18-70.53-35.88-106.5-5.84-19.64-15.81-37.5-22.99-56.57.15-1.49,1.12-2.57,2.17-3.52,2.92-2.6,31.15-5.77,33.19-3.85,6.22,5.82,12.06,56.15,12.83,66.76.38,5.19-.37,10.51.02,15.69.13,1.74-1.09,4.43,1.66,3.9,5.85-20.65,5.22-48.61,1.38-69.74-.65-3.55-6.59-20.39-6.3-21.47,1.11-4.21,23.2-10.86,27.21-9.54,1.53.5,1.64,2.88,2.02,3.07Z"/>
  <path class="w" d="M1428.47,711.83c-.18,1.81-4.81,2.09-6.18,2.2-43.6,3.51-91.28-23.8-138.98-26.87-4.37-.28-27.56,1-28.57-.02s3.55-26.14,4.21-27.76c1.39-3.42,10.2-6.63,13.46-6.8,2.49-.13,29.25,6.12,33.65,7.33,5.43,1.48,13.27,4.1,18.49,6.17,2.88,1.14,17.51,9.8,18.74,8.71,1.63-1.45-4.87-7.62-5.68-8.33-16.13-13.98-47.18-23.28-68.28-23.07,3.76-5.77,5.63-36.12,7.73-38.78,1.59-2.02,3.8-1.64,5.98-1.35,12.6,1.63,44.08,19.99,55.03,28,32.92,24.08,49.05,66.42,90.41,80.55Z"/>
  <path class="ac" d="M1213.27,982.02c-37.43-19.15-48.69-59.52-72.4-90.7-12.41-16.31-28.4-30.24-41.83-45.68,4.41-4.77,22.31-20.13,27.89-17.79,2.33.98,23.9,28.53,26.75,32.71,6.24,9.15,11.96,23.87,17.66,31.67,8.09,11.06-.02-12.26-.92-14.78-8.07-22.58-19.76-40.6-36.7-57.45,6.06-2.46,26.09-21.77,30.18-22.54,6.78-1.27,24.35,39.78,26.42,46.64,13.71,45.43-1.76,95.51,22.96,137.91Z"/>
  <path class="ad" d="M1336.57,867.65c-38.55-8.95-62.57-42.51-94.93-61.43-14.29-8.35-34.24-13.09-46.56-20.69-15.26-9.41,8.21-24.59,15.18-32,21.59,10.75,41.35,24.36,59.08,40.69,1.38,1.28,4.23.22,4.47-1.14,1.01-5.7-34.9-36.21-41.56-40.25-3.16-1.92-14.16-5.42-15.13-7.38-.92-1.85,14.94-27.54,17.49-28.56,15.21-6.08,35.22,18.83,43.04,29.77,25.91,36.27,27.22,87.43,58.93,120.99Z"/>
  <path class="t" d="M965.57,868.78c4.93,4.91-12.24,56-16.02,64.14-14.32,30.78-42.95,52.11-57.02,84.23-3,6.85-3.76,19.38-8.18,7.45-9.46-25.54.87-68.18,2.74-94.74,1.21-17.13-1.12-35.58-.01-52.71.14-2.23.96-12.26,1.32-13.26,1.89-5.28,28.76-.85,29.96,2.24,1.01,2.62.53,40.25.12,45.8-.97,13.33-6.16,25.56-6.69,38.71,15.04-22.92,18.34-54.87,15.68-81.85,4.91,1.02,36.76-1.34,38.11,0Z"/>
  <path class="h" d="M954.14,283.85c205.56-7.24,341.5,190.65,262.21,381.15-88.13,211.73-393.53,217.74-492.72,13.58-87.19-179.46,28.89-387.63,230.51-394.73Z"/>
  <path class="i" d="M1158.77,377.29c129.87,140.8,69.99,369.05-110.3,429.22-190.17,63.46-379.98-109-338.32-304.8,44.39-208.67,304.76-280.39,448.62-124.42Z"/>
  <path class="k" d="M1151.63,511.12l4.63.94c8.77-1.06,13.58.87,14.43,5.79-4.97,1.68-11.55,1.98-16.81,3.36l-9.75,1.84c-2.94.07-8.32-.56-8.19-4.08l-2.17,1.32c-10.27-9.21-19.99-15.85-33.68-18.62,19.9,52.36-67.07,56.14-53.1,1.8-.57-2.03-25.73,17.31-27.7,19.39l-4.4.59c1.43,3.38-2.57,5.98-5.6,4.48-.98.64-7.42,4.68-7.82,4.48-.31-.15-2.7-5.52-2.13-6.59.28-.53,8.27-3.96,10.49-5.77,31.22-25.5,41.09-40.57,87.39-31.3,21.43,4.29,35.06,20.7,54.43,22.36Z"/>
  <path class="v" d="M859.07,662.49c-2.24-1.8-9.38,9.4-1.56,16.71,3.23,3.02,15.8,5.81,20.16,5.74,12.64-.2,25.93-16.23,37.41-19.71,24.17-7.33,49.47,12.11,47.12,37.62-19.26-22.06-44.5-9.47-67.45-1.9-3.72,1.23-5.29,4.08-10.73,4.97-25.75,4.21-60.56-20-41.1-46.72,14.54-19.96,40.48.69,28.03,8.97-8.83,5.87-10.02-4.18-11.88-5.67Z"/>
  <path class="v" d="M971.88,700.19c-.83.69-4.36,3.48-5.19,2.65-.64-.64,3.75-16.4,4.23-17.62,4.97-12.62,19.37-19.69,32.21-20.46,21.98-1.33,38.65,21.07,60.47,20.19,18.9-.76,13-25.96,7.34-21.35-.41.33-1.41,6.59-5.65,8.42-9.97,4.29-13.98-18.83,2.95-20.72,18.3-2.04,26.34,20.39,19.92,34.6-6.46,14.32-23.87,21.61-38.83,20.04-30.49-3.2-47.73-30.43-77.46-5.74Z"/>
  <path class="ab" d="M1190.85,459.55c-28.58-2.41-42.48-28.66-69.73-37.32-58.57-18.61-128.25,10.49-137.62,75.43-2.63,18.21.7,70.49,2.2,91.42.24,3.39,2.44,26.44,3.41,27.43,2.78,2.84,8.38-8,10.03-9.58,15.78-15.12,37.57,5.28,28.3,23.82-6.95,13.89-21.1,4.5-31.91,6.21-8.62,1.37-20.99,12.73-27.12,13.02-8.59.41-25.66-13.81-33.8-14.41-7.43-.55-22.12,11.87-27.91-2.24-7.61-18.57,7.56-36.15,27.15-26.04,3.11,1.6,13.67,14.97,16.01,12.57v-134.54c-3.91-48.42-77.03-80.1-120.21-71.48-26.29,5.25-44.86,34.04-69.14,39.59-1.76.4-19.06-.12-12.86,5.07,6.21,5.19,27.84-2.13,34.82-5.52,19.2-9.34,28.4-18.52,51.73-22.25,47.87-7.66,105.43,21.23,108.94,73.66l-1.13,99.78c-14.46-5.25-23.98-11.18-37.38.17-15.25,12.91-6.38,44.79,15.36,43.49,5.34-.32,12.18-5.75,14.66-5.55,4.24.33,16.69,10.21,21.61,12.13,21.13,8.25,25.04-9.01,39.24-10.75,10.87-1.33,17.67,6.02,29.33.2,27.61-13.79,14.97-52.92-19.42-48.59-2.89.36-4.72,3.16-6.59,3.09-6.73-.25-3.59-17.22-4.22-22.67-2.13-18.35-2.82-30.57-3.24-49.49-.17-7.46-3.05-17.29-2.26-24.05,7.36-63.19,99.56-86.48,149.09-60,14.7,7.86,25.88,23.43,45.26,21.8,1.72-.14,8.47-1.58,7.4-4.4Z"/>
  <path class="y" d="M959.43,305.94c1.44-.25,15.95,12.46,17.92,14.56,15.35,16.37,40.84,56.28,29.19,78.55-9.86,18.85-48.74,22.03-66.73,16.18-22.91-7.45-15.68-58.87,9.15-64.8,18.19-4.35,45.61,12.99,35.16,32.93-10.67,20.36-51.31,4.9-33.05-9.5,10.62-8.38,4.27,6.92,4.42,7.69.54,2.78,25.77,11.41,23.06-8.34-1.94-14.12-22.15-20.68-32.6-12.32-11.53,9.22-20.84,40.5-3.43,47.16,14.9,5.71,49.67,1.87,57.11-14.77,8.07-18.05-14.41-52.98-25.75-67.05-2.54-3.16-15.16-14.78-15.59-15.8-.72-1.73-.66-4.16,1.14-4.47Z"/>
  <path class="g" d="M1021.89,714.35c-1.98,2.03-5.79,16.91-9.89,22.05-15.39,19.31-63,17.21-81.59,3.3-6.33-4.74-18.48-26.82-19.96-27.68-.78-.46-20.6-2.25-10.15-6.62s26.28-1.11,37,1.63c6.77,1.73,27.27,11.73,31.11,11.59,2.97-.11,6.43-3.47,10.11-4.48,9.43-2.58,43.66-10.44,50.9-5.09,5.02,3.71-6.34,4.07-7.54,5.31Z"/>
  <path class="m" d="M1165.07,498.79c2.48,8.37-4.64,8.03-11.47,6.44-5.02-1.17-20.17-15.88-26.27-19.69-34.57-21.59-72.74-17.84-103.48,8.2-4.38,3.71-18.28,20.04-21.3,21.31-1.75.74-4,.73-4.47-1.14-.35-1.38,11.09-19.23,12.99-21.74,25.15-33.15,85.08-38.27,118.04-15.13,10.98,7.7,21.82,26.04,35.96,21.76Z"/>
  <path class="m" d="M846.53,461c33.33-3.58,68.6,12.05,82.24,43.77,1.05,2.45,6.46,15.98-1.32,11.41-.9-.53-9.76-14.02-12.29-16.86-21.81-24.47-58.88-38.87-90.44-25.38-13.57,5.8-35.89,30.28-49.14,30.55-3.39.07-9.14-.97-9.56-5.18-.74-7.56,5.73-1.22,7.61-.77,8.48,2,23.66-14.92,31.12-19.89,11.09-7.41,28.53-16.21,41.78-17.63Z"/>
  <path class="n" d="M916.25,522.33c3.56,1.91,9.88,7.32,10.09,1.12,1.7,1.47,14.12,8.42,4.78,11.06-3.83,1.08-5.39-3.28-9.54-2.99-9.57.66-25.08,12.17-34.5,16.02-39.23,16.05-76.77,4.62-103.09-27.45,1.98-.15,6.8-2.51,8.97-3.36l3.96.97c29.47,33.38,70.77,34.5,105.17,8.69,4.77-3.51,9.49-4.86,14.16-4.06Z"/>
  <path class="aa" d="M1153.87,521.21c-16.55,4.36-28.39,20.85-46.09,28.46-37.21,15.99-67.05-3.92-98.5-21.73,1.75-1.15,3.76-3.09,5.6-4.48,5.77-1.13,11.76.34,17.97,4.41,35.67,22.97,61.73,22.06,95.04-4.02,2.48-3.27,5.17-4.9,8.05-4.87,3.92,2.07,13.43,2.19,17.93,2.24Z"/>
  <path class="e" d="M1006.64,774.99c4.86,7.56,4.93,22.65-.18,29.86-1.81,2.56-10.33,8.06-10.6,2.83-.03-.5,4.47-3.77,5.3-5.89,5.43-13.84-3.53-30.86-17.58-34.55-16.57-4.35-54.77-4.26-55.09,20.24-.1,7.63,6.12,14.01,8.52,19.63s-8.34,1.73-9.65.4c-4.84-4.91-7.03-24.71-4.47-31.32,2.53-6.51,15.43-15.58,22.44-16.79,19.96-3.43,48.99-3.56,61.3,15.59Z"/>
  <path class="k" d="M1170.69,517.85c-1.91-.33-3.1-2.73-4.27-3.28-4.68-2.22-10.09-.48-14.79-3.45,7.03.6,17.45,0,24.16-2.18,5.02-1.63,19.9-13.74,21.2-13.52,4.22.7-1.61,8.64-3.32,10.11-2.76,2.37-19.26,11.05-22.99,12.32Z"/>
  <path class="v" d="M926.34,523.45c-28.17-24.39-44.29-45.31-86.74-38-18.85,3.25-35,19.41-52.24,23.42-4.71,1.1-13.08,1.51-17.93,1.12-.73-.06-1.52.1-2.24,0-4.87-.68-24.73-11-25.77-10.08-3.26,2.87,15.29,12.72,16.81,13.45,3.56,1.71,5.23,2.24,8.97,3.36,4.15,1.25,4.75,1.67,6.73,2.24,2.25.65,5.61,1.31,10.09,1.12,1.55-.45,3.18-.99,4.88-1.61,2.32-.86,4.44-1.78,6.35-2.7,5.16-2.05,10.58-4.08,16.24-6.04,5.63-1.95,11.11-3.71,16.4-5.29-2.14,9.41-1.56,16.25,4.59,24.66,19.63,26.84,60.75,8.56,52.53-23.84,9.45,5.19,18.57,10.95,27.35,17.28l3.91-.21c-.9,6.43,15.51,8.96,10.09,1.12Z"/>
  <path class="l" d="M1135.94,518.97c-11.94,14.17-38.09,27.68-56.56,28.07-24.28.52-42.11-18.29-64.49-23.59,8.15-6.15,24.82-21.02,34.21-23.53,2.96-.79-1.07,5.66-1.41,8.69-4.79,43.16,57.07,41.02,53.5,3.06-.32-3.42-4.96-12.4-4.47-12.88.75-.74,18.09,5.15,20.21,6.12,6.82,3.12,14.35,11.59,19.01,14.06Z"/>
  <path class="af" d="M792.96,516.72c13.19-5.19,23.36-15.45,39.23-14.56-4.86,9.75-4.42,15.95,1.52,24.81,16.64,24.83,55.05,11,49.56-19.3-.33-1.82-3.13-5.32-2.89-5.51,3.75-2.99,30.79,17.44,35.87,20.17-22.06,8.12-36.06,24.49-61.09,24.65-26.37.16-45.13-11.47-62.21-30.26Z"/>
  <path class="r" d="M1013.76,715.18c.84.79-3.4,10.5-4.25,12-13.73,24.15-63.08,20.12-80.96,2.04-4.49-4.55-12.12-11.65-2.49-14.87,17.7-5.92,34.01,13.42,42.12,12.89,3.14-.21,11.79-7.31,16.13-8.45,2.7-.71,28.36-4.63,29.44-3.61Z"/>
</svg>