<?xml version="1.0" encoding="UTF-8"?>
<svg id="a" data-name="Layer 3" xmlns="http://www.w3.org/2000/svg" viewBox="0 0 1931.92 1100.15">
  <defs>
    <style>
      .b {
        fill: #5c5747;
      }

      .c {
        fill: #091319;
      }

      .d {
        fill: #131c23;
      }

      .e {
        fill: #6f7272;
      }

      .f {
        fill: #57544c;
      }

      .g {
        fill: #78796a;
      }

      .h {
        fill: #626155;
      }

      .i {
        fill: #0a151c;
      }

      .j {
        fill: #10181c;
      }

      .k {
        fill: #524f46;
      }

      .l {
        fill: #53534b;
      }

      .m {
        fill: #07090b;
      }

      .n {
        fill: #595d5f;
      }

      .o {
        fill: #121a1e;
      }

      .p {
        fill: #74a536;
      }

      .q {
        fill: #1a252c;
      }

      .r {
        fill: #9ea1a2;
      }

      .s {
        fill: #e1e3e6;
      }

      .t {
        fill: #1d2932;
      }

      .u {
        fill: #18242d;
      }

      .v {
        fill: #8dc641;
      }

      .w {
        fill: #19242c;
      }

      .x {
        fill: #151f27;
      }

      .y {
        fill: #a0a2a3;
      }

      .z {
        fill: #1d2b36;
      }

      .aa {
        fill: #777d7f;
      }

      .ab {
        fill: #080c0d;
      }

      .ac {
        fill: #342c24;
      }

      .ad {
        fill: #060604;
      }

      .ae {
        fill: #fefefe;
      }

      .af {
        fill: #524f42;
      }

      .ag {
        fill: #2e2b22;
        stroke: #1a1a1a;
        stroke-miterlimit: 10;
      }

      .ah {
        fill: #152028;
      }

      .ai {
        fill: #575853;
      }

      .aj {
        fill: #613a15;
      }

      .ak {
        fill: #59574a;
      }

      .al {
        fill: #414548;
      }

      .am {
        fill: #131c21;
      }

      .an {
        fill: #686760;
      }

      .ao {
        fill: #fdfdfd;
      }

      .ap {
        fill: #0b0d0c;
      }
    </style>
  </defs>
  <g>
    <path class="p" d="M52.14,345.55c23.38,33.03,47.78,65.53,72.29,97.79,1.05,1.38,1.18,3.56,1.31,3.73-3.4,1.99-4.92,5.29-4.29,9.19-1.14-.26-7.91-.99-8.19-.69.36,3.5-.18,7.47.29,10.89-8.89,5.52-17.25,10.07-27.85,11.64-19.45,2.88-39.08-9.12-49.73-24.99l-.1-3.63c13.38-14.61,33.36-22.47,53.11-17.78l-10.61-6.99c-26.15-19.27-39.17-47.93-28.06-80.02.96-.39,1.68.83,1.83.85Z"/>
    <path class="v" d="M796.65,194.76c30.16,6.92,54.21,29.95,58.89,61.06,3.08-1.73,1.26-6.39,1.66-9.47,1.22-9.4,3.94-17.58,10.1-24.91,1.37-1.63,12.97-12.21,13.9-12.44,2.46-.61,5.23,4.13,6.42,5.99,5.25,8.15,9.46,18.52,12.07,27.85-5.04,4.32-10.08,14.28-10.08,20.95,0,3.99,3.3,14.15,5.66,17.3-4.48,10.29-13.76,16.74-24.95,17.92-.67-.85-1.55-1.36-1.86-1.77-20.06-25.63-39-53.37-58.63-79.51-5.54-7.37-11.36-15.45-17.68-21.94l-.02-.91,4.54-.12Z"/>
    <path class="aj" d="M370.02,275.25c-.09.88.15,1.84.07,2.72-1.37,16.25.82,22.12,8.98,35.78,3.37,5.63,7.41,11.62,11.96,16.31l3.76-11.9c.19,0,3.14-.84,3.61-1.01.18.78-.17,2.16.07,2.72-3.53,5.1-6.3,11.36-2.27,16.86,7.6,10.36,39.79,32.8,52.11,36.48,6.26,1.87,14.97,1.96,21.67,3.26,165.06,32.04,307.57,125.18,469.41,167.35,97.27,25.34,197.91,36.18,298.34,40.33.27-1.54-.87-2.36-1.54-3.49-9.95-16.84-25.59-36.8-37.39-52.94-17.5-23.93-35.66-47.39-54.8-70.03-2.45-1.69-7.75-.3-10.97-.56-13.53-1.08-25.43-5.01-37.12-11.7.21-2.01.7-5.58.71-7.28,1.03.4,2.81.36,3.66.81,1.86,1,4.38,3.3,6.78,4.51,9.46,4.78,19.06,8.35,29.9,8.11.75-.68-2.61-4.56-3.31-5.37-6.06-7.04-15.16-13.71-21.91-20.28,4.31-13.93-.52-26.64-9.21-37.4-2.16-2.68-15.26-16.88-18.46-14.44-.6.46-6.09,12.3-6.51,13.74-.91,3.14-1.19,6.73-1.1,10.01l-32.59-18.34c-42-21.53-89.18-31.48-136.35-30.75-2.95.05-5.63,1.4-8.59,1.22l.35,13.15c.04,1.37-2.29,9.39-2.91,11.39-1.8,5.8-4.92,11.01-7.24,16.57-1.88.01-4.3,2.1-7.29-.71.31-.55.32-1.82.83-2.75,6.59-12,12.46-23.06,10.8-37.52-16.86.89-33.36,4.57-49.61,8.72-.02,8.19-3.76,15.09-5.87,22.73-2.98,2.29-5.57,8.36-8.78,11.13-.21-.03-1.88,1.11-3.15,1.02-1.82-.13-2.19-1.73-2.33-1.78-.06-.9,0-1.82-.07-2.72,9.59-5.63,15.4-17.7,15.59-28.56-10.03.18-20.15,1.25-30.01-1.01-.53-2.04-2.89-4.26-2.01-7.21.79.16,1.93-.23,2.72-.07,30.65,6.03,29.52,1,56.11-8.32,10.55-3.7,21.58-6.15,32.47-8.61-13.15-8.65-26.44-17.5-35.35-30.81,1.01-2.52-.46-7.69,5.25-7.4.32.4,1.19.92,1.86,1.77,3.38,4.27,6.92,9.51,10.86,13.27,2.86,2.73,2.74-2.15,4.03-4.91,4.12-8.85,8.87-14.97,16.56-21,.86.41,4.03-.85,4.59,1.69-.13.1-.1,1.39-1.74,2.77-5.5,4.62-20.92,18.72-16.99,26.76,2.04,4.17,21.7,14.28,26.71,14.76,4.86.47,9.09-1.15,13.57-1.34,71.39-3,122.93,10.08,180.77,52.01,5.01,3.64,9.86,7.67,14.5,11.76,2.13.33,1.16-.98,1.26-2.31,1.07-13.87,5.32-25.94,13.56-37.12,2.17.24,4.83-.72,6.4,1.64-.41.6-.33,2.92-.81,3.65-7.98,12.22-16.26,24.55-12.98,40.28,15.46,13.95,29.61,29.11,43.94,44.2l11.37-13c1.35-1.19,3.34-3.04,4.92-3.74,2.55-1.13,3.91-.83,5.5,1.67-.61.67-1.18,2.33-1.74,2.77s-2.2.72-3.34,1.67c-3.46,2.88-14.52,12.02-12.07,16.89,37.5,42.03,69.54,88.53,103.68,133.26,7.22.33,14.46-.55,21.68-.47,160.22,1.66,325.24-8.63,485.57-13.99,37.68-1.26,75.49-1.13,113.04-3.91l-40.62,148.07c-36.5-1.56-73.05-3.67-109.53-6.04-194.81-12.63-397.03-25.95-589.86-54.3-31.41-4.62-63.83-12.74-94.54-16.91-13.96-1.89-29.32-.77-43.43-.84-133.91-.71-282.64,11.36-372.77,122.57-2.48,3.06-15.86,20.1-15.18,22.48s8.74,7.16,9.85,10.44c6.3-2.44,12.17-5.81,19.27-5.13.14.2,2.97-.48,1.91,3.58-.6,0-1.21.03-1.82.05-5.49.21-12.21-.72-16.18,3.75l8.59,18.24c-.73,1.05.28,5.32-4.42,4.66-.62-.42-1.25-1.56-1.86-1.77-2.53-7.38-6.69-15.72-11.64-21.77-1.34-1.64-7.05-8.15-9.06-6.68-15.26,27.5-28.69,56.39-35.83,87.14,5.68.51,9.56,3.45,13.79,6.93-.33.71-.24,1.97-.83,2.75-.39-.37-1.4-.48-1.84-.86-2.98-2.54-5.87-5.67-10.15-6.08,2,4.69,2.78,9.54,4.02,14.41.91,3.59.81,8.16,3.04,11.72-2.85-.43-1.62,1.46-1.72,3.2-.32,5.76-.65,11.33-2.28,16.89-.11.04-.42,1.37-1.47,1.67-1.87.53-3.84.23-5.74.34.23-1-.32-2.62-.1-3.63.05-.21,1.26-1.19,1.52-2.49,2.99-14.68,3.53-27.02-2.71-41.05-1.38-.33-1.49.4-2.25.95-4.53,3.32-8.35,10.35-14.65,12.21-.53-.33-3.63-.2-4.59-1.69-.69-1.54,1.63-2.32,1.74-2.77,21.64-8.57,23.92-29.19,25.91-49.72-14.39,3.83-27.77,5.48-42.61,2.96-.09-.3-1.6-.69-1.82-1.54-.45-1.71.03-3.86-.19-5.67,1.04.21,2.57-.29,3.63-.1,8.42,1.54,16.41,2.97,25.07,2.08,4.28-.44,16.83-3.26,18.48-7.26,2.21-5.37,2.69-13.49,4.92-19.18-20.52-6.6-39.25-18.78-51.92-36.38,1.1-2.53.36-7.91,5.25-7.4.48.6,2.28,1.13,2.77,1.74.23.28.27,1.42.94,2.23,11.87,14.33,26.24,28.35,45.4,31.55,20.34-54.8,56-105.78,108.11-134.19l-20.13-6.27c-3.54-.47-11.73-7.21-14.26-7.26-2.91-.06-13.24,4.39-18.08,4.95-7.09.83-15.18.38-22.25-.29-.62-1.43-4.94-3.2-2.01-7.21.88.07,1.88-.19,2.72-.07,11.21,1.51,22.63,2.8,33.58-1.37-.11-2.15-14.46-12.46-17.24-15.4-8.55-9.05-15.65-22.65-17.74-34.94.5-.44,1.68-4.61,5.35-3.78.98.74.74,1.78.98,2.7,1.38,5.36,2.81,10.65,4.95,15.78.6,1.43,4.44,9.9,4.85,10.29,1.57,1.45,1.53-.31,1.75-1.4,1.35-6.76,2.32-11.75,5.89-17.87,1.08.17,2.47-.2,3.63-.1.13.86-.1,1.92.07,2.72-4.29,4.06-8.68,15.66-6.22,21.03,1.43,3.14,15.44,9.86,19.21,11.46,16.06,6.82,38.37,11.5,55.84,11.1,14.76-.34,30.38-8.79,44.64-13.51,52.35-17.32,102.02-22.72,155.74-32,1.01-.17,4.22-.44,4.14-1.81-118.43-36.15-227.04-97.01-339.75-146.89-56.15-24.85-114.59-47.71-176.98-48.93.85,3.05-1.49,7.74-.69,10.37.15.49,7.35,3.12,9.21,4.44,2.52,1.79,4.49,4.36,6.6,6.57-.33.76.09,2.68-.81,3.65-.58-.17-1.33-.81-1.84-.86-.74-3.67-11.71-12.66-14.73-10.41l-6.84,19.16c-2.25-.2-5.31-.61-7.29-.71-.18-1.13.15-2.6-.1-3.63,6.63-8.11,9.61-19.14,11.02-29.34-45.58-2.1-91.68,5.35-134.08,21.99-14.15,5.55-28.04,12.48-41,20.39,3.77,2.11,8.21,9.73,11.26,11.43,2.83,1.58,11.36,2.41,15.72,3.94,3.44,1.21,6.81,3.04,9.89,4.97-.06.75,2.11,3.63.15,5.44-.86.13-1.93-.1-2.72.07-1.37-3.47-17.49-10.26-19.3-8.55l9.68,22.43c-.1.51.1,1.22.05,1.81-.01.14-.75.57-.75,1.34.02,4.87,2.69,11.07,2.07,16.23.29.98,3.49.8,4.64,1.34,2.41,1.13,3.12,3.11,4.66,4.41l-9.1-.67c.82,5.96-1.36,11.54-2.26,17.31-.11.04-.42,1.37-1.47,1.67-1.87.53-3.84.23-5.74.34.14-1.11-.32-2.65-.1-3.63,1.24-5.47,3.96-10.42,3.73-17.05-.35-10.08-7.62-20.87-11.37-29.94l-4.36,6.47c-.13-.06-2.6-.83-2.75-.83-.12-.55.13-1.41-.05-1.81,1.52-.85,3.9-3.83,4.23-5.35,1.21-5.63-13.67-20.43-18.33-24.1-2.58-.43-40.19,27.28-41.09,30.66-.93,3.47,1.03,7.81,1.09,11.6.2,12.2-4.51,26.28-9.97,37.03-1.94.03-4.28,2.09-7.29-.71-.18-1.13.15-2.6-.1-3.63,2.7-.28,4.11-4.04,5.16-6.17,1.32-2.69,6.08-15.09,6.02-17.28l-.43-15.88c-2.41.81-5.24,3.45-7.14,5.17-2.73,2.49-12.62,13.52-14.6,14.47-.48.23-1.53.22-1.36-.4l10.46-16.17c-7.62,1.25-18.59,5.87-26.23,4.33-2.27-.46-3.21-3.26-2.87-5.37.9.06,1.83-.12,2.72-.07.64.04,1.78.8,3.15.83,6.99.16,13.84-.87,20.39-3.29l-21.17-10.31c-1.79-12.46-15.75-21.21-26.99-23.79-.62-3.9.9-7.2,4.29-9.19.13.16,3.48,1.69,3.68,1.72,1.81,4.66,6.37,9.73,9.89,13.36,11.04,11.42,24.69,19.63,40.5,22.36,19.58-25.24,43.71-46.3,69.64-64.84.3-1.92-.76-1.46-2.11-1.11-3.09.79-6.23,2.65-9.45,3.44-12.34,3.02-23.06,3.1-35.58,1.23-.09-.29-1.59-.68-1.82-1.54-.45-1.72.03-3.86-.19-5.67,1.04.21,2.58-.3,3.63-.1,13.26,2.53,27.6,4.57,39.89-2.44-.1-2.84-29.2-22.6-35.08-21.3-.43-1.65-2.11-5.57-2.92-7.18l11.82.59c-1.05-9.57,1.54-18.55,4.71-27.37.75-.06,3.43-2.93,6.33-1.08.2,1.09-.18,2.69.1,3.63-2.17-.41-1.88,1.13-2.5,2.45-3.69,7.84-5.24,15.25-3.97,23.96,3.91-.16,8.63,3.71,12.21,3.37,2.71-.26,9.38-6.8,13.02-7.59.24.19,3.38-.5,3.68,1.72-.46.16-1.24,1.65-1.77,1.86-.62.25-1.75.07-2.69.51-13.56,6.26-7.01,5.49.72,11.36,2.56,1.94,13.66,13.19,14.74,13.06,43.26-26.2,91.96-41.59,143.05-40.94-15.24-13.49-25.89-29.55-33.09-48.59-11.63-1.29-22.4-5.38-32.05-11.92-1.8-1.22-9.44-7.01-10.3-8.27-1.53-2.24-.3-5.61,1.62-7.31.2.2,2.05.18,2.75.83,10.94,10.34,20.84,19.3,36.89,20.79-1.44-12.03-8.75-25.82-5.56-37.98.76-2.89,1.12-2.37,4.47-2.84Z"/>
    <path class="p" d="M484,661.66c-.2,1.84.79,2.88,1.71,4.26,20,29.98,46.48,62.85,68.84,91.61,1.53,1.97,2.85,5.13,3.98,6.54-4.89-.51-4.15,4.88-5.25,7.4-1.03,2.37-2.68,5.92-4.34,7.82-2.03,2.33-5.16,2.47-5.3,5.15-2.55-1.59-12.25-5.61-15.38-6.63-3.03-.99-6.12-2.19-9.37-1.78-.31,6.59-2.15,12.38-1.3,19.11-10.39,1.01-19.85-1.43-28.94-6.33-5.91-3.19-19.44-13.45-20.68-20.24-1.13-6.18,17.28-16.25,22.49-18.12,9.57-3.44,19.46-3.98,29.48-2.59l-19.95-14.87c-19.11-18.97-27.4-45.19-17.64-71.14.42-.36,1.12-.15,1.66-.17Z"/>
    <path class="v" d="M484,661.66c4.91-.24,15.78,3.74,20.47,5.93,22.86,10.66,37.79,32.15,42.09,56.84l1.79-16.42c1.64-11.55,8.9-20.42,17.48-27.65,3.12-2.63,5.67-6.22,8.92-2.93,6.91,7,15.78,30.23,16.92,39.99,2.26,19.33-7.78,47.13-30.38,48.37-.49-.61-2.29-1.14-2.77-1.74-1.12-1.41-2.44-4.56-3.98-6.54-22.36-28.76-48.83-61.62-68.84-91.61-.92-1.37-1.91-2.41-1.71-4.26Z"/>
    <path class="p" d="M280.75,468.31c.62-8.45,11.36-18.38,19.4-20.08,5.49-1.16,21.08.4,24.26,5.3,3.11,4.78-7.03,14.64-10.97,17.01l-8.88,4.39c12.87,2.44,25.88,10.37,30.76,23.07,1.28,3.33,1.4,8.67,2.37,10.56,1.23,2.4,10.08,5.13,8.46,9.7-2.65,7.49-17.04,13.76-24.63,13.88,18.09,6.76,29.72,22.68,26.59,42.41-.6.06-1.21,0-1.81.04l-46.71-47.77c1.45-1.61,1.16-3.96,1.67-5.49,2-6.04,4.98-9.1,10.58-12.09,2.99,1.34,14.45,3.21,17.8,3.15.76-.01,7.63-.89,5.82-2.86l-54.56-35.77c1.96-1.81-.2-4.69-.15-5.44Z"/>
    <path class="p" d="M1198.71,281.98c.02,1.72-.89,2.77-1.73,4.11-15.41,24.58-36.5,47.5-52.58,70.9-1.57-2.36-4.23-1.41-6.4-1.64-18.26-2-29.05-21.08-27.15-38.53.56-5.16,6.2-22.07,12.26-21.91,5.11.13,15.31,10.41,18.03,14.67l6.93,15.53c3.69-17.44,15.35-35.12,32.96-40.84,3.84-1.25,14.44-4.1,17.67-2.28Z"/>
    <path class="p" d="M626.91,503.47l18.78,90.28c-3.67-.83-4.85,3.34-5.35,3.78-4.1,3.6-7.25,4.68-12.56,5.79-7.82,1.63-20.55.6-27.36-3.8-.09-.06.08-1.17-.34-1.47-6.64-4.84-11.98-11.58-14.8-19.41-2.68-7.45-3.74-10.17,4.44-12.69,11.61-3.58,19.71-1.71,30.32,3.11,1.05.48,1.97,1.2,2.27-.56.25-1.46-3.66-6.97-4.57-9.15-8.44-20.28-7.76-40.38,7.97-56.64.76-.2,1.07.74,1.21.77Z"/>
    <path class="p" d="M639.01,649.31c-2.93,4.01,1.39,5.78,2.01,7.21,3.94,9.06-3.11,26.88-9.98,33.43-8.71,8.31-28.15,13.37-38.92,7.23-.89-14.58,6.19-27.16,17.22-36.16-16.37,2.62-34.18,2.61-47.88-7.82-4.67-3.55-12.41-12.24-14.23-17.79-.53-1.63.29-1.33.51-1.79l91.27,15.7Z"/>
    <path class="p" d="M181.69,534.53c10.38-.16,18.92,8.12,24.95,15.67-.92,2.01-3.01,10.31-2.29,12.2.27.7,6.61,3.02,7.25,3.1.81,8.23-.2,17.93-4.93,24.94-3.58,5.3-5.49,3.54-10.41,1.04-7.08-3.6-12.79-9.11-16.65-16.03l-5.29-11.67c-.92,26.27-19.1,49.22-46.23,51.24-1.09.01-.38-1.37-.59-1.86,16.91-25.58,30.28-53.52,46.92-79.34,3,2.81,5.35.74,7.29.71Z"/>
    <path class="p" d="M408.04,438.55c1.98.1,5.04.51,7.29.71,4.44.4,7.57.41,11.87,2.4-.38,4,1.42,15.44,4.99,17.62,3.2,1.95,4.84-4.3,8.09-4.35.12,1.78,2.9,4.94,3.74,7.72,2.62,8.68,1.45,23.94-3.75,31.62-6.38,9.42-19.88-5.29-24.87-10.77l-7.43-14.08c-2.41,25.83-20.38,48.66-47.74,49.4-.14-.57.11-1.36-.05-1.81l46.21-78.26c.46-.36,1.09-.23,1.64-.2Z"/>
    <path class="p" d="M553.09,832.3c.23,1.81-.26,3.95.19,5.67.22.85,1.73,1.24,1.82,1.54,2.68,8.68-3.14,20.11-7.44,27.44-1.21,0-7.4,1.19-9.09,1.56-2.44.53-13.88,3.98-14.26,5.97-.05.26,1.59,4.37,1.88,4.85-4.82,1.76-17.12,1.63-21.29-1.14-4.31-2.87,4.36-25.02,8.68-28.04l10.68-8.88c-20.09,3.95-43.44-.69-55.73-18.2-2.58-3.68-5.32-7.23-5.03-11.95,27.92,5.68,55.5,12.97,83.37,18.9,2.22.47,4.88,2.03,6.23,2.3Z"/>
    <path class="p" d="M687.67,803.25c12.76.4,25.67,12.31,30.14,23.72,2.23,5.69,2.44,6.44-3.19,9.32-10.49,5.35-24.4,5.25-35.12.78l11.21,16.62c4.9,9.58,6.52,21.3,5.13,32.01-.57,4.35-5.01,15.38-8.18,18.33l-33.24-87.17c4.7.66,3.68-3.61,4.42-4.66,1.77-2.55,7.76-5.47,10.72-6.64,3.52,4,13.09,6.61,18.35,6.77-.45-2.7.36-6.61-.24-9.07Z"/>
    <path class="v" d="M407.94,434.92c.25,1.02-.08,2.5.1,3.63-.55-.03-1.18-.16-1.64.2l-46.21,78.26c-5.43-15.75.81-36.5,11.43-48.85l10.61-9.84c-13.37,4.69-27.09,4.41-38.16-5,5.78-12.25,20.43-27.03,34.3-29.17,9.5-1.46,26.7-1.05,29.58,10.77Z"/>
    <path class="v" d="M1198.71,281.98c2.86,1.62,2.29,8.93,2.13,12.18-.73,14.63-7.78,28.42-18.51,38.17l-10.22,7.55c8.65-1.88,14.21-3.21,22.95-.4,2.26.73,13.11,6.14,14.08,7.58,1.86,2.74-6.17,10.49-8.33,12.5-6.07,5.66-16.27,12.73-24.63,13.81-13.11,1.69-26.26.24-32.58-12.73.48-.74.4-3.05.81-3.65,16.08-23.4,37.16-46.31,52.58-70.9.84-1.34,1.75-2.39,1.73-4.11Z"/>
    <path class="v" d="M543.63,784.43c7.23,4.51,15.25,15.77,17.48,24.01,2.63,9.69.98,15.51-4.39,23.75-1.06-.19-2.59.3-3.63.1-1.35-.27-4.02-1.82-6.23-2.3-27.87-5.92-55.45-13.21-83.37-18.9.15-2.45,5.78-4.71,8.44-5.71,14.51-5.43,28.8-4.86,42.93,1.44l10.45,6.23c-2.64-6.15-6.87-10.97-7.75-17.94-.85-6.73,1-12.52,1.3-19.11,3.26-.41,6.34.79,9.37,1.78,3.14,1.03,12.84,5.05,15.38,6.63Z"/>
    <path class="v" d="M260.55,527.87c-.22.98.24,2.52.1,3.63l-23.96,88.71c-3.28-.69-7.44-17.57-7.82-21.14-1.61-15.08,3.65-29.26,12.48-41.19-9.34,5.58-18.55,9.03-29.75,7.62-.63-.08-6.98-2.4-7.25-3.1-.72-1.89,1.37-10.19,2.29-12.2,1.13-2.47,7.65-11.89,9.63-14.3,9.92-12.06,31.84-21.42,44.27-8.03Z"/>
    <path class="v" d="M652.56,815.09c.61.21,1.25,1.34,1.86,1.77l33.24,87.17c-.25.23-.18,1.21-1.15.84-11.9-5.02-22.44-15.09-27.58-26.98-1.05-2.42-4.04-10.38-4.1-12.47l-.45-16.78-7.74,15.21c-4.74,5.57-10.64,10.03-17.88,11.81-.2-.14-4.35-1.66-4.59-1.69-3.16-13.89-5.78-27.33.22-40.9,4.33-9.8,16.43-21.91,28.17-17.97Z"/>
    <path class="v" d="M174.31,530.19c.25,1.03-.08,2.5.1,3.63-16.64,25.82-30.01,53.76-46.92,79.34-6.95-15.84,1.29-38.46,12.22-50.76,2.42-2.73,6.33-4.34,8.01-7.88-8.19,2.38-14.89,4.07-23.4,1.82-1.47-.39-12.53-4.92-12.92-5.5-2.12-3.17,9.9-17.55,12.99-19.3,6.88-3.9,11.24-2.29,16.98-10.44,8.8-2.88,30.23-2.13,32.95,9.1ZM149.05,553.57l.02.91c.58-.32.57-.62-.02-.91Z"/>
    <path class="p" d="M618.3,925.87c-.3.78-1.47,8.31-1.55,9.58-.5,8.73,3.38,16.89,8.43,23.74,8.2,11.11,7.14,4,14.82-3.04-.47,4.68.74,13.39-2.15,17.67-3.2,4.74-27.34-5.83-29.94-11.35l-6.11-8.02.48,17.69c.12,4.53-5.19,18.49-7.72,22.74-3.82,6.41-17.04,19.01-24.78,18.53.9-8.05,3.24-15.93,5.27-23.74,5.56-21.46,12.83-43.52,17.78-64.94,1.9-.1,3.87.19,5.74-.34,1.06-.3,1.37-1.64,1.47-1.67,4.61-1.53,13.96.57,18.25,3.14Z"/>
    <path class="p" d="M287.02,532.6c-6.27,10.11-1.48,25.6,4.73,34.66,8.6,12.56,8.75,4.47,16.1-3.45-.27,4.37.61,13.04-2.18,16.74-3.64,4.83-25.26-5.41-28.57-9.97l-7.48-9.37.5,18.6c.18,6.82-7.05,21.68-11.52,27.1-3.75,4.54-16.02,14.53-21.91,13.29l23.96-88.71c1.9-.1,3.87.19,5.74-.34,1.06-.3,1.37-1.64,1.47-1.67,5.72-1.9,13.75,1.37,19.16,3.12Z"/>
    <path class="v" d="M627.78,603.31l10.09,9.42c8.48,10.52,13.45,25.01,3.86,36.51-.84-.11-1.84.14-2.72.07l-91.27-15.7c2.88-6.04,21.84-10.44,28.28-10.79,12.24-.66,23.41,3.25,33.92,9.09-2.59-5.17-6.99-9.39-8.65-15.13-1.7-5.9-.64-11.29-.87-17.28,6.8,4.4,19.54,5.43,27.36,3.8Z"/>
    <path class="v" d="M592.73,921.11c-.22,1.01.33,2.63.1,3.63-4.95,21.42-12.22,43.48-17.78,64.94-2.03,7.81-4.37,15.69-5.27,23.74-3.56-.22-6.32-9.33-7.16-12.51-4.73-17.96-.49-35.41,10.91-49.79-11.43,7.3-25.22,10.33-38.08,4.57,3.36-12.96,10.39-28.32,22.75-34.56.4,3.4,4.12,14.2,7.41,15.09,7.22,1.95,18.06-14.16,18.8-20.34,3.7.11,5.41,3.58,8.32,5.22Z"/>
    <path class="v" d="M626.91,503.47c6.34,1.58,15.34,12.5,18.5,18.28,6.77,12.37,7.29,25.4,5.77,39.17l5.66-8.33c2.75-5.57,19.89-14.79,24.96-13.3,4.32,1.27,2.63,23.52,2.25,28.01-4.52,1.99-8.29,6.42-10.79,10.56-.94,1.56-2.95,7.67-3.26,7.98-1.75,1.77-2.77-4.25-3.4-5.26-12.72-20.58-20.35,4.94-12.63,16.59-1.59-.45-5.28.02-7.29-.71-.24-.92,0-1.96-.98-2.7l-18.78-90.28Z"/>
    <path class="p" d="M633.39,912.75c4.28-15.96,26.6-20.05,39.61-11.45,8.4,5.56,6.6,9.75-.52,15.31-5.37,4.19-11.47,5.3-17.91,6.92,17.75,6.72,28.74,21.35,26.58,40.93-.2,1.12-1.36.43-1.84.62l-47.62-47.74c2.53-.72,1.33-3.21,1.69-4.59Z"/>
    <path class="p" d="M1190.85,428.36c-13.3-11.04-14.87-30.92-1.62-42.65,4.57-4.04,6.42-5.82,10.86-.21.85,1.08,5.31,9.5,5.33,10.24l.35,13.15c9.12-11.74,20.23-21.27,36.16-19.94,2.52.21,9.05,1.5,9.75,4.18l-55.33,36.9c-1.59-2.5-2.95-2.8-5.5-1.67Z"/>
    <path class="p" d="M899.69,242.82c5.8-4.97,7.72-2.2,11.37,3.4,4.42,6.78,4.99,12.7,4.73,20.67l9.26-11.11c7.63-6.56,16.68-10.49,26.96-9.82,2.18.14,9.09,1.27,9.64,3.36-17.61,12.47-35.56,24.91-52.68,38.12-.86.66-2.4.42-2.61.59-.56-2.54-3.73-1.29-4.59-1.69-.38-.18-6.25-4.94-6.5-5.27-2.36-3.15-5.67-13.31-5.66-17.3,0-6.67,5.05-16.63,10.08-20.95Z"/>
    <path class="p" d="M143.32,492.89c-.34,2.11.6,4.91,2.87,5.37.85,8.35.07,15.86-4.84,22.83-5.74,8.15-10.1,6.55-16.98,10.44-2.01-.07-11.31.99-11.88-1.19-2.34-8.99,3.09-20.52,9.31-26.87-15.11,3.94-30.9,2.57-41.61-9.77-1.7-1.96-4.57-4.69-3.36-7.18,22.1,2.1,44.35,4.86,66.49,6.38Z"/>
    <path class="p" d="M570.07,889.04c.96,1.5,4.06,1.36,4.59,1.69,6.18,3.89,10.58,18.21,9.76,25.16-.73,6.18-11.58,22.29-18.8,20.34-3.29-.89-7.01-11.69-7.41-15.09-.49-4.24-.13-8.54.56-12.73-9.14,11.27-21.77,18.77-36.83,16.93-3.43-.42-9.01-1.39-10.07-4.77l58.2-31.53Z"/>
    <path class="v" d="M961.64,249.33c1.06,4.05-5.71,16.43-8.53,19.77-5.29,6.26-14.35,11.27-22.38,12.85l10.33,2.62c3.18.72,11.92,8.53,12.65,11,1.29,4.33-14.22,9.56-17.75,10.33-13.42,2.92-26.86-1.09-31.34-15.09,1.64-1.38,1.61-2.67,1.74-2.77.21-.16,1.75.07,2.61-.59,17.11-13.22,35.06-25.66,52.68-38.12Z"/>
    <path class="v" d="M1251.67,393.13c2.86,10.94-18.59,31.29-30.06,30.78-.15,2.41,0,1.48,1.41,1.75,5.13,1.01,8.64,1.56,12.88,5.09,1.76,1.46,7.63,7.84,6.66,9.83-1.31,2.69-15.05,7.64-18.42,8.26-12.17,2.26-27.33-2.6-29.55-16.05.57-.44,1.13-2.1,1.74-2.77l55.33-36.9Z"/>
    <path class="v" d="M571.81,886.27c-.11.45-2.44,1.23-1.74,2.77l-58.2,31.53c-.94-2.99,1.75-7.51,3.52-10.37,6.74-10.92,17.79-16.55,30.22-18.69l-11.87-4.72c-1.51-1.01-6.67-6.06-7.53-7.46-.29-.48-1.93-4.6-1.88-4.85.37-1.99,11.82-5.45,14.26-5.97,1.69-.36,7.89-1.55,9.09-1.56,8.6-.04,26.77,8.66,24.14,19.32Z"/>
    <path class="v" d="M628.97,917.41c.89-.12,1.83.02,2.72-.07l47.62,47.74c-2.9,1.16-7.9.02-11.12-.87-11.12-3.07-22.94-13.14-25.91-24.46-1.5-.2-.82,1.24-.84,2.27-.14,5.73-.91,8.91-1.43,14.13-7.68,7.04-6.63,14.15-14.82,3.04-5.05-6.85-8.93-15.01-8.43-23.74.07-1.27,1.25-8.79,1.55-9.58,1.07-2.81,7.38-8,10.67-8.46Z"/>
    <path class="v" d="M299.58,526.81l46.71,47.77c-16.23,1.11-30.86-11.58-37.48-25.31-.16,4.85-.67,9.72-.97,14.55-7.35,7.92-7.49,16.01-16.1,3.45-6.21-9.07-11-24.55-4.73-34.66,1.16-1.87,7.57-6.48,9.81-6.62.42-.03,1.88,1.04,2.75.83Z"/>
    <path class="v" d="M121.44,456.26c11.24,2.58,25.2,11.32,26.99,23.79.75,5.26-.68,8.08-2.38,12.77-.9-.05-1.83.14-2.72.07-22.14-1.52-44.39-4.28-66.49-6.38,1.06-2.19,6.67-5.72,8.91-6.6,5.36-2.08,14.63-2.78,20.37-2.36,5.7.42,10.8,3.07,16.04,5-1.68-3.76-4.61-5.38-6.49-9.47-.88-1.91-1.83-4.58-2.12-6.63-.47-3.42.07-7.39-.29-10.89.29-.3,7.06.43,8.19.69Z"/>
    <path class="p" d="M694.88,565.19l-27.14,37.95c-1.16-.1-2.55.26-3.63.1-4.61-.71-7.72-5.39-10.16-6.08-7.71-11.65-.09-37.17,12.63-16.59.63,1.02,1.65,7.03,3.4,5.26.3-.31,2.31-6.42,3.26-7.98,2.5-4.14,6.27-8.57,10.79-10.56,2-.88,9.01-2.68,10.84-2.11Z"/>
    <path class="v" d="M694.88,565.19c1.26.07.87,1.31,1.01,2.19,1.2,7.72-1.8,16.47-7.03,22.17-1.54,1.67-4.73,3.04-5.9,5.01,13.64-2.91,25.44,3.92,8.84,14.13-6.13,3.77-22,6.11-23.99-2.82-.18-.8.05-1.86-.07-2.72l27.14-37.95Z"/>
    <path class="p" d="M439.54,427.72c1.62-3.73,9.89-7.55,13.79-7.55,4.26,0,14.72,4.91,14.48,9.93-.18,3.85-10.86,7.73-14.39,7.25,6.83,5.58,15.55,18.12,9.81,26.96l-24.51-32.93c.9-.98.48-2.9.81-3.65Z"/>
    <path class="p" d="M666.33,786.58c-.3-.43-.24-7.17-.02-8.42,1.58-9.01,11.77-14.13,20.34-13.01,1.29,6.55-1.07,10.66-3.2,16.43l13.16-.35c3.71-.1,11.2,6.03,12.52,9.65-.85,1.42-3.55,1.17-4.99,1.09-11.97-.67-23.88-1.99-35.91-1.81,1.06-4.06-1.77-3.38-1.91-3.58ZM682.09,781.61l.02.91c.58-.32.57-.62-.02-.91Z"/>
    <path class="v" d="M668.24,790.16c12.03-.18,23.94,1.13,35.91,1.81,1.45.08,4.14.33,4.99-1.09.56,1.54,1.61,1.04-.87,3.16-6.35,5.41-16.91,5.32-24.4,2.97-.94.96,3.48,4.96,3.8,6.25.6,2.47-.21,6.37.24,9.07-5.26-.16-14.83-2.77-18.35-6.77-3.3-3.75-5.05-10.55-3.14-15.35.6-.02,1.21-.04,1.82-.05Z"/>
    <path class="v" d="M436.89,430.51c.51.04,1.26.69,1.84.86l24.51,32.93c-.94,1.45-1.39.9-2.74.62-7.9-1.62-16.21-9.24-17.7-17.31-1.45.48-2.59,6.19-2.52,7.33-3.25.05-4.89,6.3-8.09,4.35-3.57-2.17-5.36-13.61-4.99-17.62.43-4.62,4.46-11.61,9.69-11.16Z"/>
    <path class="p" d="M624.17,873.96c.24.03,4.38,1.56,4.59,1.69,9.31,6.23-7,10.65-6.94,11.54,5.65,2.17,13.35,13.97,9.59,19.26-3.45-2.63-6.75-5.71-9.79-8.8-4.11-4.17-8.57-10.38-12.63-14.2.59-.77.5-2.04.83-2.75,2.45-5.18,8.91-7.45,14.35-6.74Z"/>
    <path class="v" d="M608.98,883.45c4.06,3.82,8.53,10.03,12.63,14.2,3.04,3.09,6.34,6.17,9.79,8.8-1.51,2.13-3.03-.37-4.51,1.03-1.8-1.24-6.64-4.48-8.32-5.22l-5.19-7.12c-.74,1.66-.68,3.68-1.21,5.48-.35,1.21-1.29,2.45-1.72,3.68-2.04.37-2.71,4.26-6.4-1.64-2.23-3.56-2.13-8.13-3.04-11.72,1.63-3.52,2.8-6.06,6.13-8.34.44.37,1.45.49,1.84.86Z"/>
    <path class="aj" d="M618.57,902.26c1.68.75,6.52,3.98,8.32,5.22,2.3,1.59,4.11,3.81,6.5,5.27-.37,1.37.84,3.86-1.69,4.59-.89.09-1.84-.05-2.72.07-.74-4.28-15.7-13.63-18.52-13.12.43-1.23,1.36-2.47,1.72-3.68,1.63.87,5.16,1.09,6.4,1.64Z"/>
    <path class="v" d="M52.14,345.55c19.19,2.75,34.89,11.17,46.89,26.58,5.2,6.67,8.31,13.39,12.18,20.8,5.15,1.46,7.6-10.27,9.5-13.84,2.22-4.19,15.24-19.44,19.49-19.58,3.43-.11,9.44,12.32,11.01,15.44s3.78,11.08,5.23,13.15c1.11,1.59,10.18,4.67,12.67,6.05.88.49.46,2.07,1.13,1.78,1.35-.59,1.24-1.52.89-2.76-1.28-4.61-5.39-8.52-6.26-14.89-.4-2.97.18-15.63,1.67-17.67,1.04-1.43,3.44-.95,4.99-1.02,2.41,2.58,6.78,2.26,9.18,3.38,9.86,4.64,20.14,12.13,25.12,22.02.81,1.61,2.48,5.54,2.92,7.18,1.7,6.44,1.91,11.88-1.14,17.93-1.1,2.18-3.5,3.23-3.67,5.81-1.05-.2-2.59.31-3.63.1-.19-.04-.91-1.13-1.81-1.32-29.39-5.97-58.33-14.18-87.78-19.87-1.26,1.42,4.98,11.68,6.32,13.39,9.28,11.82,24.22,17.87,39.04,18.07-3.58,8.9-8.97,17.62-18.54,20.9-1.77.61-6.47,1.85-8.11,1.61-.2-.03-3.55-1.56-3.68-1.72s-.26-2.35-1.31-3.73c-24.51-32.26-48.9-64.76-72.29-97.79Z"/>
    <path class="p" d="M868.45,297.23c-5.71-.29-4.24,4.88-5.25,7.4-6.34,15.8-31.28,26-47.53,23.07-3.98-14.27-21.67-27.01-35.35-30.82,12.66-13.3,31.44-18.75,49.53-15.87l-16.18-11.38c-21.34-18.38-32.23-46.53-21.54-73.84,6.32,6.48,12.15,14.57,17.68,21.94,19.64,26.14,38.58,53.87,58.63,79.51Z"/>
    <path class="p" d="M267.92,228.07c18.64,19.93,38.03,39.18,57.45,58.36,2.01,1.98,4.73,6.69,6.11,8.02-1.92,1.69-3.15,5.07-1.62,7.31-9.62,18.31-29.26,25.4-48.58,17.18-4.83-2.06-17.07-9.7-13.56-15.45,6.16-10.1,22.76-17.88,34.49-16.43l-16.63-9.97c-14.15-11.56-21.59-25.07-20.13-43.84.27-3.45-.02-4.17,2.47-5.17Z"/>
    <path class="p" d="M1021.66,386.62c.05,1.95,1.15,2.45,2.51,3.42,23.29,16.5,48.51,30.66,72.24,46.52.39.49.22,1.05.22,1.61-.01,1.7-.5,5.27-.71,7.28-.77,7.43-1.95,10.88-7.24,16.57-11.4,12.27-28.22,15.06-43.59,8.57-10.83-4.57-10.64-8.44-3.94-17.33,4.81-6.38,11.2-11.27,18.66-14.15,2.31-.89,6.62-.17,5.88-2.84-20.85-2.91-40.31-16.35-45.13-37.78-.49-2.18-2.07-10.27-.73-11.43.5-.43,1.27-.28,1.82-.45Z"/>
    <path class="p" d="M889.15,391.09c15.16-.12,29.51,18.89,29.96,33.24.16,5.2-3.66,25.14-9.79,26.17-8.66,1.45-21.76-14.82-25.06-22.07-.43-.94-1.76-8.32-3.36-6.25-1.96,18.26-12.34,36.54-29.73,43.91-3.76,1.59-13.48,4.69-17.15,3.66,3.17-7.37,7.65-14.26,11.77-21.12,11.69-19.45,24.93-38.57,36.06-58.24,2.98,2.82,5.4.73,7.29.71Z"/>
    <path class="p" d="M145.12,255.89c-.18,2.85.79,5.47,1.59,8.12,7.71,25.62,16.34,54.18,25.29,79.22-3.47-.15-4.36,4.6-5.3,5.59-14.63,15.33-42.15,7.93-53.11-8.83-2.67-4.09-8.2-13.36-3.32-16.76,9.27-6.47,27.5-4.92,37.53-.67-14.08-17.64-21.87-45.26-6.64-64.66,1.91-2.43,1.33-2.67,3.96-2.01Z"/>
    <path class="p" d="M807.25,352.44c-.87,2.95,1.48,5.17,2.01,7.21,1.8,6.91.5,10.51-.44,17.26-10.42-1.97-21.34,2.1-29.26,8.98-9.07,7.88,2.05,5.83,4.43,13.48-4.58,1.58-23.88,2.94-25.37-2.66-.28-1.04.82-6.75,1.19-8.3,1.92-8.2,6.72-15.75,12.85-21.43l5.79-4.67c-21.84,3.33-44.85-1.62-57.05-21.47-1.43-2.32-3.69-6.05-3.71-8.68,6.47.47,12.88,2.15,19.18,3.56,23.44,5.27,46.92,11.93,70.39,16.72Z"/>
    <path class="v" d="M780.32,296.88c13.68,3.81,31.37,16.55,35.35,30.82,2.14,7.66,2.78,20.67-5.69,24.67-.8-.16-1.94.23-2.72.07-23.48-4.79-46.96-11.45-70.39-16.72-6.3-1.42-12.71-3.09-19.18-3.56-.02-2.45,6.48-5.01,9.12-5.95,19.12-6.79,36.28-3.75,53.14,6.98-1.81-5.17-5.99-9.4-7.01-14.99-1.32-7.22-.25-14.95,1.01-22.06,1.81.45,4.82.31,6.38.74Z"/>
    <path class="v" d="M1111.75,425.95c-2.03,6.58-5.71,9.69-11.46,13.02-.84-.45-2.63-.41-3.66-.81,0-.56.17-1.12-.22-1.61-23.74-15.85-48.95-30.02-72.24-46.52-1.36-.96-2.46-1.46-2.51-3.42,18.97-5.8,45.89,6.8,55.16,23.93,1.51.21.92-2.23.85-3.23-.22-3.28-1.11-6.02-1.21-9.47s.19-6.87,1.1-10.01c.42-1.44,5.91-13.27,6.51-13.74,3.2-2.44,16.3,11.76,18.46,14.44,8.69,10.77,13.51,23.48,9.21,37.4Z"/>
    <path class="v" d="M267.92,228.07c3.31-1.33,12.35.85,16.21,2.03,12.92,3.94,23.43,13.6,30.41,24.84l5.27,10.77-.4-14.97c-.11-4.07,9.81-20.49,13.68-21.61,1.98-.57,3.2,1.3,4.44,2.5,1.79,1.73,8.81,11.26,9.89,13.36,4.37,8.53,6.83,23.26,4.51,32.56-1.97,7.9-8.82,17.25-17.69,17.73-.69-.66-2.54-.64-2.75-.83-1.38-1.33-4.1-6.04-6.11-8.02-19.42-19.18-38.81-38.43-57.45-58.36Z"/>
    <path class="v" d="M145.12,255.89c8.33,2.12,19.42,15.08,23.19,22.66,5.27,10.6,6.69,22.12,5.59,33.76l5.83-11.71c2.97-4.29,6.81-7.92,11.4-10.43,2.76-1.51,10.7-5.7,12.92-2.65,3.67,5.05,3.03,21.95,3.56,28.42-4.11-1.19-4.43-.31-6.15,3.46-1.95,4.27-2.99,11.22-2.41,15.84-5.92,7.91-14.94,13.55-25.15,10.66-.32-.87-1.58-1.82-1.89-2.67-8.95-25.03-17.58-53.59-25.29-79.22-.8-2.66-1.76-5.28-1.59-8.12Z"/>
    <path class="v" d="M882.69,387.64c-.51.93-.53,2.2-.83,2.75-11.12,19.68-24.37,38.8-36.06,58.24-4.12,6.86-8.6,13.75-11.77,21.12-5-1.41-2.2-26.16.08-30.87,2.97-6.15,6.92-7.82,8.64-16.57l12.39-12.13-12.66,2.15c-1.16-5.84-2.16-8.89-6.26-13.46-.82-.92-6.53-6.08-6.99-6.16,3.22-2.77,5.8-8.84,8.78-11.13,11.09-8.51,38.56-9.81,44.68,6.06Z"/>
    <path class="p" d="M257.97,297.33c-8.55,20.47-19.46,39.93-29.28,59.8-2.9-1.85-5.58,1.02-6.33,1.08-.38.03-6.28-1.75-7.24-2.16-8.07-3.5-15.01-12.06-16.09-20.81-.57-4.62.46-11.56,2.41-15.84,1.72-3.77,2.04-4.65,6.15-3.46,3.92,1.13,7.79,4.15,11.07,6.52l8.52,12.92c-.85-13.1,6.4-28.22,18.12-34.56,2.92-1.58,9.52-4.23,12.66-3.48Z"/>
    <path class="p" d="M823.76,391.95c.14.05.51,1.65,2.33,1.78,1.26.09,2.94-1.05,3.15-1.02.46.07,6.16,5.24,6.99,6.16,4.1,4.57,5.1,7.62,6.26,13.46.96,4.84,1.28,4.86.27,9.98-1.72,8.75-5.66,10.43-8.64,16.57-4.28,1.13-8.66-3.5-10.93-6.66-3.8-5.29-5.74-11.81-5.19-18.32-3.55,4.25-5.45,9.66-9.15,13.87-8.8,10.02-21.59,14.09-34.67,11.81-.08-.6,0-1.21-.05-1.81,2.97-1.48,6.51-4.73,8.91-7.04,11.05-10.66,21.49-22.2,32.71-32.68,1.26-1.18,7.03-6.45,8.02-6.1Z"/>
    <path class="v" d="M378.25,209.66c.18-.04.5-1.27,1.75-.58,3.13,1.75,7.32,14.28,7.8,18.03,1.21,9.56-.96,17.41-4.74,25.99.77.75,8.14-5.66,10.29-5.72l14.52-.39c.56-.02,1.2,1.17,1.25,2.02.28,4.72-5.38,17.35-8.36,21.3-7.11,9.42-20.17,15.48-30.66,7.66.07-.88-.16-1.84-.07-2.72,1.98-19.81,6.55-40.93,8.83-61.05.16-1.39,1.17-3.68-.6-4.53ZM382.63,254.03l.02.91c.58-.32.57-.62-.02-.91Z"/>
    <path class="v" d="M808.82,376.91c6.45,1.22,14.21,5,14.87,12.31.08.9.01,1.82.07,2.72-.99-.34-6.76,4.92-8.02,6.1-11.21,10.48-21.65,22.03-32.71,32.68-2.4,2.31-5.94,5.56-8.91,7.04-1.05-14.64,12.32-31.96,26.27-36.13l-16.41-2.27c-2.38-7.64-13.5-5.59-4.43-13.48,7.92-6.88,18.84-10.95,29.26-8.98Z"/>
    <path class="v" d="M257.97,297.33c1.29.31,2.83,3.88,2.86,4.92l.37,13.61c.02.65-2.41,8.38-2.92,9.61-2.23,5.36-6.98,12.1-11.86,15.3,10.13-3.03,17.52-2.89,27.24,1.61,1.9,2.54-8.41,15.05-11.3,16.57-.84-2.17-5.88-1.84-7.97-.91s-7.38,7.18-8.15,9.51c-4.73.7-15.95-1.75-17.44-6.79-.28-.94.11-2.54-.1-3.63,9.82-19.87,20.73-39.33,29.28-59.8Z"/>
    <path class="p" d="M378.25,209.66c1.78.86.76,3.14.6,4.53-2.28,20.13-6.85,41.25-8.83,61.05-3.34.47-3.71-.05-4.47,2.84l-13.64-.54c2.32-9.3-.14-24.03-4.51-32.56l4.73,2.01,8.2,5.81c.22-4.27-1.29-7.87-1.23-12.19.17-11.12,7.25-28.48,19.15-30.95ZM360.81,253.71l.02.91c.58-.32.57-.62-.02-.91Z"/>
    <path class="p" d="M394.8,318.16c-8.52-.32-14.01-11.19-13.15-19.09.95-8.74,4.43-10.23,11.15-4.46,2.95,2.53,3.47,5.62,6.12,8,.13-9.91,8.82-20.64,19.05-21.38,2.24-.16.92.74,1.33,1.76l-19.25,33.96c-.53.44-1.27.07-1.63.19-.47.16-3.42,1.01-3.61,1.01Z"/>
    <path class="p" d="M262.36,358.95c.3.77.47,9.08.35,10.49-.16,1.83-2.79,1.23-1.77,4.07,3.77-.78,6.72-3.85,10.53-4.6,5.03-.99,15.37-1.11,18.51,3.82-1.38,2.22-5.46,2.87-7.88,3.58-9.56,2.8-22,5.27-30.86,8.35-.3-2.22-3.44-1.52-3.68-1.72-.31-.25-1.93-6.76-2.04-7.66-.3-2.56-.09-5.3.72-7.74.77-2.33,5.95-8.53,8.15-9.51s7.13-1.26,7.97.91Z"/>
    <path class="v" d="M289.98,372.73c.59.93,1.49.69.56,2.68-3.1,6.63-15.61,12.38-22.88,11.55,1.65,2.04,3.91,2.14,5.81,4.59s2.84,5.87,3.63,8.76c-11.28,3.36-28.07.75-27.63-13.77.53-.21,1.31-1.7,1.77-1.86,8.86-3.09,21.3-5.55,30.86-8.35,2.43-.71,6.5-1.37,7.88-3.58Z"/>
    <path class="v" d="M419.29,283c3.71,9.37-1.02,18.09-7.51,24.71,5.91-1.81,10.13-.16,15.45,2.4-1.14,10.39-24.01,20.64-28.75,9.77-.25-.57.11-1.94-.07-2.72.37-.13,1.11.25,1.63-.19l19.25-33.96Z"/>
    <path class="aj" d="M172,343.23c.31.85,1.57,1.8,1.89,2.67,2.14,5.76,3.9,11.61,6.82,17.07-2.39-1.13-6.76-.81-9.18-3.38-2.23-2.38-3.19-7.84-4.83-10.76.94-.99,1.83-5.74,5.3-5.59Z"/>
    <path class="p" d="M200.3,416c.22,1.81-.25,3.95.19,5.67.22.86,1.73,1.26,1.82,1.54,4,12.55-7.25,31.21-18.75,36.62-5.27,2.48-29.49,7.14-31.91.45-2.62-7.27,7.52-26.1,14.06-30.62l6.66-4.73c-5.45.81-10.77,1.41-16.31,1.34-14.82-.2-29.76-6.25-39.04-18.07-1.34-1.7-7.58-11.97-6.32-13.39,29.45,5.69,58.39,13.9,87.78,19.87.91.18,1.63,1.28,1.81,1.32Z"/>
    <path class="v" d="M280.89,473.75l54.56,35.77c1.81,1.97-5.07,2.85-5.82,2.86-3.34.06-14.81-1.81-17.8-3.15-1.12-.5-8.81-6.36-10.1-7.54-2.67-2.43-4.64-6.12-7.58-8.33,1.76,7.74,2.51,15.38-1.21,22.73-.33.66-2.66,1.98-2.63,3.7-5.3-2.71-5.81-2.52-11.09-6.96-1.54-1.3-2.25-3.29-4.66-4.41-2.86-6.31-4.75-12.03-5.96-18.9.05-.59-.15-1.3-.05-1.81,1.01-5.01,4.08-12.64,9.62-13.88.8-.18,1.86.05,2.72-.07Z"/>
    <path class="p" d="M245.81,486.5c.14,0,2.62.77,2.75.83,15.16,6.84.64,36.35-5.13,11.95-.99-1.02-6.51,6.86-7.93,7.95-3.09,2.37-12.14,5.93-12.72.77,5.33-1.61,19.31-21.65,23.04-21.5Z"/>
    <path class="v" d="M245.76,484.69c.17.41-.08,1.26.05,1.81-3.73-.14-17.71,19.89-23.04,21.5-.78-6.98,4.85-13,10.46-16.17-3.88-.21-13.04-2.28-8.89-7.54,4.54-5.74,18.07-7.39,21.42.39Z"/>
    <path class="aj" d="M301.25,521.32c-.51,1.53-.22,3.88-1.67,5.49-.87.21-2.33-.86-2.75-.83-1.54-1.99-4.36-5.07-6.53-6.18-.04-1.72,2.29-3.04,2.63-3.7l8.32,5.22Z"/>
    <path class="ae" d="M149.05,553.57c.6.29.61.59.02.91l-.02-.91Z"/>
    <path class="ae" d="M682.09,781.61c.6.29.61.59.02.91l-.02-.91Z"/>
    <path class="ao" d="M382.63,254.03c.6.29.61.59.02.91l-.02-.91Z"/>
    <path class="ao" d="M360.81,253.71c.6.29.61.59.02.91l-.02-.91Z"/>
  </g>
  <g>
    <path class="o" d="M852.32,459.43c-1.83-1.37-3.6-2.85-3.33-5.51.02-.2,2.51-2.85,2.7-2.85.73-.01,2.33,1.2,2.52.98.14-.16,1.15-4.15.95-4.22-2.11-.8-2.98,1.55-4.23-3.61l-9.56-2.31c1.66,2.13,6.46,5.35,7.53,7.66.81,1.74-1.42,2.14-2.03,1.61-.22-.2-.08-1.78-1.1-2.53-.3-.22-4.74-2.41-5.88-3.07-8.34-4.84,5.01-5.1,5.6-5.89,1.73-2.3-4.29-2.01-2.2-4.12.33-.33,1.8.68,2.59.48,1.09-.27,3.69-2.64,4.7-1.72.44.41-.83,2-.9,2.71-.06.66,1.59.28,1.84.54.42.45-1.24,2.5-.76,3.03.71.77,3.19-5.79,3.99,1.78.16,1.49-.84,3.25-.72,3.37.84.83,3.74-1.63,3.95-2.87.28-1.64-2.41-4.18-2.06-4.5,1.48-1.36,4.7,3.68,4.65-2.23,2.93,3.65,11.18,9.61,1.77,7.29.27,1.84,3.05,1.9,3.79,2.98,1.03,1.51-3.66,4.17,4.75,3.07l-4.06,4.3c1.5-1.44,7.69-1.8,8.31-2.33.34-.29-5.04-5.82-2.32-8.31,29.27,51.72,68.04,98.32,96.8,150.38,4.09,7.41,17.46,32.02-1.09,29.15-8.58-1.32-15.21-13.45-17.53-13.81-1.25-.19-3.23,1.7-5.08,2.04-9.16,1.67-15.5-2.1-22.19-7.71-2.11-1.77-8.43-9.42-9.13-9.75-1.82-.85-4.36-.22-6.39-.79-20.03-5.68-47.5-63.79-58.54-82.52-10.42-17.67-22.55-39.09-35.19-54.94,3.4-.13,2.78-1.24,4.02-2.52,3.54-3.64.8,3.38,1.51,5.77.7,2.35,6.52,10.63,9.44,7.87,2.14-2.02-6.09-4.17-4.34-6.17.29-.33,1.62.9,2.49.74,1.46-.26,2.26-2.57,3.22-2.99,2.11-.92,1.41,1.69,2.21,2.98,1.45,2.33,4.91,2.77,2.72,6.3,1.6-.82,6.12,2.18,6.34,1.94.93-1.01-2.77-4.18-3.51-5.46-1.87-3.22-3.91-8.12-6.33-11.34-.73-.97-3.2-1.61-3.23-2.24-.02-.44,1.75-1.47,2.02-2.16.42-1.06-2.62.35-2.13-1.5,5.58-1.52.99,4.49,5.91,5.08.21.03,1.44-4.09,3.59-2.2,2.65,2.34-6.72,3.02-4.03,5.34.16.14,1.75-.91,3.12-.7,1.48.23,8.99,1.27,9.34,1.59.33.29,0,1.86.53,2.56,2.63,3.45,5.67,7.75,8.28,10.93.94,1.14,2.75,1.33,3.26,2.26,1.16,2.14-2.38,1.28-2.03,2.14.71,1.76,2.9.43,3.02.59.36.48,3.18,7.04,4.27,9,.97,1.73-.26,5.38,4.57,3.19l3.21.49c12.66,19.59,25.39,39.17,38.21,58.74,2.01,2.45,4.32,4.69,6.92,6.7-1.3,5.04,4.51,11.63,8.85,14.57,3.66,2.37,4.86,4.63,3.61,6.77,3.66,3.85,6.69,7.99,9.09,12.43,5.18,3.54,9.42,8.29,12.71,14.24l11.15,8.3c8.54,13.36,10.32.99,3.27-6.12-.65-3.82-2.98-7.39-6.98-10.73,1.81-5.63,1.55-7.7-.76-6.21-4.68-2.25-8-8.74-9.96-13.47-5.22-3.73-8.38-9.08-9.48-16.05-2.89-.61-4.75-3.11-5.58-7.52l-9.5-10.83c-.56-3.73-1.89-6.22-3.99-7.45-1.9-6.26-5.07-10.86-10.5-14.1-6.61-13.99-15.44-27.13-24.99-39.66-3.12-10.08-16.68-13.39-25.33-15.46-.46,3.75-2.59,3.26-6.39-1.45Z"/>
    <path class="ab" d="M865.06,426.6l2.33-.91s13.47,3.38,40.41,10.14l.5,1.13c1.67-.54,3.75-.74,5.23-.14.83-1.83.12-3.1-1.96-2.78.91-.8,1.31-1.6.77-2.42-.23-.71-.04-1.69.1-2.44l.86-.73c2.2,3.98,4.67,9.65-1.23,10.56-12.79,1.98-33.89-9.38-46.98-11.36l-.03-1.05Z"/>
    <path class="q" d="M852.32,459.43c.54.41,3.4-.1,3.24,3.05,3.26-.59-1.48-4.93-1.2-5.19.31-.29,7.07,2.29,7.95,2.91l.46-2.1c1.85-.47.69,1.64,1.14,2,.61.48,3.89-3.59,3.15,2.08l4.12-2.21c-.78,4.02,1.58,2.58,3.14,3.7,2.68,1.92,7.89,4.61,9.77,7.17.78,1.06.78,3.09,1.71,4.39,6.56,9.15,13.53,18.28,18.91,27.66,2.06,3.59,4.49,10.35,6.89,13.06,1.52,1.72,2.61.39,3.95,2.1.79,1,4.95,8.34,5.55,9.6.36.75-.02,1.84.16,2.25.14.32,2.62-1.55,3.1-1.13.27.23-.77,4.53.5,7.04.94,1.86,8.7,9.23,10.37,12.17,1.01,1.76,1.18,5.14,1.52,5.46.42.38,2.06-.2,2.67.29,2.6,2.06,3.27,9.83,3.96,10.99.2.34,5.32,5.2,5.65,5.43,1.64,1.1,3.99-.48,4.77,1.33.47,1.08-4.33-.37-3.07,2.16.35.7,6.06,8.95,6.5,9.3,2.22,1.78,1.84-.42,2.6-1.67,3.88,3.06,2.11,5.96.74,9.86l7.29,6.92c-1.57,6.59,2.24,3.62,2.46,3.9.29.36-.21,2.39.11,3.45.29.97,2.01.51,1.99,1.18-.04,1.4-2.55,3.06,1.25,2.62.48,1.76-1.41.7-1.84,1.21-.15.17-.11,4.02-.07,4.49.06.77,2.12.47,2.14,1.17.02.8-.83,1.93-.83,3.12,0,1,1.19,2.34.95,2.56-.11.11-3.02.18-3.14.08-.17-.14,1.24-3.24.45-4.26-.67-.87-2.96-.21-4.72-1.37-2.35-1.54-3.1-4.04-4.94-5.65-8.82-7.71-10.97-5.12-16.91-16.64-1.56-3.03-5.59-4.62-7.34-6.21-2.5-2.27-2.35-8.49-5.32-5.68.94-2.16-5.31-8.03-5.34-8.78-.03-.67,2.47-2.18,1.88-2.67-.51-.42-2.97,1.37-3.1,1.14-.23-.42.12-1.94-.66-3.06-.72-1.03-2.39-1.27-3.1-2.16-1.3-1.63-7.77-10.6-8.23-11.77-.4-1.03,2.46-.06,2.06-1.09-.91-2.34-4.36-1.7-4.83-2.45-.76-1.23.56-2.62.28-3.03-.21-.31-1.72-.48-2.33-1.21-9.1-11.13-18.57-28.46-26.46-41.06-4.68-7.47-7.94-13.51-13.53-19.64-2.19-2.39-2.88-4.11-3.34-7.25-.75-2.19-1.48-3.22-2.18-3.09-2.43-5.19-8.12-11.16-10.92-16.47Z"/>
    <path class="ai" d="M729.01,432.36l-.51,1.07c-2.36-.43-4.56-2.7-4.83-5.12.76-.02,4.3,3.18,5.35,4.05Z"/>
    <path class="o" d="M848.36,429.15c2.99,2.88-8.05,3.18-5.23.14.18-.19,5.04-.32,5.23-.14Z"/>
    <path class="o" d="M832.57,426.43c1.95,1.89-2.52,3.51-4.16.63.33-.92,4.01-.77,4.16-.63Z"/>
    <path class="o" d="M866.22,430.76c.17.2,1.38,5.02,1.18,5.2-3.01,2.94-2.44-6.65-1.18-5.2Z"/>
    <path class="o" d="M844.74,450.21c.14.11-1.27,3.26-1.48,3.17-1.28-.53-2.35-3.3-1.68-4.14.1-.13,3.03.87,3.16.97Z"/>
    <path class="o" d="M865.42,478.99c-3.46.81-1.59-1.82-2.18-3.09,3.23-2.48,1.75.18,2.18,3.09Z"/>
    <path class="o" d="M828.75,440.16c3.54,3.42-7.18,1.1-5.23.15.34-.17,5.04-.33,5.23-.15Z"/>
    <path class="l" d="M684.73,422.02c-.68.23-2.23,1.86-3.11,1.12-.38-.32,2.45-2.87,1.98-4.24.98,1,1.36,1.33,1.13,3.11Z"/>
    <path class="o" d="M838.57,415.78c2.48.33,4.81-1.44,4.24,1.98-1.37-.53-3.3-.15-4.24-1.98Z"/>
    <path class="o" d="M820.49,444.57c1.72,1.64-1.88,3.07-3.08,2.17-.6-.45,2.19-3.02,3.08-2.17Z"/>
    <path class="ag" d="M683.57,417.86c-2.71,7.36,4.57.59,8.69.58,1.12,0,1.39.37,1.47.45,1.53,1.64-2.05,7.42-4.95,11.58-4.33,3.2-8.66,6.41-13,9.61-8.22,8,28.45,1.39,25.41,9.79,9.3-6.55,12.47-10.19,13.4-12.33.17-.4,1-2.44,2.65-4.87.8-1.18,1.56-2.08,2.07-2.67.08-.24.96-2.93,3.22-3.53,2.38-.63,5.53,1.26,6.44,4.84,5.41-.24,6.66.31,6.79.87.27,1.14-4.21,2.31-8.5,7.02-1.49,1.64-2.18,2.85-3.24,4.49-2.01,3.11-5.18,7.48-10.1,12.65,3.14,8.79,27.67-1.54,34.5,9.1.8,1.25,2.51,5.56,2.03,5.84-.28.16-1.04-1.18-2.84-1.97-1.07-.47-2.09-.56-2.82-.56-12.44-.15-27.82.74-45.08,4.21-13.65,2.74-25.49,6.5-35.29,10.3-1.66.65-3.95,1.77-6.19,3.74-3.98,3.5-5.28,7.48-6.8,7.15-1.3-.28-1.59-3.43-1.62-3.58-1.21-7.69,6.92-11.93,12.24-15.54-1.16-.59-3.07-1.38-5.53-1.55-4.42-.31-7.68,1.58-9.18,2.47-3.2,1.9-5.08,4.39-6.05,5.92-1.14.16-2.51.18-3.14-.61-1.52-1.93,2.19-7.64,5.03-10.75,4.51-4.95,10.2-7.06,23.2-9.87,16.76-3.62,26.54-4.27,26.53-4.38-.19-2.91-55.07-1.4-68.62,16.63-8.88,9.78-2.6-17.22,6.05-15.4-.59,1.08-.02-1.05-1.27-1.5-12.87-4.51-31.03,6.56-33.48,3.53-.74-.92,0-2.46.72-4.03,4.59-10.11,18.49-12.45,20.76-12.8,5.84,1.32,19.04,3.47,34.44-1.56,18.4-6.02,28.61-18.59,32.06-23.28Z"/>
    <path class="af" d="M700.17,458.5c-1.6,3.53-4.71,8.84-10.13,10.29-1.53.41-2.73.3-3.5.35-3.52.24-11.09-.4-21.07-.06-12.74.44-21.26,7.4-21.82,6.3-.35-.68,3.02-3.26,5.55-4.64,1.64-.9,3.15-1.42,7.4-2.13,16.75-2.79,25.38-2.21,29.56-.89.38.12,1.5.5,2.89.28,2.09-.33,3.42-1.8,4.67-3.12,1.47-1.55,3.58-3.7,6.45-6.37Z"/>
    <path class="ak" d="M628.38,449.74c5.55.59,6.47,1.68,11.56,1.83,9.52.28,16.71-3.21,16.86-2.73.12.37-4.33,2.11-4.62,2.23-3.39,1.32-6.34,2.05-8.48,2.47-6.67-1.46-12.38-2.02-16.66-2.23-5.61-.27-9.97-.46-15.6.74-5.01,1.06-8.92,2.76-8.98,2.59-.04-.1,1.44-.83,8.2-3.59,7.51-1.82,13.52-1.75,17.72-1.3Z"/>
    <path class="h" d="M736.2,465.7s.08,1.05.03,1.05l-19.37.52c-1.07.03-4.41,2.24-6.77,1.22-1.42-.61,3.72-2.19,4.65-2.21,3.31-.09,20.22-1.12,21.46-.58Z"/>
    <path class="f" d="M715.66,442.15c-2.08,3.99-4.02,5.86-6.77,9.36-1.23,1.57-.81,1.66-3.42,1.39,2.74-4.16,6.62-7.36,10.19-10.75Z"/>
    <path class="l" d="M671.47,434.96c1.07-4.28,6-7.8,9.12-10.73-1.07,4.28-6,7.8-9.12,10.73Z"/>
    <path class="k" d="M695.28,463.65l8.14-8.59c-.65,3.31-4.94,7.81-8.14,8.59Z"/>
    <path class="an" d="M715.66,442.15c.67-1.29.57-3.74,3.02-4.27.64,2.35-1.68,3-3.02,4.27Z"/>
    <path class="am" d="M908.29,436.96c1.8-1.61,5.99-3.94,5.23-.14-2.73,2.76-4.01.24-5.23.14Z"/>
    <g>
      <path class="j" d="M555.3,268.25c-.37-11.65,1.34-13.65,2.46-13.95,1.05-.28,2.34.73,3.41,1.57,2.89,2.26,4.08,5.24,4.35,5.89,3.12,7.66,6.78,16.67,12.94,18.93,2.55.94,3.56-.13,6.53,1.42,2.24,1.17,3.81,3.13,6.5,6.18,5.61,5.96,8.48,19.63,18.59,18.14,2.43-.5,4.98-1.25,7.45-1.01.78.02,1.38.02,2.05-.09.57-.13.9-.23,1.03-.46.24-.42-.08-1.01-.18-1.21-2.66-5.11-4.28-10.7-6.49-16.02-.39-.94-.57-1.75-.66-2.22-.04-.23-.12-.6-.12-.9,0-1.43,1.23-2.2,1.78-3.15.45-1.05-.26-2.05-.65-3.12-1.44-3.29-3.12-7.69-2.31-11.25.4-1.52,1.68-2.55,3.34-1.96,4.21,1.91,6.37,6.61,8.8,10.43,2.73,4.85,4.94,9.78,8.27,14.12,5.28,6.67,10.09,12.86,16.03,18.54,8.23,6.3,15.78,13.96,24.17,20.21,7.52,5.57,17.05,9.01,25.49,12.93,4.87,2.56,9.66,5.38,14.19,8.54,9.03,6.5,18.99,11.91,28.35,17.86,15.36,10.07,31.65,18.82,48.17,26.91,19.33,9.38,39.66,16.23,59.42,24.02,5.1,1.68,11.53,2.85,15.66,6.4,2.98,2.39,4.76,6.02,6.23,9.38,1.67,4.08,4.04,8.45,5.24,12.55,1.52,5.02-.71,10.2-6.08,6.22-1.8-1.37-3.06-3.6-4.38-5.35-1-1.33-1.83-1.81-2.7-1.17-1.96,1.74-3.23,4.01-4.55,6.45-3.5,6.27-.13,10.68,3.53,15.72,3.52,5.71,8.09,11.42,7.93,18.24-.3,1.91-1.63,1.38-3.01.36-2.67-2.06-4.37-5.4-6.14-8.26-2.08-3.51-4.29-6.54-6.61-9.9-2.22-3.21-5.04-6.6-8.54-8.33-5.83-2.06.39,7.77-2.18,9.38-1.41.86-5.06-1.53-7.26-2.08-1.23-.35-2.18-.35-3.3-.21-3.49.9-6.38-.79-9.04-3.52-18.78-20.88-38.87-43.65-68.56-46.37-3.91-.18-6.38,3.25-8.61,6.16-2.36,3.11-5.17,5.98-8.21,8.45-3.11,2.63-6.56,4.72-8.17,5.41-.54.24-1.14.45-1.65.15-1.2-.84-1.18-3.34-2.52-4.03-1.77-.89-6.49,2.47-7.72.56-.78-1.39.29-5.93-.99-10.12-.31-1.04-.72-2.03-1.23-3.01-1.64-3.01-7.43-11-11.15-7.76-2.43,2.49-3.88,6.32-6.29,8.98-2.68,3.14-6.2,6.43-9.5,8.93-1.64,1.13-3.61,2.88-5.52,2.77-1.33-.22.06-3.52.66-5.44.75-2.57,2.07-5.19-.68-5.55-.99-.15-2.28-.05-3.05-.65-.49-.42-.71-1.07-.97-2.26-.38-2.1-.72-4.54-1.44-6.65-2.26-6.09-7.69-12.98-12.21-18.18-10.06-11.56-23.37-15.59-24.82-16.21-32.07-13.8-54.48-45.46-67.34-63.64-7.39-10.44-14.42-22.64-16.87-38.67-.58-3.8-.78-6.98-.85-9.12Z"/>
      <path class="d" d="M608.67,87.65c1.85.78,1.75,2.01-.13,2.74-17.14-1.71-31.83,1.02-47.46,6.93-1.3,5.01-.57,5.54,2.18,1.58,2.79.6,5.62,1.56,8.5,2.85,2.56-9.98,11.79-11.12,8.21.04,4.04-4.8,12.45-1.12,15.31,3.33l1.54.13c.36-8.22,11.92-5.22,13.03,1.74,2.13-1.76,4.88-2.63,8.26-2.62,2.3-6.77,9.49-4.7,12.32.71-1.26-2.9-2.39-5.96,1.62-5.49,22.7,17.55,25.61,42.64,37.43,67.11,1.18,3.29-2.04,3.01-3.68-.37-5,2.64-8.9-2.46-7.9-7.42-1.99-2.73-3.62-5.3-4.89-7.72-4.55.49-6.6-.95-9.68-3.39-.95,2.48-2.52,4.58-4.71,6.3,6.45,3.5.17,6.76-4.8,6.79,4.54,2.51,10.84,8.43,3.76,11.38-3.08-2.38-4.48-1.21-4.19,3.5-1.24,1.29-12.94,2.37-12.96-2.41h-2.8c-.26,3.27-2.17,8.13-6.24,6.97,1.81,5.17-3.27,7.97-5.42,2.74-6.55,2.35-16.43-.72-6.59-4.94,1.43-4.53,3.99-6.6,7.69-6.21-.55-2.9-.84-5.81-.88-8.73,3.86-2.03,6.55-4.4.36-4.26-3.53-3.19,6.28-12.77,9.96-7.33,2.41-.88,4.95-1.16,7.6-.83-1.16-4.41-2.35-8.83-3.59-13.27,3.51-8.47-.09-9.92-10.81-4.37l-2.5-1.66c-.84,2.37-1.92,3.55-4.44,3.72-1.59,4.94-8.2,4.53-5.37-.08-1.25-.55-.93-1.61.96-3.17l-1.07-1.13c6.54-16.14-15.13-22.38-20.1-6.69,2.06,1.81,1.56,2.59-.96,3.17,1.86,3.81,4.52,7.83,8.63,9.2,3.66.58,7.48-.12,11.44-2.1l1.1.72c.95,5.26-2.29,7.16-7.11,6.37l-1.96,1.95c-6.32-.76-7.04,1.04-2.16,5.39l-.35,1.67c-4.11,2.27-3.01,6.16,3.29,11.68l.11,1.65c-3.34,1.99-3.51,4.86-.5,8.62-.46,2.83-.31,5.49.47,7.96q-1.62,1.52,0,0c3.36-1.12,8.26,1.83,8.61,3.52,13.68-1.73,6.39,11.37-3.33,4.97-.54,5.88-2.41,8.53-5.61,7.94.42,2.02.37,3.88-.13,5.59,1.5,1.29.86,1.82-1.02,1.08-.53,2.03-1.47,2.08-2.09.06-4.03-.16-4.02.19.03,1.05,2.44-.87,2.85,1.68,1.13,3.11-7.18,1.76-10.67,6.29-14.08,11.89,3.95,4.63,1.42,8.99-4.27,5.66,2.19,2.48,4.15,5.13,5.89,7.93l.65,3.7c-5.21,5.18-.65,7.55,4.47,4.93,3.51-4.26,7.04-2.65,5.33,2.86,2.41-1.01,4.14-.11,5.33,2.12,10.53-.2,9.02,10.26,7.11,17.95,2.57,1.03,2.81,2.98,2.15,5.46,1.39-2.53,3.51-4.33,5.69-6.14-2.78-3.61-6.34-9.21.24-10.27,2.37-3.04,2.82-6,1.35-8.9,4.08,2.72-.53,12.11-4.58,6.72-3.43-4.56,2.03-11.73,4.58-6.72-3.34-1.23-4.1-5.37-.13-6.7.7-3.9,2.35-6.02,4.95-6.36,1.46-3.22,4.91-3.52,4.27.24,1.91,1.75,1.11,9.19-1.84,9.48.91,2.34.95,4.09.14,5.24,2.4-1.09,3.07.08,1.1,2.07.12,5.43,1.14,10.75,3.07,15.93l-1.54,1.84c-4.36-2.79-.37,2.14-1.14,3-.26.29-3.53.13-1.84,2.3.18.23,5.7.05.03,2.62,1.35.72,1.79,4.15,2.38,4.52,1.02.63,3.55-.29,4.03.06.06.05-.54.89-.35,1.56.22.76,1.08,1.58,1.06,2.04-.02.47-1.19,2.94-1.53,4.79-1.71.65-4.93-3.49-5.31-3-1.32,1.7,2.43,6.43,3.86,7.23,2.36,1.31,1.28-3.32,1.45-4.23,7.95.08.69,9.1,1.29,9.39.6.29,4.8-.9,3.2,2.02-.08.15-3.53-1.6-2.98,1.5.55,3.08,8.66,5.27,6.37,7.83-.81.9-3.67-4-3.57,3.24-1.51-.97-1.07-4.94-3.26-4.93-4.7.02-.93,4.5-1.46,5.06-.23.24-1.04-.51-1.53-.38-1.16.31-4.99,2.67-5.76,1.62-.63-.86,1.32-4-2.18-3.08-.86,3,3.9,3.69,4.25,4.19.45.65-1.1,2.35-.72,2.88.14.2,1.73,0,1.95.77.55,2-2.65,9.76,1.75,8.72,2.1-.5.02-5.19,1.97-5.27,1.46-.06,1.27,3.73,1.6,4.53.47,1.12,3.09.7,3.25.55.27-.24-2.49-4.33-.91-7.06.19-.32,1.86-.2,1.8-.9-.07-.82-1.52-2.15-1.16-2.5.39-.37,3.81.74,4.07,1.08.87,1.17-.86,4.27,1.29,4l.61-16.79c4.04-1.14,1.09,5.25,2.75,5.18,1.55-.06-.99-5.29,1.42-5.28.7,4.54,1.7,6.58-2.87,8.98l10.62,5.99c-.46,2.6-6.69.47-7.76-.2-1.53-.95.62-4.1-2.79-3.17-.88,1.37.13,5.88-.04,6.14-.34.52-2.92,1.01-2.88,1.8.05,1.16,4.69,3.48,5.29,2.49.45-.75-1.1-3.43.95-3.17-.09,1.27,1.43,4.76,1.22,5.6-.33,1.31-4.53-.39.62,3.77,3.01.33.67-3.34,1.9-5.4.5-.83,2.11-.1,2.68-.58,1.76-1.49-.54-3.27,4.11-1.57-8.09,5.53,2.21,7.95,2.31,8.83.05.46-1.85,2.48-1.99,3.22-.15.79,2.11.25,2.04.89-.24,2.05-1.74,6.84-1.53,8.6.17,1.45,3.77.68,2.96,2.97-.9,2.54-1.97.96-3.13.1-.89-.66-4.28-4.81-5.33-3.52-.13.16-.04,4.05.11,4.19.29.28,4.58-2.46,4.23,1.98-2.49-1-4.19-.6-6.23-2.56-2.97-2.84-.86-6.74-6.79-2.34-1.42,1.05.08,4.57-3.88-.92,3.37.21,1.2-1.46,1.58-3.23.41-1.92,3.36-1.09-1.25-3.1l-.46,2.11c-2.68,1.42-1.9-2.4-2.66-2.01-.36.19-2.38,2.33-2.55,2.69-.19.41,4.85.03-.16,4.39-8.59,1.59-3.11-.92-3.15-2.21-.02-.77-2.51-2.06-1.95-2.56.75-.66,3.7,1.45,4.21.92.23-.24-.76-1.22-.44-2.07.14-.39,1.62-3.82,1.73-4.02.19-.34,1.51-.16,1.61-.33.31-.49-1.32-1.94-1.62-3.03-.08-.3-.35-5.95-1.64-4.16-.33.46.91,2.69-.71,3.19-.84.26-1.77-.42-2.39.71-1.75,3.18.32,4.19,1.64,5.59,3.02,3.19-1.69,1.16-2.81,1.37-2.1.4-5.18,5.8-6.55,1.03-1.31-4.53,1.8-7.16,1.51-7.43-1.12-1.04-2.84,1.3-3.33,2.51-.7,1.74.76,1.77-1.77,4.25-.91.89-.32,1.12-1.49-.36-3.58-4.52,1.5-2.46,1.91-6.81.26-2.82-1.42-2.9-2.08-3.66-2.65-3.07,1.05-1.15,1.21-1.29.29-.25.03-1.37.26-1.64.55-.61,3.62,2.45,2.98-.81-3.7-3.8-3.82-.41-6.22,1.72-.12-2.42-1.89-7.57-3.68-9.03-2.35-1.92-6.66.33-6.08-3.27,6.46-.51,7.39,2.49,11.67,5.97,1.19-5.08-4.46-6.13-5.42-7.21-1.36-1.53,2.14-3.2,2.53-3.18.7.04,7.64,12.24,9.17,10.22,1.03-1.36.52-6.97-2.27-7.27l-.93,4.22c1.22-3.56-1.59-4.02-1.81-4.41-.3-.54.3-1.5.04-1.87-.72-1.01-1.82.02-2.33-.32-4.68-3.09-4.25-11.64-4.79-12.02-1.71-1.2-4.52,4.07-6.15,4.35-1.22-2.68,3.07-4.52,3.04-4.82-.26-3.24-4.95-4.77-4.9-8.74,0-.88.26-1.91-.3-2.29-.58-.39-1.86.03-2.43.84-1.44,2.04,1.94,5.7,1.2,6.71-.21.29-4.88-2.5-5.32-3.53-.3-.71,3.24-.99,3.07-2.69-3.65,1.24-8.39-3.05-2.69-3.29.96-.04.53-2.84.42-2.94-.38-.37-5.87,2.14-6.05,2.41-.36.54-.19,3.88-.05,4.03.41.48,3.58-2.93,3.15.43l-3.06,2.71c-.65-7.62-4.32-5.26-8.89-7.32-2.17-.98-3.04-3.06-4.5-3.94-1.81-1.09-3.31,1.26-5.07-2.12-3.06-5.87,2.74-2.78,4.67-7.19.45-1.03-.17-7.83-.64-8.39-.89-1.06-3.83,3.53-4.06,3.68-.64.4-2-.41-2.05-.32-.23.4.02,2.16-1,4.17-1.01-3.18-1.83-6.4-2.45-9.66-1.99-10.43-1.5-18.74-1.12-24.06,0,0,3.7-51.58-1.04-60.43-.33-.62-.75-1.17-.75-1.17-.19-.25-.34-.41-.36-.43-1.55-3.37-2.42-7.91-4.33-11.59-2.17-4.19-10.22-16.43-13.76-18.86-2.31-1.58-11.54-3.88-14.89-4.74-2.78-.72-22.59-3.54-22.59-4.69-2.6-.67-6.58-1.15-11.94-1.45-7.81-1,6.52-14.07,7.47-8.91,9.87-2.4,22.08-3.85,31.44.2.51-1.3,17.46.02,16.63.03-4.7.07-11.2-.25-15.95-.55-.25-.02-.48-.24-.71-.53-3.89.33-2.96-.72.07-2.2,1.15-.56,2.5-1.6,2.93-3.12.38-1.65-.36-3.02-2.21-4.13-7.26,0-8.29-1.26-2.18-3.09-.06-.98,15.04-3.05,17.68-4.16,5.73-2.41,11.68-8.71,17.49-12,15.98-9.03,34.26-11.27,52.18-8.2Z"/>
      <path class="ah" d="M596.24,133.81c1.13-.65,2.09-1.5,3.04-2.37,1.94-1.86,4.35-2.99,6.48-4.2,1.88-1.02,3.45-2.75,5.44-3.36,2.05-.54,4.42.27,6.58.23,1.58.2,3.78-.44,4.92.46.63.62.74,1.63.75,2.56.05,2.81.2,5.63-.06,8.42-.23,2.44,0,6.53,1.98,13.74-.31.64-.66,1.06-.89,1.3-2.84,3.03-9.41,2.6-11.9,2.44-.56-.04-2.02-.05-2.37.34-.22.24.63,1.15,1.3,1.86.52.54.87,1.27.66,2.04-.43,1.81-2.21,4.5-3,6.42-1.17,2.57-1.31,5.48-1.79,8.23-.45,2.14-.9,3.23-1.97,4.03-.84.51-2.11.6-3.14.98-1.44.38-3.12,2.13-2.62,3.5,1.71,2.81,6.51,1.32,8.81-.03,1.49-1.11,2.59-2.61,3.66-4.19,1.94-2.08,3.48-4.44,5.5-6.62,2.15-2.09,3.59-.11,6.08,1.64,1.53,1.22,3.43,2.31,5.36,1.46,2.49-1.04,8.25-3.79,7.02-6.37-3.98-4.87-1.69-5.45-.07-10.62.47-1.55-1.17-2.59-.04-4.08,1.28-2.08,3.8-4.21,5.75-5.78,1.2-1.04,2.74-1.47,4.27-1.58,2.16-.04,3.35-1.54,5.09-2.43.24-.07.39-.16.63-.03.8.7,1.03,2.06,1.87,2.78.95.87,3.48,1.65,4.57,2.32.88.59.48,1.66.31,2.55-.37,1.9.3,3.26,1.08,5.38,1.05,2.09,1.51,4.28,2.75,6.12,1.93,2.42,4.92,3.3,7.54,5.66,4.24,3.74,7.09,9,11.09,13.2,16.53,17.42,41.21,28.18,59.51,44.35,3.89,3.43,8.77,6.75,10.86,11.58,1.62,3.95-.85,5.49-5.29,3.13-3.17-1.72-5.89-4.23-8.76-6.51-12.61-10.39-20.67-19.81-37.51-23.16-4.4-1.37-8.06-1.75-11.51-1.05-3.55.72-10.04,2.51-10.26,5.49-.21,2.84,5.41,4.54,4.9,6.34-.51,1.83-6.8,1.61-10.29,1.48-6.17-.25-9.35-.88-13.85-1.71-5.34-.99-11.15-.98-16.62-.31-7.21.58-12.73,5.84-18.93,8.86-8.9,3.94-9.74-4.21-6.15-10.56,3.89-6.74,10.85-9.52-.6-13.2-4.36-.81-12.24-5.2-15.59-1.53-1.96,2.55-3.47,5.56-6.75,6.99-2.27,1.22-6.84,1.75-8.32.13-1.1-1.36-.57-3.35-.42-5.17.27-1.8.24-3.69.37-5.49.24-1.95.31-3.19,1.18-4.56.8-1.22,1.82-2.32,2.03-3.8.35-1.44.32-3.81,1.32-4.23,1.69-.42,3.67.29,5.45.23.76-.01,3.07.49,2.4-.59-.32-.55-2.45-2.03-4.02-2.51-1.41-.54-3.11-.9-4.48-1.32-2.44-.77-4.25-1.69-5.94-3.25-1.62-1.67-4.38-4.85-5.5-6.32-.64-1.17,2.29-.31,3.49-1.16,1.91-1.79,1.58-5.35,1.56-7.73-.09-1.23-.12-1.46-.66-2.35-.39-.63-1.34-1.56-1.8-3.23-.63-2.35-.34-4.81-.37-7.22-.28-1.5-.85-5.69,1.46-9.88,2.7-4.9,8.28-7.84,14.41-7.71Z"/>
      <path class="am" d="M753.05,235.73c.46,2.54,3.7,5.48,6.45,6.11,26.69,26.29,66.78,70.6,86.37,102.15,3.84,6.19,6.74,14.57,10.77,19.86,9.8,12.85,23.16,27.14,34,39.5,6.54,7.45,18.08,16.8,22.66,25.09.33,1.54.01,2.6-.96,3.17,2.37,2.14-1.7,3.7-4.03,4.13-2.11.39-5.49.71-4.29-1.81-2.56-1.12-2.94-2.16-1.13-3.11.37-1.45,1.21-1.54,2.51-.29-1.9-.35-2.98-1.84-3.24-4.47-5,1.2-6.34-.83-5.56-5.66-3.19,1.04-6.71-.78-4.58-3.95-.61-.74-1.66-1.06-3.17-.96-6.81-9-14.04-17.94-21.69-26.82.45-3.3-.6-4.16-3.57-3.88-3.89-4.81-7.9-9.54-12.03-14.19-4.03,4.42-17.61,5.05-14.33-2.27l-.67-.84c-8.75-1.36-13.13-4.33-13.14-8.92-1.69-1.01-2.1-1.67-.06-2.09l1.98-1.33c6.72,4.65,13.7,7.59,20.95,8.81-1.65-.42-4.08-4.88-4.76-6.69s-.49-3.45.01-5.24c-2.6-2.28-4.57-5.39-5.89-9.31-10.19-13.66-21.21-26.63-33.07-38.9-4.32-.13-5.33-1.5-4.73-5.45-2.03-2.17-4.29-3.85-6.76-5.04.17-2.26-.89-3.61-3.19-4.07-.17-4.03-2.56-8.28-6.39-9.22-.83-3.02-3.58-6.82-5.93-9.24-4.91-1-5.98-3.8-5.03-8.29-4.3-6.39-9.15-11.85-14.55-16.36-4.99,0-7.31-1.34-6.96-4.02-2.9,1.43-3.93-1.55-1.13-3.11,0-2.01,1.1-4.47,3-5.32.73.66,1.43,1.36,2.15,2.04Z"/>
      <path class="t" d="M609.61,87.36c6.61.36,12.92,4.77,18.38,8.1,3.31,2.27,6.37,5.55,5.4,9.31-.18.67-.48,1.33-1.12,1.58-1.05.42-3.3-1.15-5.31-1.85-2.09-.74-4.05-.21-6.14.62-3.44,1.03-6.98,4.92-10.5,3.71-.89-.5-1.63-1.48-2.3-2.22-.6-.67-1.09-1.34-1.93-.86-1.65,1.25-2.5-.21-3.85-1.14-.38-.27-.74-.39-1.02-.1-.88,1.1-1.51,2.8-3.34,2.58-1.63-.16-3.37-1.05-4.89-1.79-4.97-2.9-7.52-3.25-12.81-1.61-2.97.86-2.4-3.08-2.72-4.93-.06-.45-.04-.9-.19-1.29-.25-.7-1.66,1.53-1.93,2.37-.62,1.81-1.62,4.5-2.83,6.38-1.09,1.99-2.72,4.67-4.58,3.37-.71-.7.12-2.22.19-3.87.11-1.43-.43-2.99-2.01-3.33-2.57-.28-5.22-.49-7.27.92-.82.56-1.06,2.11-1.85,2.9-.87.73-1.53,1.31-2.63,1.84-.42.19-.84.4-1.16.75-.43.45-.73,1.07-1.09,1.59-.84,1.3-2.69,2.3-4.3,2.4-1.68.14-3.51-1.27-2.95-3.07.33-1.07,1.25-2.03,1.99-2.89,1.62-1.8,2.63-3.31,3.83-4.71.85-1.01,1.7-1.83,2.82-2.12.96-.24,1.78-.41,2.63-.98,1.94-1.07,4.11-3,6.12-4.21,3.7-2.15,8.01-3.11,11.96-4.71,10.85-3.83,23.61-2.64,35.25-2.75h.16Z"/>
      <path class="ap" d="M526.54,110.48c-2.87.77-5.11,1.53-6.67,2.11-1.33.49-2.59,1-2.54,1.49.04.37.81.57,1.21.67,2.49.62,6.1.09,8.68-.46l-3.99,2.23c-1.05-1.18-2.67-.92-3.89-.27-.62.95-2.08.64-3.14.08l-1.38,2.37c-5.85,1.02-11.62,2.15-17.32,3.38-.37,1.58-2.44,2.69-6.2,3.31-.31.02-.95-.78-2.08-.37-1.27.46-8.78,6.74-7.14,7.95,1.18.87,12.24,1.44,14.71,1.71,4,1.94,4.79,2.5,4.73,2.64-.05.12-.7-.07-2.22-.37,0,0-.14-.03-3.41-.57-6.13-1.01-14.42-.59-15.54-3.24-.95-2.25,3.48-6.18,5.19-7.6,5.15-4.3,16.71-11.91,41-15.07Z"/>
      <path class="m" d="M557.04,271.4c-.22.43-.66.76-1.02,1.08-3.58-14-3.79-25.46-3.11-36.8.81-13.38,3.13-21.2,2.27-36-.58-9.99-2.37-18.09-3.8-23.4-2.1-5.46-2.3-6.8-2.04-6.93.26-.12,1.17.85,4.03,5.72,8.32,31.75-5.02,64.67,3.66,96.33Z"/>
      <path class="ah" d="M753.05,235.73c2.18,2.06,4.3,3.99,6.45,6.11-2.24,2-4.31-1.66-5.86-3.02-1.11-.98-5.98-2.14-.59-3.09Z"/>
      <path class="x" d="M755.54,250.33c2.88-.69,8.72,18.57,8.56,19.76-.33,2.55-1.92,9.13-4.05,9.95-.03.3-.04.63-.01.97.16,2.03,1.45,3.44,2.1,4.05,2.72,6.82-9.53,8.57-7.18.63-5.45-6.43-10.33-5.24-17.68-2.58l-6.02-.87c3.6,4.67-1.57,6.31-5.52,4.79-.08.85-.27,1.88-.93,2.21-1.81.89-5.88-1.23-1.19.15,3.03-5.69,9.44,2.36,2.56,5.53l.72,1.84c3.93,1.72,7.8,4.32,10.46,7.47l5.9,2.37c7.77-4.02,6.04,9.25.19,9.92-.62.07-10.27-4.73-9.92-6.67-3.57,1.67-5.65.04-7.6-2.99-3.58,6.53-8.6-3.5-8.39-7.97-1.1-.95-2.27-2.09-3.43-3.43-.63-.72-1.19-1.44-1.7-2.12-2.13-3.39-2.93-4.35-3.11-4.25-.08.04-.02.29-.21.52-.25.31-.72.31-.9.31-1.43.01-5.11-2.54-5.8-2.03-.26.19-.24.93.77,3.16-.36,5.15-12.59-.59-12.54-4.31-3.43,3.85-2.51,8.91,3.35,8.81,3.61,2.63,6.13,6.29,7.55,10.97,4.01-.03,7.58,1.07,5.4,5.78,2.46-2.97,6.1-3.05,7.58.81,4.42-.94,5.54,1.32,4.93,5.52,1.08.44,2.23,1.38,3.44,2.82-4.39-.2-5.15-9.58-2.02-10.59,4.47-1.45,9.77,13.88,2.02,10.59.47.69,4.63-.72,4.74-.98-.63-7.52,5.24-4.83,7.22.73,4.4,1.06,5.35,2.75,3.86,6.99.15.48,8.35-1.75,8.37-3.41,2.85-2.24,5.09-.73,6.79,2.01,2.95-1.9,6-3.28,9.17-4.13.66-10.03,13.36-1.52,15.96,4.62,3.97-2.38,4.81-1.39,6.73,2.18,12.03,8.05,24.2,16.06,36.52,24.03l1.12,2.97.06,2.09c-2.12,2.19-8.23,1.52-9.56-1.39l-7.04-4.02c-4.48,3.8-8.04-.19-8.05-5.1-6.76,1.32-11.82-2.24-15.17-10.7-3.2-.91-5.87-2.41-8.01-4.48-.81,9.9-8.48,6.63-8.31-1.79-.83-2.42-7.94,7.33-4.02,6.68,2.83-2.6,6.49-1,5.41,2.9,12.39,6.54,24.54,13.5,36.45,20.87l1.51-.88c3.98,2.3,8.24,4.95,12.79,7.94,2.93-3.49,9.98-2.11,8.94,3.41,5.29,2.35,10.66,5.03,15.62,8.26,3.59-1.5,5.28-.4,5.29,3.3l10.03,2.41c9.05-6.25,13.35,6.4,2.74,6.88-.16,3.74-4.1,4.36-5.26.81-15.9-6.68-31.44-14.19-46.62-22.55.39,7.2-5.93,5.97-5.34-1.16-6.43-4.4-13.25-8.77-20.46-13.1-6.51,2.47-8.77,1.18-6.79-3.9-5.78-2.98-11.53-5.76-17.23-8.36,0,2.76-1.62,4.86-4.37,3.91,1.09,4.87-4.82,2.43-7.53.67-1.36-4.57-6.37-13.82-8.06-6.56-1.51.92-3.31,1.09-5.39.51-.09,2.43-4.41-.98-4.18-.87,1.47.72,5.44,2.67,6.47,3.48.23.18.12.79-.08,1.52,11.44,8.67,5.21,9.45-5.01,8.52,21.98,13.88,46.67,27.83,70.48,40.36,33.27,12.54,66.56,24.56,99.86,36.05l1.49,1.76c.2.04.65.96,1.62,1,1.86.08,8.12-1.02,6.7-3.32.43,1.33,3.9,2.46,1.19,5.21-1.65-.23-3.4-.18-5.23.14-2.68-.22-5.19.32-8.03-.65-3.26-1.11-2.4-.67-5.65-1.48-9.99-2.47-19.54-6.07-29.55-8.23-4.52-.98-2.45-2.39-3.26-4.11-.05-.11-1.57.7-2.36.77-6.06.56-11.18-3.37-16.62-5.49-.77-.93-2.18-1.59-4.24-1.98-7.44-1-20.83-6.9-27.47-9.36-18.6-6.88-37.45-16.11-54.44-26.2-3.67-2.18-2.12-1.09-5.57-2.14-.32-.1-1.92-3.49-5.78-1.72-.53-2.06,3.66-.46,3.09-1.64-1.39-2.87-6.69-1.41-8.48-2.89-2.19-1.82.55-6.45-5.24-1.46-.14-1.25.32-2.92-.32-3.98-.7-1.16-11.15-5.17-13.26-6.47-.66-.41-.83-1.86-1.44-2.3-1.08-.78-3.02.84-3.13.69-.34-.52.24-2.79-.09-3.18-.08-.09-1.98,1.24-2.05,1.13-.25-.4.36-2.17-.29-2.88-.78-.86-5.54-1.29-6.68-2.14-1.86-1.37-2.57-3.67-4.45-5.02-3.28-2.35-10.6-2.54-10.95-3-.13-.18,1.11-1.94,1-2.11-.24-.35-6.52-.73-8.35-1.43-3.21-1.22-11.92-8.21-15.03-10.52-1.24-2.36-2.04-4.98-2.4-7.85-2.36-.51-6.67-5.89-5.76-5.98,2.73-.29,2.04,10.62-3.97.87-1.95.71-3.62.3-5.02-1.25-1.36-1.45-2.54-3.41-3.25-4.1-.28-1.39-1-2.07-2.15-2.04-2.67-2.09-5.35-1.24-6.42-5.07.81-4.27,4.73-1.71,6.73.74,5.56-2.56,8.53-.03,10.71,5.13,0-2.05-.16-4.56-.73-7.37-.46-2.27-1.09-4.24-1.72-5.87-7.43-3.76-7.38-14.34,1.65-12.37l.45-2.07c-3.74-1.84-4.77-5.91-.31-7.1-3.88-5-2.27-12.09,4.92-9.03,4.23,8.98,10.74,13.19,20.17,9.99-2.5-10.59,12.33-12.67,12.47-.92,4.24-3.55,5.64.13,6.71,3.95,2.28.17,4.55-.42,6.8-1.78,3.27,2.92,5.09,3.17,5.47.74,7.63,1.14,2.69-18.55-1.7-12.8-1.71,1.34-4,1.13-6.87-.61-2.88,3.94-5.16,1.56-7.38-1.56-5.77-8.11,1.25-10.98,8.51-9.43.74,4.21,7.99,2.59,9.82-.16,8.26-2.48,10.52-2.18,12.2,7.65-2.37,1.46-2.01,3.31,1.07,5.57.7,3.35,3.11,4.7,7.22,4.05,1.4,3.3,7.76,3.8,11.32,3.17,1.72-5.62,3.88-7.67,6.47-6.16l-1.02-9.77c-2.19-3.68-3.42-11.83,1.89-7.41Z"/>
      <path class="u" d="M674.52,217.05c-3.3-2.43-5.55-5.91-1.31-8.92,4.47-3.8,11.76-7.06,17.62-6.54,8.52,1.3,17.85,4.51,25.53,9.24,8.65,5.96,16.63,13.16,24.57,20.42,6.51,6.15,11.55,12.79,18.76,17.77,8.6,7.33,15.31,17.86,23.04,26.11,7.51,8.53,12.43,17.81,20.57,25.76,14.37,15.32,40.98,41.31,44.76,62.05-2.3,13.01-46.44-20.72-52.93-24.23-5-3.4-10.77-6.61-15.46-9.98-3.19-2.02-6.27-3.97-9.78-4.91-2.03-.42-3.82.64-6.07,1.97-2.18,1.32-4.72,1.89-7.21,2.39-5.63,1.14-10.73,3.51-16.04.8-2.83-1.57-5.36-4.38-8.1-5.89-2.32-1.22-4.41-1.27-6.33-2.62-4.26-2.89-4.05-1.96-8.37-.95-1.62-.07-2.79-1.59-4.12-2.39-2.23-1.55-5.71-2.93-8.26-4.83-1.59-.95-3.34-2.52-4.65-4.11-3.21-3.71-7.52-7.24-10.74-11.18-2.28-2.82-11.43-9.8-9.78-12.81,1.82-.57,4.2.37,6.1.12,3.64-.49,6.87-.51,9.07,2.77.89,1.07,1.18,1.61,2.79,1.4,8.18-1.92,14.7-.58,18.96,7.38,1.46,2.76,3.09,6.21,5.23,7.93,2.7,2.54,6.34,3.01,9.64,4.8,2.98,1.71,8.15,4.58,11.25,2.89.53-2-3.82-4.46-5.87-5.75-4.75-2.85-11.56-6.06-13.24-11.62-.22-1.19-.25-2.14-.76-3.19-.54-1.48-1.7-3-2.8-4.05-1.79-1.65,1.33-2.17,2.47-2.68,1.57-.72,3.14-1.35,4.94-1.46,1.78-.14,5.03-1.51,7.82-2.18,3.01-.72,6.28-.66,9.51-.09,3.85.56,8.68,2.89,11.47,4.24.7.29,1,.33,1.13.03.31-2.16.03-4.9.7-7.12,3.01-6.26,3-9.81.93-16.89-.49-1.81-3.2-9.29-3.11-3.44.02,1.28-.16,8.38-1.46,11.67-1.58,3.98-6.46,6.45-10.53,6.83-6.57.63-11.25-4.15-12.57-5.5-1.76-1.79-3.42-3.7-5.65-8.14-1.25-2.48-2.15-5.47-4.82-6.48-2.73-.82-5.47.83-8.49,1.13-2.45.84-13.69-2.29-11.29,2.8,3.8,4.39,11.34,1,15.43,4.94,3.12,2.69,2.94,7.33,1.64,10.97-3.9,9.24-13.37,4.72-20.37,2.38-2.91-.57-5.47-2.28-7.39-4.09-.58-.54-1.71-1.73-2.99-1.54-1.03.16-1.65,1.13-1.86,1.44-2.25,3.21-11.74,6.38-16.99,3.32-1.81-1.05-4.08-3.33-7.55-5.42-2.73-1.64-3.31,1.5-3.5,3.56-.06.66-.14,1.75.22,4.27.43,3.02.77,3.17.8,4.19.1,3.81-4.51,4.39-5,7.82-.56,3.94,4.85,6.18,6.15,12.98.74,3.9-3.05,5.35-7.02,4.29-3.86-1.03-14.91-4.12-25.03-18.25-13.12-18.32-14.53-39.64-14.3-51.33,3.61,5.68,8.02,10.14,13.17,10.3,4.46.14,4.64-3.55,10.93-3.85,5.64-.27,11.95.75,17.44.21,1.02-.16,1.99-.5,2.9-.97,7.51-5.48,10.14-5,19.01-5.14,5.93-.35,10.2-6.87,16.33-4.98,1.6.24,3.33.53,4.9.52,2.07-.45,4.26-1.04,4.22-1.56-.02-.31-.78-.29-1.91-.81-1.89-.88-2.14-2.02-4.26-3.66-.79-.61-1.02-.6-2.49-1.55-1.6-1.04-3.08-2.1-5.66-3.94-2.86-2.04-7.27-4.59-13.91-6.64Z"/>
      <path class="u" d="M652.51,314.94c3.01,1.84,4.73-3.3,6.21-2.26.39.27,1.34,5.12,1.24,6.25,3.06-.61.56-3.77.93-4.22.43-.51,1.92,2.02,3.72,2.02.45,0,.67-4.19,2.55-2.18.47.5-1.02,2.72-1,3.61.01.82,2.09.69,2.7,1.58.76,1.1.37,2.66,1.02,3.83,2.67,4.81,6.73-2.13,3.96,5.46-1.87-.9-4.31-4.21-4.18.11-4.48-3.34-10.63-6.29-11.87-12.25-1.84-.49-.43,2.54-1.5,2.13-1.25-.49-2.8-3.04-3.78-4.09Z"/>
      <path class="u" d="M647.11,308.8c3.37-2.99.5,3.65,5.2-1.19l-3.05,3.23c-.53-.52-1.75-1.72-2.15-2.04Z"/>
      <path class="z" d="M619.23,225.14c.77-.67,1.63-1.22,2.64-1.38,1.41-.27,3.12.37,3.99-.15.76-.39,1.07-1.57.33-2.13-.34-.32-1.1-.51-1.35-.69-.16-.12-.06-.32.35-.59.72-.49,2.06-.97,2.94-1.54,1.62-1.08,2.96-2.66,4.96-3.12,4.2-1.18,8.87-2.03,13.3-1.88,1.36-.04,2.78.79,4,.24.78-.43.67-3.14,2.06-2.43.79.44.88,2.85,1.4,2.78.59-.14,1.12-.71,1.73-.9.84-.28,1.78.02,2.64.26,1.92.62,3.76.59,5.01,1.6.81.58,1.45,1.79,2.51,1.86.77.03,1.59-1.58,2.07-1.8.24-.16.52.08.73.31,1.49,2.61,3.83,2.07,6.23,2.48.84.22,1.31.9,1.95,1.41,1.56,1.4,4.11-.05,6.25.58,1.25.22,2.67.79,3.67,1.43.52.41.99-.11,1.29-.48.79-1,2.33-2.34,2.36-3.57-.14-.43-1.05-.34-1.52-.45-1.03-.11-2.02-.9-1.44-1.96.47-.79,1.29-1.47,2.19-1.65,1.09-.23,1.22,1.06,2.11,1.78.39.45,1.32.57,1.42,1.17-.07.3-.15.41-.27.66-.59.96-.53,2.29-.93,3.39-.26.7-.81,1.34-1.24,1.86-.16.19-.28.4-.38.62-.16.45.16.73.52,1.01,2.49,1.15,4.21,3.6,7.02,4.59,1.05.52,3.05.5,2.98,2.01,0,.48-.19,1.09-.08,1.54.11.51.67.4,1.04.22,1.2-.51,2.23-2.04,3.98-2.16,2.3-.24,3.93,1.87,4.59,3.84.44.91.51,2.14,1.57,2.43,1.09.19,2.61-.58,3.83-.09.89.3,1.29,1.45.93,2.26-.39,1.16-2.14.78-2.88,1.67-.91,1.12.8,2.89.09,3.95-.97.27-1.56-1.17-1.86-1.93-.64-2.12-1.09-3.79-3.12-4.3-1.49-.46-3.18-.21-4.81.2-2.46.4-4.46,1.73-5.79,3.85-1.06,1.43-2.55.91-3.48-.26-1.91-2.08-1.56-5.53-2.62-6.81-.1-.12-.22-.22-.33-.28-.79-.35-1.17.58-1.53,1.11-.43.81-.76.86-1.3.36-1.65-1.55-1.65-.28-.71.99,1.32,1.58,2.2,2.17.17,3.62-2.85,2.13.05,1.56.8,3.39.41,1.61-1.52,2.04-2.68,1.99-.3,0-1.08-.1-1.27-.1-.66-.09-1.1.4-1.7.53-.82.25-1.97-1.2-3.14-1.62-.66-.27-1.38-.31-2.09-.42-1.9-.22-3.78-1.41-5.83-1.31-.74-.09-2.77.71-1.36,1.27,1.31.46,3.83-.51,4.23,1.16-.47,1.12-2.73.41-4.82.35-1.04-.11-2.22-.11-3.18-.45-.59-.23-.51-.56-.11-1.02.63-.66,1.59-1.87,1.66-2.94.23-1.08-.88-2.25-1.64-1.09-.62.94-.12,2.33-1.12,2.77-.57.33-1.56.34-2,.77-.25.31.57,1.12.5,1.72-.07.83-.8,1.78.01,2.45.98.72,1.55-.59,2.26-.97.38-.17.88-.04,1.51.38,2.08,1.28,4.29,5.15,6.5,5.26.74-.07.56-1.47.66-2.97.05-1.69,1.08-2.95,2.76-2.51,1.74.24,5.09,1.01,4.68,3.47-.1.22-.29.35-.53.37-1.15.19-3.67-1.87-4.89-1.15-.83.68-.47,2.1-.77,3-.17.63-.76.79-1.37.74-1.85.01-6.9-1.79-7.49.06-.32,1.07.37,3.32-.72,3.9-.08-.01-.15-.07-.22-.18-.74-1.41.31-3.95-.53-5.57-.97-1.53-3.76-3.58-5.25-3.46-1.98.32-2.58,3.23-4.58,3.53-1.79.08-4.43-.16-5.47-1.42-.45-.5-.63-1.19-1.29-1.39-.24-.04-.69.01-.83.06-2.24.95-2.58-2.28-4.51-3.34-2.01-.76.64,4,.19,4.69-.16.37-.46.1-.82-.29-.59-.41-1.36-3.53-2.16-2.69-.61,1.11-.1,2.53.45,3.83.6,1.36,1.05,2.81-1.08,1.36-.97-.55-1.71-1.64-2.7-2.16-1.24-.66-3.07.9-2.1,2.21.53.8,1.26,1.52,1.65,2.45.79,1.77.87,3.8,1.91,4.5.9.7,1.91-.11,2.67-.62,1.05-.62,1.2,2.24.57,2.63-.55.43-1.46.07-2.2-.12-1.54-.5-3.34-1.05-4.22-1.9-1.19-1.39-2.01-3.04-3.28-4.39-1.14-1.35.07-3.47-.66-4.63-.31-.82-3.31-2.2-2.8-.83.38.67,1.08,1.31,1.37,2.07.54,1.23-.3,3.6-.2,5.29.06,1.05.68,1.85.98,2.81.45,1.74.39,2.35,2.23,1.93.43-.05,1.18-.27,1.19.35-1.35,5.48-3.57,4.25-4.91-.69-.64-2.1-.31-3.85-1.59-3.86-.96.1-2.02.13-2.58-.84-.68-1.01-1.35-2.19-1.34-3.48.26-2.02-.96-2.97-2.84-2.29-1.43.53-.21,2.67-.86,3.62-.78,1-2.3-.07-2.59-1.05-.52-1.2.19-3.09-.35-3.9-.32-.12-1.38.98-2.28.41-4-2.72-2.49-11.75-1.7-15.98.67-2.18.64-4.17,1.63-6.03.69-1.14,1.86-2.13,2.87-3.1l.14-.13Z"/>
      <path class="u" d="M585.43,206.56c2.31.45,3.78-1.23,5.91-1.7,3.12-.88,9.57.84,7.82-4.3-.16-.67-.29-1.37-.39-2.05-.16-1.49-1.06-2.92-1.29-4.45-.54-2.33.3-2.34,1.94-1.94,2.07.77,4.39.18,6.48.68,1.51.61.49,2.24,1.13,3.38.64,1.02,2.41,1.93,3.54,1.51.78-.39,1.08-1.43,1.88-1.82,1.2-.47,2.32-.1,3.78-.07,1.77.22,2.79-.05,4.25.16,1.01.41.91,2,1.33,2.92,1.07,2.68,6.2,3.79,8.24,6.18,1.56,1.79-.2,3.49-2.06,4.13-1.8.72-3.74,1.41-5.07,2.84-1.15,1.09-1.14,2.13-1.95,3.7-1.19,2.02-2.64,4.33-2.5,6.82.51,5.43,3.18,4.17-1.17,8.59-1.17,1.25-2.44,3.09-3.86,3.74-1,.49-1.6.36-2.67,1.35-1.39,1.3-2.19,3.37-2.86,5.15-.93,2.61-2.74,4.96-2.8,7.83-.04,2.08.95,1.2,1.75-.39.62-1.27,1.82-1.8,2.42-.29.55,1.73-.32,4.15-1.48,5.65-1.26,1.54-2.21,3.68-1.91,5.28.07,1.15.94,2.07,1.34,3.48.43,1.69.61,3.52-.47,5.07-1.08,1.61-3.49,3.34-3.58,5.32-.24,1.6,1.58,4.08.7,5.31-.33.28-1.06.15-1.93-.42-2.03-1.21-2.95-3.76-4.07-5.66-2.9-3.6-2.52-9.11-2.2-13.96.11-1.52-.5-2.26-.57-3.32.31-3.02-2.5-4.67-5.44-5.77-6.01-1.98-.04,2.18-.2,4.82.07,1.83-3.18,4.15-5.34,4.5-1.76.55-3.98-1.07-3.14-2.57.5-.69,1.44-.83,1.49-1.73.05-.3.1-.63.22-.9.14-.28.2-.36.46-.56.49-.37,1.7-.13,1.44-1.03-.51-1.44-1.2-2.95-1.67-4.45-.44-1.15-.89-2.88-1.63-3.54-.9-.72-2.15.01-3.3.3-2.98,1.21-6.28.77-8.61-1.27-1.51-.6-6.55-9.1-4.2-9.72.89-.11,4.81,4.05,4.81,1.6-.24-1.63-2.65-4.1-3.87-5.71-1.14-1.6-2.3-4.18-2.02-5.95.51-.99,1.82-.52,2.82-.52,2.39.3,3.32-.78,2.55-2.81-.45-1.43-1.68-3.43-1.84-4.78,0-.1,0-.22.19-.36,1.75-.66,3.15-.92,4.66-2.76.53-.64.97-1.38,1.52-2,.49-.57,1.11-1.04,1.77-1.44,1.86-1.03,4.12-2.63,6.31-2.48,1.08.04,2.18.3,3.23.42h.12Z"/>
      <path class="e" d="M519.42,119.4c1.22-.51,2.96-1.15,5.11-1.65,5.74-1.32,11.26-.86,11.32-.26.07.74-7.86,1.84-7.76,2.54,0,.06.08.2,2.59.37,2.65.18,3.57.09,4.93.25.94.11,2,.32,4.15,1.09,4.82,1.72,8.53,3.61,14.48,6.88,1.21.66,3.15,1.7,5.62,2.89-4.61-1.93-8.57-3.07-11.44-3.77-12.01-2.91-19.28-1.49-22.26-2.64-.33-.13-1.7-.71-2.77-.11-.32.18-.53.42-.66.59-10.56-.71-20.8-.87-31.44-.2,1.54-1.82,4.06-2.47,6.2-3.31,7.45-1.92,14.12-3.03,21.93-2.69Z"/>
      <path class="aa" d="M525.15,124.11c1.58-.57,3.39-1.11,5.42-1.54,2.8-.59,5.33-.83,7.47-.89.47.1,1.18.25,2.02.46,4.93,1.22,6,2.48,11.41,4.17,3.84,1.2,7.24,1.76,8.77,4.68.19.37.31.69.38.91-10.18-1.98-20.36-3.96-30.54-5.95-1.33-.06-2.66-.12-4-.18-1.12-.06-2.23-.11-3.34-.17-.86,0-2.1-.06-3.56-.38-1.44-.31-2.98-.84-2.94-1.01.04-.19,2.01.28,4.81.27,1.74,0,3.16-.2,4.11-.37Z"/>
      <path class="n" d="M559.98,135.79c-15.51-.12-28.01-.64-36.98-1.13-8.18-.45-14.59-1.08-16.64-1.11-6.16-.08-13.11-.4-19.03-1.77,3.75-.51,9.13-.31,13.16-.53,6.65-.28,12.42.74,19.08,1.33,2.69.24,4.75.5,8.88.96,13.89,1.57,19.41,2.44,27.98,2.34,1.56-.02,2.82-.06,3.55-.09Z"/>
      <path class="r" d="M523.5,115.1c3.39-.48,10.87-2.81,12.6,1.25,1.09,2.56-6.18,1.63-7.76,1.85-.65.09-1.17.24-1.64.45-.52.23-.87.49-1,.59,0,0-.92.67-3.46,1.84-2.33,1.07-6.18.69-7.63.5,1.03-1.62,2.02-2.47,2.75-2.95.67-.44,1.28-.99,2-1.32,1.56-.72,1.55-1.07-.03-1.05l.7-.87c1.12-.47,2.39-.13,3.46-.29Z"/>
      <path class="j" d="M608.08,299.38c1.63,1.79-.69,11.99-6.02,9.58-.28-1.77,2.61-1.1,3.04-2.8.35-1.36-1.41-3.24-1.12-3.53.52-.52,2.87,1.29,3.16.95.17-.2-2.42-7.91.94-4.21Z"/>
      <path class="al" d="M554.04,138.3c-2.49,1.89-6.18,4.02-10.93,4.34-.03,0-.66.04-1.34.04-6.2-.04-20.84-3.88-27.33-5.65,6.48,1.5,14.73,2.75,24.3,2.63,5.69-.07,10.83-.62,15.3-1.36Z"/>
      <path class="ah" d="M607.62,126.45l-6.19-3.14c-1.46-7.68,7.23,2.07,6.19,3.14Z"/>
      <path class="j" d="M615.61,306.5c-2.5,2.36-5.6-3.46-4.34-6.17,1.38.26,5.07,5.48,4.34,6.17Z"/>
      <path class="u" d="M613.86,241.57c.23,4.09,5.32,2.78,5.34,3.52.04,1.11-3.43.23-4.53.84l-.67.87c-1.58-3.77-.44-2.47-.14-5.24Z"/>
      <path class="j" d="M612.08,330.72c.37.32,2.86-3.69,2.16,3.07-2.6-1.08-5.93-4.43-2.26-6.22.17.84-.13,2.95.1,3.15Z"/>
      <path class="j" d="M619.51,295.92c.6.56-1.2,5.97-3.02,4.26-1.44-1.34.61-6.49,3.02-4.26Z"/>
      <path class="j" d="M601.68,295.37c1.9,2.37-1.74,2.01-3.44,1.13-1.51-.78-.58-2.78-.81-4.17,1.42-.24,1.24,1.4,2.24,2.47.56.6,1.9.43,2.01.57Z"/>
      <path class="j" d="M618.72,305.37c-.9-.2-2.96-1.95-3.19-2.55-1.17-3.02,4.33-1.48,3.19,2.55Z"/>
      <path class="j" d="M638.35,334.19c.18.12,1.2,3.37,1.17,4.16-3.63-.73-4.03-6.16-1.17-4.16Z"/>
      <path class="j" d="M631,333.33c-2.08.32-4.45-1.81-4.29-4.07l4.29,4.07Z"/>
      <path class="u" d="M585.6,203.56l.03,1.05c-2.32-.16-4.59,1.18-4.23-1.45.16-1.19,2.96.15,4.21.4Z"/>
      <path class="u" d="M588.71,202.42c3.21-2.5,2.49,1.66,2.15,2.03-.93,1-2.94-.92-3.16-.96.39-.29.66-.79,1.02-1.08Z"/>
      <path class="j" d="M585.5,277.98l-2.02,3.18c-1.48.91-1.39-3.84-1.13-4.15.22-.28,2.11,1.37,3.15.97Z"/>
      <path class="j" d="M611.99,288.78c-2.78,2.78-2.65-5.84-1.17-4.15.25.28,1.38,3.94,1.17,4.15Z"/>
      <path class="t" d="M637.47,106.78c-3.39.44-3.47.36-3.22-3.05l3.22,3.05Z"/>
      <path class="j" d="M636.46,341.59c1.35,1.06-3.64,2.15-4.21-.94.9-.07,3.77.59,4.21.94Z"/>
      <path class="j" d="M629.78,327.09c1.35,1.06-3.64,2.15-4.21-.94.9-.07,3.77.59,4.21.94Z"/>
      <path class="t" d="M619.67,107.27c.12.11.49,3.08-.43,3.15-3-1.57-1.23-4.69.43-3.15Z"/>
      <path class="d" d="M586.28,151.14c1.17,1.01-1.98,3.49-1.97,3.72.07,1.72,4.47.61,4.24,2.5-4.72.82-5.89-1.12-5.39-5.58.11-1,3.01-.74,3.13-.63Z"/>
      <path class="d" d="M594.73,154.05c2.83,2.46-5.14,3.3-6.24,1.2l6.24-1.2Z"/>
      <path class="d" d="M638.94,161.25c.11.11.19,3.02.08,3.13-1.57,1.64-3.42-2.86-3.22-3.04.12-.1,3.02-.2,3.14-.09Z"/>
      <path class="u" d="M735.21,343.16c.01-.21.14-.36.34-.5.85-.61,3.43-1.75,3.65-2.15.04-.06.04-.12,0-.16-.08-.13-.43-.23-.82-.35-1.67-.45-1.55-1.19.3-1.72,2.4-.72,4.28-.92,6.06.72.83.56,1.92.71,2.27,1.52.26.49.28,1.16.65,1.57.38.42,1.64.36,1.82.83.12.45-.34.87-.76,1.31-1.14,1.14.76,1.23,1.3,1.86.5.94-.57,2.29-.13,3.18.37.24,1.26-1.13,1.92-.78.55.09,1.78,2.53,1.94,1.44-.05-1.34-.88-2.73-1.45-3.87-.41-.79-.64-1.51-.27-1.93.55-.67,1.92-1.05.89-2-.78-.74-3.69-2.78-4.32-3.41-.07-.15.1-.09.25-.09,1.28.2,6.79,1.16,8.85,1.52.29.07.57.15.76.33.5.46-1.05,1.09-1.7,2.26-.42.83-1.29,3.53.05,3.75.91-.11,1.09-1.09,1.05-2.02-.02-.91-.16-1.62.59-1.89,5-1.1,9.35,3.27,12.71,5.53,2.48,1.45,5.55,2.05,8.09,3.4,1.3.55,2.77,2.66.48,2.92-.68.09-1.23.13-1.13.66,1.12,2.76,3.51-.95,5.29-.49,4.19.7,12.82,8.26,17.46,10.85,4.23.97,5.71,2.21,5.71,6.93.04.52.06,1.15.32,1.55.24.27.4-.09.49-.36.45-1.26-.16-3.9.54-4.7.79-.83,1.87-.1,2.93.46,2.74,1.61,5.73,3.77,8.7,5.05,10.42,4.7,19.71,9.2,29.52,13.98,2.54,1.12,5.53,2.04,7.95,3.43.79.43,1.42,1.61,2.02,2.11.49.35.53-.31.59-.72-.06-2.69,2.46-2.3,4.35-2.39.59-.05,1-.48,1.24-1.02.39-1,2.03-3.68.93-4.1-1.74-.25-3.7,1.26-5.35,1.84-1.63.69-2.33.56-4.15.18-2.79-.59-6.06-1.38-8.71-2.22-1.71-.3-.88-2.56-1.53-3.74-.34-.5-.81.87-1.59,1.08-.34.09-.7.01-.88-.04-5.87-2.81-11.51-7.78-18.15-8.44-.51-.08-.83-.01-1.03-.31-.17-.34.83-1.47.97-2.77.11-.81-.12-1.71-.95-2.03-.84-.36-2.31-.26-3.33-.21-.53.02-1.13.2-.92.78.38,1.22-.46,1.38-1.39,1.09-3.41-1.14-5.82-4.49-9.32-5.34-.68-.19-1.49-.26-2-.77-.54-.25-.63-2.89-1.32-1.89-.39.54-.74,1.35-1.58,1.01-.78-.26-1.74-.75-2.82-1.3-3.99-2.1-8.15-4.65-11.99-6.98-5.43-3.3-11.05-7.94-17.19-10.55-1.53-.8-8.18-2.81-7.55-4.66.38-.44,1.29-.87.61-1.49-1.3-1.12-2.73,1.49-4.17.88-1.35-.44-9.56-3.71-8.14-5.79.47-.62,2.35-.66,3.47-.29,1.05.16,1.89,1.51,2.56,1.82.39.03.59-.99.73-1.42.76-3.47,5.19-7.26,7.69-4.36,1.29,1.59.44,6.32,2.8,6.83.92.03,2.25-1.69,1.48-2.6-.46-.45-1.48-.78-1.63-1.43l-.03-.22c.05-.35.22-.54.42-.71.51-.37,1.1-.94,1.59-1.25.85-.49,1.7.18,3.02.18.6.01,1.13-.09,1.5-.08.72,0,.77.53.93,1.15.14.58.33,1.22.7,1.71.9,1.28,2.85.87,4.08,1.45,1.51.7,2.54,2.21,3.3,3.65.45.45.6,3.55,1.27,2.44.4-.56.67-1.4,1.6-1.22,1.49.27,3.81.98,5.07,1.44,1.77.57.54,2.72-.74,3.09-1.65.56-1.14-2.4-2.58-2.41-.6-.03-1.36.54-1.31,1.23.06,1.01,1.1,1.78,1.91,2.33,1.52,1.05,2.95,1.16,4.76.64,1.16-.25,2.61-.76,3.74-.47.65.21.41,1.07.45,2.43-.06,2.12,1.33,5.87,3.94,3.97.67-.41,1.31-.85,1.83-.91,1.8.11,3.77,1.97,5.49,2.81.76.47,1.5.87,2.21,1.35,1.27.82,1.64,2.07,2.47,2.23,2.8.13,6.29.26,8.17,2.69.83.93,1.21,1.84,2.32,2.28,1.76.66,5.99,1.33,8.92,2.61,1.5.56,2.31,1.7,3.48,2.67.62.48,1.56.75,2.03,1.02,1.49.78-3.44,1.22-3.38,1.89-.09.13-.16.32-.13.47,0,.24.38.41.5.42.67.13,1.45-.12,2.15-.04.78.05,1.63.48,2.27.74.61.25,1.25.2,1.84-.1,1.03-.52,2.74-1.6,3.75-2.27,1.25-.7,1.33-2.18,1.93-3.33.8-1.42,1.51-.05,1.74.84.88,2.76,3.41,4.64,5.28,6.66,2.25,2.4,4.1,6.15,6.36,8.34.97,1.02,2.4,1.25,3.75,1.33.46.09.83.07.99.43.04.33-1.13.83-1.04,1.5.07.47.32.81.71,1.22,6.02,5.47,9.06,12.12,14.79,18.36,1.66,2.17,4.24,3.25,5.45,5.66,2.14,6.12-2.04,5.12-6.35,3.75-49.42-15.5-94.72-42.3-139.77-66.1-2.53-1.65-5.38-3.09-7.42-5.2v-.08Z"/>
      <path class="w" d="M737.2,347.25c.44-.64.82-1.12.99-1.06,4.29,1.63,10.31,4.72,14.46,6.93,42.09,24.99,86.61,46.68,133.83,62.79,2.01.2,3.86.38,5.54.53.57,1.56,3.11,3.09,4.24,1.97.58-.57-3.66-2.72-1.69-4.13.94,2.16,5.17,2.46,5.85,2.99.4.32-1.47,1.75-1.69,2.82-.05.22-.37,4.4-.2,4.55.49.42,2.65-1.39,4.16-.7,2.54,1.16,1.67,4.49,2.57,5.51.26.29,3.59.33,1.84,2.3-.26.29-3.27-.7-4.21-.93l-2.67.75c-32.23-11.51-64.42-23.18-96.55-35-24.55-12.68-49-26.8-71.48-40.8.38-.88.13-2.55,1.49-3.18,1.03-.48-.2,2.64,1.61,2.04-.81-4.21,3.48.25,6.29-.17.72-3.47-2.04-1.41-3.1-2.09-.22-.14.08-4.03-1.28-5.13Z"/>
      <path class="c" d="M732.19,355.77l25.29,13.69c14.9,7.23,28.93,18.05,44.7,24.97,14.08,6.18,30.53,10.5,45.88,16.19,18.5,6.85,35.58,15.38,54.83,20.2l1.13,3.11c-13.39-2.82-25.39-8.71-37.83-13.37-18.63-6.97-39.37-12.65-58.09-20.54-21.21-8.94-43.99-24.22-64.01-35.82-4.69-2.72-7.05-2.99-11.25-7.02-.55-.52-1.52-.33-1.61-.43-.55-.58.93-.92.96-.99Z"/>
      <path class="i" d="M734.99,343.11c28.38,13.17,57.28,32.39,84.76,44.8,22.56,10.19,45.85,18.99,69.1,27.57.9.04,2.95-1.3,3.1-1.14.25.25-.14,1.54.06,2.1-2.6,1.16-4.95,1.18-7.6.12-3.44-1.37-7.93-2.74-12.4-4.32-19.53-6.92-39.64-16.31-58.13-25.02-4.85-2.29-23.35-12.26-26.38-12.69-.84-.12-2.35.89-2.41.78-.3-.54.57-2.25-.75-3.22-2.53-1.86-8.35-3.3-11.2-4.95-6.98-4.05-15.93-11.36-23.52-14.17-.81-.3-3.6-1.25-3.92-.72-.45.76,1.1,3.43-.96,3.18,1.33-6-2.97-5.71-7.56-8.18-2.53-1.36-5.42-2.43-7.45-4.53-.97-2.84,4.59.1,5.24.4Z"/>
      <path class="ah" d="M749.03,242.12c1.96,2.26,6.26,1.73,8.44,3.47,1.34,1.07,8.94,8.86,9.78,10.14,1.35,2.04,1.29,4.91,3.28,6.77-4.99-3.44-3.28-4.33-5.46-7.19-.09-.12-1.31.99-1.83.8-1.22-.44-5-7.39-6.2-7.92-.84-.37.12,1.46-1.51,2.13-.24-.85.21-2.74-.1-3.14-.05-.06-.96.65-1.49.47-5.24-1.84-12.07-.31-4.92-5.54Z"/>
      <path class="y" d="M517.28,115.73c.94-.2,1.69-.35,2.74-.5,1.87-.26,2.39-.16,4.28-.37,2.25-.25,3.77-.64,3.78-.59.01.05-1.83.39-3.94,1.07-2.06.66-3.68,1.41-4.78,1.97l.06,2.09c4.85-1.43,6.15-1.44,6.3-1.1.27.62-3.02,3.23-6.98,3.9-2.93.49-4.99-.28-7.1-.77-3.2-.73-7.86-1.09-14.15.66,2.86-1.16,5.95-2.29,12.44-4.37,2.96-.94,4.85-1.47,7.35-1.99Z"/>
      <path class="s" d="M519.34,116.26c2.3-.05,3.37.24,3.37.53,0,.26-2.41.45-3.34.52-1.09.08-2,.11-2.61.11-1.51-.13-2.27-.3-2.27-.49,0-.17.56-.37,1.71-.58.73-.07,1.82-.05,3.14-.08Z"/>
      <path class="j" d="M722.81,358.11c-.21.26-5.51-2.49-4.28-4.08.2-.25,5.65,2.39,4.28,4.08Z"/>
      <path class="u" d="M664.92,309.37c.18.13,1.2,3.37,1.17,4.16l-3.22-3.59c-.16-.88,1.9-.68,2.06-.57Z"/>
      <path class="u" d="M727.89,274.14c1.63,1.57-1.39,3.51-3.12.6.02-.93,3-.71,3.12-.6Z"/>
      <path class="u" d="M751.45,332.19c1.63,1.57-1.39,3.51-3.12.6.02-.93,3-.71,3.12-.6Z"/>
      <path class="ah" d="M679.31,220.94c3.29-4.34,5.3-2.72,8.4.82-.07.14,1.31,1.31.07,3.14l-1.1-2.06-3.06,2.18c.03-2.16-2.47-3.4-4.32-4.08Z"/>
      <path class="ah" d="M676.95,211.59c.65,4.62,8.24-1.03,1.78,7.25-3.89-2.37.9-2.11.45-2.61-1.22-1.36-7.86-4.21-2.23-4.64Z"/>
      <path class="z" d="M664.41,251.74c.18.12,1.39,3.92,1.17,4.15-.11.11-3.04.21-3.14.09-.2-.24-.34-5.87,1.97-4.24Z"/>
      <path class="x" d="M678.69,275.45c-1.88.39-3.47-1.32-4.27-3.01,1.88-.39,3.47,1.32,4.27,3.01Z"/>
      <path class="x" d="M660.51,301.1c-1.61,1.59-3.42-2.86-3.22-3.04,1.22-1.12,4.21,2.06,3.22,3.04Z"/>
      <path class="x" d="M666.32,321.9c-1.97,1.73-5.29-1.34-1.65-3.09.21-.1,1.78,2.97,1.65,3.09Z"/>
      <path class="u" d="M699.63,236.13c.13.1-.85,3.05-.97,3.16-1.8,1.69-2.39-2.81-4.23-2-.38-1.73,4.99-1.33,5.2-1.16Z"/>
      <path class="d" d="M601.91,264.96c-.12.25-4.11-1.13-2.99-3.57.47-1.03,2.69-1.4,3.36-2.72l-.37,6.29Z"/>
      <path class="ah" d="M604.36,199.91c.21.2,1.01,5.01-1.44,4.22-2.81-.91-.26-5.81,1.44-4.22Z"/>
      <path class="d" d="M605.83,254.36c-1.15.97-4.82-.26-3.19-2,.84-.9,3.77,1.51,3.19,2Z"/>
      <path class="am" d="M797.72,299.51c1.58,1.53-.91,6.53-3.03,4.27-.15-.16.63-1.14.59-1.78-.05-1-.79-2.31-.71-2.4.1-.12,3.03-.2,3.14-.09Z"/>
      <g>
        <circle class="b" cx="587.73" cy="126.69" r="12.63"/>
        <circle class="ac" cx="587.28" cy="126.7" r="10.59"/>
        <circle class="ad" cx="587.71" cy="126.05" r="8.87"/>
        <ellipse class="g" cx="587.54" cy="119.61" rx="3.41" ry="2.43" transform="translate(-3.01 15.86) rotate(-1.54)"/>
      </g>
    </g>
  </g>
  <g>
    <path class="v" d="M796.65,194.76c30.16,6.92,54.21,29.95,58.89,61.06,3.08-1.73,1.26-6.39,1.66-9.47,1.22-9.4,3.94-17.58,10.1-24.91,1.37-1.63,12.97-12.21,13.9-12.44,2.46-.61,5.23,4.13,6.42,5.99,5.25,8.15,9.46,18.52,12.07,27.85-5.04,4.32-10.08,14.28-10.08,20.95,0,3.99,3.3,14.15,5.66,17.3-4.48,10.29-13.76,16.74-24.95,17.92-.67-.85-1.55-1.36-1.86-1.77-20.06-25.63-39-53.37-58.63-79.51-5.54-7.37-11.36-15.45-17.68-21.94l-.02-.91,4.54-.12Z"/>
    <path class="aj" d="M1790.12,570.15c-160.33,5.36-325.35,15.64-485.57,13.99-7.21-.07-14.46.8-21.68.47-34.14-44.72-66.18-91.23-103.68-133.26-2.45-4.87,8.61-14.01,12.07-16.89,1.14-.95,2.77-1.22,3.34-1.67.57-.44,1.13-2.1,1.74-2.77-1.59-2.5-2.95-2.8-5.5-1.67-1.58.7-3.57,2.56-4.92,3.74l-11.37,13c-14.32-15.08-28.48-30.25-43.94-44.19-3.28-15.73,5-28.06,12.98-40.28.48-.74.4-3.05.81-3.65-1.57-2.36-4.23-1.41-6.4-1.64-8.24,11.19-12.49,23.25-13.56,37.12-.1,1.33.87,2.63-1.26,2.31-4.65-4.1-9.49-8.13-14.5-11.76-57.84-41.93-109.38-55.01-180.77-52.01-4.48.19-8.72,1.81-13.57,1.34-5.02-.49-24.67-10.6-26.71-14.76-3.94-8.04,11.49-22.14,16.99-26.76,1.64-1.38,1.61-2.67,1.74-2.77-.56-2.54-3.73-1.29-4.59-1.69-7.69,6.03-12.44,12.16-16.56,21-1.29,2.76-1.17,7.64-4.03,4.91-3.94-3.76-7.48-8.99-10.86-13.27-.67-.85-1.55-1.36-1.86-1.77-5.71-.29-4.24,4.88-5.25,7.4,8.91,13.32,22.2,22.17,35.35,30.81-10.89,2.45-21.92,4.91-32.47,8.61-26.59,9.32-25.46,14.34-56.11,8.32-.8-.16-1.94.23-2.72.07-.87,2.95,1.48,5.17,2.01,7.21,9.86,2.26,19.98,1.18,30.01,1.01-.18,10.87-5.99,22.93-15.59,28.56.08.9.01,1.82.07,2.72.14.05.51,1.65,2.33,1.78,1.26.09,2.94-1.05,3.15-1.02,3.22-2.77,5.8-8.84,8.78-11.13,2.1-7.65,5.85-14.55,5.87-22.73,16.26-4.15,32.75-7.83,49.61-8.72,1.66,14.46-4.21,25.52-10.8,37.52-.51.93-.53,2.2-.83,2.75,2.98,2.82,5.4.73,7.29.71,2.32-5.56,5.44-10.77,7.24-16.57.62-2,2.95-10.02,2.91-11.39l-.35-13.15c2.96.18,5.64-1.17,8.59-1.22,47.16-.73,94.35,9.22,136.35,30.75l32.59,18.34c-.09-3.28.19-6.87,1.1-10.01.42-1.44,5.91-13.27,6.51-13.74,3.2-2.44,16.3,11.76,18.46,14.44,8.69,10.77,13.51,23.48,9.21,37.4,6.75,6.57,15.85,13.24,21.91,20.28.69.8,4.05,4.68,3.31,5.37-10.84.24-20.44-3.33-29.9-8.11-2.4-1.21-4.92-3.51-6.78-4.51-.84-.45-2.63-.41-3.66-.81-.01,1.7-.5,5.27-.71,7.28,11.69,6.69,23.59,10.62,37.12,11.7,3.22.26,8.52-1.13,10.97.56,19.13,22.64,37.3,46.1,54.8,70.03,11.8,16.14,27.44,36.1,37.39,52.94.67,1.13,1.82,1.95,1.54,3.49-100.43-4.16-201.07-14.99-298.34-40.33-23.57-6.14-46.72-13.38-69.6-21.33-26.07-9.97-52.13-19.93-78.2-29.9,6.74,11.9,35.33,60.66,74.24,81.49,35.94,19.24,59.18,23.6,59.18,23.6,5.27.99,15.04,2.51,14.99,4.34-.09,3.44-35.1,4.04-35.16,7.22-.05,2.59,22.96,9.66,46.26,10.9,4.89.26,13.89.48,20.2,6.8,3.26,3.26,4.74,7.09,5.48,9.77,11.66-.3,28.32-.59,48.37-.48,14.12.07,29.47-1.05,43.43.84,30.71,4.17,63.14,12.29,94.54,16.91,192.83,28.35,395.05,41.67,589.86,54.3,36.48,2.37,73.03,4.48,109.53,6.04l40.62-148.07c-37.55,2.78-75.36,2.65-113.04,3.91Z"/>
    <path class="p" d="M1198.71,281.98c.02,1.72-.89,2.77-1.73,4.11-15.41,24.58-36.5,47.5-52.58,70.9-1.57-2.36-4.23-1.41-6.4-1.64-18.26-2-29.05-21.08-27.15-38.53.56-5.16,6.2-22.07,12.26-21.91,5.11.13,15.31,10.41,18.03,14.67l6.93,15.53c3.69-17.44,15.35-35.12,32.96-40.84,3.84-1.25,14.44-4.1,17.67-2.28Z"/>
    <path class="v" d="M1198.71,281.98c2.86,1.62,2.29,8.93,2.13,12.18-.73,14.63-7.78,28.42-18.51,38.17l-10.22,7.55c8.65-1.88,14.21-3.21,22.95-.4,2.26.73,13.11,6.14,14.08,7.58,1.86,2.74-6.17,10.49-8.33,12.5-6.07,5.66-16.27,12.73-24.63,13.81-13.11,1.69-26.26.24-32.58-12.73.48-.74.4-3.05.81-3.65,16.08-23.4,37.16-46.31,52.58-70.9.84-1.34,1.75-2.39,1.73-4.11Z"/>
    <path class="p" d="M1190.85,428.36c-13.3-11.04-14.87-30.92-1.62-42.65,4.57-4.04,6.42-5.82,10.86-.21.85,1.08,5.31,9.5,5.33,10.24l.35,13.15c9.12-11.74,20.23-21.27,36.16-19.94,2.52.21,9.05,1.5,9.75,4.18l-55.33,36.9c-1.59-2.5-2.95-2.8-5.5-1.67Z"/>
    <path class="p" d="M899.69,242.82c5.8-4.97,7.72-2.2,11.37,3.4,4.42,6.78,4.99,12.7,4.73,20.67l9.26-11.11c7.63-6.56,16.68-10.49,26.96-9.82,2.18.14,9.09,1.27,9.64,3.36-17.61,12.47-35.56,24.91-52.68,38.12-.86.66-2.4.42-2.61.59-.56-2.54-3.73-1.29-4.59-1.69-.38-.18-6.25-4.94-6.5-5.27-2.36-3.15-5.67-13.31-5.66-17.3,0-6.67,5.05-16.63,10.08-20.95Z"/>
    <path class="v" d="M961.64,249.33c1.06,4.05-5.71,16.43-8.53,19.77-5.29,6.26-14.35,11.27-22.38,12.85l10.33,2.62c3.18.72,11.92,8.53,12.65,11,1.29,4.33-14.22,9.56-17.75,10.33-13.42,2.92-26.86-1.09-31.34-15.09,1.64-1.38,1.61-2.67,1.74-2.77.21-.16,1.75.07,2.61-.59,17.11-13.22,35.06-25.66,52.68-38.12Z"/>
    <path class="v" d="M1251.67,393.13c2.86,10.94-18.59,31.29-30.06,30.78-.15,2.41,0,1.48,1.41,1.75,5.13,1.01,8.64,1.56,12.88,5.09,1.76,1.46,7.63,7.84,6.66,9.83-1.31,2.69-15.05,7.64-18.42,8.26-12.17,2.26-27.33-2.6-29.55-16.05.57-.44,1.13-2.1,1.74-2.77l55.33-36.9Z"/>
    <path class="p" d="M868.45,297.23c-5.71-.29-4.24,4.88-5.25,7.4-6.34,15.8-31.28,26-47.53,23.07-3.98-14.27-21.67-27.01-35.35-30.82,12.66-13.3,31.44-18.75,49.53-15.87l-16.18-11.38c-21.34-18.38-32.23-46.53-21.54-73.84,6.32,6.48,12.15,14.57,17.68,21.94,19.64,26.14,38.58,53.87,58.63,79.51Z"/>
    <path class="p" d="M1021.66,386.62c.05,1.95,1.15,2.45,2.51,3.42,23.29,16.5,48.51,30.66,72.24,46.52.39.49.22,1.05.22,1.61-.01,1.7-.5,5.27-.71,7.28-.77,7.43-1.95,10.88-7.24,16.57-11.4,12.27-28.22,15.06-43.59,8.57-10.83-4.57-10.64-8.44-3.94-17.33,4.81-6.38,11.2-11.27,18.66-14.15,2.31-.89,6.62-.17,5.88-2.84-20.85-2.91-40.31-16.35-45.13-37.78-.49-2.18-2.07-10.27-.73-11.43.5-.43,1.27-.28,1.82-.45Z"/>
    <path class="p" d="M889.15,391.09c15.16-.12,29.51,18.89,29.96,33.24.16,5.2-3.66,25.14-9.79,26.17-8.66,1.45-21.76-14.82-25.06-22.07-.43-.94-1.76-8.32-3.36-6.25-1.96,18.26-12.34,36.54-29.73,43.91-3.76,1.59-13.48,4.69-17.15,3.66,3.17-7.37,7.65-14.26,11.77-21.12,11.69-19.45,24.93-38.57,36.06-58.24,2.98,2.82,5.4.73,7.29.71Z"/>
    <path class="p" d="M807.25,352.44c-.87,2.95,1.48,5.17,2.01,7.21,1.8,6.91.5,10.51-.44,17.26-10.42-1.97-21.34,2.1-29.26,8.98-9.07,7.88,2.05,5.83,4.43,13.48-4.58,1.58-23.88,2.94-25.37-2.66-.28-1.04.82-6.75,1.19-8.3,1.92-8.2,6.72-15.75,12.85-21.43l5.79-4.67c-21.84,3.33-44.85-1.62-57.05-21.47-1.43-2.32-3.69-6.05-3.71-8.68,6.47.47,12.88,2.15,19.18,3.56,23.44,5.27,46.92,11.93,70.39,16.72Z"/>
    <path class="v" d="M780.32,296.88c13.68,3.81,31.37,16.55,35.35,30.82,2.14,7.66,2.78,20.67-5.69,24.67-.8-.16-1.94.23-2.72.07-23.48-4.79-46.96-11.45-70.39-16.72-6.3-1.42-12.71-3.09-19.18-3.56-.02-2.45,6.48-5.01,9.12-5.95,19.12-6.79,36.28-3.75,53.14,6.98-1.81-5.17-5.99-9.4-7.01-14.99-1.32-7.22-.25-14.95,1.01-22.06,1.81.45,4.82.31,6.38.74Z"/>
    <path class="v" d="M1111.75,425.95c-2.03,6.58-5.71,9.69-11.46,13.02-.84-.45-2.63-.41-3.66-.81,0-.56.17-1.12-.22-1.61-23.74-15.85-48.95-30.02-72.24-46.52-1.36-.96-2.46-1.46-2.51-3.42,18.97-5.8,45.89,6.8,55.16,23.93,1.51.21.92-2.23.85-3.23-.22-3.28-1.11-6.02-1.21-9.47s.19-6.87,1.1-10.01c.42-1.44,5.91-13.27,6.51-13.74,3.2-2.44,16.3,11.76,18.46,14.44,8.69,10.77,13.51,23.48,9.21,37.4Z"/>
    <path class="v" d="M882.69,387.64c-.51.93-.53,2.2-.83,2.75-11.12,19.68-24.37,38.8-36.06,58.24-4.12,6.86-8.6,13.75-11.77,21.12-5-1.41-2.2-26.16.08-30.87,2.97-6.15,6.92-7.82,8.64-16.57l12.39-12.13-12.66,2.15c-1.16-5.84-2.16-8.89-6.26-13.46-.82-.92-6.53-6.08-6.99-6.16,3.22-2.77,5.8-8.84,8.78-11.13,11.09-8.51,38.56-9.81,44.68,6.06Z"/>
    <path class="p" d="M823.76,391.95c.14.05.51,1.65,2.33,1.78,1.26.09,2.94-1.05,3.15-1.02.46.07,6.16,5.24,6.99,6.16,4.1,4.57,5.1,7.62,6.26,13.46.96,4.84,1.28,4.86.27,9.98-1.72,8.75-5.66,10.43-8.64,16.57-4.28,1.13-8.66-3.5-10.93-6.66-3.8-5.29-5.74-11.81-5.19-18.32-3.55,4.25-5.45,9.66-9.15,13.87-8.8,10.02-21.59,14.09-34.67,11.81-.08-.6,0-1.21-.05-1.81,2.97-1.48,6.51-4.73,8.91-7.04,11.05-10.66,21.49-22.2,32.71-32.68,1.26-1.18,7.03-6.45,8.02-6.1Z"/>
    <path class="v" d="M808.82,376.91c6.45,1.22,14.21,5,14.87,12.31.08.9.01,1.82.07,2.72-.99-.34-6.76,4.92-8.02,6.1-11.21,10.48-21.65,22.03-32.71,32.68-2.4,2.31-5.94,5.56-8.91,7.04-1.05-14.64,12.32-31.96,26.27-36.13l-16.41-2.27c-2.38-7.64-13.5-5.59-4.43-13.48,7.92-6.88,18.84-10.95,29.26-8.98Z"/>
  </g>
</svg>